<?xml version="1.0" encoding="UTF-8"?>
<!DOCTYPE svg PUBLIC "-//W3C//DTD SVG 1.1//EN" "http://www.w3.org/Graphics/SVG/1.1/DTD/svg11.dtd">
<!-- Creator: CorelDRAW -->
<svg xmlns="http://www.w3.org/2000/svg" xml:space="preserve" width="2394.67mm" height="106.195mm" version="1.1" style="shape-rendering:geometricPrecision; text-rendering:geometricPrecision; image-rendering:optimizeQuality; fill-rule:evenodd; clip-rule:evenodd"
viewBox="0 0 239481.28 10620.13"
 xmlns:xlink="http://www.w3.org/1999/xlink"
 xmlns:xodm="http://www.corel.com/coreldraw/odm/2003">
 <defs>
  <style type="text/css">
   <![CDATA[
    .fil0 {fill:#0F0F0F}
    .fil1 {fill:white;fill-rule:nonzero}
   ]]>
  </style>
 </defs>
 <g id="Camada_x0020_1">
  <metadata id="CorelCorpID_0Corel-Layer"/>
  <rect class="fil0" x="-0.06" y="-0" width="239481.28" height="10620.13"/>
  <g id="_2343797579760">
   <path class="fil1" d="M44698.22 4146.26l837.37 0c210.05,0 396.45,41.63 559.19,124.9 162.75,83.26 289.07,200.12 378.95,350.56 89.89,150.45 134.84,323.13 134.84,518.04 0,194.91 -44.95,367.59 -134.84,518.04 -89.89,150.44 -216.2,267.3 -378.95,350.56 -162.74,83.26 -349.14,124.9 -559.19,124.9l-837.37 0 0 -1987zm820.34 1740.04c160.85,0 302.31,-31.22 424.37,-93.68 122.06,-62.44 216.2,-149.97 282.44,-262.57 66.23,-112.6 99.36,-242.69 99.36,-390.3 0,-147.61 -33.12,-277.71 -99.36,-390.3 -66.23,-112.6 -160.38,-200.12 -282.44,-262.57 -122.06,-62.45 -263.52,-93.68 -424.37,-93.68l-536.49 0 0 1493.09 536.49 0zm2144.57 269.67c-264.94,0 -471.21,-75.69 -618.81,-227.08 -147.6,-151.4 -221.4,-369.02 -221.4,-652.88l0 -1129.75 283.85 0 0 1118.4c0,425.79 186.4,638.68 559.2,638.68 181.66,0 320.76,-52.51 417.26,-157.54 96.52,-105.03 144.77,-265.41 144.77,-481.14l0 -1118.4 275.34 0 0 1129.75c0,285.76 -73.79,503.85 -221.4,654.29 -147.61,150.45 -353.87,225.67 -618.81,225.67zm2928 -2009.71l0 1987 -232.76 0 -1192.2 -1481.73 0 1481.73 -283.85 0 0 -1987 232.75 0 1192.2 1481.73 0 -1481.73 283.86 0zm1659.17 1490.25l-1055.95 0 -218.55 496.75 -292.38 0 899.81 -1987 281.03 0 902.66 1987 -298.05 0 -218.57 -496.75zm-99.36 -227.08l-428.62 -973.63 -428.63 973.63 857.24 0zm1863.55 723.83l-596.11 -820.35 -587.56 820.35 -326.44 0 746.53 -1019.05 -701.12 -967.95 323.6 0 556.35 763.58 550.68 -763.58 309.4 0 -701.12 959.44 752.21 1027.56 -326.43 0zm1222.03 -1987l283.85 0 0 1740.04 1075.82 0 0 246.95 -1359.67 0 0 -1987zm2272.29 2009.71c-264.93,0 -471.2,-75.69 -618.8,-227.08 -147.61,-151.4 -221.41,-369.02 -221.41,-652.88l0 -1129.75 283.86 0 0 1118.4c0,425.79 186.4,638.68 559.19,638.68 181.66,0 320.76,-52.51 417.26,-157.54 96.52,-105.03 144.77,-265.41 144.77,-481.14l0 -1118.4 275.34 0 0 1129.75c0,285.76 -73.79,503.85 -221.4,654.29 -147.61,150.45 -353.87,225.67 -618.81,225.67zm2556.15 -1053.11c115.44,32.17 206.27,90.37 272.5,174.57 66.23,84.21 99.36,190.66 99.36,319.34 0,172.21 -64.81,304.68 -194.44,397.4 -129.63,92.73 -318.4,139.09 -566.29,139.09l-948.08 0 0 -1987 891.3 0c227.08,0 402.6,45.41 526.55,136.25 123.96,90.84 185.93,216.68 185.93,377.53 0,104.09 -24.13,193.97 -72.38,269.67 -48.25,75.69 -113.07,133.41 -194.44,173.15zm-1053.1 -726.67l0 635.84 581.89 0c145.72,0 257.85,-26.96 336.37,-80.89 78.53,-53.93 117.81,-132.94 117.81,-237.02 0,-104.08 -39.27,-183.09 -117.81,-237.02 -78.52,-53.92 -190.65,-80.89 -336.37,-80.89l-581.89 0zm652.86 1527.15c160.86,0 281.97,-26.49 363.34,-79.48 81.37,-52.98 122.06,-136.25 122.06,-249.78 0,-221.41 -161.8,-332.12 -485.4,-332.12l-652.86 0 0 661.39 652.86 0zm2337.59 229.92l-428.62 -610.3c-52.98,3.79 -94.62,5.68 -124.89,5.68l-491.08 0 0 604.62 -283.86 0 0 -1987 774.94 0c257.35,0 459.84,61.5 607.44,184.51 147.61,123 221.41,292.37 221.41,508.1 0,153.28 -37.85,283.86 -113.55,391.72 -75.69,107.87 -183.56,186.4 -323.6,235.6l471.21 667.06 -309.41 0zm-562.02 -845.89c179.78,0 316.96,-38.79 411.58,-116.39 94.62,-77.58 141.93,-188.29 141.93,-332.11 0,-143.82 -47.31,-254.06 -141.93,-330.69 -94.63,-76.64 -231.8,-114.97 -411.58,-114.97l-482.56 0 0 894.15 482.56 0zm1094.29 -1141.11l283.86 0 0 1987 -283.86 0 0 -1987zm960.89 246.95l0 692.61 996.33 0 0 244.11 -996.33 0 0 803.32 -283.86 0 0 -1987 1402.24 0 0 246.95 -1118.39 0zm1315.7 -246.95l283.86 0 0 1987 -283.86 0 0 -1987zm1565.49 2009.71c-198.7,0 -378,-44 -537.91,-132 -159.89,-88 -285.26,-209.1 -376.09,-363.33 -90.84,-154.23 -136.26,-327.86 -136.26,-520.88 0,-193.02 45.42,-366.65 136.26,-520.88 90.84,-154.23 216.67,-275.34 377.51,-363.33 160.86,-88 340.63,-132 539.33,-132 155.18,0 297.11,26.02 425.79,78.06 128.68,52.04 238.44,129.16 329.27,231.34l-184.5 178.83c-149.5,-157.07 -335.9,-235.6 -559.2,-235.6 -147.6,0 -281.02,33.12 -400.23,99.35 -119.22,66.23 -212.41,157.55 -279.59,273.93 -67.18,116.38 -100.78,246.48 -100.78,390.3 0,143.82 33.59,273.93 100.78,390.3 67.17,116.38 160.37,207.69 279.59,273.93 119.22,66.22 252.63,99.35 400.23,99.35 221.41,0 407.81,-79.48 559.2,-238.44l184.5 178.83c-90.83,102.2 -201.06,179.78 -330.69,232.76 -129.63,52.99 -272.03,79.48 -427.21,79.48zm2178.63 -519.46l-1055.94 0 -218.56 496.75 -292.38 0 899.82 -1987 281.02 0 902.66 1987 -298.05 0 -218.57 -496.75zm-99.36 -227.08l-428.62 -973.63 -428.62 973.63 857.23 0zm2417.07 -1263.16l0 1987 -232.76 0 -1192.19 -1481.73 0 1481.73 -283.86 0 0 -1987 232.76 0 1192.19 1481.73 0 -1481.73 283.86 0zm787.74 246.95l-681.26 0 0 -246.95 1643.53 0 0 246.95 -681.25 0 0 1740.04 -281.02 0 0 -1740.04zm2510.74 1493.09l0 246.95 -1442 0 0 -1987 1402.25 0 0 246.95 -1118.4 0 0 610.3 996.34 0 0 241.27 -996.34 0 0 641.52 1158.14 0zm835.99 269.67c-149.5,0 -293.8,-23.18 -432.89,-69.54 -139.09,-46.36 -248.37,-106.45 -327.86,-180.25l105.04 -221.41c75.69,68.12 172.67,123.48 290.95,166.06 118.28,42.58 239.86,63.86 364.76,63.86 164.63,0 287.64,-27.91 369.01,-83.73 81.37,-55.82 122.06,-130.1 122.06,-222.82 0,-68.13 -22.24,-123.48 -66.7,-166.06 -44.47,-42.58 -99.36,-75.22 -164.64,-97.94 -65.28,-22.7 -157.54,-48.25 -276.76,-76.63 -149.5,-35.96 -270.15,-71.91 -361.92,-107.87 -91.79,-35.95 -170.31,-91.31 -235.6,-166.06 -65.28,-74.74 -97.93,-175.52 -97.93,-302.31 0,-105.97 27.91,-201.53 83.73,-286.7 55.82,-85.16 140.51,-153.28 254.06,-204.37 113.54,-51.09 254.53,-76.64 422.95,-76.64 117.33,0 232.76,15.14 346.3,45.42 113.55,30.27 211,73.8 292.38,130.57l-93.68 227.09c-83.26,-52.99 -172.21,-93.21 -266.83,-120.65 -94.62,-27.43 -187.34,-41.15 -278.18,-41.15 -160.85,0 -281.5,29.33 -361.92,88 -80.42,58.66 -120.64,134.36 -120.64,227.08 0,68.12 22.71,123.48 68.12,166.06 45.42,42.57 101.72,75.69 168.9,99.35 67.17,23.65 158.48,48.73 273.92,75.22 149.5,35.95 269.67,71.9 360.5,107.87 90.84,35.95 168.89,90.84 234.18,164.63 65.28,73.8 97.93,173.16 97.93,298.06 0,104.08 -28.38,199.17 -85.16,285.27 -56.77,86.11 -142.88,154.23 -258.31,204.38 -115.44,50.14 -257.37,75.22 -425.79,75.22zm1744.32 -2009.71l283.86 0 0 1740.04 1075.82 0 0 246.95 -1359.68 0 0 -1987zm1693.23 246.95l-681.25 0 0 -246.95 1643.53 0 0 246.95 -681.26 0 0 1740.04 -281.02 0 0 -1740.04zm1068.75 -246.95l837.38 0c210.04,0 396.44,41.63 559.18,124.9 162.75,83.26 289.07,200.12 378.95,350.56 89.89,150.45 134.84,323.13 134.84,518.04 0,194.91 -44.95,367.59 -134.84,518.04 -89.89,150.44 -216.2,267.3 -378.95,350.56 -162.74,83.26 -349.14,124.9 -559.18,124.9l-837.38 0 0 -1987zm820.35 1740.04c160.85,0 302.3,-31.22 424.36,-93.68 122.06,-62.44 216.2,-149.97 282.44,-262.57 66.23,-112.6 99.36,-242.69 99.36,-390.3 0,-147.61 -33.12,-277.71 -99.36,-390.3 -66.23,-112.6 -160.38,-200.12 -282.44,-262.57 -122.06,-62.45 -263.51,-93.68 -424.36,-93.68l-536.49 0 0 1493.09 536.49 0zm2558.98 -249.79l-1055.94 0 -218.56 496.75 -292.38 0 899.82 -1987 281.03 0 902.65 1987 -298.05 0 -218.57 -496.75zm-99.36 -227.08l-428.61 -973.63 -428.63 973.63 857.23 0zm827.49 740.86c-52.99,0 -98.41,-18.45 -136.26,-55.35 -37.84,-36.9 -56.76,-83.73 -56.76,-140.51 0,-54.87 18.92,-100.77 56.76,-137.67 37.85,-36.9 83.26,-55.35 136.26,-55.35 52.98,0 97.46,17.98 133.41,53.93 35.96,35.95 53.93,82.31 53.93,139.09 0,56.77 -18.45,103.61 -55.35,140.51 -36.9,36.9 -80.89,55.35 -131.99,55.35zm2888.27 -2004.03l0 1987 -232.76 0 -1192.2 -1481.73 0 1481.73 -283.86 0 0 -1987 232.76 0 1192.2 1481.73 0 -1481.73 283.86 0zm1755.67 482.56l0 1504.44 -258.31 0 0 -227.08c-54.88,77.58 -127.27,137.67 -217.15,180.25 -89.89,42.57 -187.82,63.86 -293.79,63.86 -200.59,0 -358.61,-55.35 -474.05,-166.06 -115.43,-110.7 -173.15,-273.92 -173.15,-489.65l0 -865.76 272.51 0 0 834.54c0,145.71 35.01,255.95 105.03,330.69 70.01,74.75 170.31,112.13 300.89,112.13 143.82,0 257.37,-43.52 340.63,-130.58 83.26,-87.05 124.9,-210.05 124.9,-369.01l0 -777.77 272.5 0zm-533.65 -587.58l346.31 0 -476.88 369.01 -255.48 0 386.04 -369.01zm1505.89 2109.05c-153.28,0 -290.01,-33.11 -410.15,-99.35 -120.17,-66.23 -214.31,-157.54 -282.44,-273.93 -68.13,-116.38 -102.2,-248.37 -102.2,-395.98 0,-147.6 34.06,-279.6 102.2,-395.97 68.12,-116.39 162.27,-207.22 282.44,-272.51 120.15,-65.28 256.88,-97.93 410.15,-97.93 136.26,0 257.85,27.43 364.76,82.31 106.92,54.88 189.71,134.36 248.37,238.44l-207.21 133.41c-47.31,-71.91 -105.98,-125.85 -175.99,-161.8 -70.02,-35.95 -147.61,-53.93 -232.76,-53.93 -98.41,0 -186.87,21.76 -265.41,65.28 -78.52,43.53 -140.03,105.51 -184.5,185.93 -44.47,80.42 -66.7,172.68 -66.7,276.76 0,105.98 22.23,199.18 66.7,279.61 44.47,80.42 105.98,142.4 184.5,185.92 78.53,43.52 167,65.28 265.41,65.28 85.16,0 162.74,-17.97 232.76,-53.92 70.01,-35.96 128.68,-89.9 175.99,-161.8l207.21 130.57c-58.66,104.09 -141.46,184.04 -248.37,239.86 -106.92,55.82 -228.5,83.73 -364.76,83.73zm742.32 -2123.25l272.51 0 0 2106.21 -272.51 0 0 -2106.21zm1948.71 1362.51c0,20.81 -1.89,48.25 -5.68,82.31l-1220.57 0c17.03,132.47 75.22,238.91 174.57,319.34 99.35,80.42 222.82,120.64 370.42,120.64 179.78,0 324.55,-60.55 434.31,-181.66l150.44 175.99c-68.12,79.47 -152.81,140.04 -254.05,181.67 -101.25,41.63 -214.31,62.44 -339.21,62.44 -158.96,0 -299.94,-32.64 -422.94,-97.93 -123.01,-65.29 -218.1,-156.6 -285.28,-273.93 -67.18,-117.33 -100.78,-249.79 -100.78,-397.4 0,-145.71 32.64,-277.23 97.94,-394.55 65.28,-117.33 155.17,-208.64 269.67,-273.93 114.49,-65.28 243.62,-97.93 387.45,-97.93 143.82,0 272.03,32.64 384.62,97.93 112.6,65.28 200.59,156.6 263.99,273.93 63.39,117.33 95.1,251.68 95.1,403.07zm-743.7 -545c-130.58,0 -239.85,39.73 -327.85,119.22 -88,79.47 -139.56,183.56 -154.7,312.24l965.11 0c-15.14,-126.79 -66.71,-230.39 -154.71,-310.82 -88,-80.42 -197.28,-120.64 -327.85,-120.64zm1562.66 1305.74c-149.5,0 -283.86,-33.11 -403.07,-99.35 -119.22,-66.23 -212.42,-157.54 -279.6,-273.93 -67.18,-116.38 -100.78,-248.37 -100.78,-395.98 0,-147.6 33.59,-279.6 100.78,-395.97 67.17,-116.39 160.38,-207.22 279.6,-272.51 119.22,-65.28 253.58,-97.93 403.07,-97.93 149.5,0 283.39,32.64 401.64,97.93 118.28,65.28 211,156.12 278.19,272.51 67.17,116.38 100.77,248.37 100.77,395.97 0,147.61 -33.59,279.61 -100.77,395.98 -67.18,116.39 -159.91,207.69 -278.19,273.93 -118.26,66.23 -252.14,99.35 -401.64,99.35zm0 -238.44c96.52,0 183.09,-22.23 259.73,-66.7 76.64,-44.47 136.72,-106.92 180.24,-187.34 43.53,-80.42 65.29,-172.68 65.29,-276.77 0,-104.08 -21.76,-196.33 -65.29,-276.76 -43.52,-80.42 -103.6,-142.4 -180.24,-185.93 -76.63,-43.52 -163.21,-65.28 -259.73,-65.28 -96.51,0 -183.09,21.76 -259.73,65.28 -76.64,43.53 -137.2,105.51 -181.67,185.93 -44.47,80.42 -66.7,172.68 -66.7,276.76 0,104.09 22.23,196.34 66.7,276.77 44.47,80.42 105.03,142.87 181.67,187.34 76.63,44.47 163.22,66.7 259.73,66.7zm2646.98 244.12c-198.7,0 -377.99,-44 -537.9,-132 -159.9,-88 -285.27,-209.1 -376.1,-363.33 -90.84,-154.23 -136.26,-327.86 -136.26,-520.88 0,-193.02 45.42,-366.65 136.26,-520.88 90.84,-154.23 216.67,-275.34 377.52,-363.33 160.86,-88 340.62,-132 539.32,-132 155.18,0 297.11,26.02 425.79,78.06 128.68,52.04 238.44,129.16 329.27,231.34l-184.5 178.83c-149.5,-157.07 -335.9,-235.6 -559.2,-235.6 -147.6,0 -281.01,33.12 -400.22,99.35 -119.22,66.23 -212.42,157.55 -279.6,273.93 -67.18,116.38 -100.78,246.48 -100.78,390.3 0,143.82 33.59,273.93 100.78,390.3 67.17,116.38 160.38,207.69 279.6,273.93 119.22,66.22 252.62,99.35 400.22,99.35 221.41,0 407.81,-79.48 559.2,-238.44l184.5 178.83c-90.83,102.2 -201.06,179.78 -330.69,232.76 -129.63,52.99 -272.03,79.48 -427.21,79.48zm960.89 -2009.71l283.86 0 0 1987 -283.86 0 0 -1987zm1256.09 2009.71c-149.5,0 -293.8,-23.18 -432.88,-69.54 -139.09,-46.36 -248.37,-106.45 -327.86,-180.25l105.04 -221.41c75.69,68.12 172.67,123.48 290.95,166.06 118.27,42.58 239.85,63.86 364.75,63.86 164.63,0 287.64,-27.91 369.01,-83.73 81.37,-55.82 122.06,-130.1 122.06,-222.82 0,-68.13 -22.24,-123.48 -66.7,-166.06 -44.47,-42.58 -99.36,-75.22 -164.64,-97.94 -65.28,-22.7 -157.54,-48.25 -276.76,-76.63 -149.5,-35.96 -270.15,-71.91 -361.91,-107.87 -91.79,-35.95 -170.31,-91.31 -235.6,-166.06 -65.28,-74.74 -97.93,-175.52 -97.93,-302.31 0,-105.97 27.91,-201.53 83.73,-286.7 55.82,-85.16 140.51,-153.28 254.06,-204.37 113.53,-51.09 254.52,-76.64 422.94,-76.64 117.33,0 232.76,15.14 346.3,45.42 113.55,30.27 211,73.8 292.38,130.57l-93.68 227.09c-83.26,-52.99 -172.21,-93.21 -266.83,-120.65 -94.62,-27.43 -187.34,-41.15 -278.18,-41.15 -160.85,0 -281.5,29.33 -361.92,88 -80.41,58.66 -120.63,134.36 -120.63,227.08 0,68.12 22.71,123.48 68.12,166.06 45.41,42.57 101.71,75.69 168.89,99.35 67.17,23.65 158.48,48.73 273.92,75.22 149.5,35.95 269.67,71.9 360.5,107.87 90.84,35.95 168.89,90.84 234.18,164.63 65.28,73.8 97.93,173.16 97.93,298.06 0,104.08 -28.38,199.17 -85.16,285.27 -56.77,86.11 -142.88,154.23 -258.31,204.38 -115.44,50.14 -257.37,75.22 -425.79,75.22zm1065.91 -394.56c52.98,0 96.98,18.45 131.99,55.35 35.01,36.9 52.51,82.79 52.51,137.67 0,28.38 -3.31,55.82 -9.93,82.31 -6.63,26.5 -19.4,67.18 -38.32,122.07l-133.42 394.55 -178.82 0 105.03 -422.95c-35.96,-13.24 -64.81,-35.48 -86.59,-66.7 -21.76,-31.22 -32.64,-67.65 -32.64,-109.29 0,-56.77 17.98,-103.14 53.93,-139.09 35.96,-35.95 81.37,-53.93 136.26,-53.93zm1176.61 -1615.15l283.86 0 0 1740.04 1075.82 0 0 246.95 -1359.68 0 0 -1987zm2067.92 2004.03c-149.5,0 -283.86,-33.11 -403.07,-99.35 -119.21,-66.23 -212.41,-157.54 -279.59,-273.93 -67.18,-116.38 -100.78,-248.37 -100.78,-395.98 0,-147.6 33.59,-279.6 100.78,-395.97 67.17,-116.39 160.38,-207.22 279.59,-272.51 119.22,-65.28 253.58,-97.93 403.07,-97.93 149.5,0 283.39,32.64 401.65,97.93 118.28,65.28 211,156.12 278.19,272.51 67.17,116.38 100.77,248.37 100.77,395.97 0,147.61 -33.59,279.61 -100.77,395.98 -67.18,116.39 -159.91,207.69 -278.19,273.93 -118.27,66.23 -252.15,99.35 -401.65,99.35zm0 -238.44c96.52,0 183.09,-22.23 259.73,-66.7 76.64,-44.47 136.73,-106.92 180.25,-187.34 43.53,-80.42 65.29,-172.68 65.29,-276.77 0,-104.08 -21.76,-196.33 -65.29,-276.76 -43.52,-80.42 -103.61,-142.4 -180.25,-185.93 -76.63,-43.52 -163.21,-65.28 -259.73,-65.28 -96.51,0 -183.09,21.76 -259.73,65.28 -76.64,43.53 -137.2,105.51 -181.67,185.93 -44.46,80.42 -66.69,172.68 -66.69,276.76 0,104.09 22.23,196.34 66.69,276.77 44.47,80.42 105.03,142.87 181.67,187.34 76.63,44.47 163.22,66.7 259.73,66.7zm1801.1 133.42c-39.74,34.06 -88.95,60.08 -147.61,78.06 -58.65,17.97 -119.21,26.96 -181.66,26.96 -151.39,0 -268.72,-40.68 -351.98,-122.06 -83.26,-81.37 -124.9,-197.75 -124.9,-349.14l0 -826.03 -255.47 0 0 -224.24 255.47 0 0 -329.28 272.51 0 0 329.28 431.46 0 0 224.24 -431.46 0 0 814.67c0,81.37 20.34,143.82 61.02,187.35 40.69,43.52 98.88,65.28 174.58,65.28 83.26,0 154.22,-23.65 212.88,-70.96l85.16 195.86zm1434.93 -655.71c0,20.81 -1.89,48.25 -5.68,82.31l-1220.58 0c17.03,132.47 75.22,238.91 174.57,319.34 99.35,80.42 222.83,120.64 370.43,120.64 179.78,0 324.55,-60.55 434.31,-181.66l150.44 175.99c-68.12,79.47 -152.81,140.04 -254.05,181.67 -101.25,41.63 -214.31,62.44 -339.21,62.44 -158.96,0 -299.95,-32.64 -422.95,-97.93 -123.01,-65.29 -218.1,-156.6 -285.28,-273.93 -67.18,-117.33 -100.78,-249.79 -100.78,-397.4 0,-145.71 32.64,-277.23 97.94,-394.55 65.28,-117.33 155.17,-208.64 269.67,-273.93 114.49,-65.28 243.63,-97.93 387.46,-97.93 143.82,0 272.03,32.64 384.62,97.93 112.6,65.28 200.59,156.6 263.99,273.93 63.39,117.33 95.1,251.68 95.1,403.07zm-743.7 -545c-130.58,0 -239.86,39.73 -327.86,119.22 -88,79.47 -139.56,183.56 -154.7,312.24l965.12 0c-15.14,-126.79 -66.71,-230.39 -154.71,-310.82 -88,-80.42 -197.28,-120.64 -327.85,-120.64zm2371.65 1311.42c-157.07,0 -296.64,-40.21 -418.69,-120.64 -122.06,-80.43 -218.09,-197.28 -288.12,-350.57 -70.01,-153.28 -105.03,-334.95 -105.03,-545 0,-210.05 35.01,-391.72 105.03,-545 70.02,-153.29 166.06,-270.14 288.12,-350.57 122.06,-80.42 261.63,-120.64 418.69,-120.64 155.17,0 293.79,40.21 415.84,120.64 122.06,80.43 218.09,197.28 288.12,350.57 70.01,153.28 105.03,334.95 105.03,545 0,210.05 -35.01,391.72 -105.03,545 -70.02,153.29 -166.06,270.14 -288.12,350.57 -122.06,80.42 -260.68,120.64 -415.84,120.64zm0 -252.63c158.96,0 286.22,-65.28 381.78,-195.86 95.57,-130.58 143.35,-319.81 143.35,-567.71 0,-247.9 -47.78,-437.14 -143.35,-567.71 -95.57,-130.58 -222.82,-195.86 -381.78,-195.86 -160.86,0 -289.07,65.28 -384.63,195.86 -95.57,130.58 -143.35,319.81 -143.35,567.71 0,247.9 47.78,437.14 143.35,567.71 95.57,130.58 223.77,195.86 384.63,195.86zm2266.62 -17.03l0 246.95 -1427.79 0 0 -193.02 808.98 -780.61c98.41,-94.62 164.64,-176.47 198.7,-245.53 34.06,-69.07 51.09,-138.62 51.09,-208.64 0,-104.08 -36.42,-184.97 -109.28,-242.69 -72.86,-57.71 -177.41,-86.58 -313.67,-86.58 -219.51,0 -388.88,71.91 -508.09,215.73l-193.02 -167.48c77.58,-94.62 179.3,-168.42 305.14,-221.4 125.84,-52.99 266.35,-79.48 421.52,-79.48 208.16,0 373.74,49.67 496.75,149.03 123.01,99.35 184.5,234.18 184.5,404.49 0,105.98 -22.7,206.27 -68.12,300.89 -45.41,94.62 -131.52,202.48 -258.31,323.6l-607.46 584.74 1019.05 0zm248.41 -124.9c52.98,0 96.98,18.45 131.99,55.35 35.01,36.9 52.51,82.79 52.51,137.67 0,28.38 -3.31,55.82 -9.93,82.31 -6.63,26.5 -19.4,67.18 -38.32,122.07l-133.42 394.55 -178.82 0 105.03 -422.95c-35.96,-13.24 -64.81,-35.48 -86.59,-66.7 -21.76,-31.22 -32.64,-67.65 -32.64,-109.29 0,-56.77 17.98,-103.14 53.93,-139.09 35.96,-35.95 81.37,-53.93 136.26,-53.93zm3223.21 553.52c-64.34,75.69 -139.09,133.41 -224.25,173.15 -85.16,39.74 -176.93,59.61 -275.34,59.61 -124.89,0 -241.74,-29.81 -350.55,-89.42 -108.82,-59.61 -233.23,-161.33 -373.27,-305.15 -187.35,-9.46 -356.24,-59.61 -506.69,-150.45 -150.44,-90.84 -267.77,-211.47 -351.98,-361.91 -84.2,-150.45 -126.32,-317.45 -126.32,-501.01 0,-191.13 45.89,-364.28 137.68,-519.46 91.78,-155.17 218.09,-276.76 378.94,-364.75 160.85,-88 341.58,-132 542.17,-132 198.69,0 378.47,44 539.32,132 160.85,88 286.69,209.1 377.52,363.33 90.84,154.23 136.25,327.86 136.25,520.88 0,162.74 -32.64,312.24 -97.93,448.5 -65.29,136.25 -157.07,250.73 -275.35,343.46 -118.26,92.73 -254.04,157.07 -407.32,193.02 66.23,70.02 130.11,120.65 191.6,151.87 61.5,31.22 124.42,46.83 188.76,46.83 140.04,0 261.15,-56.77 363.33,-170.31l133.42 161.8zm-1924.54 -1175.17c0,143.82 33.59,273.93 100.78,390.3 67.17,116.38 159.9,207.69 278.18,273.93 118.28,66.22 250.26,99.35 395.98,99.35 143.82,0 274.4,-33.12 391.72,-99.35 117.33,-66.23 209.56,-157.55 276.75,-273.93 67.18,-116.38 100.77,-246.48 100.77,-390.3 0,-143.82 -33.58,-273.93 -100.77,-390.3 -67.18,-116.38 -159.42,-207.69 -276.75,-273.93 -117.33,-66.22 -247.9,-99.35 -391.72,-99.35 -145.72,0 -277.71,33.12 -395.98,99.35 -118.28,66.23 -211,157.55 -278.18,273.93 -67.18,116.38 -100.78,246.48 -100.78,390.3zm3421.92 -510.94l0 1504.44 -258.31 0 0 -227.08c-54.88,77.58 -127.27,137.67 -217.15,180.25 -89.89,42.57 -187.82,63.86 -293.79,63.86 -200.59,0 -358.61,-55.35 -474.05,-166.06 -115.43,-110.7 -173.15,-273.92 -173.15,-489.65l0 -865.76 272.51 0 0 834.54c0,145.71 35.01,255.95 105.03,330.69 70.01,74.75 170.31,112.13 300.89,112.13 143.82,0 257.37,-43.52 340.63,-130.58 83.26,-87.05 124.9,-210.05 124.9,-369.01l0 -777.77 272.5 0zm864.38 -14.19c208.15,0 367.59,51.09 478.3,153.28 110.7,102.19 166.05,254.53 166.05,457.01l0 908.34 -258.31 0 0 -198.7c-45.42,70.02 -110.24,123.48 -194.44,160.38 -84.21,36.9 -184.04,55.35 -299.47,55.35 -168.43,0 -303.26,-40.68 -404.5,-122.06 -101.24,-81.37 -151.86,-188.29 -151.86,-320.76 0,-132.47 48.25,-238.91 144.77,-319.34 96.51,-80.42 249.79,-120.64 459.85,-120.64l431.47 0 0 -53.93c0,-117.33 -34.06,-207.21 -102.2,-269.67 -68.12,-62.44 -168.42,-93.68 -300.89,-93.68 -88.94,0 -175.99,14.67 -261.15,44 -85.16,29.33 -157.07,68.59 -215.73,117.8l-113.54 -204.37c77.58,-62.45 170.31,-110.24 278.18,-143.35 107.87,-33.12 222.35,-49.67 343.47,-49.67zm-62.45 1325.61c104.09,0 193.97,-23.18 269.67,-69.54 75.69,-46.36 130.58,-112.13 164.64,-197.28l0 -210.05 -420.11 0c-230.86,0 -346.3,77.58 -346.3,232.76 0,75.69 29.33,135.3 88,178.83 58.66,43.52 140.04,65.28 244.11,65.28zm2436.93 -1913.19l0 2106.21 -261.15 0 0 -238.44c-60.55,83.26 -137.2,146.67 -229.92,190.19 -92.73,43.52 -194.91,65.28 -306.57,65.28 -145.71,0 -276.29,-32.17 -391.71,-96.52 -115.43,-64.33 -205.79,-154.7 -271.08,-271.08 -65.29,-116.39 -97.94,-250.26 -97.94,-401.66 0,-151.39 32.64,-284.8 97.94,-400.23 65.28,-115.44 155.65,-205.32 271.08,-269.67 115.43,-64.34 246,-96.51 391.71,-96.51 107.87,0 207.22,20.34 298.06,61.02 90.83,40.69 166.53,100.77 227.08,180.25l0 -828.86 272.5 0zm-774.93 1884.8c94.62,0 180.72,-22.23 258.32,-66.7 77.58,-44.47 138.14,-106.92 181.66,-187.34 43.53,-80.42 65.29,-172.68 65.29,-276.77 0,-104.08 -21.76,-196.33 -65.29,-276.76 -43.52,-80.42 -104.08,-142.4 -181.66,-185.93 -77.59,-43.52 -163.7,-65.28 -258.32,-65.28 -96.51,0 -183.09,21.76 -259.73,65.28 -76.63,43.53 -137.19,105.51 -181.66,185.93 -44.47,80.42 -66.7,172.68 -66.7,276.76 0,104.09 22.23,196.34 66.7,276.77 44.47,80.42 105.03,142.87 181.66,187.34 76.63,44.47 163.22,66.7 259.73,66.7zm1349.78 -1030.39c47.3,-87.06 117.33,-153.29 210.05,-198.7 92.73,-45.42 205.32,-68.12 337.78,-68.12l0 263.99c-15.14,-1.9 -35.95,-2.84 -62.45,-2.84 -147.59,0 -263.5,43.99 -347.71,131.99 -84.21,88 -126.32,213.37 -126.32,376.11l0 749.38 -272.51 0 0 -1504.44 261.16 0 0 252.63zm1224.87 -266.83c208.15,0 367.59,51.09 478.3,153.28 110.7,102.19 166.05,254.53 166.05,457.01l0 908.34 -258.31 0 0 -198.7c-45.42,70.02 -110.24,123.48 -194.44,160.38 -84.21,36.9 -184.04,55.35 -299.47,55.35 -168.43,0 -303.26,-40.68 -404.5,-122.06 -101.24,-81.37 -151.86,-188.29 -151.86,-320.76 0,-132.47 48.25,-238.91 144.77,-319.34 96.51,-80.42 249.79,-120.64 459.85,-120.64l431.47 0 0 -53.93c0,-117.33 -34.06,-207.21 -102.2,-269.67 -68.12,-62.44 -168.42,-93.68 -300.89,-93.68 -88.94,0 -175.99,14.67 -261.15,44 -85.16,29.33 -157.07,68.59 -215.73,117.8l-113.54 -204.37c77.58,-62.45 170.31,-110.24 278.18,-143.35 107.87,-33.12 222.35,-49.67 343.47,-49.67zm-62.45 1325.61c104.09,0 193.97,-23.18 269.67,-69.54 75.69,-46.36 130.58,-112.13 164.64,-197.28l0 -210.05 -420.11 0c-230.86,0 -346.3,77.58 -346.3,232.76 0,75.69 29.33,135.3 88,178.83 58.66,43.52 140.04,65.28 244.11,65.28zm2462.49 215.73c-157.07,0 -296.64,-40.21 -418.69,-120.64 -122.06,-80.43 -218.09,-197.28 -288.12,-350.57 -70.01,-153.28 -105.03,-334.95 -105.03,-545 0,-210.05 35.01,-391.72 105.03,-545 70.02,-153.29 166.06,-270.14 288.12,-350.57 122.06,-80.42 261.63,-120.64 418.69,-120.64 155.17,0 293.79,40.21 415.84,120.64 122.06,80.43 218.09,197.28 288.12,350.57 70.01,153.28 105.03,334.95 105.03,545 0,210.05 -35.01,391.72 -105.03,545 -70.02,153.29 -166.06,270.14 -288.12,350.57 -122.06,80.42 -260.68,120.64 -415.84,120.64zm0 -252.63c158.96,0 286.22,-65.28 381.78,-195.86 95.57,-130.58 143.35,-319.81 143.35,-567.71 0,-247.9 -47.78,-437.14 -143.35,-567.71 -95.57,-130.58 -222.82,-195.86 -381.78,-195.86 -160.86,0 -289.07,65.28 -384.63,195.86 -95.57,130.58 -143.35,319.81 -143.35,567.71 0,247.9 47.78,437.14 143.35,567.71 95.57,130.58 223.77,195.86 384.63,195.86zm1610.91 -922.53c194.92,18.92 343.47,79 445.66,180.25 102.2,101.24 153.29,230.39 153.29,387.46 0,113.55 -28.39,216.2 -85.17,307.99 -56.76,91.78 -141.45,164.63 -254.05,218.56 -112.6,53.93 -250.26,80.9 -413.01,80.9 -141.93,0 -278.18,-21.29 -408.75,-63.87 -130.57,-42.57 -237.48,-101.72 -320.75,-177.41l130.58 -224.24c68.12,64.34 155.16,115.91 261.14,154.7 105.98,38.79 218.57,58.19 337.79,58.19 147.61,0 262.57,-31.22 344.89,-93.68 82.31,-62.44 123.48,-148.55 123.48,-258.31 0,-109.76 -40.69,-194.92 -122.06,-255.48 -81.37,-60.55 -204.38,-90.84 -369.02,-90.84l-158.96 0 0 -198.69 499.59 -613.14 -956.59 0 0 -246.95 1311.41 0 0 193.02 -519.46 641.52zm1449.13 255.48l763.57 0 0 235.59 -763.57 0 0 -235.59z"/>
   <path class="fil1" d="M126883.21 6155.96c-149.5,0 -293.79,-23.18 -432.88,-69.54 -139.09,-46.36 -248.37,-106.45 -327.86,-180.25l105.04 -221.41c75.69,68.12 172.67,123.48 290.95,166.06 118.28,42.58 239.85,63.86 364.75,63.86 164.63,0 287.64,-27.91 369.01,-83.73 81.37,-55.82 122.06,-130.1 122.06,-222.82 0,-68.13 -22.24,-123.48 -66.7,-166.06 -44.47,-42.58 -99.36,-75.22 -164.64,-97.94 -65.28,-22.7 -157.54,-48.25 -276.76,-76.63 -149.5,-35.96 -270.14,-71.91 -361.91,-107.87 -91.79,-35.95 -170.31,-91.31 -235.6,-166.06 -65.28,-74.74 -97.93,-175.52 -97.93,-302.31 0,-105.97 27.91,-201.53 83.73,-286.7 55.82,-85.16 140.51,-153.28 254.06,-204.37 113.54,-51.09 254.52,-76.64 422.94,-76.64 117.33,0 232.76,15.14 346.3,45.42 113.55,30.27 211,73.8 292.38,130.57l-93.68 227.09c-83.26,-52.99 -172.21,-93.21 -266.83,-120.65 -94.62,-27.43 -187.34,-41.15 -278.18,-41.15 -160.85,0 -281.5,29.33 -361.91,88 -80.42,58.66 -120.64,134.36 -120.64,227.08 0,68.12 22.71,123.48 68.12,166.06 45.42,42.57 101.72,75.69 168.89,99.35 67.17,23.65 158.48,48.73 273.92,75.22 149.5,35.95 269.67,71.9 360.5,107.87 90.84,35.95 168.89,90.84 234.18,164.63 65.28,73.8 97.93,173.16 97.93,298.06 0,104.08 -28.38,199.17 -85.16,285.27 -56.77,86.11 -142.88,154.23 -258.31,204.38 -115.44,50.14 -257.37,75.22 -425.79,75.22zm1539.96 -2412.78l246.95 0 -936.73 2673.93 -246.96 0 936.74 -2673.93zm1945.87 403.07l0 1987 -232.76 0 -1192.2 -1481.73 0 1481.73 -283.85 0 0 -1987 232.75 0 1192.2 1481.73 0 -1481.73 283.86 0zm1020.49 1090.01l763.58 0 0 235.59 -763.58 0 0 -235.59zm2363.14 919.69c-149.5,0 -293.8,-23.18 -432.89,-69.54 -139.09,-46.36 -248.37,-106.45 -327.86,-180.25l105.04 -221.41c75.69,68.12 172.67,123.48 290.95,166.06 118.28,42.58 239.86,63.86 364.76,63.86 164.63,0 287.64,-27.91 369.01,-83.73 81.37,-55.82 122.06,-130.1 122.06,-222.82 0,-68.13 -22.24,-123.48 -66.7,-166.06 -44.47,-42.58 -99.36,-75.22 -164.64,-97.94 -65.28,-22.7 -157.54,-48.25 -276.76,-76.63 -149.5,-35.96 -270.15,-71.91 -361.92,-107.87 -91.79,-35.95 -170.31,-91.31 -235.6,-166.06 -65.28,-74.74 -97.93,-175.52 -97.93,-302.31 0,-105.97 27.91,-201.53 83.73,-286.7 55.82,-85.16 140.51,-153.28 254.06,-204.37 113.54,-51.09 254.53,-76.64 422.95,-76.64 117.33,0 232.76,15.14 346.3,45.42 113.55,30.27 211,73.8 292.38,130.57l-93.68 227.09c-83.26,-52.99 -172.21,-93.21 -266.83,-120.65 -94.62,-27.43 -187.34,-41.15 -278.18,-41.15 -160.85,0 -281.5,29.33 -361.92,88 -80.42,58.66 -120.64,134.36 -120.64,227.08 0,68.12 22.71,123.48 68.12,166.06 45.42,42.57 101.72,75.69 168.9,99.35 67.17,23.65 158.48,48.73 273.92,75.22 149.5,35.95 269.67,71.9 360.5,107.87 90.84,35.95 168.89,90.84 234.18,164.63 65.28,73.8 97.93,173.16 97.93,298.06 0,104.08 -28.38,199.17 -85.16,285.27 -56.77,86.11 -142.88,154.23 -258.31,204.38 -115.44,50.14 -257.37,75.22 -425.79,75.22zm1488.86 -1541.34c208.15,0 367.59,51.09 478.3,153.28 110.7,102.19 166.05,254.53 166.05,457.01l0 908.34 -258.31 0 0 -198.7c-45.42,70.02 -110.24,123.48 -194.44,160.38 -84.21,36.9 -184.04,55.35 -299.47,55.35 -168.42,0 -303.25,-40.68 -404.49,-122.06 -101.24,-81.37 -151.86,-188.29 -151.86,-320.76 0,-132.47 48.25,-238.91 144.77,-319.34 96.51,-80.42 249.79,-120.64 459.84,-120.64l431.47 0 0 -53.93c0,-117.33 -34.06,-207.21 -102.2,-269.67 -68.12,-62.44 -168.42,-93.68 -300.89,-93.68 -88.94,0 -175.99,14.67 -261.14,44 -85.16,29.33 -157.07,68.59 -215.73,117.8l-113.54 -204.37c77.58,-62.45 170.31,-110.24 278.18,-143.35 107.87,-33.12 222.34,-49.67 343.46,-49.67zm-62.45 1325.61c104.09,0 193.97,-23.18 269.67,-69.54 75.69,-46.36 130.58,-112.13 164.64,-197.28l0 -210.05 -420.11 0c-230.85,0 -346.29,77.58 -346.29,232.76 0,75.69 29.33,135.3 88,178.83 58.66,43.52 140.03,65.28 244.1,65.28zm281.02 -1538.5c-45.41,0 -84.69,-9.47 -117.8,-28.39 -33.12,-18.92 -74.27,-47.3 -123.48,-85.16 -28.39,-26.49 -52.99,-45.89 -73.8,-58.19 -20.81,-12.3 -41.63,-18.45 -62.44,-18.45 -41.63,0 -75.69,15.61 -102.19,46.84 -26.49,31.22 -40.68,74.27 -42.57,129.15l-153.29 0c3.79,-105.97 30.75,-190.18 80.9,-252.62 50.14,-62.45 115.91,-93.68 197.27,-93.68 45.41,0 85.63,9.93 120.64,29.8 35.01,19.87 75.22,48.73 120.64,86.58 32.17,26.5 57.71,45.89 76.64,58.19 18.92,12.3 38.79,18.45 59.6,18.45 41.63,0 75.69,-15.14 102.2,-45.41 26.49,-30.28 40.68,-71.91 42.57,-124.9l153.29 0c-3.79,102.19 -30.75,184.03 -80.9,245.53 -50.14,61.5 -115.91,92.26 -197.28,92.26zm1381 1748.55c-149.5,0 -283.86,-33.11 -403.07,-99.35 -119.22,-66.23 -212.42,-157.54 -279.6,-273.93 -67.18,-116.38 -100.78,-248.37 -100.78,-395.98 0,-147.6 33.59,-279.6 100.78,-395.97 67.17,-116.39 160.38,-207.22 279.6,-272.51 119.22,-65.28 253.58,-97.93 403.07,-97.93 149.5,0 283.39,32.64 401.64,97.93 118.28,65.28 211,156.12 278.19,272.51 67.17,116.38 100.77,248.37 100.77,395.97 0,147.61 -33.59,279.61 -100.77,395.98 -67.18,116.39 -159.91,207.69 -278.19,273.93 -118.26,66.23 -252.14,99.35 -401.64,99.35zm0 -238.44c96.52,0 183.09,-22.23 259.73,-66.7 76.63,-44.47 136.72,-106.92 180.24,-187.34 43.53,-80.42 65.29,-172.68 65.29,-276.77 0,-104.08 -21.76,-196.33 -65.29,-276.76 -43.52,-80.42 -103.61,-142.4 -180.24,-185.93 -76.63,-43.52 -163.21,-65.28 -259.73,-65.28 -96.51,0 -183.09,21.76 -259.73,65.28 -76.64,43.53 -137.2,105.51 -181.67,185.93 -44.47,80.42 -66.7,172.68 -66.7,276.76 0,104.09 22.23,196.34 66.7,276.77 44.47,80.42 105.03,142.87 181.67,187.34 76.63,44.47 163.22,66.7 259.73,66.7zm3135.22 -783.44l272.5 0 0 774.93c-98.41,81.37 -212.89,143.82 -343.46,187.34 -130.58,43.53 -266.83,65.29 -408.75,65.29 -200.59,0 -381.31,-44 -542.16,-132 -160.85,-88 -287.17,-209.1 -378.94,-363.33 -91.79,-154.23 -137.68,-327.86 -137.68,-520.88 0,-193.02 45.89,-367.12 137.68,-522.3 91.78,-155.17 218.56,-276.29 380.36,-363.33 161.8,-87.06 343.93,-130.58 546.41,-130.58 158.96,0 303.26,26.02 432.89,78.06 129.63,52.04 239.85,128.21 330.69,228.5l-175.99 175.99c-158.96,-153.28 -351.03,-229.92 -576.22,-229.92 -151.39,0 -287.16,32.64 -407.32,97.94 -120.17,65.28 -214.31,156.12 -282.44,272.5 -68.13,116.39 -102.2,247.43 -102.2,393.14 0,143.82 34.06,273.93 102.2,390.3 68.12,116.38 162.27,207.69 282.44,273.93 120.17,66.22 254.99,99.35 404.48,99.35 177.88,0 333.06,-42.58 465.53,-127.74l0 -647.19zm1216.35 1021.88c-149.5,0 -283.86,-33.11 -403.07,-99.35 -119.22,-66.23 -212.42,-157.54 -279.6,-273.93 -67.18,-116.38 -100.78,-248.37 -100.78,-395.98 0,-147.6 33.59,-279.6 100.78,-395.97 67.17,-116.39 160.38,-207.22 279.6,-272.51 119.22,-65.28 253.58,-97.93 403.07,-97.93 149.49,0 283.38,32.64 401.64,97.93 118.28,65.28 211,156.12 278.19,272.51 67.17,116.38 100.77,248.37 100.77,395.97 0,147.61 -33.59,279.61 -100.77,395.98 -67.18,116.39 -159.91,207.69 -278.19,273.93 -118.27,66.23 -252.15,99.35 -401.64,99.35zm0 -238.44c96.52,0 183.08,-22.23 259.72,-66.7 76.64,-44.47 136.73,-106.92 180.25,-187.34 43.53,-80.42 65.29,-172.68 65.29,-276.77 0,-104.08 -21.76,-196.33 -65.29,-276.76 -43.52,-80.42 -103.61,-142.4 -180.25,-185.93 -76.63,-43.52 -163.2,-65.28 -259.72,-65.28 -96.51,0 -183.09,21.76 -259.73,65.28 -76.64,43.53 -137.2,105.51 -181.67,185.93 -44.47,80.42 -66.7,172.68 -66.7,276.76 0,104.09 22.23,196.34 66.7,276.77 44.47,80.42 105.03,142.87 181.67,187.34 76.63,44.47 163.22,66.7 259.73,66.7zm1758.51 -1297.22c191.13,0 342.99,55.34 455.59,166.05 112.59,110.71 168.89,272.98 168.89,486.82l0 865.76 -272.5 0 0 -834.54c0,-145.71 -35,-255.48 -105.03,-329.27 -70.01,-73.8 -170.31,-110.71 -300.89,-110.71 -147.6,0 -263.99,43.05 -349.14,129.16 -85.16,86.1 -127.74,209.57 -127.74,370.43l0 774.93 -272.51 0 0 -1504.44 261.16 0 0 227.08c54.87,-77.58 129.15,-137.2 222.82,-178.83 93.68,-41.63 200.12,-62.44 319.34,-62.44zm1591.04 1535.66c-153.28,0 -290.01,-33.11 -410.16,-99.35 -120.17,-66.23 -214.31,-157.54 -282.44,-273.93 -68.13,-116.38 -102.2,-248.37 -102.2,-395.98 0,-147.6 34.06,-279.6 102.2,-395.97 68.12,-116.39 162.27,-207.22 282.44,-272.51 120.16,-65.28 256.89,-97.93 410.16,-97.93 136.26,0 257.85,27.43 364.76,82.31 106.92,54.88 189.71,134.36 248.37,238.44l-207.21 133.41c-47.31,-71.91 -105.98,-125.85 -175.99,-161.8 -70.02,-35.95 -147.61,-53.93 -232.76,-53.93 -98.41,0 -186.87,21.76 -265.41,65.28 -78.53,43.53 -140.04,105.51 -184.51,185.93 -44.47,80.42 -66.7,172.68 -66.7,276.76 0,105.98 22.23,199.18 66.7,279.61 44.47,80.42 105.98,142.4 184.51,185.92 78.53,43.52 167,65.28 265.41,65.28 85.16,0 162.74,-17.97 232.76,-53.92 70.01,-35.96 128.68,-89.9 175.99,-161.8l207.21 130.57c-58.66,104.09 -141.46,184.04 -248.37,239.86 -106.92,55.82 -228.5,83.73 -364.76,83.73zm-133.41 618.81c-98.41,0 -182.61,-20.81 -252.63,-62.44l59.61 -139.09c56.77,32.16 121.11,48.25 193.02,48.25 105.98,0 158.96,-37.85 158.96,-113.55 0,-34.06 -13.25,-61.02 -39.74,-80.89 -26.49,-19.87 -67.17,-29.81 -122.06,-29.81l-76.64 0 70.96 -278.18 156.13 0 -42.58 161.8c79.48,7.57 140.51,32.64 183.09,75.22 42.57,42.57 63.86,96.04 63.86,160.38 0,79.47 -32.17,142.4 -96.51,188.76 -64.34,46.36 -149.5,69.54 -255.48,69.54zm1443.45 -2154.47c208.15,0 367.59,51.09 478.3,153.28 110.7,102.19 166.05,254.53 166.05,457.01l0 908.34 -258.31 0 0 -198.7c-45.42,70.02 -110.24,123.48 -194.44,160.38 -84.21,36.9 -184.04,55.35 -299.47,55.35 -168.43,0 -303.25,-40.68 -404.49,-122.06 -101.24,-81.37 -151.86,-188.29 -151.86,-320.76 0,-132.47 48.25,-238.91 144.77,-319.34 96.51,-80.42 249.78,-120.64 459.84,-120.64l431.47 0 0 -53.93c0,-117.33 -34.06,-207.21 -102.2,-269.67 -68.12,-62.44 -168.42,-93.68 -300.89,-93.68 -88.94,0 -175.99,14.67 -261.15,44 -85.15,29.33 -157.06,68.59 -215.72,117.8l-113.54 -204.37c77.58,-62.45 170.31,-110.24 278.18,-143.35 107.86,-33.12 222.34,-49.67 343.46,-49.67zm-62.45 1325.61c104.09,0 193.97,-23.18 269.67,-69.54 75.69,-46.36 130.58,-112.13 164.64,-197.28l0 -210.05 -420.11 0c-230.86,0 -346.29,77.58 -346.29,232.76 0,75.69 29.33,135.3 87.99,178.83 58.66,43.52 140.04,65.28 244.11,65.28zm1009.14 -1913.19l272.51 0 0 2106.21 -272.51 0 0 -2106.21zm1233.38 2123.25c-149.5,0 -283.86,-33.11 -403.07,-99.35 -119.21,-66.23 -212.41,-157.54 -279.59,-273.93 -67.18,-116.38 -100.78,-248.37 -100.78,-395.98 0,-147.6 33.59,-279.6 100.78,-395.97 67.17,-116.39 160.38,-207.22 279.59,-272.51 119.22,-65.28 253.58,-97.93 403.07,-97.93 149.5,0 283.39,32.64 401.65,97.93 118.28,65.28 211,156.12 278.19,272.51 67.17,116.38 100.77,248.37 100.77,395.97 0,147.61 -33.59,279.61 -100.77,395.98 -67.18,116.39 -159.91,207.69 -278.19,273.93 -118.27,66.23 -252.15,99.35 -401.65,99.35zm0 -238.44c96.52,0 183.09,-22.23 259.73,-66.7 76.64,-44.47 136.73,-106.92 180.25,-187.34 43.53,-80.42 65.29,-172.68 65.29,-276.77 0,-104.08 -21.76,-196.33 -65.29,-276.76 -43.52,-80.42 -103.61,-142.4 -180.25,-185.93 -76.63,-43.52 -163.21,-65.28 -259.73,-65.28 -96.51,0 -183.09,21.76 -259.73,65.28 -76.64,43.53 -137.2,105.51 -181.66,185.93 -44.47,80.42 -66.7,172.68 -66.7,276.76 0,104.09 22.23,196.34 66.7,276.77 44.46,80.42 105.02,142.87 181.66,187.34 76.63,44.47 163.22,66.7 259.73,66.7zm3138.06 -1884.8l0 2106.21 -261.15 0 0 -238.44c-60.55,83.26 -137.2,146.67 -229.92,190.19 -92.73,43.52 -194.91,65.28 -306.57,65.28 -145.71,0 -276.29,-32.17 -391.72,-96.52 -115.43,-64.33 -205.79,-154.7 -271.07,-271.08 -65.29,-116.39 -97.94,-250.26 -97.94,-401.66 0,-151.39 32.64,-284.8 97.94,-400.23 65.27,-115.44 155.64,-205.32 271.07,-269.67 115.44,-64.34 246.01,-96.51 391.72,-96.51 107.87,0 207.22,20.34 298.06,61.02 90.83,40.69 166.53,100.77 227.08,180.25l0 -828.86 272.5 0zm-774.93 1884.8c94.62,0 180.72,-22.23 258.32,-66.7 77.58,-44.47 138.14,-106.92 181.66,-187.34 43.53,-80.42 65.29,-172.68 65.29,-276.77 0,-104.08 -21.76,-196.33 -65.29,-276.76 -43.52,-80.42 -104.08,-142.4 -181.66,-185.93 -77.59,-43.52 -163.7,-65.28 -258.32,-65.28 -96.51,0 -183.09,21.76 -259.73,65.28 -76.64,43.53 -137.2,105.51 -181.67,185.93 -44.47,80.42 -66.7,172.68 -66.7,276.76 0,104.09 22.23,196.34 66.7,276.77 44.47,80.42 105.03,142.87 181.67,187.34 76.63,44.47 163.22,66.7 259.73,66.7zm1732.97 238.44c-149.5,0 -283.86,-33.11 -403.06,-99.35 -119.22,-66.23 -212.42,-157.54 -279.6,-273.93 -67.18,-116.38 -100.78,-248.37 -100.78,-395.98 0,-147.6 33.59,-279.6 100.78,-395.97 67.17,-116.39 160.38,-207.22 279.6,-272.51 119.21,-65.28 253.57,-97.93 403.06,-97.93 149.5,0 283.39,32.64 401.65,97.93 118.28,65.28 211,156.12 278.19,272.51 67.17,116.38 100.77,248.37 100.77,395.97 0,147.61 -33.59,279.61 -100.77,395.98 -67.18,116.39 -159.91,207.69 -278.19,273.93 -118.27,66.23 -252.15,99.35 -401.65,99.35zm0 -238.44c96.52,0 183.09,-22.23 259.73,-66.7 76.64,-44.47 136.73,-106.92 180.25,-187.34 43.53,-80.42 65.29,-172.68 65.29,-276.77 0,-104.08 -21.76,-196.33 -65.29,-276.76 -43.52,-80.42 -103.61,-142.4 -180.25,-185.93 -76.63,-43.52 -163.21,-65.28 -259.73,-65.28 -96.51,0 -183.09,21.76 -259.73,65.28 -76.63,43.53 -137.19,105.51 -181.66,185.93 -44.47,80.42 -66.7,172.68 -66.7,276.76 0,104.09 22.23,196.34 66.7,276.77 44.47,80.42 105.03,142.87 181.66,187.34 76.63,44.47 163.22,66.7 259.73,66.7zm1386.67 238.44c-123.01,0 -241.27,-16.56 -354.82,-49.67 -113.54,-33.12 -202.48,-75.22 -266.83,-126.32l113.55 -215.73c66.23,47.31 146.66,85.16 241.27,113.55 94.62,28.38 190.18,42.57 286.7,42.57 238.44,0 357.66,-68.12 357.66,-204.37 0,-45.42 -16.09,-81.37 -48.25,-107.87 -32.17,-26.49 -72.38,-45.89 -120.65,-58.19 -48.25,-12.3 -116.85,-26.02 -205.79,-41.15 -121.12,-18.93 -219.99,-40.69 -296.63,-65.29 -76.64,-24.6 -142.41,-66.23 -197.28,-124.9 -54.88,-58.66 -82.32,-140.98 -82.32,-246.95 0,-136.25 56.77,-245.53 170.32,-327.85 113.54,-82.32 265.88,-123.48 457.01,-123.48 100.3,0 200.59,12.3 300.89,36.9 100.29,24.59 182.6,57.71 246.94,99.35l-116.38 215.73c-123,-79.48 -267.77,-119.23 -434.3,-119.23 -115.44,0 -203.43,18.93 -263.99,56.77 -60.55,37.85 -90.84,88 -90.84,150.45 0,49.2 17.03,88 51.09,116.38 34.06,28.39 76.17,49.2 126.32,62.45 50.15,13.24 120.64,28.38 211.47,45.41 121.12,20.82 219.04,43.05 293.8,66.7 74.73,23.66 138.61,63.87 191.59,120.65 52.98,56.76 79.47,136.25 79.47,238.43 0,136.25 -58.18,244.59 -174.57,325.02 -116.37,80.42 -274.86,120.64 -475.45,120.64zm2479.52 5.68c-198.7,0 -378,-44 -537.91,-132 -159.9,-88 -285.27,-209.1 -376.1,-363.33 -90.84,-154.23 -136.26,-327.86 -136.26,-520.88 0,-193.02 45.42,-366.65 136.26,-520.88 90.84,-154.23 216.67,-275.34 377.52,-363.33 160.86,-88 340.63,-132 539.33,-132 155.17,0 297.1,26.02 425.78,78.06 128.68,52.04 238.44,129.16 329.27,231.34l-184.5 178.83c-149.5,-157.07 -335.9,-235.6 -559.2,-235.6 -147.59,0 -281.01,33.12 -400.22,99.35 -119.22,66.23 -212.42,157.55 -279.6,273.93 -67.18,116.38 -100.78,246.48 -100.78,390.3 0,143.82 33.59,273.93 100.78,390.3 67.17,116.38 160.38,207.69 279.6,273.93 119.22,66.22 252.63,99.35 400.22,99.35 221.41,0 407.81,-79.48 559.2,-238.44l184.5 178.83c-90.83,102.2 -201.06,179.78 -330.69,232.76 -129.63,52.99 -272.03,79.48 -427.2,79.48zm1449.12 -1541.34c208.15,0 367.59,51.09 478.3,153.28 110.7,102.19 166.05,254.53 166.05,457.01l0 908.34 -258.31 0 0 -198.7c-45.42,70.02 -110.24,123.48 -194.44,160.38 -84.21,36.9 -184.04,55.35 -299.47,55.35 -168.43,0 -303.26,-40.68 -404.5,-122.06 -101.24,-81.37 -151.86,-188.29 -151.86,-320.76 0,-132.47 48.25,-238.91 144.77,-319.34 96.51,-80.42 249.79,-120.64 459.85,-120.64l431.47 0 0 -53.93c0,-117.33 -34.06,-207.21 -102.2,-269.67 -68.12,-62.44 -168.42,-93.68 -300.89,-93.68 -88.94,0 -175.99,14.67 -261.15,44 -85.16,29.33 -157.07,68.59 -215.73,117.8l-113.54 -204.37c77.58,-62.45 170.31,-110.24 278.18,-143.35 107.87,-33.12 222.35,-49.67 343.47,-49.67zm-62.45 1325.61c104.09,0 193.97,-23.18 269.67,-69.54 75.69,-46.36 130.58,-112.13 164.64,-197.28l0 -210.05 -420.11 0c-230.86,0 -346.3,77.58 -346.3,232.76 0,75.69 29.33,135.3 88,178.83 58.66,43.52 140.04,65.28 244.11,65.28zm2891.09 -1325.61c189.24,0 339.21,54.87 449.92,164.63 110.71,109.76 166.06,272.51 166.06,488.24l0 865.76 -272.51 0 0 -834.54c0,-145.71 -33.59,-255.48 -100.77,-329.27 -67.18,-73.8 -163.22,-110.71 -288.12,-110.71 -138.14,0 -247.89,43.05 -329.27,129.16 -81.36,86.1 -122.06,209.57 -122.06,370.43l0 774.93 -272.5 0 0 -834.54c0,-145.71 -33.59,-255.48 -100.78,-329.27 -67.17,-73.8 -163.21,-110.71 -288.11,-110.71 -138.15,0 -247.9,43.05 -329.28,129.16 -81.37,86.1 -122.06,209.57 -122.06,370.43l0 774.93 -272.51 0 0 -1504.44 261.16 0 0 224.24c54.87,-77.58 126.79,-136.72 215.73,-177.41 88.94,-40.68 190.18,-61.02 303.72,-61.02 117.33,0 221.41,23.65 312.25,70.96 90.84,47.3 160.85,116.38 210.05,207.21 56.77,-87.06 135.78,-155.18 237.02,-204.38 101.24,-49.19 215.25,-73.79 342.03,-73.79zm1713.11 0c145.72,0 276.3,32.16 391.71,96.51 115.44,64.34 205.8,154.23 271.09,269.67 65.28,115.44 97.94,248.84 97.94,400.23 0,151.4 -32.65,285.28 -97.94,401.66 -65.28,116.38 -155.65,206.74 -271.09,271.08 -115.42,64.34 -245.99,96.52 -391.71,96.52 -107.86,0 -206.74,-20.81 -296.63,-62.44 -89.89,-41.63 -166.05,-102.2 -228.5,-181.67l0 777.77 -272.51 0 0 -2055.12 261.16 0 0 238.43c60.55,-83.26 137.2,-146.18 229.92,-188.76 92.73,-42.58 194.91,-63.86 306.56,-63.86zm-22.7 1297.22c96.51,0 183.08,-22.23 259.73,-66.7 76.63,-44.47 137.19,-106.92 181.66,-187.34 44.47,-80.42 66.7,-172.68 66.7,-276.77 0,-104.08 -22.23,-196.33 -66.7,-276.76 -44.47,-80.42 -105.03,-142.4 -181.66,-185.93 -76.64,-43.52 -163.22,-65.28 -259.73,-65.28 -94.63,0 -180.25,22.24 -256.9,66.7 -76.63,44.47 -137.2,106.45 -181.67,185.93 -44.46,79.47 -66.7,171.26 -66.7,275.34 0,104.09 21.76,196.34 65.29,276.77 43.52,80.42 104.08,142.87 181.66,187.34 77.59,44.47 163.69,66.7 258.32,66.7zm1602.39 238.44c-149.5,0 -283.86,-33.11 -403.07,-99.35 -119.22,-66.23 -212.42,-157.54 -279.6,-273.93 -67.18,-116.38 -100.78,-248.37 -100.78,-395.98 0,-147.6 33.59,-279.6 100.78,-395.97 67.17,-116.39 160.38,-207.22 279.6,-272.51 119.22,-65.28 253.58,-97.93 403.07,-97.93 149.5,0 283.39,32.64 401.65,97.93 118.28,65.28 211,156.12 278.19,272.51 67.17,116.38 100.77,248.37 100.77,395.97 0,147.61 -33.59,279.61 -100.77,395.98 -67.18,116.39 -159.91,207.69 -278.19,273.93 -118.27,66.23 -252.15,99.35 -401.65,99.35zm0 -238.44c96.52,0 183.09,-22.23 259.73,-66.7 76.64,-44.47 136.73,-106.92 180.25,-187.34 43.53,-80.42 65.29,-172.68 65.29,-276.77 0,-104.08 -21.76,-196.33 -65.29,-276.76 -43.52,-80.42 -103.61,-142.4 -180.25,-185.93 -76.63,-43.52 -163.21,-65.28 -259.73,-65.28 -96.51,0 -183.09,21.76 -259.73,65.28 -76.64,43.53 -137.2,105.51 -181.67,185.93 -44.47,80.42 -66.7,172.68 -66.7,276.76 0,104.09 22.23,196.34 66.7,276.77 44.47,80.42 105.03,142.87 181.67,187.34 76.63,44.47 163.22,66.7 259.73,66.7zm1386.66 238.44c-123.01,0 -241.27,-16.56 -354.82,-49.67 -113.54,-33.12 -202.48,-75.22 -266.82,-126.32l113.54 -215.73c66.23,47.31 146.66,85.16 241.27,113.55 94.62,28.38 190.18,42.57 286.7,42.57 238.44,0 357.66,-68.12 357.66,-204.37 0,-45.42 -16.09,-81.37 -48.25,-107.87 -32.17,-26.49 -72.38,-45.89 -120.65,-58.19 -48.25,-12.3 -116.85,-26.02 -205.79,-41.15 -121.12,-18.93 -219.99,-40.69 -296.63,-65.29 -76.64,-24.6 -142.41,-66.23 -197.28,-124.9 -54.88,-58.66 -82.31,-140.98 -82.31,-246.95 0,-136.25 56.76,-245.53 170.31,-327.85 113.54,-82.32 265.88,-123.48 457.01,-123.48 100.3,0 200.59,12.3 300.89,36.9 100.3,24.59 182.61,57.71 246.95,99.35l-116.38 215.73c-123.01,-79.48 -267.78,-119.23 -434.31,-119.23 -115.44,0 -203.43,18.93 -263.99,56.77 -60.55,37.85 -90.84,88 -90.84,150.45 0,49.2 17.03,88 51.09,116.38 34.06,28.39 76.17,49.2 126.32,62.45 50.15,13.24 120.64,28.38 211.47,45.41 121.12,20.82 219.04,43.05 293.8,66.7 74.74,23.66 138.62,63.87 191.6,120.65 52.98,56.76 79.47,136.25 79.47,238.43 0,136.25 -58.18,244.59 -174.57,325.02 -116.38,80.42 -274.87,120.64 -475.46,120.64zm1454.81 -914.01l763.57 0 0 235.59 -763.57 0 0 -235.59zm3121.02 -133.42c115.44,32.17 206.27,90.37 272.5,174.57 66.23,84.21 99.36,190.66 99.36,319.34 0,172.21 -64.81,304.68 -194.44,397.4 -129.63,92.73 -318.4,139.09 -566.29,139.09l-948.08 0 0 -1987 891.3 0c227.08,0 402.6,45.41 526.55,136.25 123.96,90.84 185.93,216.68 185.93,377.53 0,104.09 -24.13,193.97 -72.38,269.67 -48.25,75.69 -113.07,133.41 -194.44,173.15zm-1053.1 -726.67l0 635.84 581.89 0c145.72,0 257.85,-26.96 336.37,-80.89 78.53,-53.93 117.81,-132.94 117.81,-237.02 0,-104.08 -39.27,-183.09 -117.81,-237.02 -78.52,-53.92 -190.65,-80.89 -336.37,-80.89l-581.89 0zm652.86 1527.15c160.86,0 281.97,-26.49 363.34,-79.48 81.37,-52.98 122.06,-136.25 122.06,-249.78 0,-221.41 -161.8,-332.12 -485.4,-332.12l-652.86 0 0 661.39 652.86 0zm2275.14 -266.83l-1055.94 0 -218.56 496.75 -292.38 0 899.81 -1987 281.03 0 902.66 1987 -298.05 0 -218.57 -496.75zm-99.36 -227.08l-428.62 -973.63 -428.62 973.63 857.23 0zm1335.59 -173.15l763.57 0 0 235.59 -763.57 0 0 -235.59zm2672.53 919.69c-198.7,0 -378,-44 -537.9,-132 -159.9,-88 -285.27,-209.1 -376.1,-363.33 -90.84,-154.23 -136.26,-327.86 -136.26,-520.88 0,-193.02 45.42,-366.65 136.26,-520.88 90.84,-154.23 216.67,-275.34 377.52,-363.33 160.85,-88 340.62,-132 539.32,-132 155.18,0 297.11,26.02 425.79,78.06 128.68,52.04 238.44,129.16 329.27,231.34l-184.5 178.83c-149.5,-157.07 -335.9,-235.6 -559.2,-235.6 -147.6,0 -281.02,33.12 -400.23,99.35 -119.21,66.23 -212.41,157.55 -279.59,273.93 -67.18,116.38 -100.78,246.48 -100.78,390.3 0,143.82 33.59,273.93 100.78,390.3 67.17,116.38 160.38,207.69 279.59,273.93 119.22,66.22 252.63,99.35 400.23,99.35 221.41,0 407.81,-79.48 559.2,-238.44l184.5 178.83c-90.83,102.2 -201.06,179.78 -330.69,232.76 -129.63,52.99 -272.03,79.48 -427.21,79.48zm2402.87 -269.67l0 246.95 -1441.99 0 0 -1987 1402.24 0 0 246.95 -1118.39 0 0 610.3 996.33 0 0 241.27 -996.33 0 0 641.52 1158.13 0zm1031.86 -1740.04c257.36,0 459.84,61.5 607.44,184.51 147.61,123 221.41,292.37 221.41,508.1 0,215.73 -73.8,385.1 -221.41,508.1 -147.6,123.01 -350.08,184.51 -607.44,184.51l-491.08 0 0 601.78 -283.86 0 0 -1987 774.94 0zm-8.52 1138.27c179.78,0 316.97,-38.32 411.58,-114.97 94.62,-76.63 141.93,-186.87 141.93,-330.69 0,-143.82 -47.31,-254.06 -141.93,-330.69 -94.62,-76.64 -231.8,-114.97 -411.58,-114.97l-482.56 0 0 891.31 482.56 0zm3410.55 360.5l-377.53 0 0 488.23 -275.34 0 0 -488.23 -1104.2 0 0 -198.7 1016.2 -1300.07 306.56 0 -973.62 1254.64 763.57 0 0 -431.46 266.83 0 0 431.46 377.53 0 0 244.12zm1696.07 0l-377.53 0 0 488.23 -275.33 0 0 -488.23 -1104.21 0 0 -198.7 1016.21 -1300.07 306.55 0 -973.62 1254.64 763.58 0 0 -431.46 266.82 0 0 431.46 377.53 0 0 244.12zm211.51 505.26c-52.99,0 -98.41,-18.45 -136.26,-55.35 -37.84,-36.9 -56.76,-83.73 -56.76,-140.51 0,-54.87 18.92,-100.77 56.76,-137.67 37.85,-36.9 83.26,-55.35 136.26,-55.35 52.98,0 97.46,17.98 133.41,53.93 35.96,35.95 53.93,82.31 53.93,139.09 0,56.77 -18.45,103.61 -55.35,140.51 -36.9,36.9 -80.89,55.35 -131.99,55.35z"/>
   <path class="fil1" d="M185098.87 4980.79c194.92,18.92 343.46,79 445.65,180.25 102.2,101.24 153.29,230.39 153.29,387.46 0,113.55 -28.39,216.2 -85.17,307.99 -56.76,91.78 -141.45,164.63 -254.04,218.56 -112.6,53.93 -250.26,80.9 -413.01,80.9 -141.93,0 -278.18,-21.29 -408.75,-63.87 -130.58,-42.57 -237.49,-101.72 -320.76,-177.41l130.58 -224.24c68.12,64.34 155.17,115.91 261.15,154.7 105.98,38.79 218.57,58.19 337.79,58.19 147.61,0 262.57,-31.22 344.89,-93.68 82.3,-62.44 123.47,-148.55 123.47,-258.31 0,-109.76 -40.69,-194.92 -122.05,-255.48 -81.37,-60.55 -204.38,-90.84 -369.02,-90.84l-158.96 0 0 -198.69 499.59 -613.14 -956.6 0 0 -246.95 1311.41 0 0 193.02 -519.45 641.52zm1406.53 0c194.92,18.92 343.47,79 445.66,180.25 102.2,101.24 153.29,230.39 153.29,387.46 0,113.55 -28.39,216.2 -85.17,307.99 -56.76,91.78 -141.45,164.63 -254.05,218.56 -112.6,53.93 -250.26,80.9 -413.01,80.9 -141.93,0 -278.18,-21.29 -408.75,-63.87 -130.58,-42.57 -237.49,-101.72 -320.76,-177.41l130.58 -224.24c68.12,64.34 155.17,115.91 261.15,154.7 105.98,38.79 218.57,58.19 337.79,58.19 147.61,0 262.57,-31.22 344.89,-93.68 82.31,-62.44 123.48,-148.55 123.48,-258.31 0,-109.76 -40.69,-194.92 -122.06,-255.48 -81.37,-60.55 -204.38,-90.84 -369.02,-90.84l-158.96 0 0 -198.69 499.59 -613.14 -956.6 0 0 -246.95 1311.42 0 0 193.02 -519.46 641.52zm1471.83 1175.17c-157.07,0 -296.64,-40.21 -418.69,-120.64 -122.05,-80.43 -218.08,-197.28 -288.11,-350.57 -70.01,-153.28 -105.03,-334.95 -105.03,-545 0,-210.05 35.01,-391.72 105.03,-545 70.02,-153.29 166.06,-270.14 288.11,-350.57 122.06,-80.42 261.63,-120.64 418.69,-120.64 155.17,0 293.79,40.21 415.84,120.64 122.06,80.43 218.09,197.28 288.12,350.57 70.01,153.28 105.03,334.95 105.03,545 0,210.05 -35.01,391.72 -105.03,545 -70.02,153.29 -166.06,270.14 -288.12,350.57 -122.06,80.42 -260.68,120.64 -415.84,120.64zm0 -252.63c158.96,0 286.22,-65.28 381.78,-195.86 95.57,-130.58 143.35,-319.81 143.35,-567.71 0,-247.9 -47.78,-437.14 -143.35,-567.71 -95.57,-130.58 -222.82,-195.86 -381.78,-195.86 -160.86,0 -289.07,65.28 -384.63,195.86 -95.57,130.58 -143.34,319.81 -143.34,567.71 0,247.9 47.77,437.14 143.34,567.71 95.57,130.58 223.77,195.86 384.63,195.86zm923.98 -667.06l763.57 0 0 235.59 -763.57 0 0 -235.59zm1690.4 919.69c-157.07,0 -296.64,-40.21 -418.69,-120.64 -122.06,-80.43 -218.09,-197.28 -288.12,-350.57 -70.01,-153.28 -105.03,-334.95 -105.03,-545 0,-210.05 35.01,-391.72 105.03,-545 70.02,-153.29 166.06,-270.14 288.12,-350.57 122.06,-80.42 261.63,-120.64 418.69,-120.64 155.17,0 293.79,40.21 415.84,120.64 122.06,80.43 218.09,197.28 288.12,350.57 70.01,153.28 105.03,334.95 105.03,545 0,210.05 -35.01,391.72 -105.03,545 -70.02,153.29 -166.06,270.14 -288.12,350.57 -122.06,80.42 -260.68,120.64 -415.84,120.64zm0 -252.63c158.96,0 286.22,-65.28 381.78,-195.86 95.57,-130.58 143.35,-319.81 143.35,-567.71 0,-247.9 -47.78,-437.14 -143.35,-567.71 -95.57,-130.58 -222.82,-195.86 -381.78,-195.86 -160.86,0 -289.07,65.28 -384.63,195.86 -95.57,130.58 -143.35,319.81 -143.35,567.71 0,247.9 47.78,437.14 143.35,567.71 95.57,130.58 223.77,195.86 384.63,195.86zm1690.39 252.63c-157.07,0 -296.64,-40.21 -418.69,-120.64 -122.06,-80.43 -218.08,-197.28 -288.11,-350.57 -70.01,-153.28 -105.03,-334.95 -105.03,-545 0,-210.05 35.01,-391.72 105.03,-545 70.02,-153.29 166.05,-270.14 288.11,-350.57 122.06,-80.42 261.63,-120.64 418.69,-120.64 155.17,0 293.79,40.21 415.84,120.64 122.06,80.43 218.09,197.28 288.12,350.57 70.01,153.28 105.03,334.95 105.03,545 0,210.05 -35.01,391.72 -105.03,545 -70.02,153.29 -166.06,270.14 -288.12,350.57 -122.06,80.42 -260.68,120.64 -415.84,120.64zm0 -252.63c158.96,0 286.22,-65.28 381.78,-195.86 95.57,-130.58 143.35,-319.81 143.35,-567.71 0,-247.9 -47.78,-437.14 -143.35,-567.71 -95.57,-130.58 -222.82,-195.86 -381.78,-195.86 -160.86,0 -289.07,65.28 -384.63,195.86 -95.57,130.58 -143.35,319.81 -143.35,567.71 0,247.9 47.78,437.14 143.35,567.71 95.57,130.58 223.77,195.86 384.63,195.86zm1690.39 252.63c-157.07,0 -296.63,-40.21 -418.68,-120.64 -122.06,-80.43 -218.09,-197.28 -288.12,-350.57 -70.01,-153.28 -105.03,-334.95 -105.03,-545 0,-210.05 35.01,-391.72 105.03,-545 70.02,-153.29 166.06,-270.14 288.12,-350.57 122.06,-80.42 261.62,-120.64 418.68,-120.64 155.17,0 293.79,40.21 415.84,120.64 122.06,80.43 218.09,197.28 288.12,350.57 70.01,153.28 105.03,334.95 105.03,545 0,210.05 -35.01,391.72 -105.03,545 -70.02,153.29 -166.06,270.14 -288.12,350.57 -122.06,80.42 -260.68,120.64 -415.84,120.64zm0 -252.63c158.96,0 286.22,-65.28 381.78,-195.86 95.57,-130.58 143.35,-319.81 143.35,-567.71 0,-247.9 -47.78,-437.14 -143.35,-567.71 -95.57,-130.58 -222.82,-195.86 -381.78,-195.86 -160.86,0 -289.06,65.28 -384.62,195.86 -95.57,130.58 -143.35,319.81 -143.35,567.71 0,247.9 47.78,437.14 143.35,567.71 95.57,130.58 223.76,195.86 384.62,195.86z"/>
  </g>
 </g>
</svg>
