<?xml version="1.0" encoding="UTF-8"?>
<!DOCTYPE svg PUBLIC "-//W3C//DTD SVG 1.1//EN" "http://www.w3.org/Graphics/SVG/1.1/DTD/svg11.dtd">
<!-- Creator: CorelDRAW -->
<svg xmlns="http://www.w3.org/2000/svg" xml:space="preserve" width="262.742mm" height="135.021mm" version="1.1" style="shape-rendering:geometricPrecision; text-rendering:geometricPrecision; image-rendering:optimizeQuality; fill-rule:evenodd; clip-rule:evenodd"
viewBox="0 0 26273.12 13501.58"
 xmlns:xlink="http://www.w3.org/1999/xlink"
 xmlns:xodm="http://www.corel.com/coreldraw/odm/2003">
 <defs>
  <style type="text/css">
   <![CDATA[
    .fil2 {fill:none}
    .fil0 {fill:red}
    .fil1 {fill:white;fill-rule:nonzero}
   ]]>
  </style>
   <clipPath id="id0">
    <path d="M-0 0l26273.12 0 0 13501.58 -26273.12 0 0 -13501.58z"/>
   </clipPath>
 </defs>
 <g id="Camada_x0020_1">
  <metadata id="CorelCorpID_0Corel-Layer"/>
  <g>
  </g>
  <g style="clip-path:url(#id0)">
   <g id="_2363017806224">
    <g>
     <path class="fil0" d="M13129.95 1615.96l1022.98 0 0 7955.02 -1022.98 0 -1022.98 0 0 -7955.02 1022.98 0zm1708.02 1432.46l0 6522.56 2024.45 0 -36.55 -542.53c141.31,218.82 308.03,386.3 512.5,494.94 197.51,109.86 432.32,161.63 693.64,161.63 298.76,0 548.03,-47.48 741.58,-151.04 199.05,-109.51 344.67,-244.65 438.95,-422.28 93.53,-172.11 150.7,-353.94 172.12,-541.74 26.17,-188.46 36.66,-563.93 36.66,-1120.9l0 -4400.63 -1988.68 0 0 4436.85c0,510.59 -16.78,808.57 -47.92,907.49 -31.13,93.5 -114.92,140.21 -250.83,140.21 -150.69,0 -239.89,-46.72 -265.64,-146.39 -26.48,-98.6 -42.39,-415.99 -42.39,-948.8l0 -4389.36 -1987.9 0zm-3416.05 0l0 6522.56 -2024.45 0 36.55 -542.53c-141.31,218.82 -308.02,386.3 -512.5,494.94 -197.51,109.86 -432.32,161.63 -693.64,161.63 -298.75,0 -548.03,-47.48 -741.58,-151.04 -199.05,-109.51 -344.67,-244.65 -438.95,-422.28 -93.53,-172.11 -150.7,-353.94 -172.11,-541.74 -26.17,-188.46 -36.66,-563.93 -36.66,-1120.9l0 -4400.63 1988.67 0 0 4436.85c0,510.59 16.79,808.57 47.93,907.49 31.13,93.5 114.92,140.21 250.83,140.21 150.68,0 239.9,-46.72 265.63,-146.39 26.48,-98.6 42.39,-415.99 42.39,-948.8l0 -4389.36 1987.9 0zm-7284.77 -1432.46l0 1880.7c-162.4,-187.68 -343.91,-327.9 -548.37,-421.73 -198.17,-93.53 -422.94,-140.66 -657.76,-140.66 -271.16,0 -505.97,41.74 -704.59,125.08 -204.14,87.67 -355.18,208.34 -459.6,359.81 -104.78,156.22 -167.04,307.69 -187.68,453.43 -21.09,146.05 -31.9,458.81 -31.9,943.71l0 2934.58c0,480.26 31.9,835.08 94.16,1068.81 62.71,234.37 213.86,437.73 448.34,610.3 237.14,172.13 518.34,255.04 841.28,255.04 234.82,0 454.5,-47.48 653.13,-151.04 204.02,-98.91 385.51,-250.05 553,-453.41l130.49 490.41 1859.72 0 0 -7955.02 -1990.22 0zm-605.56 3288.65c0,-338.82 21.42,-557.63 62.71,-662.4 47.04,-103.68 130.82,-156.21 256.24,-156.21 119.13,0 197.85,47.48 234.06,136.67 36.99,92.74 52.55,317.41 52.55,681.94l0 2809.74c0,349.32 -21.42,573.65 -63.03,672.24 -40.97,99.68 -119.26,146.39 -239.58,146.39 -125.41,0 -208.32,-51.78 -245.76,-151.48 -35.77,-103.66 -57.19,-343.9 -57.19,-734.17l0 -2742.72zm18591.14 -3288.65l0 1880.7c162.41,-187.68 343.91,-327.9 548.37,-421.73 198.17,-93.53 422.95,-140.66 657.78,-140.66 271.14,0 505.97,41.74 704.58,125.08 204.14,87.67 355.17,208.34 459.59,359.81 104.78,156.22 167.04,307.69 187.69,453.43 21.08,146.05 31.91,458.81 31.91,943.71l0 2934.58c0,480.26 -31.91,835.08 -94.18,1068.81 -62.71,234.37 -213.85,437.73 -448.34,610.3 -237.14,172.13 -518.34,255.04 -841.26,255.04 -234.83,0 -454.52,-47.48 -653.13,-151.04 -204.03,-98.91 -385.53,-250.05 -553.02,-453.41l-130.48 490.41 -1859.72 0 0 -7955.02 1990.21 0zm605.57 3288.65c0,-338.82 -21.42,-557.63 -62.71,-662.4 -47.05,-103.68 -130.83,-156.21 -256.25,-156.21 -119.13,0 -197.84,47.48 -234.06,136.67 -36.97,92.74 -52.55,317.41 -52.55,681.94l0 2809.74c0,349.32 21.42,573.65 63.04,672.24 40.97,99.68 119.25,146.39 239.59,146.39 125.4,0 208.31,-51.78 245.74,-151.48 35.78,-103.66 57.2,-343.9 57.2,-734.17l0 -2742.72z"/>
     <path class="fil1" d="M5253.16 11872.42l105.31 -785.45 -410.09 0 90.89 -217.93 1007.46 0 -91.06 217.93 -368.37 0 -105.31 785.45 -228.83 0zm1685.84 -607.43l-84.47 204.37 -615.77 0 -24.13 179.67 726.12 0 -92.48 223.38 -891.93 0 134.53 -1003.38 954.44 0 -92.42 223.33 -663.62 0 -23.16 172.62 672.87 0zm929.92 607.43l-629.84 0c-93.5,0 -164.06,-33.38 -212.77,-101 -47.34,-67.55 -64.88,-144.64 -53.08,-232.86l44.97 -335.44c12.14,-90.67 50.52,-168.55 115.13,-234.8 65.23,-65.91 145.37,-99.29 240.3,-99.29l691.43 0 -91.18 220.37 -571.31 0c-39.91,0 -75.56,14.08 -106.5,42.07 -29.81,27.7 -47.18,64.32 -53.25,109.62l-34.12 254.61c-6.08,45.3 2.21,81.69 24.64,108.83 22.87,26.85 54.15,40.48 94.63,41.27l632.96 0 -92.02 226.62zm1164.42 0l-231.05 0 -509.49 -654.36 -87.71 654.36 -230.36 0 134.48 -1003.38 230.42 0 509.15 656.8 88.05 -656.8 231.05 0 -134.54 1003.38zm153.84 -669.29c12.15,-90.67 50.52,-168.55 115.13,-234.8 65.23,-65.91 145.38,-99.29 240.3,-99.29l510.4 0c96.06,0 167.29,33.38 213.5,99.29 47.18,65.46 64.72,142.54 52.69,232.35l-45.65 340.33c-11.58,86.63 -49.79,163.66 -115.18,230.42 -65.46,67.62 -144.93,101 -239.85,101l-510.46 0c-93.56,0 -164.05,-33.38 -212.76,-101 -47.35,-67.55 -64.89,-144.64 -53.08,-232.86l44.96 -335.44zm703.24 442.67c42.46,-0.79 78.4,-14.93 106.39,-41.27 29.35,-26.34 47.63,-62.96 53.76,-108.83l34.34 -256.19c5.62,-46.73 -2.83,-83.34 -24.46,-109.69 -22.14,-27.64 -53.65,-41.27 -95.32,-41.27l-392.83 0c-41.22,0 -76.13,13.63 -105.88,41.27 -28.1,27.14 -46.15,63.53 -53.7,109.69l-34.63 258.35c-5.96,44.5 2.38,80.33 24.69,106.67 23.73,27.7 54.96,41.27 94.81,41.27l392.83 0zm1342.34 0l-94.75 226.62 -844.77 0 134.48 -1003.38 229.06 0 -104.17 776.76 680.13 0zm50.47 -442.67c12.15,-90.67 50.53,-168.55 115.13,-234.8 65.23,-65.91 145.38,-99.29 240.3,-99.29l510.46 0c96.05,0 167.23,33.38 213.45,99.29 47.17,65.46 64.71,142.54 52.68,232.35l-45.65 340.33c-11.58,86.63 -49.78,163.66 -115.18,230.42 -65.46,67.62 -144.93,101 -239.85,101l-510.46 0c-93.5,0 -164.05,-33.38 -212.76,-101 -47.35,-67.55 -64.89,-144.64 -53.08,-232.86l44.96 -335.44zm703.24 442.67c42.47,-0.79 78.4,-14.93 106.39,-41.27 29.35,-26.34 47.63,-62.96 53.76,-108.83l34.35 -256.19c5.62,-46.73 -2.84,-83.34 -24.47,-109.69 -22.14,-27.64 -53.59,-41.27 -95.32,-41.27l-392.83 0c-41.21,0 -76.13,13.63 -105.88,41.27 -28.1,27.14 -46.15,63.53 -53.64,109.69l-34.63 258.35c-6.02,44.5 2.32,80.33 24.63,106.67 23.73,27.7 54.96,41.27 94.81,41.27l392.83 0zm466.01 -442.67c12.15,-90.67 50.53,-168.55 115.13,-234.8 65.23,-65.91 145.38,-99.29 240.3,-99.29l779.77 0 -91.06 219.52 -664.47 0c-37.81,0 -72.16,14.42 -101.68,42.13 -29.8,27.93 -47.17,64.32 -53.25,109.62l-34.23 255.4c-6.07,45.3 2.21,81.69 24.64,108.83 22.88,26.85 54.16,40.48 94.58,41.27l437.22 0c37.3,-0.79 63.02,-8.69 77.67,-24.69 16.29,-16.58 26.45,-43.72 31.67,-82.55l9.48 -70.79 -283.44 0 81.92 -200.33 457.44 0 -42.3 315.63c-10.67,79.53 -45.81,147.14 -105.59,202.77 -59.95,56.43 -127.61,84.93 -202.78,86.58l-550.14 0c-93.55,0 -164.05,-33.38 -212.76,-101 -47.35,-67.55 -64.89,-144.64 -53.08,-232.86l44.96 -335.44zm1460.75 -334.09l-134.47 1003.38 -228.38 0 134.53 -1003.38 228.32 0zm207.04 855.44l-91.63 147.94 -258.69 0 635.62 -1003.38 253.53 0 366.33 1003.38 -264.82 0 -52.4 -147.94 -587.95 0zm521.24 -185.06l-147.65 -409.58 -256.53 409.58 404.18 0zm1957.53 -251.31l-92.47 223.33 -548.73 0 -48.42 360.99 -229 0 134.48 -1003.38 948.36 0 -92.25 223.33 -657.03 0 -26.23 195.73 611.28 0zm1000.26 357.7l-94.69 226.62 -844.83 0 134.53 -1003.38 229.01 0 -104.18 776.76 680.14 0zm1122.7 -776.76l-89.76 669.52c-11.81,88.22 -50.01,165.31 -115.47,232.86 -65.51,67.62 -144.92,101 -239.84,101l-392.89 0c-93.56,0 -164.06,-33.38 -212.77,-101 -47.34,-67.55 -64.89,-144.64 -53.02,-232.86l89.75 -669.52 230.14 0 -84.3 628.82c-5.96,44.5 2.61,80.33 24.86,106.67 23.5,27.7 55.01,41.27 94.64,41.27l276.18 0c41.27,0 76.13,-13.57 105.7,-41.27 29.35,-26.34 47.52,-62.17 53.48,-106.67l84.3 -628.82 229.01 0zm305.64 0l-134.54 1003.38 -228.32 0 134.48 -1003.38 228.38 0zm90.66 0l803.78 0c96.06,0 167.24,33.38 213.5,99.29 47.18,65.46 64.72,142.54 52.69,232.35l-45.65 340.33c-11.63,86.63 -49.78,163.66 -114.73,230.42 -65.51,67.62 -145.38,101 -240.3,101l-803.84 0 134.54 -1003.38zm124.88 776.76l516.31 0c41.78,-0.79 76.92,-14.42 105.71,-41.27 30.14,-27.14 48.37,-63.53 54.44,-108.83l34.12 -254.61c6.3,-46.94 -2.21,-83.28 -24.47,-109.62 -22.08,-27.99 -53.99,-42.07 -95.2,-42.07l-516.31 0 -74.6 556.39zm1163.18 78.68l-91.63 147.94 -258.75 0 635.69 -1003.38 253.52 0 366.33 1003.38 -264.82 0 -52.46 -147.94 -587.89 0zm521.24 -185.06l-147.7 -409.58 -256.54 409.58 404.24 0z"/>
    </g>
   </g>
  </g>
  <polygon class="fil2" points="-0,0 26273.12,0 26273.12,13501.58 -0,13501.58 "/>
 </g>
</svg>
