<?xml version="1.0" encoding="UTF-8"?>
<!DOCTYPE svg PUBLIC "-//W3C//DTD SVG 1.1//EN" "http://www.w3.org/Graphics/SVG/1.1/DTD/svg11.dtd">
<!-- Creator: CorelDRAW -->
<svg xmlns="http://www.w3.org/2000/svg" xml:space="preserve" width="145.074mm" height="73.936mm" version="1.1" style="shape-rendering:geometricPrecision; text-rendering:geometricPrecision; image-rendering:optimizeQuality; fill-rule:evenodd; clip-rule:evenodd"
viewBox="0 0 14506.38 7393.06"
 xmlns:xlink="http://www.w3.org/1999/xlink"
 xmlns:xodm="http://www.corel.com/coreldraw/odm/2003">
 <defs>
  <style type="text/css">
   <![CDATA[
    .fil2 {fill:none}
    .fil0 {fill:red}
    .fil1 {fill:white;fill-rule:nonzero}
   ]]>
  </style>
   <clipPath id="id0">
    <path d="M-0 0l14506.38 0 0 7393.06 -14506.38 0 0 -7393.06z"/>
   </clipPath>
 </defs>
 <g id="Camada_x0020_1">
  <metadata id="CorelCorpID_0Corel-Layer"/>
  <g>
  </g>
  <g style="clip-path:url(#id0)">
   <g id="_2345607578992">
    <g>
     <path class="fil0" d="M7253.18 1266.12l473.76 0 0 3684.11 -473.76 0 -473.76 0 0 -3684.11 473.76 0zm791.02 663.4l0 3020.71 937.55 0 -16.93 -251.25c65.45,101.34 142.65,178.9 237.35,229.21 91.46,50.88 200.22,74.85 321.24,74.85 138.35,0 253.8,-21.99 343.43,-69.95 92.18,-50.71 159.63,-113.29 203.3,-195.57 43.31,-79.7 69.78,-163.92 79.7,-250.89 12.12,-87.27 16.98,-261.16 16.98,-519.11l0 -2038 -920.99 0 0 2054.77c0,236.47 -7.77,374.47 -22.19,420.28 -14.42,43.31 -53.23,64.95 -116.17,64.95 -69.78,0 -111.09,-21.64 -123.01,-67.8 -12.27,-45.67 -19.64,-192.66 -19.64,-439.42l0 -2032.78 -920.62 0zm-1582.04 0l0 3020.71 -937.55 0 16.93 -251.25c-65.45,101.34 -142.65,178.9 -237.35,229.21 -91.46,50.88 -200.21,74.85 -321.24,74.85 -138.35,0 -253.8,-21.99 -343.43,-69.95 -92.18,-50.71 -159.62,-113.29 -203.3,-195.57 -43.31,-79.7 -69.78,-163.92 -79.7,-250.89 -12.12,-87.27 -16.97,-261.16 -16.97,-519.11l0 -2038 920.98 0 0 2054.77c0,236.47 7.78,374.47 22.19,420.28 14.42,43.31 53.23,64.95 116.17,64.95 69.78,0 111.1,-21.64 123.02,-67.8 12.26,-45.67 19.63,-192.66 19.63,-439.42l0 -2032.78 920.62 0zm-3373.69 -663.4l0 870.99c-75.21,-86.92 -159.27,-151.86 -253.96,-195.31 -91.77,-43.32 -195.88,-65.16 -304.63,-65.16 -125.57,0 -234.32,19.34 -326.31,57.94 -94.53,40.6 -164.48,96.48 -212.84,166.63 -48.53,72.35 -77.36,142.5 -86.91,209.99 -9.77,67.65 -14.78,212.49 -14.78,437.05l0 1359.05c0,222.42 14.78,386.75 43.61,494.99 29.04,108.54 99.04,202.73 207.63,282.64 109.83,79.71 240.05,118.11 389.6,118.11 108.75,0 210.5,-21.99 302.48,-69.95 94.49,-45.81 178.55,-115.8 256.11,-209.97l60.44 227.11 861.27 0 0 -3684.11 -921.7 0zm-280.44 1523.03c0,-156.92 9.91,-258.24 29.04,-306.77 21.78,-48.02 60.59,-72.34 118.67,-72.34 55.17,0 91.62,21.99 108.39,63.3 17.13,42.95 24.34,147 24.34,315.82l0 1301.24c0,161.77 -9.92,265.66 -29.19,311.33 -18.98,46.16 -55.23,67.8 -110.96,67.8 -58.08,0 -96.47,-23.99 -113.81,-70.15 -16.57,-48.02 -26.48,-159.27 -26.48,-340.01l0 -1270.21zm10527.02 -1681.79c136.79,0 251.25,51.57 345.48,146.21 94.74,98.93 142.4,213.4 142.4,345.87 0,89.43 -23.33,174.56 -71,250.16 -46.96,75.61 -103.54,137.39 -180.15,175.25 -76.7,42.36 -156.83,61.09 -236.73,61.09 -142,0 -256.46,-46.97 -350.4,-147.01 -95.43,-94.33 -142.69,-207.39 -142.69,-339.49 0,-95.02 23.93,-175.94 71.99,-256.45 46.67,-74.9 107.75,-132.49 179.86,-174.55 74.9,-37.76 156.52,-61.09 241.24,-61.09zm0 80.51c-117.97,0 -217.21,42.46 -298.83,127.18 -75.6,80.21 -114.16,174.84 -114.16,284.39 0,117.68 44.57,212.3 130.09,293.22 78.71,75.6 173.75,112.76 282.9,112.76 112.36,0 212.7,-42.76 293.21,-127.18 76.71,-76 114.17,-170.34 114.17,-278.8 0,-118.66 -42.37,-218.3 -128.59,-298.51 -80.21,-75.91 -175.25,-113.06 -278.79,-113.06zm-217.21 680.05l84.72 0 0 -222.2 51.98 0 70.29 19.42c18.33,14.53 47.37,56.89 85.52,118.77l47.67 84.01 103.85 0 -66.8 -104.14c-27.54,-41.76 -51.18,-80.21 -74.81,-98.64l-48.07 -33.54c42.76,-3.91 80.91,-18.33 109.46,-46.67 28.64,-23.63 43.16,-61.39 43.16,-99.94l-24.03 -80.21 -66.1 -47.27c-29.34,-8.92 -71,-14.52 -132.49,-14.52l-184.37 0 0 524.93zm84.72 -297.12l103.55 0c48.37,0 80.2,-5.3 99.24,-19.43l29.34 -61.49 -14.43 -42.66 -37.45 -28.34c-14.52,-4.2 -42.76,-4.2 -80.61,-4.2l-99.64 0 0 156.11zm-1784.66 -304.69l0 870.99c75.21,-86.92 159.28,-151.86 253.96,-195.31 91.77,-43.32 195.88,-65.16 304.63,-65.16 125.58,0 234.32,19.34 326.31,57.94 94.54,40.6 164.48,96.48 212.84,166.63 48.53,72.35 77.36,142.5 86.92,209.99 9.76,67.65 14.78,212.49 14.78,437.05l0 1359.05c0,222.42 -14.78,386.75 -43.62,494.99 -29.04,108.54 -99.04,202.73 -207.63,282.64 -109.83,79.71 -240.05,118.11 -389.6,118.11 -108.75,0 -210.5,-21.99 -302.48,-69.95 -94.49,-45.81 -178.55,-115.8 -256.11,-209.97l-60.44 227.11 -861.27 0 0 -3684.11 921.7 0zm280.44 1523.03c0,-156.92 -9.91,-258.24 -29.04,-306.77 -21.78,-48.02 -60.59,-72.34 -118.67,-72.34 -55.17,0 -91.62,21.99 -108.39,63.3 -17.13,42.95 -24.34,147 -24.34,315.82l0 1301.24c0,161.77 9.92,265.66 29.19,311.33 18.98,46.16 55.23,67.8 110.96,67.8 58.08,0 96.47,-23.99 113.81,-70.15 16.57,-48.02 26.48,-159.27 26.48,-340.01l0 -1270.21z"/>
     <path class="fil1" d="M2802.47 6272.5l58.72 -437.98 -228.67 0 50.68 -121.53 561.78 0 -50.77 121.53 -205.41 0 -58.72 437.98 -127.6 0zm940.05 -338.72l-47.1 113.96 -343.36 0 -13.45 100.18 404.89 0 -51.56 124.57 -497.36 0 75.01 -559.51 532.22 0 -51.54 124.53 -370.04 0 -12.92 96.26 375.2 0zm518.54 338.72l-351.21 0c-52.14,0 -91.48,-18.62 -118.64,-56.32 -26.4,-37.68 -36.18,-80.66 -29.6,-129.85l25.08 -187.05c6.77,-50.56 28.17,-93.98 64.2,-130.93 36.37,-36.75 81.06,-55.37 133.99,-55.37l385.56 0 -50.84 122.89 -318.58 0c-22.26,0 -42.14,7.85 -59.39,23.45 -16.62,15.45 -26.31,35.87 -29.7,61.13l-19.02 141.98c-3.39,25.26 1.23,45.55 13.74,60.68 12.75,14.98 30.2,22.58 52.77,23.02l352.95 0 -51.32 126.37zm649.3 0l-128.83 0 -284.1 -364.89 -48.91 364.89 -128.46 0 74.99 -559.51 128.48 0 283.92 366.25 49.1 -366.25 128.83 0 -75.02 559.51zm85.79 -373.21c6.77,-50.56 28.17,-93.98 64.2,-130.93 36.37,-36.75 81.06,-55.37 133.99,-55.37l284.61 0c53.57,0 93.29,18.62 119.06,55.37 26.3,36.5 36.08,79.48 29.37,129.56l-25.45 189.78c-6.46,48.31 -27.76,91.26 -64.23,128.49 -36.5,37.7 -80.81,56.32 -133.74,56.32l-284.65 0c-52.17,0 -91.48,-18.62 -118.64,-56.32 -26.4,-37.68 -36.18,-80.66 -29.6,-129.85l25.08 -187.05zm392.14 246.84c23.68,-0.44 43.71,-8.33 59.32,-23.02 16.37,-14.68 26.56,-35.1 29.98,-60.68l19.15 -142.86c3.14,-26.06 -1.58,-46.47 -13.64,-61.16 -12.35,-15.42 -29.92,-23.02 -53.15,-23.02l-219.05 0c-22.98,0 -42.45,7.6 -59.04,23.02 -15.67,15.13 -25.74,35.42 -29.95,61.16l-19.31 144.06c-3.32,24.82 1.33,44.8 13.77,59.48 13.23,15.45 30.64,23.02 52.87,23.02l219.05 0zm748.51 0l-52.83 126.37 -471.06 0 74.98 -559.51 127.73 0 -58.09 433.14 379.25 0zm28.15 -246.84c6.77,-50.56 28.17,-93.98 64.2,-130.93 36.37,-36.75 81.06,-55.37 133.99,-55.37l284.64 0c53.57,0 93.26,18.62 119.03,55.37 26.3,36.5 36.09,79.48 29.37,129.56l-25.45 189.78c-6.46,48.31 -27.76,91.26 -64.23,128.49 -36.5,37.7 -80.81,56.32 -133.74,56.32l-284.64 0c-52.14,0 -91.48,-18.62 -118.65,-56.32 -26.4,-37.68 -36.18,-80.66 -29.6,-129.85l25.08 -187.05zm392.14 246.84c23.68,-0.44 43.72,-8.33 59.32,-23.02 16.37,-14.68 26.56,-35.1 29.98,-60.68l19.15 -142.86c3.14,-26.06 -1.58,-46.47 -13.64,-61.16 -12.35,-15.42 -29.88,-23.02 -53.15,-23.02l-219.05 0c-22.98,0 -42.45,7.6 -59.04,23.02 -15.67,15.13 -25.74,35.42 -29.92,61.16l-19.31 144.06c-3.35,24.82 1.3,44.8 13.74,59.48 13.23,15.45 30.65,23.02 52.87,23.02l219.05 0zm259.85 -246.84c6.78,-50.56 28.18,-93.98 64.2,-130.93 36.38,-36.75 81.07,-55.37 134,-55.37l434.81 0 -50.78 122.41 -370.52 0c-21.08,0 -40.23,8.04 -56.69,23.49 -16.62,15.58 -26.31,35.87 -29.7,61.13l-19.09 142.42c-3.38,25.26 1.24,45.55 13.74,60.68 12.76,14.98 30.2,22.58 52.74,23.02l243.81 0c20.8,-0.44 35.14,-4.84 43.3,-13.77 9.09,-9.25 14.76,-24.38 17.67,-46.03l5.29 -39.48 -158.06 0 45.68 -111.71 255.08 0 -23.59 176.01c-5.95,44.35 -25.55,82.04 -58.88,113.07 -33.43,31.47 -71.16,47.36 -113.07,48.28l-306.77 0c-52.17,0 -91.48,-18.62 -118.64,-56.32 -26.4,-37.68 -36.19,-80.66 -29.6,-129.85l25.07 -187.05zm814.55 -186.3l-74.99 559.51 -127.35 0 75.02 -559.51 127.32 0zm115.44 477.02l-51.1 82.49 -144.25 0 354.44 -559.51 141.37 0 204.27 559.51 -147.67 0 -29.22 -82.49 -327.85 0zm290.66 -103.2l-82.33 -228.38 -143.05 228.38 225.38 0zm1091.55 -140.13l-51.57 124.53 -305.97 0 -27.01 201.3 -127.69 0 74.98 -559.51 528.83 0 -51.44 124.53 -366.38 0 -14.62 109.15 340.86 0zm557.76 199.46l-52.8 126.37 -471.09 0 75.01 -559.51 127.7 0 -58.09 433.14 379.25 0zm626.04 -433.14l-50.05 373.34c-6.58,49.19 -27.89,92.17 -64.39,129.85 -36.53,37.7 -80.81,56.32 -133.74,56.32l-219.08 0c-52.17,0 -91.48,-18.62 -118.64,-56.32 -26.41,-37.68 -36.19,-80.66 -29.57,-129.85l50.05 -373.34 128.33 0 -47.01 350.64c-3.33,24.82 1.45,44.8 13.86,59.48 13.11,15.45 30.68,23.02 52.77,23.02l154.01 0c23.01,0 42.45,-7.57 58.94,-23.02 16.37,-14.68 26.5,-34.66 29.82,-59.48l47.01 -350.64 127.7 0zm170.43 0l-75.01 559.51 -127.32 0 74.99 -559.51 127.34 0zm50.56 0l448.2 0c53.57,0 93.26,18.62 119.06,55.37 26.3,36.5 36.09,79.48 29.38,129.56l-25.46 189.78c-6.49,48.31 -27.76,91.26 -63.98,128.49 -36.53,37.7 -81.06,56.32 -133.99,56.32l-448.24 0 75.02 -559.51zm69.64 433.14l287.9 0c23.3,-0.44 42.89,-8.04 58.94,-23.02 16.81,-15.13 26.98,-35.42 30.36,-60.68l19.03 -141.98c3.51,-26.18 -1.24,-46.44 -13.64,-61.13 -12.32,-15.6 -30.11,-23.45 -53.09,-23.45l-287.91 0 -41.59 310.25zm648.6 43.88l-51.09 82.49 -144.29 0 354.47 -559.51 141.37 0 204.28 559.51 -147.67 0 -29.25 -82.49 -327.83 0zm290.66 -103.2l-82.36 -228.38 -143.05 228.38 225.41 0z"/>
    </g>
   </g>
  </g>
  <polygon class="fil2" points="-0,0 14506.38,0 14506.38,7393.06 -0,7393.06 "/>
 </g>
</svg>
