<?xml version="1.0" encoding="UTF-8"?>
<!DOCTYPE svg PUBLIC "-//W3C//DTD SVG 1.1//EN" "http://www.w3.org/Graphics/SVG/1.1/DTD/svg11.dtd">
<!-- Creator: CorelDRAW -->
<svg xmlns="http://www.w3.org/2000/svg" xml:space="preserve" width="144.311mm" height="71.4038mm" version="1.1" style="shape-rendering:geometricPrecision; text-rendering:geometricPrecision; image-rendering:optimizeQuality; fill-rule:evenodd; clip-rule:evenodd"
viewBox="0 0 14416.87 7133.33"
 xmlns:xlink="http://www.w3.org/1999/xlink"
 xmlns:xodm="http://www.corel.com/coreldraw/odm/2003">
 <defs>
  <style type="text/css">
   <![CDATA[
    .fil0 {fill:none}
    .fil2 {fill:red}
    .fil1 {fill:white;fill-rule:nonzero}
   ]]>
  </style>
 </defs>
 <g id="Camada_x0020_1">
  <metadata id="CorelCorpID_0Corel-Layer"/>
  <rect class="fil0" y="-0" width="14416.87" height="7133.34"/>
  <g id="_2400398402944">
   <path class="fil1" d="M852.52 6633.83l85.68 -639.03 -333.65 0 73.95 -177.3 819.66 0 -74.09 177.3 -299.69 0 -85.68 639.03 -186.18 0zm1371.57 -494.19l-68.72 166.28 -500.97 0 -19.63 146.18 590.76 0 -75.24 181.74 -725.66 0 109.45 -816.33 776.52 0 -75.19 181.69 -539.92 0 -18.84 140.45 547.44 0zm756.56 494.19l-512.42 0c-76.07,0 -133.48,-27.15 -173.11,-82.16 -38.51,-54.97 -52.79,-117.68 -43.18,-189.45l36.57 -272.92c9.88,-73.76 41.11,-137.12 93.67,-191.02 53.07,-53.63 118.28,-80.78 195.51,-80.78l562.53 0 -74.18 179.29 -464.81 0c-32.47,0 -61.47,11.46 -86.64,34.23 -24.25,22.54 -38.37,52.33 -43.32,89.18l-27.76 207.15c-4.94,36.85 1.81,66.46 20.05,88.54 18.61,21.84 44.06,32.93 76.99,33.58l514.96 0 -74.87 184.37zm947.36 0l-187.97 0 -414.52 -532.38 -71.36 532.38 -187.41 0 109.41 -816.33 187.46 0 414.24 534.37 71.64 -534.37 187.97 0 -109.46 816.33zm125.17 -544.53c9.88,-73.76 41.1,-137.12 93.66,-191.02 53.07,-53.63 118.28,-80.78 195.51,-80.78l415.26 0c78.14,0 136.11,27.15 173.7,80.78 38.38,53.25 52.65,115.98 42.86,189.03l-37.13 276.89c-9.42,70.48 -40.5,133.16 -93.71,187.47 -53.25,55.01 -117.91,82.16 -195.14,82.16l-415.3 0c-76.11,0 -133.48,-27.15 -173.1,-82.16 -38.52,-54.97 -52.8,-117.68 -43.19,-189.45l36.58 -272.92zm572.14 360.16c34.55,-0.65 63.78,-12.15 86.55,-33.58 23.88,-21.43 38.74,-51.22 43.74,-88.54l27.94 -208.43c4.57,-38.01 -2.31,-67.8 -19.91,-89.23 -18.01,-22.5 -43.65,-33.58 -77.54,-33.58l-319.6 0c-33.54,0 -61.94,11.08 -86.13,33.58 -22.87,22.08 -37.55,51.68 -43.7,89.23l-28.17 210.19c-4.85,36.2 1.94,65.36 20.09,86.78 19.31,22.54 44.71,33.58 77.13,33.58l319.6 0zm1092.1 0l-77.08 184.37 -687.28 0 109.41 -816.33 186.36 0 -84.75 631.97 553.34 0zm41.06 -360.16c9.89,-73.76 41.11,-137.12 93.67,-191.02 53.07,-53.63 118.28,-80.78 195.51,-80.78l415.3 0c78.14,0 136.07,27.15 173.66,80.78 38.38,53.25 52.65,115.98 42.86,189.03l-37.13 276.89c-9.42,70.48 -40.5,133.16 -93.71,187.47 -53.26,55.01 -117.91,82.16 -195.14,82.16l-415.3 0c-76.06,0 -133.48,-27.15 -173.11,-82.16 -38.51,-54.97 -52.79,-117.68 -43.18,-189.45l36.57 -272.92zm572.15 360.16c34.55,-0.65 63.78,-12.15 86.54,-33.58 23.88,-21.43 38.75,-51.22 43.74,-88.54l27.94 -208.43c4.58,-38.01 -2.31,-67.8 -19.9,-89.23 -18.01,-22.5 -43.6,-33.58 -77.54,-33.58l-319.6 0c-33.54,0 -61.94,11.08 -86.14,33.58 -22.86,22.08 -37.54,51.68 -43.64,89.23l-28.18 210.19c-4.9,36.2 1.9,65.36 20.05,86.78 19.3,22.54 44.71,33.58 77.13,33.58l319.6 0zm379.14 -360.16c9.88,-73.76 41.1,-137.12 93.67,-191.02 53.07,-53.63 118.27,-80.78 195.5,-80.78l634.41 0 -74.09 178.6 -540.61 0c-30.76,0 -58.7,11.73 -82.72,34.27 -24.25,22.73 -38.38,52.33 -43.32,89.18l-27.85 207.79c-4.95,36.85 1.8,66.46 20.04,88.54 18.62,21.84 44.07,32.93 76.95,33.58l355.72 0c30.34,-0.65 51.27,-7.07 63.18,-20.09 13.26,-13.49 21.53,-35.56 25.77,-67.15l7.71 -57.6 -230.6 0 66.64 -162.99 372.16 0 -34.41 256.8c-8.68,64.71 -37.27,119.71 -85.91,164.98 -48.77,45.91 -103.83,69.09 -164.98,70.43l-447.59 0c-76.1,0 -133.47,-27.15 -173.1,-82.16 -38.52,-54.97 -52.79,-117.68 -43.19,-189.45l36.58 -272.92zm1188.45 -271.8l-109.41 816.33 -185.81 0 109.46 -816.33 185.76 0zm168.44 695.97l-74.55 120.36 -210.47 0 517.15 -816.33 206.26 0 298.04 816.33 -215.45 0 -42.64 -120.36 -478.34 0zm424.07 -150.56l-120.13 -333.23 -208.7 333.23 328.84 0zm1592.63 -204.47l-75.25 181.7 -446.43 0 -39.39 293.69 -186.32 0 109.41 -816.33 771.58 0 -75.05 181.69 -534.55 0 -21.34 159.25 497.33 0zm813.79 291.02l-77.03 184.37 -687.34 0 109.46 -816.33 186.32 0 -84.76 631.97 553.35 0zm913.42 -631.97l-73.03 544.72c-9.6,71.77 -40.69,134.49 -93.94,189.45 -53.3,55.01 -117.91,82.16 -195.14,82.16l-319.64 0c-76.11,0 -133.48,-27.15 -173.11,-82.16 -38.52,-54.97 -52.79,-117.68 -43.14,-189.45l73.02 -544.72 187.23 0 -68.58 511.6c-4.85,36.2 2.13,65.36 20.23,86.78 19.12,22.54 44.76,33.58 76.99,33.58l224.69 0c33.58,0 61.94,-11.04 86.01,-33.58 23.88,-21.43 38.65,-50.58 43.51,-86.78l68.58 -511.6 186.32 0zm248.66 0l-109.46 816.33 -185.77 0 109.42 -816.33 185.81 0zm73.76 0l653.94 0c78.14,0 136.06,27.15 173.7,80.78 38.38,53.25 52.65,115.98 42.86,189.03l-37.13 276.89c-9.46,70.48 -40.5,133.16 -93.34,187.47 -53.3,55.01 -118.28,82.16 -195.51,82.16l-653.98 0 109.46 -816.33zm101.61 631.97l420.05 0c33.99,-0.65 62.58,-11.74 86,-33.58 24.53,-22.08 39.35,-51.69 44.3,-88.54l27.75 -207.15c5.12,-38.19 -1.8,-67.75 -19.9,-89.18 -17.97,-22.77 -43.93,-34.23 -77.45,-34.23l-420.06 0 -60.68 452.67zm946.33 64.01l-74.54 120.36 -210.52 0 517.19 -816.33 206.27 0 298.04 816.33 -215.46 0 -42.67 -120.36 -478.31 0zm424.08 -150.56l-120.17 -333.23 -208.71 333.23 328.89 0z"/>
   <path class="fil2" d="M7208.44 499.51l598.12 0 0 4651.19 -598.12 0 -598.12 0 0 -4651.19 598.12 0zm998.65 837.55l0 3813.64 1183.66 0 -21.38 -317.21c82.62,127.95 180.09,225.87 299.65,289.39 115.48,64.22 252.77,94.5 405.56,94.5 174.67,0 320.41,-27.76 433.58,-88.31 116.38,-64.03 201.52,-143.04 256.66,-246.9 54.67,-100.64 88.1,-206.96 100.62,-316.76 15.3,-110.19 21.44,-329.72 21.44,-655.38l0 -2572.98 -1162.74 0 0 2594.16c0,298.54 -9.81,472.76 -28.01,530.6 -18.2,54.68 -67.19,81.99 -146.67,81.99 -88.11,0 -140.26,-27.31 -155.31,-85.6 -15.48,-57.65 -24.79,-243.22 -24.79,-554.75l0 -2566.39 -1162.28 0zm-1997.31 0l0 3813.64 -1183.66 0 21.38 -317.21c-82.63,127.95 -180.1,225.87 -299.65,289.39 -115.48,64.22 -252.77,94.5 -405.56,94.5 -174.67,0 -320.42,-27.76 -433.58,-88.31 -116.38,-64.03 -201.52,-143.04 -256.66,-246.9 -54.68,-100.64 -88.11,-206.96 -100.63,-316.76 -15.29,-110.19 -21.43,-329.72 -21.43,-655.38l0 -2572.98 1162.74 0 0 2594.16c0,298.54 9.81,472.76 28.01,530.6 18.2,54.68 67.19,81.99 146.66,81.99 88.11,0 140.26,-27.31 155.32,-85.6 15.47,-57.65 24.79,-243.22 24.79,-554.75l0 -2566.39 1162.28 0zm-4259.26 -837.55l0 1099.62c-94.96,-109.73 -201.07,-191.72 -320.62,-246.58 -115.87,-54.69 -247.29,-82.25 -384.59,-82.25 -158.52,0 -295.83,24.41 -411.95,73.14 -119.35,51.26 -207.65,121.81 -268.71,210.37 -61.27,91.35 -97.67,179.9 -109.73,265.12 -12.33,85.4 -18.66,268.26 -18.66,551.76l0 1715.81c0,280.8 18.66,488.27 55.07,624.92 36.65,137.03 125.04,255.94 262.13,356.84 138.65,100.63 303.06,149.11 491.86,149.11 137.3,0 265.76,-27.76 381.87,-88.31 119.3,-57.83 225.42,-146.21 323.34,-265.1l76.3 286.73 1087.34 0 0 -4651.19 -1163.64 0zm-354.06 1922.83c0,-198.1 12.52,-326.03 36.66,-387.3 27.5,-60.62 76.49,-91.34 149.82,-91.34 69.65,0 115.68,27.76 136.85,79.91 21.62,54.23 30.72,185.59 30.72,398.73l0 1642.82c0,204.24 -12.52,335.4 -36.85,393.05 -23.96,58.28 -69.72,85.6 -140.08,85.6 -73.32,0 -121.8,-30.28 -143.69,-88.57 -20.92,-60.61 -33.44,-201.07 -33.44,-429.26l0 -1603.64zm10869.88 -1922.83l0 1099.62c94.97,-109.73 201.09,-191.72 320.62,-246.58 115.88,-54.69 247.3,-82.25 384.59,-82.25 158.54,0 295.83,24.41 411.96,73.14 119.35,51.26 207.65,121.81 268.71,210.37 61.27,91.35 97.67,179.9 109.74,265.12 12.32,85.4 18.65,268.26 18.65,551.76l0 1715.81c0,280.8 -18.65,488.27 -55.07,624.92 -36.66,137.03 -125.04,255.94 -262.13,356.84 -138.66,100.63 -303.07,149.11 -491.87,149.11 -137.29,0 -265.75,-27.76 -381.87,-88.31 -119.29,-57.83 -225.42,-146.21 -323.34,-265.1l-76.29 286.73 -1087.34 0 0 -4651.19 1163.63 0zm354.06 1922.83c0,-198.1 -12.52,-326.03 -36.65,-387.3 -27.51,-60.62 -76.49,-91.34 -149.82,-91.34 -69.66,0 -115.68,27.76 -136.85,79.91 -21.62,54.23 -30.73,185.59 -30.73,398.73l0 1642.82c0,204.24 12.53,335.4 36.85,393.05 23.97,58.28 69.73,85.6 140.09,85.6 73.32,0 121.79,-30.28 143.68,-88.57 20.92,-60.61 33.44,-201.07 33.44,-429.26l0 -1603.64z"/>
  </g>
 </g>
</svg>
