<?xml version="1.0" encoding="UTF-8"?>
<!DOCTYPE svg PUBLIC "-//W3C//DTD SVG 1.1//EN" "http://www.w3.org/Graphics/SVG/1.1/DTD/svg11.dtd">
<!-- Creator: CorelDRAW -->
<svg xmlns="http://www.w3.org/2000/svg" xml:space="preserve" width="184.224mm" height="125.961mm" version="1.1" style="shape-rendering:geometricPrecision; text-rendering:geometricPrecision; image-rendering:optimizeQuality; fill-rule:evenodd; clip-rule:evenodd"
viewBox="0 0 19641.79 13429.87"
 xmlns:xlink="http://www.w3.org/1999/xlink"
 xmlns:xodm="http://www.corel.com/coreldraw/odm/2003">
 <defs>
  <style type="text/css">
   <![CDATA[
    .fil0 {fill:none}
    .fil1 {fill:red}
   ]]>
  </style>
 </defs>
 <g id="Camada_x0020_1">
  <metadata id="CorelCorpID_0Corel-Layer"/>
  <rect class="fil0" x="-0.01" y="-0.01" width="19641.78" height="13429.87"/>
  <polygon class="fil1" points="1110.64,7112.8 8136.68,7112.8 533.1,10333.66 "/>
  <path class="fil1" d="M14610.99 8001.74c92.23,257.13 141.09,521.02 141.09,789.35 0,2262.76 -3319.41,4105.68 -7384.42,4105.68 -2595.69,0 -4887.97,-753.36 -6201.45,-1884.48l516.03 -218.58c1292.07,1047.95 3429.6,1735.99 5836.29,1735.99 3932.8,0 7136.39,-1832.28 7136.39,-4080.42 0,-150.11 -13.76,-300.76 -43.93,-447.53zm-3512.75 29.1c40.91,106.72 59.05,220.33 59.05,330.63 0,947.67 -1475.07,1718.88 -3288.6,1718.88 -1129.3,0 -2128.6,-300.01 -2723.55,-753.52l228.76 -96.88c580.83,421.33 1511.85,695.71 2561.42,695.71 1753.74,0 3181.28,-763.59 3181.28,-1703.87 0,-65.81 -7.41,-128.1 -18.37,-190.94zm1144.13 -69.14c58.96,153.9 88.36,315.22 88.36,480.42 0,1374.02 -2086.04,2497.56 -4642.32,2497.56 -1577.47,0 -2973.56,-425.74 -3813.81,-1074.64l328.24 -139.04c818.48,600.36 2119.85,989.84 3580.52,989.84 2472.6,0 4489.19,-1116.69 4489.19,-2483.09 0,-91.61 -11.5,-183.78 -30.17,-271.05zm1129.3 -40.6c73.26,205.8 110.56,422.24 110.56,638.99 0,1832.28 -2689.33,3327.03 -5985.32,3327.03 -2053.6,0 -3869.11,-581.91 -4948.08,-1460.51l424.98 -180.01c1055.31,815.03 2746.5,1343.34 4647.92,1343.34 3185.95,0 5782.9,-1483.79 5782.9,-3305.31 0,-124.52 -11.29,-246.09 -32.97,-363.53z"/>
  <path class="fil1" d="M15876.91 3091.33c0,-238.69 -15.09,-392.83 -44.17,-466.64 -33.14,-73.03 -92.16,-110.05 -180.52,-110.05 -83.92,0 -139.37,33.45 -164.89,96.29 -26.05,65.33 -37.02,223.6 -37.02,480.41l0 1979.35c0,246.08 15.09,404.11 44.41,473.57 28.86,70.22 84.01,103.12 168.78,103.12 88.34,0 146.75,-36.47 173.12,-106.7 25.2,-73.03 40.29,-242.27 40.29,-517.2l0 -1932.14zm-426.59 -2316.73l0 1324.88c114.41,-132.22 242.27,-230.99 386.3,-297.09 139.61,-65.88 297.96,-99.09 463.38,-99.09 191.02,0 356.44,29.41 496.36,88.12 143.81,61.75 250.2,146.76 323.77,253.47 73.81,110.05 117.68,216.76 132.22,319.42 14.85,102.9 22.48,323.23 22.48,664.81l0 2067.31c0,338.32 -22.48,588.28 -66.34,752.93 -44.17,165.11 -150.65,308.37 -315.84,429.93 -167.06,121.26 -365.15,179.66 -592.64,179.66 -165.42,0 -320.19,-33.45 -460.1,-106.4 -143.73,-69.69 -271.59,-176.16 -389.58,-319.42l-91.93 345.48 -1310.11 0 0 -5604.02 1402.03 0zm-1903.05 1009.12l0 4594.9 -1426.15 0 25.75 -382.19c-99.55,154.15 -216.99,272.14 -361.03,348.67 -139.14,77.38 -304.56,113.86 -488.65,113.86 -210.46,0 -386.07,-33.45 -522.41,-106.4 -140.23,-77.15 -242.8,-172.35 -309.23,-297.49 -65.88,-121.25 -106.16,-249.34 -121.25,-381.63 -18.43,-132.76 -25.82,-397.27 -25.82,-789.64l0 -3100.07 1400.95 0 0 3125.59c0,359.7 11.82,569.61 33.76,639.3 21.93,65.87 80.96,98.77 176.7,98.77 106.16,0 169,-32.9 187.13,-103.12 18.66,-69.46 29.86,-293.05 29.86,-668.4l0 -3092.14 1400.4 0zm-3711.38 4594.9l-1441.31 0 0 -5604.02 1441.31 0 0 5604.02zm-1945.04 -4594.9l0 4594.9 -1422.88 0 24.96 -382.19c-99.01,154.15 -217.54,272.14 -361.33,348.67 -139.06,77.38 -304.57,113.86 -489.2,113.86 -209.06,0 -385.99,-33.45 -521.87,-106.4 -140.14,-77.15 -242.26,-172.35 -308.6,-297.49 -67.51,-121.25 -107.33,-249.34 -121.33,-381.63 -18.9,-132.76 -26.6,-397.27 -26.6,-789.64l0 -3100.07 1401.49 0 0 3125.59c0,359.7 11.28,569.61 33.45,639.3 22.24,65.87 81.28,98.77 176.47,98.77 107.02,0 165.2,-32.9 187.67,-103.12 18.67,-69.46 29.86,-293.05 29.86,-668.4l0 -3092.14 1397.92 0zm-5628.67 -51.02l0 3686.96c209.05,0 342.44,-43.64 389.57,-124.83 48.3,-88.05 70.3,-315.76 70.3,-690.01l0 -2174.41c0,-253.54 -7.46,-418.97 -22.01,-488.34 -14.54,-69.45 -51.56,-125.14 -110.29,-158.35 -59.26,-32.9 -169.55,-51.02 -327.58,-51.02zm-1456.87 -958.1l1089.22 0c705.65,0 1180.07,32.12 1430.27,98.77 246.71,62.53 438.49,168.69 567.13,315.53 129.27,150.89 210.15,316.07 243.12,496.05 32.35,179.74 47.68,536.09 47.68,1064.81l0 1965.04c0,502.97 -22.49,836.84 -70.46,1006.4 -47.75,168.77 -128.72,304.56 -246.16,400.07 -122.03,95.73 -265.28,161.61 -437.86,198.32 -172.82,40.6 -434.6,59.04 -783.89,59.04l-1839.04 0 0 -5604.02z"/>
  <path class="fil1" d="M18366.56 533.1c208.08,0 382.19,78.45 525.53,222.41 144.11,150.49 216.61,324.6 216.61,526.13 0,136.04 -35.48,265.51 -107.99,380.52 -71.45,115 -157.51,209 -274.04,266.57 -116.68,64.44 -238.54,92.92 -360.1,92.92 -216.01,0 -390.12,-71.43 -533,-223.61 -145.17,-143.5 -217.07,-315.48 -217.07,-516.4 0,-144.55 36.4,-267.64 109.52,-390.11 70.99,-113.94 163.91,-201.53 273.59,-265.51 113.94,-57.43 238.09,-92.92 366.96,-92.92zm0 122.47c-179.45,0 -330.4,64.59 -454.55,193.46 -115.01,122.02 -173.66,265.96 -173.66,432.61 0,178.99 67.79,322.94 197.87,446.02 119.73,115.01 264.3,171.52 430.34,171.52 170.91,0 323.54,-65.04 446.01,-193.45 116.68,-115.62 173.66,-259.12 173.66,-424.09 0,-180.51 -64.44,-332.08 -195.59,-454.09 -122.02,-115.46 -266.58,-171.98 -424.08,-171.98zm-330.4 1034.46l128.87 0 0 -338.02 79.06 0 106.93 29.55c27.88,22.08 72.05,86.52 130.09,180.66l72.51 127.8 157.97 0 -101.61 -158.43c-41.89,-63.51 -77.83,-122.02 -113.78,-150.03l-73.12 -51.04c65.05,-5.94 123.08,-27.87 166.5,-70.98 43.56,-35.95 65.66,-93.38 65.66,-152.03l-36.56 -122.02 -100.54 -71.89c-44.63,-13.56 -107.99,-22.09 -201.53,-22.09l-280.43 0 0 798.5zm128.87 -451.96l157.51 0c73.57,0 122.02,-8.07 150.95,-29.55l44.63 -93.53 -21.93 -64.89 -56.98 -43.11c-22.08,-6.4 -65.04,-6.4 -122.62,-6.4l-151.56 0 0 237.47z"/>
 </g>
</svg>
