<?xml version="1.0" encoding="UTF-8"?>
<!DOCTYPE svg PUBLIC "-//W3C//DTD SVG 1.1//EN" "http://www.w3.org/Graphics/SVG/1.1/DTD/svg11.dtd">
<!-- Creator: CorelDRAW -->
<svg xmlns="http://www.w3.org/2000/svg" xml:space="preserve" width="75.9601mm" height="44.1914mm" version="1.1" style="shape-rendering:geometricPrecision; text-rendering:geometricPrecision; image-rendering:optimizeQuality; fill-rule:evenodd; clip-rule:evenodd"
viewBox="0 0 1381.34 803.62"
 xmlns:xlink="http://www.w3.org/1999/xlink"
 xmlns:xodm="http://www.corel.com/coreldraw/odm/2003">
 <defs>
  <style type="text/css">
   <![CDATA[
    .fil2 {fill:none}
    .fil0 {fill:black}
    .fil1 {fill:white;fill-rule:nonzero}
   ]]>
  </style>
   <clipPath id="id0">
    <path d="M-0 0l1381.34 0 0 803.62 -1381.34 0 0 -803.62z"/>
   </clipPath>
    <clipPath id="id1">
     <path d="M663.46 115.35c5.52,10.05 8.4,-0.95 8.5,30.3 0.04,13.58 -0.14,27.2 -0.02,40.78 0.12,12.65 1.19,24.94 1.19,38.18 -0.01,13.02 -0.59,27.76 0.31,40.58 0.51,7.3 3.12,32.11 0.11,37.55 -1.89,3.41 -8.71,2.23 -8.63,10.95 0.06,6.61 4.53,8.84 9.4,10.25 1.46,38.35 0.28,111.97 2.73,143.77 0.49,6.28 1.82,28.55 0.67,34.39 -1.45,7.39 -13.46,9.63 -7.7,25.05 2.15,5.77 5.49,6.64 7.34,10.14 2.93,5.56 1.65,46.23 1.67,54.05 0.03,11.75 1.21,22.56 1.19,34.38l0.93 53.59c0.64,16.34 -13.39,17.09 -7.6,43.98 25.49,23.58 380.33,24.96 369.99,-13.38 -0.64,-13.57 -8.59,-19 -9.28,-26.87l1.19 -72.6c0.06,-23.94 1.19,-48.33 1.19,-72.98 4.71,-3.1 9.31,-7.98 9.63,-16.17 0.41,-10.63 -4.79,-12.69 -8.45,-17.81l2.64 -178.27c6.47,-4.78 9.75,-3.84 9.14,-16.55 -3.32,-2.44 -4.25,-2.97 -8.24,-5.12l2.4 -178.27c32.55,-40.14 -70.19,-58.54 -184.05,-61.48 -105.58,-2.73 -213.45,20.24 -196.24,51.55z"/>
    </clipPath>
    <clipPath id="id2">
     <path d="M-0 0l1381.34 0 0 803.62 -1381.34 0 0 -803.62z"/>
    </clipPath>
    <clipPath id="id3">
     <path d="M345.15 738.34c49.88,1.8 95.44,2.34 145.32,0.81 10.59,-0.33 13.68,0.19 23.26,-6.61 2.88,-2.04 5.37,-4.54 6.33,-7.42l0.4 -0.88 0.24 -0.52c2.7,-7.78 2.31,-13.69 3.09,-22.07 2.24,-24.19 7.88,-88.13 5.82,-108.53 -0.13,-1.25 -0.58,-1.12 -0.33,-2.31 0.22,-1.04 0.18,0.12 0.33,-1.33l0.01 -4.75c0,-2.03 -0.11,-4.07 -0.07,-6.08 -1.26,-0.98 -1.3,-0.79 -0.54,-2.05 0.03,-0.06 0.09,-0.11 0.12,-0.17 0.59,-1.14 0.25,-10.58 -0.06,-11.55 -0.64,-1.98 0.03,-4.76 -0.01,-7.27 -0.04,-2.55 -0.28,-4.87 -0.28,-7.55l-1.68 -0.54 0 -1.75 1.52 -0.5 -0.41 -10.07c-0.11,-1.34 -0.49,-1.35 -0.57,-2.79 -0.13,-2.36 0.44,-3.44 0.11,-6.56 -0.18,-1.67 -0.33,-4.62 -0.38,-6.31 -0.58,-1.08 0.17,-0.01 -0.85,-0.53 -0.97,-0.51 -0.29,0.63 -0.83,-0.58l-1.32 -20.47c-0.39,-3.88 0.18,-3.29 1.32,-5.68 -0.98,0.53 -0.58,0.65 -1.77,0.67l-0.49 -2c1.07,0.69 0.55,0.88 1.97,0.91 0.87,0.02 0.5,-0.07 0.69,-0.02l0.25 0.15c0.01,-0.03 0.06,0.06 0.1,0.06 1.37,-1.75 0.79,-2.67 0.47,-5.31 -0.23,-1.89 -0.4,-3.9 -0.58,-5.81 -0.38,-3.95 -0.88,-7.87 -1.21,-11.7 -1.53,-17.81 -6.84,-22.76 -19.19,-32.55 -4.85,-3.84 -9.52,-7.43 -14.62,-11.11 -8.16,-5.88 -9.76,-4.79 -12.66,-13.35 -1.11,-3.26 -2.18,-6.56 -3.26,-9.6 -1.18,-3.32 -1.99,-6.34 -3.13,-9.75 -3.32,-9.96 -6,-19.99 -8.49,-30.12 -1.17,-4.78 -0.99,-7.01 -0.99,-11.84 2.6,-0.95 3.3,-0.52 5.31,-2.23 -0.05,-0.98 -0.33,-1.37 -0.3,-2.22 0.03,-1.02 0.3,-0.81 0.3,-2.25 0,-1.51 -0.1,-3.34 -0.18,-4.86l-0.26 -19.19c-0.02,-3.3 -0.39,-6.03 -2.31,-7.58 -8.34,-6.76 -60.02,-7.81 -68.19,-1.01 -3.13,2.61 -1.63,12.21 -2.14,17.34 -0.48,4.88 0.15,9.87 -0.17,14.75 -0.12,1.81 -0.6,1.71 -0.57,4.18 1.91,1.24 3.69,1.39 5.28,2.25 0.06,7.39 0.19,5.91 -1.42,12.8 -2.63,11.25 -6.12,22.37 -9.55,33.23 -1.24,3.9 -1.78,7.18 -5.22,9.04 -13.16,7.11 -28.44,21.82 -38.36,32.68 -5.08,5.56 -8.71,8.83 -11.08,17.17 -2.42,8.51 -1.64,17.3 1.33,24.31 0.73,1.73 1.76,3.29 2.45,4.81 0.87,1.92 2.31,8.71 2.86,11.14 0.53,2.37 -0.6,1.88 -0.53,5.82 0.93,0.61 2.27,1.71 1.48,3.44 -0.61,1.35 -2.01,0.7 -2.53,2.51 -0.59,2.06 -0.43,2.55 0.79,3.8 1,1.02 1.12,2.51 -0.01,3.41 -1.56,1.23 -1.8,0.2 -2.16,3.18 -0.36,3.03 4.5,3.3 0.07,6.47 -1.33,0.95 -1.02,2.14 -1,4.15 4.5,3.98 -0.21,3.93 -0.82,6.06 -0.64,2.24 -0.35,2.53 0.83,3.61 0.95,0.87 1.34,2.51 0.21,3.56 -1.42,1.32 -1.69,0.31 -2.01,3.07 -0.31,2.61 0.83,1.5 1.59,3.09 0.94,1.95 -0.22,2.78 -1.19,3.42 -1.35,0.89 -1.2,1.72 -1.12,3.91 0.36,0.79 1.51,1.21 1.83,2.11 0.93,2.57 -2.01,2.33 -2.47,4.83 -0.3,1.66 -0.35,1.68 0.56,2.65 1.68,1.8 2.37,2.94 -0.04,4.54 -1.95,1.29 -1.1,3.97 0.26,5.32 2.77,2.75 -1.9,2.89 -1.86,6.28 0.03,2.1 1.15,2.03 2.08,3.56 0.32,0.53 -0.02,1.73 -0.58,2.35 -0.89,0.97 -1.39,0.22 -1.74,1.93 -0.46,2.23 0.51,3.56 2.24,4.91 -0.64,3.72 -2.6,1.79 -2.59,5.15 0.01,2.66 1.3,2.4 2.42,4.47 -0.37,0.71 -0.32,1.03 -0.98,1.66 -1.23,1.18 -2.71,2.12 -1.14,5 0.49,0.89 2.06,1.46 1.85,2.72 -0.21,1.26 -1.56,1.84 -2.35,2.64 0.02,3.7 0.49,3.89 2.52,6.11 -0.89,1.94 -2.07,1.96 -2.52,3.4 0.26,2.02 0.94,0.41 0.28,3.39l2.25 2.35c-0.77,1.91 -2.12,1.71 -2.36,3.06 -0.21,1.16 0.75,1.6 0.45,2.69 -0.08,0.29 -0.07,-0.15 -0.33,0.8 1.38,0.93 1.69,1.23 2.41,2.9l-1.92 1.79c-0.69,0.87 -0.37,1.45 -0.38,2.64 -0.02,3.75 1.95,1.51 2.41,4.69 -1.23,1.76 -2.54,0.94 -2.25,4.75 0.23,2.95 2.52,1.52 2.52,4.58 -1.03,0.93 -1.84,1.07 -2.13,2.81 -0.49,2.94 2.24,4.68 0.95,7.65 -0.8,1.84 -0.45,1.95 -0.37,4.05 0.05,1.37 -0.28,2.65 -0.51,4 -1.56,9.22 -0.87,23.1 -0.9,32.55 0.87,19.22 -1.72,27.14 13.4,27.21z"/>
    </clipPath>
    <clipPath id="id4">
     <path d="M-0 0l1381.34 0 0 803.62 -1381.34 0 0 -803.62z"/>
    </clipPath>
 </defs>
 <g id="Camada_x0020_1">
  <metadata id="CorelCorpID_0Corel-Layer"/>
  <g>
  </g>
  <g style="clip-path:url(#id0)">
   <g id="_2475379807504">
    <path class="fil0" d="M663.46 115.35c5.52,10.05 8.4,-0.95 8.5,30.3 0.04,13.58 -0.14,27.2 -0.02,40.78 0.12,12.65 1.19,24.94 1.19,38.18 -0.01,13.02 -0.59,27.76 0.31,40.58 0.51,7.3 3.12,32.11 0.11,37.55 -1.89,3.41 -8.71,2.23 -8.63,10.95 0.06,6.61 4.53,8.84 9.4,10.25 1.46,38.35 0.28,111.97 2.73,143.77 0.49,6.28 1.82,28.55 0.67,34.39 -1.45,7.39 -13.46,9.63 -7.7,25.05 2.15,5.77 5.49,6.64 7.34,10.14 2.93,5.56 1.65,46.23 1.67,54.05 0.03,11.75 1.21,22.56 1.19,34.38l0.93 53.59c0.64,16.34 -13.39,17.09 -7.6,43.98 25.49,23.58 380.33,24.96 369.99,-13.38 -0.64,-13.57 -8.59,-19 -9.28,-26.87l1.19 -72.6c0.06,-23.94 1.19,-48.33 1.19,-72.98 4.71,-3.1 9.31,-7.98 9.63,-16.17 0.41,-10.63 -4.79,-12.69 -8.45,-17.81l2.64 -178.27c6.47,-4.78 9.75,-3.84 9.14,-16.55 -3.32,-2.44 -4.25,-2.97 -8.24,-5.12l2.4 -178.27c32.55,-40.14 -70.19,-58.54 -184.05,-61.48 -105.58,-2.73 -213.45,20.24 -196.24,51.55z"/>
   </g>
   <g style="clip-path:url(#id1)">
    <g>
     <path id="_1" class="fil1" d="M730.34 450.2c0,-9.8 1.46,-18.2 4.37,-25.2 2.91,-7 8.12,-14.74 15.63,-23.24 7.39,-8.5 12.51,-15.76 15.35,-21.76 2.85,-6.02 4.28,-12.29 4.28,-18.83 0,-5.88 -0.88,-9.96 -2.63,-12.25 -1.76,-2.29 -4.33,-3.44 -7.73,-3.44 -6.91,0 -10.36,4.51 -10.36,13.52l0 14.71 -18.9 0 0 -13.34c0,-11.11 2.55,-19.64 7.63,-25.58 5.09,-5.95 12.48,-8.93 22.17,-8.93 9.69,0 17.09,2.98 22.18,8.93 5.08,5.94 7.62,14.48 7.62,25.58 0,8.36 -1.84,16.54 -5.54,24.51 -3.69,7.97 -10.08,17.12 -19.17,27.44 -5.93,6.8 -9.93,12.33 -11.99,16.57 -2.06,4.24 -3.09,8.79 -3.09,13.62l0 2.94 37.98 0 0 19.61 -57.79 0 0 -14.9zm101.95 16.86c-9.81,0 -17.33,-3 -22.53,-9.02 -5.21,-6.02 -7.81,-14.51 -7.81,-25.49l0 -72.15c0,-10.98 2.6,-19.48 7.81,-25.49 5.21,-6.01 12.73,-9.02 22.53,-9.02 9.81,0 17.33,3.01 22.53,9.02 5.21,6.02 7.81,14.51 7.81,25.49l0 72.15c0,10.98 -2.6,19.48 -7.81,25.49 -5.21,6.02 -12.73,9.02 -22.53,9.02zm0 -19.6c6.91,0 10.36,-4.52 10.36,-13.53l0 -74.91c0,-9.02 -3.45,-13.52 -10.36,-13.52 -6.91,0 -10.36,4.51 -10.36,13.52l0 74.91c0,9.02 3.45,13.53 10.36,13.53zm72.69 19.6c-9.81,0 -17.33,-3 -22.54,-9.02 -5.21,-6.02 -7.81,-14.51 -7.81,-25.49l0 -72.15c0,-10.98 2.6,-19.48 7.81,-25.49 5.21,-6.01 12.73,-9.02 22.54,-9.02 9.81,0 17.33,3.01 22.53,9.02 5.21,6.02 7.81,14.51 7.81,25.49l0 72.15c0,10.98 -2.6,19.48 -7.81,25.49 -5.21,6.02 -12.73,9.02 -22.53,9.02zm0 -19.6c6.91,0 10.36,-4.52 10.36,-13.53l0 -74.91c0,-9.02 -3.45,-13.52 -10.36,-13.52 -6.91,0 -10.36,4.51 -10.36,13.52l0 74.91c0,9.02 3.45,13.53 10.36,13.53zm43.8 -119.62l19.99 0 0 117.65 32.89 0 0 19.61 -52.88 0 0 -137.26z"/>
    </g>
   </g>
   <g style="clip-path:url(#id2)">
    <path class="fil2" d="M663.46 115.35c5.52,10.05 8.4,-0.95 8.5,30.3 0.04,13.58 -0.14,27.2 -0.02,40.78 0.12,12.65 1.19,24.94 1.19,38.18 -0.01,13.02 -0.59,27.76 0.31,40.58 0.51,7.3 3.12,32.11 0.11,37.55 -1.89,3.41 -8.71,2.23 -8.63,10.95 0.06,6.61 4.53,8.84 9.4,10.25 1.46,38.35 0.28,111.97 2.73,143.77 0.49,6.28 1.82,28.55 0.67,34.39 -1.45,7.39 -13.46,9.63 -7.7,25.05 2.15,5.77 5.49,6.64 7.34,10.14 2.93,5.56 1.65,46.23 1.67,54.05 0.03,11.75 1.21,22.56 1.19,34.38l0.93 53.59c0.64,16.34 -13.39,17.09 -7.6,43.98 25.49,23.58 380.33,24.96 369.99,-13.38 -0.64,-13.57 -8.59,-19 -9.28,-26.87l1.19 -72.6c0.06,-23.94 1.19,-48.33 1.19,-72.98 4.71,-3.1 9.31,-7.98 9.63,-16.17 0.41,-10.63 -4.79,-12.69 -8.45,-17.81l2.64 -178.27c6.47,-4.78 9.75,-3.84 9.14,-16.55 -3.32,-2.44 -4.25,-2.97 -8.24,-5.12l2.4 -178.27c32.55,-40.14 -70.19,-58.54 -184.05,-61.48 -105.58,-2.73 -213.45,20.24 -196.24,51.55z"/>
    <path class="fil0" d="M345.15 738.34c49.88,1.8 95.44,2.34 145.32,0.81 10.59,-0.33 13.68,0.19 23.26,-6.61 2.88,-2.04 5.37,-4.54 6.33,-7.42l0.4 -0.88 0.24 -0.52c2.7,-7.78 2.31,-13.69 3.09,-22.07 2.24,-24.19 7.88,-88.13 5.82,-108.53 -0.13,-1.25 -0.58,-1.12 -0.33,-2.31 0.22,-1.04 0.18,0.12 0.33,-1.33l0.01 -4.75c0,-2.03 -0.11,-4.07 -0.07,-6.08 -1.26,-0.98 -1.3,-0.79 -0.54,-2.05 0.03,-0.06 0.09,-0.11 0.12,-0.17 0.59,-1.14 0.25,-10.58 -0.06,-11.55 -0.64,-1.98 0.03,-4.76 -0.01,-7.27 -0.04,-2.55 -0.28,-4.87 -0.28,-7.55l-1.68 -0.54 0 -1.75 1.52 -0.5 -0.41 -10.07c-0.11,-1.34 -0.49,-1.35 -0.57,-2.79 -0.13,-2.36 0.44,-3.44 0.11,-6.56 -0.18,-1.67 -0.33,-4.62 -0.38,-6.31 -0.58,-1.08 0.17,-0.01 -0.85,-0.53 -0.97,-0.51 -0.29,0.63 -0.83,-0.58l-1.32 -20.47c-0.39,-3.88 0.18,-3.29 1.32,-5.68 -0.98,0.53 -0.58,0.65 -1.77,0.67l-0.49 -2c1.07,0.69 0.55,0.88 1.97,0.91 0.87,0.02 0.5,-0.07 0.69,-0.02l0.25 0.15c0.01,-0.03 0.06,0.06 0.1,0.06 1.37,-1.75 0.79,-2.67 0.47,-5.31 -0.23,-1.89 -0.4,-3.9 -0.58,-5.81 -0.38,-3.95 -0.88,-7.87 -1.21,-11.7 -1.53,-17.81 -6.84,-22.76 -19.19,-32.55 -4.85,-3.84 -9.52,-7.43 -14.62,-11.11 -8.16,-5.88 -9.76,-4.79 -12.66,-13.35 -1.11,-3.26 -2.18,-6.56 -3.26,-9.6 -1.18,-3.32 -1.99,-6.34 -3.13,-9.75 -3.32,-9.96 -6,-19.99 -8.49,-30.12 -1.17,-4.78 -0.99,-7.01 -0.99,-11.84 2.6,-0.95 3.3,-0.52 5.31,-2.23 -0.05,-0.98 -0.33,-1.37 -0.3,-2.22 0.03,-1.02 0.3,-0.81 0.3,-2.25 0,-1.51 -0.1,-3.34 -0.18,-4.86l-0.26 -19.19c-0.02,-3.3 -0.39,-6.03 -2.31,-7.58 -8.34,-6.76 -60.02,-7.81 -68.19,-1.01 -3.13,2.61 -1.63,12.21 -2.14,17.34 -0.48,4.88 0.15,9.87 -0.17,14.75 -0.12,1.81 -0.6,1.71 -0.57,4.18 1.91,1.24 3.69,1.39 5.28,2.25 0.06,7.39 0.19,5.91 -1.42,12.8 -2.63,11.25 -6.12,22.37 -9.55,33.23 -1.24,3.9 -1.78,7.18 -5.22,9.04 -13.16,7.11 -28.44,21.82 -38.36,32.68 -5.08,5.56 -8.71,8.83 -11.08,17.17 -2.42,8.51 -1.64,17.3 1.33,24.31 0.73,1.73 1.76,3.29 2.45,4.81 0.87,1.92 2.31,8.71 2.86,11.14 0.53,2.37 -0.6,1.88 -0.53,5.82 0.93,0.61 2.27,1.71 1.48,3.44 -0.61,1.35 -2.01,0.7 -2.53,2.51 -0.59,2.06 -0.43,2.55 0.79,3.8 1,1.02 1.12,2.51 -0.01,3.41 -1.56,1.23 -1.8,0.2 -2.16,3.18 -0.36,3.03 4.5,3.3 0.07,6.47 -1.33,0.95 -1.02,2.14 -1,4.15 4.5,3.98 -0.21,3.93 -0.82,6.06 -0.64,2.24 -0.35,2.53 0.83,3.61 0.95,0.87 1.34,2.51 0.21,3.56 -1.42,1.32 -1.69,0.31 -2.01,3.07 -0.31,2.61 0.83,1.5 1.59,3.09 0.94,1.95 -0.22,2.78 -1.19,3.42 -1.35,0.89 -1.2,1.72 -1.12,3.91 0.36,0.79 1.51,1.21 1.83,2.11 0.93,2.57 -2.01,2.33 -2.47,4.83 -0.3,1.66 -0.35,1.68 0.56,2.65 1.68,1.8 2.37,2.94 -0.04,4.54 -1.95,1.29 -1.1,3.97 0.26,5.32 2.77,2.75 -1.9,2.89 -1.86,6.28 0.03,2.1 1.15,2.03 2.08,3.56 0.32,0.53 -0.02,1.73 -0.58,2.35 -0.89,0.97 -1.39,0.22 -1.74,1.93 -0.46,2.23 0.51,3.56 2.24,4.91 -0.64,3.72 -2.6,1.79 -2.59,5.15 0.01,2.66 1.3,2.4 2.42,4.47 -0.37,0.71 -0.32,1.03 -0.98,1.66 -1.23,1.18 -2.71,2.12 -1.14,5 0.49,0.89 2.06,1.46 1.85,2.72 -0.21,1.26 -1.56,1.84 -2.35,2.64 0.02,3.7 0.49,3.89 2.52,6.11 -0.89,1.94 -2.07,1.96 -2.52,3.4 0.26,2.02 0.94,0.41 0.28,3.39l2.25 2.35c-0.77,1.91 -2.12,1.71 -2.36,3.06 -0.21,1.16 0.75,1.6 0.45,2.69 -0.08,0.29 -0.07,-0.15 -0.33,0.8 1.38,0.93 1.69,1.23 2.41,2.9l-1.92 1.79c-0.69,0.87 -0.37,1.45 -0.38,2.64 -0.02,3.75 1.95,1.51 2.41,4.69 -1.23,1.76 -2.54,0.94 -2.25,4.75 0.23,2.95 2.52,1.52 2.52,4.58 -1.03,0.93 -1.84,1.07 -2.13,2.81 -0.49,2.94 2.24,4.68 0.95,7.65 -0.8,1.84 -0.45,1.95 -0.37,4.05 0.05,1.37 -0.28,2.65 -0.51,4 -1.56,9.22 -0.87,23.1 -0.9,32.55 0.87,19.22 -1.72,27.14 13.4,27.21z"/>
   </g>
   <g style="clip-path:url(#id3)">
    <g>
     <path id="_1_0" class="fil1" d="M394.42 552.61l-18.73 0 0 -12.7c5.11,0 9.2,-0.43 12.29,-1.3 3.09,-0.86 5.57,-2.3 7.41,-4.32 1.85,-2.01 3.48,-4.91 4.88,-8.71l12.05 0 0 113.97 -17.9 0 0 -86.95zm43.96 -27.02l17.91 0 0 97.68 29.47 0 0 16.28 -47.38 0 0 -113.97z"/>
    </g>
   </g>
   <g style="clip-path:url(#id4)">
    <path class="fil2" d="M345.15 738.34c49.88,1.8 95.44,2.34 145.32,0.81 10.59,-0.33 13.68,0.19 23.26,-6.61 2.88,-2.04 5.37,-4.54 6.33,-7.42l0.4 -0.88 0.24 -0.52c2.7,-7.78 2.31,-13.69 3.09,-22.07 2.24,-24.19 7.88,-88.13 5.82,-108.53 -0.13,-1.25 -0.58,-1.12 -0.33,-2.31 0.22,-1.04 0.18,0.12 0.33,-1.33l0.01 -4.75c0,-2.03 -0.11,-4.07 -0.07,-6.08 -1.26,-0.98 -1.3,-0.79 -0.54,-2.05 0.03,-0.06 0.09,-0.11 0.12,-0.17 0.59,-1.14 0.25,-10.58 -0.06,-11.55 -0.64,-1.98 0.03,-4.76 -0.01,-7.27 -0.04,-2.55 -0.28,-4.87 -0.28,-7.55l-1.68 -0.54 0 -1.75 1.52 -0.5 -0.41 -10.07c-0.11,-1.34 -0.49,-1.35 -0.57,-2.79 -0.13,-2.36 0.44,-3.44 0.11,-6.56 -0.18,-1.67 -0.33,-4.62 -0.38,-6.31 -0.58,-1.08 0.17,-0.01 -0.85,-0.53 -0.97,-0.51 -0.29,0.63 -0.83,-0.58l-1.32 -20.47c-0.39,-3.88 0.18,-3.29 1.32,-5.68 -0.98,0.53 -0.58,0.65 -1.77,0.67l-0.49 -2c1.07,0.69 0.55,0.88 1.97,0.91 0.87,0.02 0.5,-0.07 0.69,-0.02l0.25 0.15c0.01,-0.03 0.06,0.06 0.1,0.06 1.37,-1.75 0.79,-2.67 0.47,-5.31 -0.23,-1.89 -0.4,-3.9 -0.58,-5.81 -0.38,-3.95 -0.88,-7.87 -1.21,-11.7 -1.53,-17.81 -6.84,-22.76 -19.19,-32.55 -4.85,-3.84 -9.52,-7.43 -14.62,-11.11 -8.16,-5.88 -9.76,-4.79 -12.66,-13.35 -1.11,-3.26 -2.18,-6.56 -3.26,-9.6 -1.18,-3.32 -1.99,-6.34 -3.13,-9.75 -3.32,-9.96 -6,-19.99 -8.49,-30.12 -1.17,-4.78 -0.99,-7.01 -0.99,-11.84 2.6,-0.95 3.3,-0.52 5.31,-2.23 -0.05,-0.98 -0.33,-1.37 -0.3,-2.22 0.03,-1.02 0.3,-0.81 0.3,-2.25 0,-1.51 -0.1,-3.34 -0.18,-4.86l-0.26 -19.19c-0.02,-3.3 -0.39,-6.03 -2.31,-7.58 -8.34,-6.76 -60.02,-7.81 -68.19,-1.01 -3.13,2.61 -1.63,12.21 -2.14,17.34 -0.48,4.88 0.15,9.87 -0.17,14.75 -0.12,1.81 -0.6,1.71 -0.57,4.18 1.91,1.24 3.69,1.39 5.28,2.25 0.06,7.39 0.19,5.91 -1.42,12.8 -2.63,11.25 -6.12,22.37 -9.55,33.23 -1.24,3.9 -1.78,7.18 -5.22,9.04 -13.16,7.11 -28.44,21.82 -38.36,32.68 -5.08,5.56 -8.71,8.83 -11.08,17.17 -2.42,8.51 -1.64,17.3 1.33,24.31 0.73,1.73 1.76,3.29 2.45,4.81 0.87,1.92 2.31,8.71 2.86,11.14 0.53,2.37 -0.6,1.88 -0.53,5.82 0.93,0.61 2.27,1.71 1.48,3.44 -0.61,1.35 -2.01,0.7 -2.53,2.51 -0.59,2.06 -0.43,2.55 0.79,3.8 1,1.02 1.12,2.51 -0.01,3.41 -1.56,1.23 -1.8,0.2 -2.16,3.18 -0.36,3.03 4.5,3.3 0.07,6.47 -1.33,0.95 -1.02,2.14 -1,4.15 4.5,3.98 -0.21,3.93 -0.82,6.06 -0.64,2.24 -0.35,2.53 0.83,3.61 0.95,0.87 1.34,2.51 0.21,3.56 -1.42,1.32 -1.69,0.31 -2.01,3.07 -0.31,2.61 0.83,1.5 1.59,3.09 0.94,1.95 -0.22,2.78 -1.19,3.42 -1.35,0.89 -1.2,1.72 -1.12,3.91 0.36,0.79 1.51,1.21 1.83,2.11 0.93,2.57 -2.01,2.33 -2.47,4.83 -0.3,1.66 -0.35,1.68 0.56,2.65 1.68,1.8 2.37,2.94 -0.04,4.54 -1.95,1.29 -1.1,3.97 0.26,5.32 2.77,2.75 -1.9,2.89 -1.86,6.28 0.03,2.1 1.15,2.03 2.08,3.56 0.32,0.53 -0.02,1.73 -0.58,2.35 -0.89,0.97 -1.39,0.22 -1.74,1.93 -0.46,2.23 0.51,3.56 2.24,4.91 -0.64,3.72 -2.6,1.79 -2.59,5.15 0.01,2.66 1.3,2.4 2.42,4.47 -0.37,0.71 -0.32,1.03 -0.98,1.66 -1.23,1.18 -2.71,2.12 -1.14,5 0.49,0.89 2.06,1.46 1.85,2.72 -0.21,1.26 -1.56,1.84 -2.35,2.64 0.02,3.7 0.49,3.89 2.52,6.11 -0.89,1.94 -2.07,1.96 -2.52,3.4 0.26,2.02 0.94,0.41 0.28,3.39l2.25 2.35c-0.77,1.91 -2.12,1.71 -2.36,3.06 -0.21,1.16 0.75,1.6 0.45,2.69 -0.08,0.29 -0.07,-0.15 -0.33,0.8 1.38,0.93 1.69,1.23 2.41,2.9l-1.92 1.79c-0.69,0.87 -0.37,1.45 -0.38,2.64 -0.02,3.75 1.95,1.51 2.41,4.69 -1.23,1.76 -2.54,0.94 -2.25,4.75 0.23,2.95 2.52,1.52 2.52,4.58 -1.03,0.93 -1.84,1.07 -2.13,2.81 -0.49,2.94 2.24,4.68 0.95,7.65 -0.8,1.84 -0.45,1.95 -0.37,4.05 0.05,1.37 -0.28,2.65 -0.51,4 -1.56,9.22 -0.87,23.1 -0.9,32.55 0.87,19.22 -1.72,27.14 13.4,27.21z"/>
   </g>
  </g>
  <polygon class="fil2" points="-0,0 1381.34,0 1381.34,803.62 -0,803.62 "/>
 </g>
</svg>
