<?xml version="1.0" encoding="UTF-8"?>
<!DOCTYPE svg PUBLIC "-//W3C//DTD SVG 1.1//EN" "http://www.w3.org/Graphics/SVG/1.1/DTD/svg11.dtd">
<!-- Creator: CorelDRAW -->
<svg xmlns="http://www.w3.org/2000/svg" xml:space="preserve" width="100.976mm" height="44.1914mm" version="1.1" style="shape-rendering:geometricPrecision; text-rendering:geometricPrecision; image-rendering:optimizeQuality; fill-rule:evenodd; clip-rule:evenodd"
viewBox="0 0 3694.3 1616.79"
 xmlns:xlink="http://www.w3.org/1999/xlink"
 xmlns:xodm="http://www.corel.com/coreldraw/odm/2003">
 <defs>
  <style type="text/css">
   <![CDATA[
    .fil2 {fill:none}
    .fil4 {fill:none;fill-rule:nonzero}
    .fil0 {fill:black}
    .fil5 {fill:#FEFEFE;fill-rule:nonzero}
    .fil3 {fill:black;fill-rule:nonzero}
    .fil1 {fill:white;fill-rule:nonzero}
   ]]>
  </style>
   <clipPath id="id0">
    <path d="M-0 0l3694.3 0 0 1616.79 -3694.3 0 0 -1616.79z"/>
   </clipPath>
    <clipPath id="id1">
     <path d="M2749.41 234.16c11.08,20.17 16.86,-1.91 17.06,60.8 0.08,27.24 -0.27,54.57 -0.04,81.81 0.23,25.38 2.4,50.04 2.38,76.6 -0.01,26.11 -1.18,55.7 0.61,81.41 1.02,14.65 6.26,64.43 0.22,75.34 -3.79,6.83 -17.47,4.48 -17.31,21.97 0.12,13.25 9.1,17.73 18.85,20.56 2.93,76.95 0.56,224.65 5.48,288.44 0.97,12.61 3.65,57.28 1.35,69 -2.9,14.82 -27.01,19.32 -15.46,50.25 4.32,11.57 11.02,13.32 14.73,20.35 5.88,11.15 3.31,92.76 3.34,108.45 0.06,23.57 2.43,45.26 2.4,68.98l1.86 107.51c1.29,32.78 -26.85,34.28 -15.25,88.23 51.13,47.31 763.04,50.08 742.29,-26.84 -1.3,-27.23 -17.24,-38.12 -18.61,-53.9l2.39 -145.66c0.11,-48.02 2.39,-96.96 2.39,-146.41 9.45,-6.21 18.68,-16.01 19.31,-32.45 0.81,-21.32 -9.61,-25.46 -16.95,-35.74l5.3 -357.64c12.98,-9.6 19.56,-7.71 18.33,-33.2 -6.66,-4.89 -8.53,-5.96 -16.53,-10.27l4.81 -357.65c65.31,-80.53 -140.81,-117.44 -369.25,-123.35 -211.82,-5.48 -428.23,40.6 -393.72,103.42z"/>
    </clipPath>
    <clipPath id="id2">
     <path d="M-0 0l3694.3 0 0 1616.79 -3694.3 0 0 -1616.79z"/>
    </clipPath>
    <clipPath id="id3" style="clip-rule:nonzero">
     <path d="M816.41 606.87l0.01 -0.38 -0.01 0.38zm526.51 -99.06c4.92,0.83 9.75,2.22 14.39,4.12l-14.39 -4.12zm-493.58 960.95l-28.8 -58.76 28.8 58.76zm182.43 -906.93l-0.01 0.01 0.01 -0.01zm-104.06 925.61l0 0 -0 0zm108.01 -932.59l-15.27 27 15.27 -27zm-199.06 34.72l-0.04 0.85 0.04 -0.85zm511.18 897.88l0 -0 -0 0zm-531.44 -880.15l0 15.81 0 106.03 0 0.4 0 0.61 0 0.39 0 395.65 0 202.73 0 0.05 0 0.05 0 13.46 0 0.07 0 49.61c0,0.63 0.01,1.27 0.04,1.9 0.21,4.39 1.13,8.72 2.72,12.81 0.35,0.91 0.74,1.8 1.16,2.69l0.07 0.13 0.04 0.09 0.1 0.21 0 0 19.28 39.33 9.52 19.42 0.05 0.11 0.02 0.05 0.05 0.11 0.02 0.05 0.06 0.11 0.02 0.04c0.25,0.49 0.5,0.96 0.78,1.43 0.13,0.23 0.27,0.46 0.41,0.7 0.14,0.23 0.28,0.45 0.42,0.68 1.7,2.67 3.77,5.09 6.15,7.18 0.67,0.59 1.36,1.15 2.07,1.69l0.04 0.03 0.27 0.2 0.23 0.17 0.29 0.2 0.35 0.24 0.4 0.27 0.46 0.3 0.04 0.02 0.49 0.3 0.57 0.35 0.63 0.36 0.69 0.37 0.75 0.39 0.81 0.39 0.85 0.38 0.9 0.37 0.95 0.36 1 0.34 0.3 0.1 0.32 0.1 0.34 0.1 0.34 0.1 0.36 0.1 0.37 0.09 0.4 0.1 0.41 0.09 0.43 0.09 0.09 0.01 0.19 0.01 0.28 0.01 0.38 0.01 1.07 0.01 53.31 0.57 0 0 0.67 0.01 1.06 0 0 0 0.38 0 107.34 0 107.84 0 202.06 -0 0.79 0 0.31 0 0.79 0 1 -0.01 0.01 0 53.31 -0.57 0.59 -0.01 0.49 -0.01 0.39 -0.01 0.28 -0.01 0.18 -0.01 0.08 -0.01 0.43 -0.09 0.41 -0.09 0.4 -0.1 0.38 -0.09 0.36 -0.1 0.35 -0.1 0.33 -0.1 0.32 -0.1 0.31 -0.1 1 -0.34 0.95 -0.36 0.9 -0.37 0.86 -0.38 0.8 -0.39 0.75 -0.39 0.69 -0.37 0.63 -0.36 0.58 -0.35 0.52 -0.33 0.46 -0.3 0.4 -0.27 0.35 -0.24 0.29 -0.2 0.23 -0.17 0.27 -0.2 0.04 -0.03c4.27,-3.2 7.71,-7.36 10.06,-12.15l28.8 -58.76c2.72,-5.55 4.13,-11.65 4.13,-17.83l0 -48.35 -0.26 -2.65 -2.24 -11.21 -0.2 -1.99 0 -502.75 0.2 -1.98 2.24 -11.21 0.26 -2.65 0 -0.79 0 -72.15c0,-69.74 -22.5,-137.63 -64.15,-193.57 -10.18,-13.67 -23.87,-24.34 -39.61,-30.86l-0.2 -0.06 -0.12 -0.05 -1.98 -0.78 -2.09 -0.74 -2.08 -0.67 -2.06 -0.59 -2.04 -0.51 -2.03 -0.44 -1.99 -0.38 -0.03 -0 -0.03 -0.01 -0.03 -0 -0.01 -0 -0.02 -0 -0.06 -0.01 -0.03 -0.01 -0.03 -0 -0.03 -0.01 -0.03 -0 -0.03 -0.01 -0.03 -0 -0.03 -0 -0.03 -0.01 -0.03 -0 -0.03 -0 -0 0 -0.03 -0.01 -0.03 -0 -0.03 -0.01 -0.03 -0 -0.03 -0 -0.03 -0.01 -0.03 -0 -0.03 -0 -0.03 -0.01 -0.03 -0 -0.03 -0 -0.03 -0.01 -0.01 0 -0.01 -0 -0.03 -0 -0.03 -0.01 -0.03 -0 -0.03 -0 -0.03 -0.01 -0.03 -0 -0.03 -0 -0.03 -0.01 -0.03 -0 -0.03 -0 -0.03 -0 -0.03 -0.01 -0.03 -0 -0.03 -0 -0.03 -0.01 -0.03 -0 -0.03 -0 -0.03 -0 -0.03 -0 -0.03 -0.01 -0.03 -0 -0.03 -0 -0.03 -0 -0.03 -0.01 -0.02 -0 -0.01 0 -0.03 -0 -0.03 -0 -0.03 -0.01 -0.03 -0 -0.03 -0 -0.03 -0 -0.03 -0 -0.03 -0 -0.03 -0.01 -0.03 -0 -0.03 -0 -0.03 -0 -0.01 -0 -0.02 0 -0.03 -0.01 -0.03 -0 -0.03 -0 -0.03 -0 -0.03 -0 -0.03 -0 -0.03 -0 -0.03 -0 -0.03 -0.01 -0.03 -0 -0.03 -0 -0.03 -0 -0 0 -0.03 -0 -0.03 -0 -0.03 -0 -0.03 -0 -0.03 -0.01 -0.03 -0 -0.03 -0 -0.03 -0 -0.03 -0 -0.03 -0 -0.03 -0 -0.03 -0 -0.03 -0 -0.01 0 -0.03 -0 -0.03 -0 -0.03 -0 -0.03 -0 -0.03 -0 -0.03 -0.01 -0.03 -0 -0.03 0 -0.03 -0.01 -0.03 -0 -0.03 -0 -0.03 -0 -0.02 0 -0.01 -0 -0.03 -0 -0.06 -0.01 -0.03 -0 -0.12 -0.01 -0.03 -0 -0.03 -0 -0.03 -0 -0.03 0 -0.01 -0 -0.02 -0 -0.03 0 -0.03 -0 -0.03 -0 -0.03 -0 -0.03 -0 -0.03 -0 -0.03 -0 -0.03 -0 -0.03 -0 -0.03 -0 -0.03 -0 -0.02 0 -0.02 -0 -0.02 -0 -0.02 0 -0.02 -0 -0.02 0 -0.02 -0 -0.02 0 -0.02 -0 -0.02 0 -0.02 -0 -0.02 0 -0.02 -0 -0.02 -0 -0.02 0 -0.02 -0 -0.02 0 -0.02 -0 -0.02 0 -0.02 -0 -0.02 0 -0.02 -0 -0.01 0 -0 0 -0.02 -0 -0.02 0 -0.02 -0 -0.02 0 -0.02 -0 -0.02 0 -0.02 -0 -0.02 -0 -0.02 0 -0.02 -0 -0.02 0 -0.02 -0 -0.02 0 -0.02 -0 -0.02 0 -0.02 -0 -0.02 0 -0.02 -0 -0.02 0 -0.02 -0 -0.01 0 -0.01 0 -0.02 -0 -0.02 0 -0.02 -0 -0.02 0 -0.02 -0 -0.02 0 -0.02 -0 -0.02 0 -0.02 -0 -0.02 0 -0.02 -0 -0.02 0 -0.02 0 -0.02 -0 -0.02 -0 -0.02 0 -0.02 0 -0.02 -0 -0.02 0 -0.02 -0 -0 0 -0.01 0 -0.02 -0 -0.02 0 -0.02 -0 -0.02 0 -0.02 -0 -0.02 0 -0.02 -0 -0.02 0 -0.02 -0 -0.02 0 -0.02 0 -0.02 -0 -0.02 0 -0.02 -0 -0.02 0 -0.02 -0 -0.02 0 -0.02 -0 -0.02 0 -0.02 -0 -0 0 -0.01 0 -0.02 0 -0.02 -0 -0.02 0 -0.02 -0 -0.02 0 -0.02 -0 -0.02 0 -0.02 0 -0.02 -0 -0.02 0 -0.02 -0 -0.02 0 -0.02 -0 -0.02 0 -0.02 0 -0.02 -0 -0.02 0 -0.02 0 -0.02 -0 -0.01 0 -0 0 -0.02 -0 -0.02 0 -0.02 -0 -0.02 0 -0.02 0 -0.02 -0 -0.02 0 -0.02 -0 -0.02 0 -0.02 0 -0.02 -0 -0.02 0 -0.02 0 -0.02 -0 -0.02 0 -0.02 -0 -0.02 0 -0.02 0 -0.02 -0 -0.02 0 -0.01 0 -0.01 0 -0.02 -0 -0.02 0 -0.02 -0 -0.02 0 -0.02 0 -0.02 -0 -0.02 0 -0.02 0 -0.02 -0 -0.02 0 -0.02 -0 -0.02 0 -0.02 0 -0.02 -0 -0.02 0 -0.02 0 -0.02 -0 -0.02 0 -0.02 0 -0.02 -0 -0.01 0 -0.03 0 -0.02 -0 -0.02 0 -0.02 0 -0.02 -0 -0.02 0 -0.02 -0 -0.02 0 -0.02 0 -0.02 0 -0.02 -0 -0.02 0 -0.02 -0 -0.02 0 -0.02 0 -0.02 0 -0.02 -0 -0.02 0 -0.02 0 -0.02 -0 -0.02 0 -0.02 0 -0.02 -0 -0.02 0 -0.02 0 -0.02 -0 -0.02 0 -0.02 0 -0.02 -0 -0.02 0 -0.02 0 -0.02 -0 -0.02 0 -0.02 0 -0.02 0 -0.02 -0 -0.02 0 -0.02 0 -0.02 0 -0.02 -0 -0.01 0 -0 0 -0.02 0 -0.02 -0 -0.02 0 -0.02 0 -0.02 -0 -0.02 0 -0.02 0 -0.02 0 -0.02 0 -0.02 -0 -0.02 0 -0.02 0 -0.02 -0 -0.02 0 -0.02 0 -0.02 0 -0.02 -0 -0.02 0 -0.02 0 -0.02 0 -0.02 -0 -0 0 -0.02 0 -0.02 0 -0.02 0 -0.02 -0 -0.02 0 -0.02 0 -0.02 0 -0.02 -0 -0.02 0 -0.02 0 -0.02 0 -0.02 0 -0.02 -0 -0.02 0 -0.02 0 -0.02 0 -0.02 -0 -0.02 0 -0.02 0 -0.02 0 -0.02 -0 -0 0 -0.02 0 -0.02 0 -0.02 0 -0.02 0 -0.02 -0 -0.02 0 -0.02 0 -0.02 0 -0.02 -0 -0.02 0 -0.02 0 -0.02 0 -0.02 0 -0.02 0 -0.02 -0 -0.02 0 -0.02 0 -0.02 0 -0.02 0 -0.02 -0 -0.02 0 -0.01 0 -0.01 0 -0.02 0 -0.02 0 -0.02 -0 -0.03 0 -0.11 -0 -1.02 -0.03 -0.1 -0 -0.27 -0 -0.77 -0.01 -0.11 0 -0.02 0 -0.05 0 -191.54 0 -20.07 0 -1.97 0c-0.5,0 -0.99,0.01 -1.49,0.01l-0.16 0c-0.47,0.01 -0.94,0.02 -1.41,0.04l-0.23 0.01c-0.46,0.01 -0.92,0.04 -1.38,0.06l-0.26 0.01c-0.44,0.03 -0.87,0.05 -1.31,0.08l-0.35 0.03c-0.44,0.03 -0.87,0.06 -1.31,0.1l-0.04 0 -0.04 0c-0.44,0.04 -0.88,0.08 -1.32,0.12l-0.31 0.03c-0.42,0.04 -0.85,0.09 -1.27,0.14l-0.33 0.04c-0.43,0.05 -0.86,0.11 -1.3,0.16l-0.29 0.04c-0.45,0.06 -0.91,0.13 -1.36,0.19l-0.08 0.01c-0.46,0.07 -0.93,0.15 -1.39,0.22l-0.11 0.02 -0.14 0.02c-0.42,0.07 -0.84,0.15 -1.25,0.22l-0.23 0.04c-0.43,0.08 -0.86,0.17 -1.3,0.25l-0.3 0.06c-0.44,0.09 -0.88,0.18 -1.32,0.28l-0.19 0.04c-0.44,0.1 -0.89,0.2 -1.33,0.31l-0.23 0.05c-0.45,0.11 -0.9,0.22 -1.35,0.33l-0.01 0c-0.45,0.11 -0.9,0.23 -1.34,0.35l-0.25 0.07c-0.42,0.12 -0.85,0.23 -1.27,0.35l-0.24 0.07c-0.43,0.12 -0.86,0.25 -1.28,0.38l-0.25 0.08c-0.42,0.13 -0.83,0.26 -1.25,0.4l-0.23 0.07c-0.44,0.14 -0.87,0.29 -1.31,0.44l-0 0 -0.01 0 -0.03 0.01c-0.45,0.15 -0.89,0.31 -1.34,0.47l-0.14 0.05c-0.42,0.15 -0.85,0.31 -1.27,0.47l-0.22 0.09c-0.43,0.16 -0.86,0.33 -1.29,0.5l-0.14 0.05c-0.42,0.17 -0.85,0.34 -1.27,0.52l-0.23 0.1c-0.4,0.17 -0.8,0.34 -1.2,0.52l-0.05 0.02 -0.01 0 -0.07 0.03c-0.87,0.38 -1.73,0.78 -2.59,1.19l-0.28 0.14c-0.39,0.19 -0.78,0.38 -1.17,0.57l-0.19 0.1c-0.4,0.2 -0.8,0.41 -1.2,0.61l-0.17 0.09c-0.42,0.22 -0.83,0.44 -1.25,0.66l-0.01 0.01c-0.41,0.22 -0.83,0.45 -1.24,0.68l-0.18 0.1c-0.37,0.21 -0.75,0.42 -1.12,0.64l-0.3 0.17c-0.37,0.22 -0.75,0.44 -1.12,0.67l-0.16 0.1c-0.39,0.23 -0.77,0.47 -1.15,0.71l-0.18 0.11c-0.37,0.23 -0.73,0.46 -1.09,0.7l-0.09 0.06 -0.01 0 -0.12 0.08 -0.59 0.38 -0.5 0.34 -0.07 0.05 -0.01 0 -0.1 0.07c-0.38,0.26 -0.75,0.52 -1.13,0.78l-0.12 0.09c-0.37,0.26 -0.73,0.52 -1.09,0.78l-0.16 0.12c-0.37,0.27 -0.75,0.55 -1.12,0.82l-0.08 0.06c-0.37,0.28 -0.75,0.57 -1.12,0.85l-0.06 0.05 -0.01 0 -0.08 0.06c-0.36,0.28 -0.72,0.56 -1.08,0.85l-0.15 0.12c-0.35,0.29 -0.71,0.57 -1.06,0.87l-0.1 0.08c-0.35,0.29 -0.7,0.58 -1.04,0.88l-0.15 0.13c-0.37,0.32 -0.74,0.64 -1.1,0.96l-0 0.01 -0.01 0.01c-0.37,0.33 -0.73,0.65 -1.09,0.98l-0.12 0.11c-0.34,0.31 -0.67,0.62 -1.01,0.93l-0.11 0.1c-0.33,0.31 -0.65,0.62 -0.97,0.94l-0.14 0.14c-0.35,0.34 -0.7,0.69 -1.05,1.04l-0 0.01 -0.01 0.01c-0.36,0.36 -0.71,0.72 -1.07,1.09l-0.03 0.03c-0.34,0.35 -0.68,0.71 -1.01,1.07l-0.08 0.09c-0.32,0.34 -0.64,0.7 -0.95,1.05l-0.09 0.1c-0.34,0.37 -0.67,0.75 -1,1.12l-0 0c-0.33,0.39 -0.67,0.78 -1,1.17l-0.04 0.05c-0.32,0.38 -0.63,0.76 -0.94,1.14l-0.06 0.08c-0.3,0.37 -0.6,0.75 -0.9,1.13l-0.07 0.09c-0.3,0.37 -0.59,0.75 -0.87,1.13l-0.05 0.07 -0 0 -0.06 0.08c-0.28,0.37 -0.56,0.74 -0.83,1.12l-0.12 0.17c-0.25,0.35 -0.5,0.7 -0.75,1.04l-0.17 0.25c-0.26,0.36 -0.5,0.72 -0.76,1.09l-0.11 0.16c-0.28,0.41 -0.56,0.83 -0.84,1.25l0 0c-0.29,0.43 -0.57,0.87 -0.85,1.31l-0.03 0.05c-0.27,0.42 -0.53,0.84 -0.78,1.26l-0.07 0.12c-0.25,0.41 -0.49,0.82 -0.74,1.23l-0.07 0.11 -0.39 0.66 -0.39 0.68 -3.95 6.98 -0 0 -0 0.01 -11.32 20.01 -0.04 0.06 -0.04 0.06 -0.04 0.06 -0.03 0.06 -0.04 0.06 -0.04 0.06 -0.07 0.12 -0 0 -0.04 0.06 -0.04 0.06 -0.04 0.06 -0.04 0.06 -0 0 -0.04 0.06 -0.04 0.06 -0.04 0.06 -0.04 0.06 -0 0 -0.04 0.06 -0.04 0.06 -0.04 0.06 -0.04 0.05 -0 0 -0.04 0.06 -0.04 0.06 -0.04 0.05 -0.04 0.05 -0 0 -0.04 0.06 -0.04 0.06 -0.04 0.05 -0.04 0.05 -0 0.01 -0.04 0.05 -0.04 0.06 -0.04 0.05 -0.04 0.05 -0 0.01 -0.04 0.05 -0.04 0.05 -0.04 0.05 -0.04 0.05 -0 0 -0.04 0.06 -0.04 0.05 -0.04 0.05 -0.04 0.04 -0 0.01 -0.04 0.05 -0.05 0.05 -0.04 0.05 -0.04 0.04 -0.01 0.01 -0.04 0.05 -0.05 0.05 -0.04 0.05 -0.04 0.04 -0.01 0.01 -0.04 0.05 -0.05 0.05 -0.05 0.05 -0.04 0.04 -0.01 0.01 -0.04 0.05 -0.05 0.05 -0.05 0.05 -0.04 0.04 -0.01 0.01 -0.05 0.05 -0.05 0.05 -0.05 0.05 -0.04 0.04 -0.01 0.01 -0.05 0.05 -0.05 0.05 -0.05 0.05 -0.04 0.04 -0.01 0.01 -0 0 -0.26 0.25 -0.01 0.01 -0.07 0.07 -0.01 0.01 -0.01 0 -0.01 0.01 -0 0.01 -0.01 0 -0.01 0.01 -0 0 -0 0 -0 0.01 -0.01 0 -0.01 0.01 -0.01 0.01 -0.01 0 -0.01 0.01 -0 0.01 -0.01 0 -0.01 0.01 -0.01 0.01 -0 0 -0.01 0.01 -0.01 0.01 -0.01 0 -0.01 0.01 -0.01 0 -0.01 0.01 -0.01 0.01 -0 0.01 -0.01 0.01 -0.01 0 -0.01 0.01 -0.01 0.01 -0.01 0.01 -0.01 0.01 -0.01 0.01 -0.01 0.01 -0.01 0 -0 0 -0.01 0.01 -0.01 0.01 -0.01 0.01 -0.01 0.01 -0.01 0.01 -0.01 0.01 -0.01 0.01 -0.01 0.01 -0.01 0.01 -0.01 0.01 -0.01 0.01 -0.01 0.01 -0.01 0.01 -0.01 0.01 -0.01 0.01 -0.01 0.01 -0.01 0.01 -0.01 0.01 -0.01 0.01 -0.01 0.01 -0.01 0.01 -0.01 0.01 -0.01 0.01 -0.01 0.01 -0.01 0.01 -0.01 0.01 -0.43 0 -3.89 0 -20.16 0 0 -0.77 0 -16.11 -0.48 0 -0.3 0 -0.48 0 -9.34 0 0 -0.51 0 -48.44 -0.79 0 -2.59 0 0 -0.02 0 -13.49 -0.79 0 -127.51 0 0 12.74 0 0.77 -3.38 0 0 48.89 0 0.07 -0.1 0 -0.69 0 -0.1 0 -0.17 0 -0.78 0 -3.61 0 -4.6 0 -0.56 0 0 5.75 0 14.5 0.48 0 -0.04 0.83 0 0.01 -1.5 0 -1.77 0 -0.07 0 -0.03 0 -0.03 0 -0.35 0.01 -0.03 0 -0.01 0 -0.02 0 -0.03 0 -0.32 0.01 -0.03 0 -0.03 0 -0.02 0 -0.01 0 -0.03 0 -0.39 0.03 -0 0 -0.37 0.03 -0.03 0 -0.03 0 -0.37 0.04 -0.06 0.01 -0.15 0.02 -0.23 0.03 -0.18 0.03 -0.22 0.04 -0.19 0.03 -0.22 0.04 -0.19 0.04 -0.21 0.04 -0.16 0.04 -0.26 0.07 -0.14 0.03 -0.26 0.07 -0.15 0.04 -0.22 0.07 -0.16 0.05 -0.23 0.07 -0.16 0.05 -0.24 0.09 -0.13 0.04 -0.2 0.08 -0.21 0.08 -0.01 0 -0.31 0.13 -0.05 0.02 -0.11 0.04 -0.25 0.11 -0.35 0.16 0 0 -0.34 0.17 -0.25 0.13 -0.09 0.05 -0.04 0.02 -0.29 0.16 -0.02 0.01 -0.15 0.09 -0.21 0.12 -0.1 0.06 -0.22 0.14 -0.21 0.13 -0.08 0.06 -0.23 0.16 -0.11 0.07 -0.17 0.12 -0.19 0.14 -0.1 0.08 -0.2 0.15 -0.13 0.1 -0.15 0.12 -0.18 0.15 -0.09 0.08 -0.19 0.16 -0.16 0.14 -0.12 0.11 -0.22 0.2 -0.06 0.05 -0.23 0.23 -0.05 0.05 -0.02 0.03 -0.26 0.26 -0.01 0.01 -0.26 0.28 -0.01 0.01 -0.25 0.27 -0.03 0.03 -0.22 0.26 -0.04 0.05 -0.09 0.11 -0.14 0.18 -0.08 0.11 -0.16 0.2 -0.11 0.16 -0.12 0.16 -0.07 0.11 -0.17 0.24 -0.07 0.1 -0.13 0.19 -0.12 0.2 -0.08 0.12 -0.11 0.18 -0.12 0.2 -0.08 0.14 -0.12 0.21 -0.07 0.13 -0.15 0.28 -0.03 0.06c-0.16,0.31 -0.31,0.64 -0.45,0.96l-0.06 0.14 -0.01 0.01 -0.15 0.36 -0 0.01 -0.14 0.35 -0.01 0.03 -0.12 0.34 -0.02 0.05 -0.04 0.12 -0.08 0.24 -0.04 0.14 -0.07 0.23 -0.04 0.15 -0.07 0.27 -0.03 0.13 -0.05 0.21 -0.05 0.22 -0.04 0.21 -0.04 0.17 -0.04 0.23 -0.03 0.16 -0.04 0.27 -0.02 0.15 -0.04 0.26 -0.02 0.14 -0.03 0.28 -0.01 0.16 -0.03 0.3 -0.01 0.1 -0.02 0.29 -0.01 0.12 -0 0.05 0 0.05 -0 0.07 0 0.06 -0.01 0.16 0 0.04 -0 0.03 -0 0.41zm497.01 -40.96c23.75,0 43.18,19.43 43.18,43.19l0 5.4c0,23.75 -19.43,43.19 -43.18,43.19l-163.31 0c-23.76,0 -43.19,-19.43 -43.19,-43.19l0 -5.4c0,-23.75 19.43,-43.19 43.19,-43.19l163.31 0z"/>
    </clipPath>
    <clipPath id="id4" style="clip-rule:nonzero">
     <path d="M-0 0l3694.3 0 0 1616.79 -3694.3 0 0 -1616.79z"/>
    </clipPath>
    <clipPath id="id5">
     <path d="M197.12 1484.04c100.08,3.61 191.47,4.69 291.56,1.63 21.25,-0.65 27.45,0.38 46.67,-13.26 5.77,-4.09 10.78,-9.1 12.7,-14.88l0.81 -1.77 0.47 -1.04c5.42,-15.61 4.64,-27.47 6.2,-44.29 4.5,-48.52 15.8,-176.81 11.68,-217.75 -0.25,-2.52 -1.17,-2.24 -0.67,-4.63 0.44,-2.09 0.36,0.25 0.67,-2.66l0.02 -9.54c0,-4.07 -0.23,-8.17 -0.15,-12.2 -2.54,-1.98 -2.61,-1.58 -1.08,-4.12 0.07,-0.11 0.18,-0.23 0.25,-0.35 1.19,-2.29 0.51,-21.22 -0.12,-23.17 -1.28,-3.97 0.06,-9.56 -0.02,-14.59 -0.08,-5.11 -0.56,-9.76 -0.56,-15.14l-3.37 -1.09 0 -3.52 3.06 -1 -0.82 -20.2c-0.23,-2.69 -0.98,-2.72 -1.15,-5.6 -0.27,-4.73 0.88,-6.91 0.22,-13.16 -0.35,-3.36 -0.67,-9.27 -0.76,-12.66 -1.17,-2.16 0.33,-0.02 -1.7,-1.07 -1.95,-1.01 -0.59,1.27 -1.67,-1.17l-2.65 -41.06c-0.77,-7.77 0.37,-6.6 2.65,-11.4 -1.96,1.06 -1.17,1.31 -3.55,1.35l-0.97 -4.02c2.15,1.39 1.1,1.76 3.95,1.81 1.74,0.03 1,-0.15 1.38,-0.05l0.5 0.3c0.01,-0.07 0.12,0.11 0.19,0.12 2.75,-3.52 1.58,-5.36 0.93,-10.65 -0.46,-3.79 -0.8,-7.81 -1.16,-11.66 -0.75,-7.92 -1.77,-15.8 -2.43,-23.47 -3.06,-35.73 -13.72,-45.67 -38.5,-65.3 -9.74,-7.71 -19.09,-14.91 -29.33,-22.28 -16.38,-11.81 -19.58,-9.62 -25.4,-26.78 -2.22,-6.55 -4.38,-13.17 -6.55,-19.26 -2.37,-6.67 -3.99,-12.73 -6.27,-19.56 -6.67,-19.98 -12.04,-40.09 -17.03,-60.43 -2.36,-9.59 -1.99,-14.06 -1.99,-23.76 5.21,-1.91 6.62,-1.05 10.66,-4.48 -0.1,-1.96 -0.66,-2.74 -0.61,-4.46 0.06,-2.05 0.6,-1.64 0.6,-4.51 0,-3.03 -0.21,-6.7 -0.37,-9.75l-0.53 -38.51c-0.03,-6.63 -0.79,-12.1 -4.64,-15.22 -16.73,-13.57 -120.41,-15.67 -136.8,-2.02 -6.28,5.23 -3.27,24.49 -4.29,34.79 -0.97,9.8 0.29,19.79 -0.34,29.59 -0.23,3.64 -1.21,3.44 -1.13,8.39 3.82,2.49 7.39,2.78 10.59,4.51 0.11,14.82 0.38,11.86 -2.85,25.68 -5.27,22.57 -12.27,44.88 -19.16,66.66 -2.48,7.83 -3.57,14.4 -10.48,18.13 -26.41,14.26 -57.05,43.77 -76.97,65.57 -10.19,11.15 -17.47,17.71 -22.23,34.44 -4.85,17.07 -3.29,34.72 2.67,48.77 1.47,3.48 3.52,6.6 4.91,9.65 1.75,3.85 4.64,17.47 5.74,22.36 1.06,4.75 -1.2,3.77 -1.06,11.68 1.85,1.23 4.55,3.44 2.98,6.9 -1.23,2.71 -4.03,1.41 -5.08,5.05 -1.19,4.12 -0.86,5.12 1.6,7.62 2,2.05 2.25,5.04 -0.01,6.83 -3.12,2.47 -3.62,0.41 -4.34,6.38 -0.73,6.07 9.04,6.63 0.14,12.99 -2.68,1.92 -2.05,4.3 -2.01,8.33 9.02,7.98 -0.41,7.89 -1.65,12.17 -1.29,4.49 -0.7,5.07 1.66,7.24 1.9,1.75 2.7,5.04 0.42,7.15 -2.85,2.65 -3.38,0.61 -4.04,6.15 -0.62,5.24 1.66,3.01 3.2,6.19 1.88,3.9 -0.44,5.58 -2.39,6.87 -2.71,1.78 -2.41,3.45 -2.25,7.85 0.72,1.59 3.02,2.43 3.68,4.24 1.87,5.15 -4.04,4.67 -4.96,9.69 -0.61,3.32 -0.71,3.36 1.12,5.32 3.38,3.62 4.76,5.89 -0.09,9.1 -3.92,2.59 -2.21,7.96 0.53,10.68 5.56,5.52 -3.82,5.79 -3.73,12.6 0.06,4.22 2.32,4.07 4.17,7.15 0.64,1.07 -0.03,3.47 -1.17,4.72 -1.78,1.95 -2.78,0.45 -3.49,3.86 -0.93,4.48 1.02,7.15 4.5,9.85 -1.29,7.47 -5.21,3.6 -5.19,10.33 0.01,5.33 2.61,4.81 4.86,8.97 -0.74,1.43 -0.64,2.06 -1.97,3.33 -2.47,2.36 -5.43,4.25 -2.3,10.04 0.98,1.8 4.13,2.93 3.71,5.47 -0.42,2.52 -3.14,3.69 -4.72,5.29 0.05,7.42 0.99,7.8 5.05,12.26 -1.79,3.88 -4.15,3.93 -5.05,6.82 0.52,4.06 1.89,0.82 0.56,6.81l4.5 4.72c-1.54,3.83 -4.25,3.42 -4.75,6.15 -0.42,2.33 1.51,3.2 0.9,5.39 -0.17,0.59 -0.14,-0.3 -0.66,1.61 2.77,1.85 3.38,2.47 4.84,5.82l-3.85 3.6c-1.39,1.75 -0.75,2.9 -0.76,5.29 -0.04,7.53 3.9,3.03 4.84,9.42 -2.47,3.52 -5.1,1.9 -4.51,9.54 0.46,5.91 5.06,3.04 5.06,9.19 -2.06,1.87 -3.69,2.15 -4.28,5.63 -1,5.89 4.5,9.39 1.91,15.35 -1.6,3.68 -0.91,3.91 -0.75,8.12 0.11,2.76 -0.57,5.31 -1.03,8.03 -3.13,18.5 -1.73,46.34 -1.8,65.31 1.74,38.56 -3.45,54.46 26.88,54.6z"/>
    </clipPath>
    <clipPath id="id6">
     <path d="M-0 0l3694.3 0 0 1616.79 -3694.3 0 0 -1616.79z"/>
    </clipPath>
    <clipPath id="id7">
     <path d="M2005.3 427.54c19.55,-6.12 100.65,-3.44 126.8,-3.44 51.67,-0 94.66,-11.42 83.97,40.8 -41.11,-0.81 -82.57,0.5 -123.69,-0.13 -71.69,-1.1 -59.01,8.99 -87.07,-37.23zm-295.26 854.31c0,6.6 -0.23,14.5 1.59,25.9 1.82,11.39 5.69,26.28 8.74,38.92 3.06,12.64 5.3,23.03 7.27,32.16 1.97,9.13 3.65,16.99 6.18,24.44 2.53,7.45 5.9,14.47 10.11,21.63 4.21,7.16 9.27,14.47 14.61,21.35 5.34,6.88 10.95,13.34 16.99,17.97 6.04,4.64 12.5,7.45 21.07,9.69 8.57,2.25 19.24,3.93 31.46,5.9 12.22,1.97 25.98,4.21 37.22,5.48 11.24,1.26 19.94,1.54 32.58,1.83 12.64,0.28 29.21,0.56 39.47,0 10.26,-0.56 14.18,-1.97 19.24,-5.06 5.06,-3.09 11.24,-7.87 17.7,-13.48 6.46,-5.62 13.2,-12.08 18.82,-19.8 5.62,-7.73 10.11,-16.72 14.33,-24.02 4.21,-7.3 8.14,-12.92 10.81,-18.68 2.67,-5.76 4.07,-11.66 6.04,-16.57 1.97,-4.92 4.5,-8.85 6.46,-11.38 1.97,-2.53 3.37,-3.65 19.38,-4.21 16.01,-0.56 46.63,-0.56 62.78,-0.42 16.15,0.14 17.84,0.42 20.93,3.93 3.09,3.51 7.58,10.26 12.22,14.33 4.64,4.07 9.41,5.48 22.47,10.53 13.06,5.06 34.41,13.76 46.91,18.82 12.5,5.06 16.15,6.46 18.82,9.55 2.67,3.09 4.35,7.86 6.74,12.64 2.39,4.77 5.48,9.55 11.1,14.61 5.62,5.06 13.76,10.39 20.22,14.75 6.46,4.35 11.24,7.72 16.99,9.97 5.76,2.25 12.5,3.37 27.11,3.79 14.61,0.42 37.08,0.14 56.6,-1.68 19.52,-1.83 36.1,-5.2 50.28,-9.13 14.18,-3.93 25.98,-8.43 34.41,-16.29 8.43,-7.87 13.48,-19.1 19.54,-41.43 6.07,-22.33 13.13,-55.76 16.66,-76.82 3.54,-21.07 3.54,-29.78 1.99,-37.8 -1.49,-7.75 -4.42,-14.86 -10.06,-22.7l2.35 0c-4.43,-14.4 -3.57,-40.2 -3.03,-56.73 2.37,-60.63 0.3,-126.11 0.34,-187.27 0.08,-122.99 -0.65,-250.62 0.67,-373.1 0.18,-16.71 -1.75,-28.23 5.09,-42.34 7.12,-14.71 6.12,-24.21 6.14,-41.35 0.05,-47.12 -0.86,-40.41 -10.02,-85.74 -10.76,-53.21 -27.44,-53.09 -76.73,-63.77 -3.53,-0.76 -15.81,-2.86 -18.53,-4.12 -3.42,-1.58 -8.47,-9.59 -11.19,-12.94 -15.14,-18.66 -26.34,-38.48 -45.15,-48.48 -28.48,-15.12 -48.91,-4.05 -80.26,-4.07 -62.42,-0.04 -124.84,-0 -187.26,-0.01 -57.44,-0 -87.19,-4.85 -120.1,45.11 -2.7,4.1 -6.3,11.55 -8.99,14.8l-42.6 0.66c-7.13,0.54 -8,2.35 -11.09,-1.84 -0.1,-0.16 -0.08,-0.71 -0.07,-0.57 0,0.03 1.67,-0.39 0.02,-10.3 -0.31,-1.89 -0.34,-0.42 -0.09,-2.25 0.21,-1.56 1.39,-0.64 1.38,-6.68 -2.78,-4.12 -3.76,-2.37 -5.29,-6.27 -1.91,-4.87 0.48,-4.9 -2.23,-10.42 -7.32,-14.96 -49.02,-12.45 -62.04,-12.1 -14.05,0.38 -30.81,1.59 -43.69,4.99 -7.81,2.06 -9.63,6.4 -12.1,11.7 -3.76,8.06 -12.11,10.87 -1.94,14.52 -2.89,4.08 -9.39,8.24 0.04,11.17 -0.25,0.34 -0.74,0.33 -0.88,0.92 -0.57,2.39 -7.13,3.91 -1.29,10.62l-7.75 1.89 -0.96 14.15c-11.88,4.84 -28.86,2.71 -29.97,18.29 -2.11,29.43 3.14,63.47 -2.77,93.15 -4.88,24.54 -9.03,67.04 -3.92,91.68 3.5,16.88 11.41,18.83 11.31,36.55 -1.1,182.33 4.5,365.56 -2.26,547.64 -0.72,0.64 -1.39,1.39 -2.01,2.24 -6.35,8.64 -8.08,27.5 -8.54,41.58 -0.46,2.72 -0.38,6.13 -0.38,9.97z"/>
    </clipPath>
    <clipPath id="id8">
     <path d="M-0 0l3694.3 0 0 1616.79 -3694.3 0 0 -1616.79z"/>
    </clipPath>
 </defs>
 <g id="Camada_x0020_1">
  <metadata id="CorelCorpID_0Corel-Layer"/>
  <g>
  </g>
  <g style="clip-path:url(#id0)">
   <g id="_2475564271872">
    <path class="fil0" d="M2749.41 234.16c11.08,20.17 16.86,-1.91 17.06,60.8 0.08,27.24 -0.27,54.57 -0.04,81.81 0.23,25.38 2.4,50.04 2.38,76.6 -0.01,26.11 -1.18,55.7 0.61,81.41 1.02,14.65 6.26,64.43 0.22,75.34 -3.79,6.83 -17.47,4.48 -17.31,21.97 0.12,13.25 9.1,17.73 18.85,20.56 2.93,76.95 0.56,224.65 5.48,288.44 0.97,12.61 3.65,57.28 1.35,69 -2.9,14.82 -27.01,19.32 -15.46,50.25 4.32,11.57 11.02,13.32 14.73,20.35 5.88,11.15 3.31,92.76 3.34,108.45 0.06,23.57 2.43,45.26 2.4,68.98l1.86 107.51c1.29,32.78 -26.85,34.28 -15.25,88.23 51.13,47.31 763.04,50.08 742.29,-26.84 -1.3,-27.23 -17.24,-38.12 -18.61,-53.9l2.39 -145.66c0.11,-48.02 2.39,-96.96 2.39,-146.41 9.45,-6.21 18.68,-16.01 19.31,-32.45 0.81,-21.32 -9.61,-25.46 -16.95,-35.74l5.3 -357.64c12.98,-9.6 19.56,-7.71 18.33,-33.2 -6.66,-4.89 -8.53,-5.96 -16.53,-10.27l4.81 -357.65c65.31,-80.53 -140.81,-117.44 -369.25,-123.35 -211.82,-5.48 -428.23,40.6 -393.72,103.42z"/>
   </g>
   <g style="clip-path:url(#id1)">
    <g>
     <path id="_1" class="fil1" d="M2883.59 905.95c0,-19.66 2.93,-36.51 8.76,-50.55 5.83,-14.03 16.28,-29.57 31.35,-46.62 14.83,-17.05 25.09,-31.61 30.8,-43.66 5.72,-12.07 8.58,-24.66 8.58,-37.78 0,-11.8 -1.77,-19.99 -5.28,-24.57 -3.53,-4.6 -8.69,-6.89 -15.5,-6.89 -13.86,0 -20.78,9.04 -20.78,27.13l0 29.51 -37.92 0 0 -26.76c0,-22.28 5.11,-39.4 15.31,-51.33 10.21,-11.94 25.03,-17.91 44.48,-17.91 19.45,0 34.27,5.97 44.49,17.91 10.2,11.93 15.3,29.05 15.3,51.33 0,16.78 -3.7,33.18 -11.12,49.18 -7.41,15.98 -20.23,34.35 -38.46,55.06 -11.91,13.64 -19.93,24.74 -24.06,33.25 -4.13,8.52 -6.2,17.65 -6.2,27.33l0 5.9 76.19 0 0 39.34 -115.94 0 0 -29.89zm204.54 33.83c-19.68,0 -34.76,-6.03 -45.21,-18.1 -10.45,-12.07 -15.67,-29.12 -15.67,-51.14l0 -144.76c0,-22.02 5.22,-39.07 15.67,-51.14 10.45,-12.05 25.53,-18.1 45.21,-18.1 19.68,0 34.76,6.04 45.21,18.1 10.45,12.07 15.67,29.12 15.67,51.14l0 144.76c0,22.03 -5.22,39.07 -15.67,51.14 -10.45,12.07 -25.53,18.1 -45.21,18.1zm0 -39.33c13.86,0 20.78,-9.06 20.78,-27.15l0 -150.28c0,-18.1 -6.92,-27.13 -20.78,-27.13 -13.86,0 -20.78,9.04 -20.78,27.13l0 150.28c0,18.1 6.93,27.15 20.78,27.15zm145.84 39.33c-19.68,0 -34.76,-6.03 -45.21,-18.1 -10.45,-12.07 -15.67,-29.12 -15.67,-51.14l0 -144.76c0,-22.02 5.22,-39.07 15.67,-51.14 10.45,-12.05 25.53,-18.1 45.21,-18.1 19.68,0 34.76,6.04 45.21,18.1 10.45,12.07 15.67,29.12 15.67,51.14l0 144.76c0,22.03 -5.22,39.07 -15.67,51.14 -10.45,12.07 -25.53,18.1 -45.21,18.1zm0 -39.33c13.86,0 20.78,-9.06 20.78,-27.15l0 -150.28c0,-18.1 -6.92,-27.13 -20.78,-27.13 -13.86,0 -20.78,9.04 -20.78,27.13l0 150.28c0,18.1 6.92,27.15 20.78,27.15zm87.87 -239.98l40.11 0 0 236.03 65.98 0 0 39.34 -106.09 0 0 -275.38z"/>
    </g>
   </g>
   <g style="clip-path:url(#id2)">
    <path class="fil2" d="M2749.41 234.16c11.08,20.17 16.86,-1.91 17.06,60.8 0.08,27.24 -0.27,54.57 -0.04,81.81 0.23,25.38 2.4,50.04 2.38,76.6 -0.01,26.11 -1.18,55.7 0.61,81.41 1.02,14.65 6.26,64.43 0.22,75.34 -3.79,6.83 -17.47,4.48 -17.31,21.97 0.12,13.25 9.1,17.73 18.85,20.56 2.93,76.95 0.56,224.65 5.48,288.44 0.97,12.61 3.65,57.28 1.35,69 -2.9,14.82 -27.01,19.32 -15.46,50.25 4.32,11.57 11.02,13.32 14.73,20.35 5.88,11.15 3.31,92.76 3.34,108.45 0.06,23.57 2.43,45.26 2.4,68.98l1.86 107.51c1.29,32.78 -26.85,34.28 -15.25,88.23 51.13,47.31 763.04,50.08 742.29,-26.84 -1.3,-27.23 -17.24,-38.12 -18.61,-53.9l2.39 -145.66c0.11,-48.02 2.39,-96.96 2.39,-146.41 9.45,-6.21 18.68,-16.01 19.31,-32.45 0.81,-21.32 -9.61,-25.46 -16.95,-35.74l5.3 -357.64c12.98,-9.6 19.56,-7.71 18.33,-33.2 -6.66,-4.89 -8.53,-5.96 -16.53,-10.27l4.81 -357.65c65.31,-80.53 -140.81,-117.44 -369.25,-123.35 -211.82,-5.48 -428.23,40.6 -393.72,103.42z"/>
    <g>
     <path class="fil3" d="M816.41 606.87l0.01 -0.38 -0.01 0.38zm526.51 -99.06c4.92,0.83 9.75,2.22 14.39,4.12l-14.39 -4.12zm-493.58 960.95l-28.8 -58.76 28.8 58.76zm182.43 -906.93l-0.01 0.01 0.01 -0.01zm-104.06 925.61l0 0 -0 0zm108.01 -932.59l-15.27 27 15.27 -27zm-199.06 34.72l-0.04 0.85 0.04 -0.85zm511.18 897.88l0 -0 -0 0zm-531.44 -880.15l0 15.81 0 106.03 0 0.4 0 0.61 0 0.39 0 395.65 0 202.73 0 0.05 0 0.05 0 13.46 0 0.07 0 49.61 0 0 0 0c0,0.63 0.01,1.27 0.04,1.9 0.21,4.39 1.13,8.72 2.72,12.81 0.35,0.91 0.74,1.8 1.16,2.69l0.07 0.13 0.04 0.09 0.1 0.21 0 0 19.28 39.33 9.52 19.42 0.05 0.11 0.02 0.05 0.05 0.11 0.02 0.05 0.06 0.11 0.02 0.04c0.25,0.49 0.5,0.96 0.78,1.43 0.13,0.23 0.27,0.46 0.41,0.7 0.14,0.23 0.28,0.45 0.42,0.68 1.7,2.67 3.77,5.09 6.15,7.18 0.67,0.59 1.36,1.15 2.07,1.69l0.04 0.03 0.27 0.2 0.23 0.17 0.29 0.2 0.35 0.24 0.4 0.27 0.46 0.3 0.04 0.02 0.49 0.3 0.57 0.35 0.63 0.36 0.69 0.37 0.75 0.39 0.81 0.39 0.85 0.38 0.9 0.37 0.95 0.36 1 0.34 0.3 0.1 0.32 0.1 0.34 0.1 0.34 0.1 0.36 0.1 0.37 0.09 0.4 0.1 0.41 0.09 0.43 0.09 0.09 0.01 0.19 0.01 0.28 0.01 0.38 0.01 1.07 0.01 53.31 0.57 0 0 0.67 0.01 1.06 0 0 0 0.38 0 107.34 0 107.84 0 202.06 -0 0.79 0 0.31 0 0.79 0 1 -0.01 0.01 0 53.31 -0.57 0.59 -0.01 0.49 -0.01 0.39 -0.01 0.28 -0.01 0.18 -0.01 0.08 -0.01 0.43 -0.09 0.41 -0.09 0.4 -0.1 0.38 -0.09 0.36 -0.1 0.35 -0.1 0.33 -0.1 0.32 -0.1 0.31 -0.1 1 -0.34 0.95 -0.36 0.9 -0.37 0.86 -0.38 0.8 -0.39 0.75 -0.39 0.69 -0.37 0.63 -0.36 0.58 -0.35 0.52 -0.33 0.46 -0.3 0.4 -0.27 0.35 -0.24 0.29 -0.2 0.23 -0.17 0.27 -0.2 0.04 -0.03c4.27,-3.2 7.71,-7.36 10.06,-12.15l28.8 -58.76c2.72,-5.55 4.13,-11.65 4.13,-17.83l0 -48.35 -0.26 -2.65 -2.24 -11.21 -0.2 -1.99 0 -502.75 0.2 -1.98 2.24 -11.21 0.26 -2.65 0 -0.79 0 -72.15c0,-69.74 -22.5,-137.63 -64.15,-193.57 -10.18,-13.67 -23.87,-24.34 -39.61,-30.86l-0.2 -0.06 -0.12 -0.05 -1.98 -0.78 -2.09 -0.74 -2.08 -0.67 -2.06 -0.59 -2.04 -0.51 -2.03 -0.44 -1.99 -0.38 -0.03 -0 -0.03 -0.01 -0.03 -0 -0.01 -0 -0.02 -0 -0.06 -0.01 -0.03 -0.01 -0.03 -0 -0.03 -0.01 -0.03 -0 -0.03 -0.01 -0.03 -0 -0.03 -0 -0.03 -0.01 -0.03 -0 -0.03 -0 -0 0 -0.03 -0.01 -0.03 -0 -0.03 -0.01 -0.03 -0 -0.03 -0 -0.03 -0.01 -0.03 -0 -0.03 -0 -0.03 -0.01 -0.03 -0 -0.03 -0 -0.03 -0.01 -0.01 0 -0.01 -0 -0.03 -0 -0.03 -0.01 -0.03 -0 -0.03 -0 -0.03 -0.01 -0.03 -0 -0.03 -0 -0.03 -0.01 -0.03 -0 -0.03 -0 -0.03 -0 -0.03 -0.01 0 0 -0.03 -0 -0.03 -0 -0.03 -0.01 -0.03 -0 -0.03 -0 -0.03 -0 -0.03 -0 -0.03 -0.01 -0.03 -0 -0.03 -0 -0.03 -0 -0.03 -0.01 -0.02 -0 -0.01 0 -0.03 -0 -0.03 -0 -0.03 -0.01 -0.03 -0 -0.03 -0 -0.03 -0 -0.03 -0 -0.03 -0 -0.03 -0.01 -0.03 -0 -0.03 -0 -0.03 -0 -0.01 -0 -0.02 0 -0.03 -0.01 -0.03 -0 -0.03 -0 -0.03 -0 -0.03 -0 -0.03 -0 -0.03 -0 -0.03 -0 -0.03 -0.01 -0.03 -0 -0.03 -0 -0.03 -0 -0 0 -0.03 -0 -0.03 -0 -0.03 -0 -0.03 -0 -0.03 -0.01 -0.03 -0 -0.03 -0 -0.03 -0 -0.03 -0 -0.03 -0 -0.03 -0 -0.03 -0 -0.03 -0 -0.01 0 -0.03 -0 -0.03 -0 -0.03 -0 -0.03 -0 -0.03 -0 -0.03 -0.01 -0.03 -0 -0.03 0 -0.03 -0.01 -0.03 -0 -0.03 -0 -0.03 -0 -0.02 0 -0.01 -0 -0.03 -0 -0.06 -0.01 -0.03 -0 -0.12 -0.01 -0.03 -0 -0.03 -0 -0.03 -0 -0.03 0 -0.01 -0 -0.02 -0 -0.03 0 -0.03 -0 -0.03 -0 -0.03 -0 -0.03 -0 -0.03 -0 -0.03 -0 -0.03 -0 -0.03 -0 -0.03 -0 -0.03 -0 -0.02 0 -0.02 -0 -0.02 -0 -0.02 0 -0.02 -0 -0.02 0 -0.02 -0 -0.02 0 -0.02 -0 -0.02 0 -0.02 -0 -0.02 0 -0.02 -0 -0.02 -0 -0.02 0 -0.02 -0 -0.02 0 -0.02 -0 -0.02 0 -0.02 -0 -0.02 0 -0.02 -0 -0.01 0 -0 0 -0.02 -0 -0.02 0 -0.02 -0 -0.02 0 -0.02 -0 -0.02 0 -0.02 -0 -0.02 -0 -0.02 0 -0.02 -0 -0.02 0 -0.02 -0 -0.02 0 -0.02 -0 -0.02 0 -0.02 -0 -0.02 0 -0.02 -0 -0.02 0 -0.02 -0 -0.01 0 -0.01 0 -0.02 -0 -0.02 0 -0.02 -0 -0.02 0 -0.02 -0 -0.02 0 -0.02 -0 -0.02 0 -0.02 -0 -0.02 0 -0.02 -0 -0.02 0 -0.02 0 -0.02 -0 -0.02 -0 -0.02 0 -0.02 0 -0.02 -0 -0.02 0 -0.02 -0 -0 0 -0.01 0 -0.02 -0 -0.02 0 -0.02 -0 -0.02 0 -0.02 -0 -0.02 0 -0.02 -0 -0.02 0 -0.02 -0 -0.02 0 -0.02 0 -0.02 -0 -0.02 0 -0.02 -0 -0.02 0 -0.02 -0 -0.02 0 -0.02 -0 -0.02 0 -0.02 -0 -0 0 -0.01 0 -0.02 0 -0.02 -0 -0.02 0 -0.02 -0 -0.02 0 -0.02 -0 -0.02 0 -0.02 0 -0.02 -0 -0.02 0 -0.02 -0 -0.02 0 -0.02 -0 -0.02 0 -0.02 0 -0.02 -0 -0.02 0 -0.02 0 -0.02 -0 -0.01 0 -0 0 -0.02 -0 -0.02 0 -0.02 -0 -0.02 0 -0.02 0 -0.02 -0 -0.02 0 -0.02 -0 -0.02 0 -0.02 0 -0.02 -0 -0.02 0 -0.02 0 -0.02 -0 -0.02 0 -0.02 -0 -0.02 0 -0.02 0 -0.02 -0 -0.02 0 -0.01 0 -0.01 0 -0.02 -0 -0.02 0 -0.02 -0 -0.02 0 -0.02 0 -0.02 -0 -0.02 0 -0.02 0 -0.02 -0 -0.02 0 -0.02 -0 -0.02 0 -0.02 0 -0.02 -0 -0.02 0 -0.02 0 -0.02 -0 -0.02 0 -0.02 0 -0.02 -0 -0.01 0 -0.03 0 -0.02 -0 -0.02 0 -0.02 0 -0.02 -0 -0.02 0 -0.02 -0 -0.02 0 -0.02 0 -0.02 0 -0.02 -0 -0.02 0 -0.02 -0 -0.02 0 -0.02 0 -0.02 0 -0.02 -0 -0.02 0 -0.02 0 -0.02 -0 0 0 -0.02 0 -0.02 0 -0.02 -0 -0.02 0 -0.02 0 -0.02 -0 -0.02 0 -0.02 0 -0.02 -0 -0.02 0 -0.02 0 -0.02 -0 -0.02 0 -0.02 0 -0.02 0 -0.02 -0 -0.02 0 -0.02 0 -0.02 0 -0.02 -0 -0.01 0 -0 0 -0.02 0 -0.02 -0 -0.02 0 -0.02 0 -0.02 -0 -0.02 0 -0.02 0 -0.02 0 -0.02 0 -0.02 -0 -0.02 0 -0.02 0 -0.02 -0 -0.02 0 -0.02 0 -0.02 0 -0.02 -0 -0.02 0 -0.02 0 -0.02 0 -0.02 -0 -0 0 -0.02 0 -0.02 0 -0.02 0 -0.02 -0 -0.02 0 -0.02 0 -0.02 0 -0.02 -0 -0.02 0 -0.02 0 -0.02 0 -0.02 0 -0.02 -0 -0.02 0 -0.02 0 -0.02 0 -0.02 -0 -0.02 0 -0.02 0 -0.02 0 -0.02 -0 -0 0 -0.02 0 -0.02 0 -0.02 0 -0.02 0 -0.02 -0 -0.02 0 -0.02 0 -0.02 0 -0.02 -0 -0.02 0 -0.02 0 -0.02 0 -0.02 0 -0.02 0 -0.02 -0 -0.02 0 -0.02 0 -0.02 0 -0.02 0 -0.02 -0 -0.02 0 -0.01 0 -0.01 0 0 0 -0.02 0 -0.02 0 -0.02 -0 -0.03 0 -0.11 -0 -1.02 -0.03 -0.1 -0 -0.27 -0 -0.77 -0.01 -0.11 0 -0.02 0 0 0 0 0 -0.05 0 -191.54 0 -20.07 0 -1.97 0c-0.5,0 -0.99,0.01 -1.49,0.01l-0.16 0c-0.47,0.01 -0.94,0.02 -1.41,0.04l-0.23 0.01c-0.46,0.01 -0.92,0.04 -1.38,0.06l-0.26 0.01c-0.44,0.03 -0.87,0.05 -1.31,0.08l-0.35 0.03c-0.44,0.03 -0.87,0.06 -1.31,0.1l-0.04 0 0 0 -0.04 0c-0.44,0.04 -0.88,0.08 -1.32,0.12l-0.31 0.03c-0.42,0.04 -0.85,0.09 -1.27,0.14l-0.33 0.04c-0.43,0.05 -0.86,0.11 -1.3,0.16l-0.29 0.04c-0.45,0.06 -0.91,0.13 -1.36,0.19l-0.08 0.01c-0.46,0.07 -0.93,0.15 -1.39,0.22l-0.11 0.02 0 0 -0.14 0.02c-0.42,0.07 -0.84,0.15 -1.25,0.22l-0.23 0.04c-0.43,0.08 -0.86,0.17 -1.3,0.25l-0.3 0.06c-0.44,0.09 -0.88,0.18 -1.32,0.28l-0.19 0.04c-0.44,0.1 -0.89,0.2 -1.33,0.31l-0.23 0.05c-0.45,0.11 -0.9,0.22 -1.35,0.33l-0.01 0c-0.45,0.11 -0.9,0.23 -1.34,0.35l-0.25 0.07c-0.42,0.12 -0.85,0.23 -1.27,0.35l-0.24 0.07c-0.43,0.12 -0.86,0.25 -1.28,0.38l-0.25 0.08c-0.42,0.13 -0.83,0.26 -1.25,0.4l-0.23 0.07c-0.44,0.14 -0.87,0.29 -1.31,0.44l-0 0 -0.01 0 -0.03 0.01c-0.45,0.15 -0.89,0.31 -1.34,0.47l-0.14 0.05c-0.42,0.15 -0.85,0.31 -1.27,0.47l-0.22 0.09c-0.43,0.16 -0.86,0.33 -1.29,0.5l-0.14 0.05c-0.42,0.17 -0.85,0.34 -1.27,0.52l-0.23 0.1c-0.4,0.17 -0.8,0.34 -1.2,0.52l-0.05 0.02 -0.01 0 -0.07 0.03c-0.87,0.38 -1.73,0.78 -2.59,1.19l-0.28 0.14c-0.39,0.19 -0.78,0.38 -1.17,0.57l-0.19 0.1c-0.4,0.2 -0.8,0.41 -1.2,0.61l-0.17 0.09c-0.42,0.22 -0.83,0.44 -1.25,0.66l-0.01 0.01 0 0c-0.41,0.22 -0.83,0.45 -1.24,0.68l-0.18 0.1c-0.37,0.21 -0.75,0.42 -1.12,0.64l-0.3 0.17c-0.37,0.22 -0.75,0.44 -1.12,0.67l-0.16 0.1c-0.39,0.23 -0.77,0.47 -1.15,0.71l-0.18 0.11c-0.37,0.23 -0.73,0.46 -1.09,0.7l-0.09 0.06 -0.01 0 -0.12 0.08 -0.59 0.38 -0.5 0.34 -0.07 0.05 -0.01 0 -0.1 0.07c-0.38,0.26 -0.75,0.52 -1.13,0.78l-0.12 0.09c-0.37,0.26 -0.73,0.52 -1.09,0.78l-0.16 0.12c-0.37,0.27 -0.75,0.55 -1.12,0.82l-0.08 0.06c-0.37,0.28 -0.75,0.57 -1.12,0.85l-0.06 0.05 -0.01 0 -0.08 0.06c-0.36,0.28 -0.72,0.56 -1.08,0.85l-0.15 0.12c-0.35,0.29 -0.71,0.57 -1.06,0.87l-0.1 0.08c-0.35,0.29 -0.7,0.58 -1.04,0.88l-0.15 0.13c-0.37,0.32 -0.74,0.64 -1.1,0.96l-0 0.01 -0.01 0.01c-0.37,0.33 -0.73,0.65 -1.09,0.98l-0.12 0.11c-0.34,0.31 -0.67,0.62 -1.01,0.93l-0.11 0.1c-0.33,0.31 -0.65,0.62 -0.97,0.94l-0.14 0.14c-0.35,0.34 -0.7,0.69 -1.05,1.04l-0 0.01 -0.01 0.01c-0.36,0.36 -0.71,0.72 -1.07,1.09l-0.03 0.03c-0.34,0.35 -0.68,0.71 -1.01,1.07l-0.08 0.09c-0.32,0.34 -0.64,0.7 -0.95,1.05l-0.09 0.1c-0.34,0.37 -0.67,0.75 -1,1.12l-0 0c-0.33,0.39 -0.67,0.78 -1,1.17l-0.04 0.05c-0.32,0.38 -0.63,0.76 -0.94,1.14l-0.06 0.08c-0.3,0.37 -0.6,0.75 -0.9,1.13l-0.07 0.09c-0.3,0.37 -0.59,0.75 -0.87,1.13l-0.05 0.07 -0 0 -0.06 0.08c-0.28,0.37 -0.56,0.74 -0.83,1.12l-0.12 0.17c-0.25,0.35 -0.5,0.7 -0.75,1.04l-0.17 0.25c-0.26,0.36 -0.5,0.72 -0.76,1.09l-0.11 0.16c-0.28,0.41 -0.56,0.83 -0.84,1.25l0 0c-0.29,0.43 -0.57,0.87 -0.85,1.31l-0.03 0.05c-0.27,0.42 -0.53,0.84 -0.78,1.26l-0.07 0.12c-0.25,0.41 -0.49,0.82 -0.74,1.23l-0.07 0.11 -0.39 0.66 -0.39 0.68 -3.95 6.98 -0 0 -0 0.01 -11.32 20.01 -0.04 0.06 -0.04 0.06 -0.04 0.06 -0.03 0.06 0 0 -0.04 0.06 -0.04 0.06 -0.07 0.12 -0 0 -0.04 0.06 -0.04 0.06 -0.04 0.06 -0.04 0.06 -0 0 -0.04 0.06 -0.04 0.06 -0.04 0.06 -0.04 0.06 -0 0 -0.04 0.06 -0.04 0.06 -0.04 0.06 -0.04 0.05 -0 0 -0.04 0.06 -0.04 0.06 -0.04 0.05 -0.04 0.05 -0 0 -0.04 0.06 -0.04 0.06 -0.04 0.05 -0.04 0.05 -0 0.01 -0.04 0.05 -0.04 0.06 -0.04 0.05 -0.04 0.05 -0 0.01 -0.04 0.05 -0.04 0.05 -0.04 0.05 -0.04 0.05 -0 0 -0.04 0.06 -0.04 0.05 -0.04 0.05 -0.04 0.04 -0 0.01 -0.04 0.05 -0.05 0.05 -0.04 0.05 -0.04 0.04 -0.01 0.01 -0.04 0.05 -0.05 0.05 -0.04 0.05 -0.04 0.04 -0.01 0.01 -0.04 0.05 -0.05 0.05 -0.05 0.05 -0.04 0.04 -0.01 0.01 -0.04 0.05 -0.05 0.05 -0.05 0.05 -0.04 0.04 -0.01 0.01 -0.05 0.05 -0.05 0.05 -0.05 0.05 -0.04 0.04 -0.01 0.01 -0.05 0.05 -0.05 0.05 -0.05 0.05 -0.04 0.04 -0.01 0.01 -0 0 -0.26 0.25 -0.01 0.01 -0.07 0.07 -0.01 0.01 -0.01 0 -0.01 0.01 -0 0.01 -0.01 0 -0.01 0.01 -0 0 -0 0 -0 0.01 -0.01 0 -0.01 0.01 -0.01 0.01 -0.01 0 -0.01 0.01 -0 0.01 -0.01 0 -0.01 0.01 -0.01 0.01 -0 0 -0.01 0.01 -0.01 0.01 -0.01 0 -0.01 0.01 -0.01 0 -0.01 0.01 -0.01 0.01 -0 0.01 -0.01 0.01 -0.01 0 -0.01 0.01 -0.01 0.01 -0.01 0.01 -0.01 0.01 -0.01 0.01 -0.01 0.01 -0.01 0 -0 0 -0.01 0.01 -0.01 0.01 -0.01 0.01 -0.01 0.01 -0.01 0.01 -0.01 0.01 -0.01 0.01 -0.01 0.01 -0.01 0.01 -0.01 0.01 -0.01 0.01 -0.01 0.01 -0.01 0.01 -0.01 0.01 -0.01 0.01 -0.01 0.01 -0.01 0.01 -0.01 0.01 -0.01 0.01 -0.01 0.01 -0.01 0.01 -0.01 0.01 -0.01 0.01 -0.01 0.01 0 0 -0.01 0.01 -0.01 0.01 -0.43 0 -3.89 0 -20.16 0 0 -0.77 0 -16.11 -0.48 0 -0.3 0 -0.48 0 -9.34 0 0 -0.51 0 -48.44 -0.79 0 -2.59 0 0 -0.02 0 -13.49 -0.79 0 -127.51 0 0 12.74 0 0.77 -3.38 0 0 48.89 0 0.07 -0.1 0 -0.69 0 -0.1 0 -0.17 0 -0.78 0 -3.61 0 -4.6 0 -0.56 0 0 5.75 0 14.5 0.48 0 -0.04 0.83 0 0.01 -1.5 0 -1.77 0 -0.07 0 -0.03 0 -0.03 0 -0.35 0.01 -0.03 0 -0.01 0 -0.02 0 -0.03 0 -0.32 0.01 -0.03 0 -0.03 0 -0.02 0 -0.01 0 -0.03 0 -0.39 0.03 -0 0 -0.37 0.03 -0.03 0 -0.03 0 -0.37 0.04 -0.06 0.01 -0.15 0.02 -0.23 0.03 -0.18 0.03 -0.22 0.04 -0.19 0.03 -0.22 0.04 -0.19 0.04 -0.21 0.04 -0.16 0.04 -0.26 0.07 -0.14 0.03 -0.26 0.07 -0.15 0.04 -0.22 0.07 -0.16 0.05 -0.23 0.07 -0.16 0.05 -0.24 0.09 -0.13 0.04 -0.2 0.08 -0.21 0.08 -0.01 0 -0.31 0.13 -0.05 0.02 -0.11 0.04 -0.25 0.11 -0.35 0.16 0 0 -0.34 0.17 -0.25 0.13 -0.09 0.05 -0.04 0.02 -0.29 0.16 -0.02 0.01 -0.15 0.09 -0.21 0.12 -0.1 0.06 -0.22 0.14 -0.21 0.13 -0.08 0.06 -0.23 0.16 -0.11 0.07 -0.17 0.12 -0.19 0.14 -0.1 0.08 -0.2 0.15 -0.13 0.1 -0.15 0.12 -0.18 0.15 -0.09 0.08 -0.19 0.16 -0.16 0.14 -0.12 0.11 -0.22 0.2 -0.06 0.05 -0.23 0.23 -0.05 0.05 -0.02 0.03 -0.26 0.26 -0.01 0.01 -0.26 0.28 -0.01 0.01 -0.25 0.27 -0.03 0.03 -0.22 0.26 -0.04 0.05 -0.09 0.11 -0.14 0.18 -0.08 0.11 -0.16 0.2 -0.11 0.16 -0.12 0.16 -0.07 0.11 -0.17 0.24 -0.07 0.1 -0.13 0.19 -0.12 0.2 -0.08 0.12 -0.11 0.18 -0.12 0.2 -0.08 0.14 -0.12 0.21 -0.07 0.13 -0.15 0.28 -0.03 0.06c-0.16,0.31 -0.31,0.64 -0.45,0.96l-0.06 0.14 -0.01 0.01 -0.15 0.36 -0 0.01 -0.14 0.35 -0.01 0.03 -0.12 0.34 -0.02 0.05 -0.04 0.12 -0.08 0.24 -0.04 0.14 -0.07 0.23 -0.04 0.15 -0.07 0.27 -0.03 0.13 -0.05 0.21 -0.05 0.22 -0.04 0.21 -0.04 0.17 -0.04 0.23 -0.03 0.16 -0.04 0.27 -0.02 0.15 -0.04 0.26 -0.02 0.14 -0.03 0.28 -0.01 0.16 -0.03 0.3 -0.01 0.1 -0.02 0.29 -0.01 0.12 -0 0.05 0 0.05 -0 0.07 0 0.06 -0.01 0.16 0 0.04 -0 0.03 -0 0.41zm497.01 -40.96c23.75,0 43.18,19.43 43.18,43.19l0 5.4c0,23.75 -19.43,43.19 -43.18,43.19l-163.31 0c-23.76,0 -43.19,-19.43 -43.19,-43.19l0 -5.4c0,-23.75 19.43,-43.19 43.19,-43.19l163.31 0z"/>
    </g>
   </g>
   <g style="clip-path:url(#id3)">
    <g>
     <path id="_1_0" class="fil1" d="M1061.04 1211.15c-22.68,0 -39.98,-6.46 -51.89,-19.36 -11.91,-12.88 -17.84,-31.39 -17.84,-55.48l0 -23.38 44.22 0 0 26.77c0,19.28 8.07,28.92 24.23,28.92 16.15,0 24.23,-9.63 24.23,-28.92l0 -66.75c0,-19.56 -8.08,-29.33 -24.23,-29.33 -16.16,0 -24.23,9.78 -24.23,29.33l0 2.56 -44.22 0 8.5 -166.25 123.29 0 0 42.52 -81.63 0 -3.83 70.99 0.85 0c8.8,-14.45 22.26,-21.67 40.39,-21.67 17.01,0 29.91,5.81 38.7,17.43 8.78,11.62 13.19,28.49 13.19,50.59l0 67.18c0,24.08 -5.96,42.6 -17.86,55.48 -11.91,12.9 -29.21,19.36 -51.87,19.36zm101.61 -301.88l46.78 0 0 255.1 76.94 0 0 42.52 -123.72 0 0 -297.62z"/>
    </g>
   </g>
   <g style="clip-path:url(#id4)">
    <path class="fil4" d="M816.41 606.87l0.01 -0.38m526.5 -98.68c4.92,0.83 9.75,2.22 14.39,4.12m-507.98 956.83l-28.8 -58.76m211.24 -848.17l-0.01 0.01m-104.05 925.59l0 0m108.01 -932.59l-15.27 27m-183.79 7.72l-0.04 0.85m511.22 897.03l0 -0m-531.45 -880.14l0 15.81 0 106.03 0 0.4 0 0.61 0 0.39 0 395.65 0 202.73 0 0.05 0 0.05 0 13.46 0 0.07 0 49.61 0 0 0 0c0,0.63 0.01,1.27 0.04,1.9 0.21,4.39 1.13,8.72 2.72,12.81 0.35,0.91 0.74,1.8 1.16,2.69l0.07 0.13 0.04 0.09 0.1 0.21 0 0 19.28 39.33 9.52 19.42 0.05 0.11 0.02 0.05 0.05 0.11 0.02 0.05 0.06 0.11 0.02 0.04c0.25,0.49 0.5,0.96 0.78,1.43 0.13,0.23 0.27,0.46 0.41,0.7 0.14,0.23 0.28,0.45 0.42,0.68 1.7,2.67 3.77,5.09 6.15,7.18 0.67,0.59 1.36,1.15 2.07,1.69l0.04 0.03 0.27 0.2 0.23 0.17 0.29 0.2 0.35 0.24 0.4 0.27 0.46 0.3 0.04 0.02 0.49 0.3 0.57 0.35 0.63 0.36 0.69 0.37 0.75 0.39 0.81 0.39 0.85 0.38 0.9 0.37 0.95 0.36 1 0.34 0.3 0.1 0.32 0.1 0.34 0.1 0.34 0.1 0.36 0.1 0.37 0.09 0.4 0.1 0.41 0.09 0.43 0.09 0.09 0.01 0.19 0.01 0.28 0.01 0.38 0.01 1.07 0.01 53.31 0.57 0 0 0.67 0.01 1.06 0 0 0 0.38 0 107.34 0 107.84 0 202.06 -0 0.79 0 0.31 0 0.79 0 1 -0.01 0.01 0 53.31 -0.57 0.59 -0.01 0.49 -0.01 0.39 -0.01 0.28 -0.01 0.18 -0.01 0.08 -0.01 0.43 -0.09 0.41 -0.09 0.4 -0.1 0.38 -0.09 0.36 -0.1 0.35 -0.1 0.33 -0.1 0.32 -0.1 0.31 -0.1 1 -0.34 0.95 -0.36 0.9 -0.37 0.86 -0.38 0.8 -0.39 0.75 -0.39 0.69 -0.37 0.63 -0.36 0.58 -0.35 0.52 -0.33 0.46 -0.3 0.4 -0.27 0.35 -0.24 0.29 -0.2 0.23 -0.17 0.27 -0.2 0.04 -0.03c4.27,-3.2 7.71,-7.36 10.06,-12.15l28.8 -58.76c2.72,-5.55 4.13,-11.65 4.13,-17.83l0 -48.35 -0.26 -2.65 -2.24 -11.21 -0.2 -1.99 0 -502.75 0.2 -1.98 2.24 -11.21 0.26 -2.65 0 -0.79 0 -72.15c0,-69.74 -22.5,-137.63 -64.15,-193.57 -10.18,-13.67 -23.87,-24.34 -39.61,-30.86l-0.2 -0.06 -0.12 -0.05 -1.98 -0.78 -2.09 -0.74 -2.08 -0.67 -2.06 -0.59 -2.04 -0.51 -2.03 -0.44 -1.99 -0.38 -0.03 -0 -0.03 -0.01 -0.03 -0 -0.01 -0 -0.02 -0 -0.06 -0.01 -0.03 -0.01 -0.03 -0 -0.03 -0.01 -0.03 -0 -0.03 -0.01 -0.03 -0 -0.03 -0 -0.03 -0.01 -0.03 -0 -0.03 -0 -0 0 -0.03 -0.01 -0.03 -0 -0.03 -0.01 -0.03 -0 -0.03 -0 -0.03 -0.01 -0.03 -0 -0.03 -0 -0.03 -0.01 -0.03 -0 -0.03 -0 -0.03 -0.01 -0.01 0 -0.01 -0 -0.03 -0 -0.03 -0.01 -0.03 -0 -0.03 -0 -0.03 -0.01 -0.03 -0 -0.03 -0 -0.03 -0.01 -0.03 -0 -0.03 -0 -0.03 -0 -0.03 -0.01 0 0 -0.03 -0 -0.03 -0 -0.03 -0.01 -0.03 -0 -0.03 -0 -0.03 -0 -0.03 -0 -0.03 -0.01 -0.03 -0 -0.03 -0 -0.03 -0 -0.03 -0.01 -0.02 -0 -0.01 0 -0.03 -0 -0.03 -0 -0.03 -0.01 -0.03 -0 -0.03 -0 -0.03 -0 -0.03 -0 -0.03 -0 -0.03 -0.01 -0.03 -0 -0.03 -0 -0.03 -0 -0.01 -0 -0.02 0 -0.03 -0.01 -0.03 -0 -0.03 -0 -0.03 -0 -0.03 -0 -0.03 -0 -0.03 -0 -0.03 -0 -0.03 -0.01 -0.03 -0 -0.03 -0 -0.03 -0 -0 0 -0.03 -0 -0.03 -0 -0.03 -0 -0.03 -0 -0.03 -0.01 -0.03 -0 -0.03 -0 -0.03 -0 -0.03 -0 -0.03 -0 -0.03 -0 -0.03 -0 -0.03 -0 -0.01 0 -0.03 -0 -0.03 -0 -0.03 -0 -0.03 -0 -0.03 -0 -0.03 -0.01 -0.03 -0 -0.03 0 -0.03 -0.01 -0.03 -0 -0.03 -0 -0.03 -0 -0.02 0 -0.01 -0 -0.03 -0 -0.06 -0.01 -0.03 -0 -0.12 -0.01 -0.03 -0 -0.03 -0 -0.03 -0 -0.03 0 -0.01 -0 -0.02 -0 -0.03 0 -0.03 -0 -0.03 -0 -0.03 -0 -0.03 -0 -0.03 -0 -0.03 -0 -0.03 -0 -0.03 -0 -0.03 -0 -0.03 -0 -0.02 0 -0.02 -0 -0.02 -0 -0.02 0 -0.02 -0 -0.02 0 -0.02 -0 -0.02 0 -0.02 -0 -0.02 0 -0.02 -0 -0.02 0 -0.02 -0 -0.02 -0 -0.02 0 -0.02 -0 -0.02 0 -0.02 -0 -0.02 0 -0.02 -0 -0.02 0 -0.02 -0 -0.01 0 -0 0 -0.02 -0 -0.02 0 -0.02 -0 -0.02 0 -0.02 -0 -0.02 0 -0.02 -0 -0.02 -0 -0.02 0 -0.02 -0 -0.02 0 -0.02 -0 -0.02 0 -0.02 -0 -0.02 0 -0.02 -0 -0.02 0 -0.02 -0 -0.02 0 -0.02 -0 -0.01 0 -0.01 0 -0.02 -0 -0.02 0 -0.02 -0 -0.02 0 -0.02 -0 -0.02 0 -0.02 -0 -0.02 0 -0.02 -0 -0.02 0 -0.02 -0 -0.02 0 -0.02 0 -0.02 -0 -0.02 -0 -0.02 0 -0.02 0 -0.02 -0 -0.02 0 -0.02 -0 -0 0 -0.01 0 -0.02 -0 -0.02 0 -0.02 -0 -0.02 0 -0.02 -0 -0.02 0 -0.02 -0 -0.02 0 -0.02 -0 -0.02 0 -0.02 0 -0.02 -0 -0.02 0 -0.02 -0 -0.02 0 -0.02 -0 -0.02 0 -0.02 -0 -0.02 0 -0.02 -0 -0 0 -0.01 0 -0.02 0 -0.02 -0 -0.02 0 -0.02 -0 -0.02 0 -0.02 -0 -0.02 0 -0.02 0 -0.02 -0 -0.02 0 -0.02 -0 -0.02 0 -0.02 -0 -0.02 0 -0.02 0 -0.02 -0 -0.02 0 -0.02 0 -0.02 -0 -0.01 0 -0 0 -0.02 -0 -0.02 0 -0.02 -0 -0.02 0 -0.02 0 -0.02 -0 -0.02 0 -0.02 -0 -0.02 0 -0.02 0 -0.02 -0 -0.02 0 -0.02 0 -0.02 -0 -0.02 0 -0.02 -0 -0.02 0 -0.02 0 -0.02 -0 -0.02 0 -0.01 0 -0.01 0 -0.02 -0 -0.02 0 -0.02 -0 -0.02 0 -0.02 0 -0.02 -0 -0.02 0 -0.02 0 -0.02 -0 -0.02 0 -0.02 -0 -0.02 0 -0.02 0 -0.02 -0 -0.02 0 -0.02 0 -0.02 -0 -0.02 0 -0.02 0 -0.02 -0 -0.01 0 -0.03 0 -0.02 -0 -0.02 0 -0.02 0 -0.02 -0 -0.02 0 -0.02 -0 -0.02 0 -0.02 0 -0.02 0 -0.02 -0 -0.02 0 -0.02 -0 -0.02 0 -0.02 0 -0.02 0 -0.02 -0 -0.02 0 -0.02 0 -0.02 -0 0 0 -0.02 0 -0.02 0 -0.02 -0 -0.02 0 -0.02 0 -0.02 -0 -0.02 0 -0.02 0 -0.02 -0 -0.02 0 -0.02 0 -0.02 -0 -0.02 0 -0.02 0 -0.02 0 -0.02 -0 -0.02 0 -0.02 0 -0.02 0 -0.02 -0 -0.01 0 -0 0 -0.02 0 -0.02 -0 -0.02 0 -0.02 0 -0.02 -0 -0.02 0 -0.02 0 -0.02 0 -0.02 0 -0.02 -0 -0.02 0 -0.02 0 -0.02 -0 -0.02 0 -0.02 0 -0.02 0 -0.02 -0 -0.02 0 -0.02 0 -0.02 0 -0.02 -0 -0 0 -0.02 0 -0.02 0 -0.02 0 -0.02 -0 -0.02 0 -0.02 0 -0.02 0 -0.02 -0 -0.02 0 -0.02 0 -0.02 0 -0.02 0 -0.02 -0 -0.02 0 -0.02 0 -0.02 0 -0.02 -0 -0.02 0 -0.02 0 -0.02 0 -0.02 -0 -0 0 -0.02 0 -0.02 0 -0.02 0 -0.02 0 -0.02 -0 -0.02 0 -0.02 0 -0.02 0 -0.02 -0 -0.02 0 -0.02 0 -0.02 0 -0.02 0 -0.02 0 -0.02 -0 -0.02 0 -0.02 0 -0.02 0 -0.02 0 -0.02 -0 -0.02 0 -0.01 0 -0.01 0 0 0 -0.02 0 -0.02 0 -0.02 -0 -0.03 0 -0.11 -0 -1.02 -0.03 -0.1 -0 -0.27 -0 -0.77 -0.01 -0.11 0 -0.02 0 0 0 0 0 -0.05 0 -191.54 0 -20.07 0 -1.97 0c-0.5,0 -0.99,0.01 -1.49,0.01l-0.16 0c-0.47,0.01 -0.94,0.02 -1.41,0.04l-0.23 0.01c-0.46,0.01 -0.92,0.04 -1.38,0.06l-0.26 0.01c-0.44,0.03 -0.87,0.05 -1.31,0.08l-0.35 0.03c-0.44,0.03 -0.87,0.06 -1.31,0.1l-0.04 0 0 0 -0.04 0c-0.44,0.04 -0.88,0.08 -1.32,0.12l-0.31 0.03c-0.42,0.04 -0.85,0.09 -1.27,0.14l-0.33 0.04c-0.43,0.05 -0.86,0.11 -1.3,0.16l-0.29 0.04c-0.45,0.06 -0.91,0.13 -1.36,0.19l-0.08 0.01c-0.46,0.07 -0.93,0.15 -1.39,0.22l-0.11 0.02 0 0 -0.14 0.02c-0.42,0.07 -0.84,0.15 -1.25,0.22l-0.23 0.04c-0.43,0.08 -0.86,0.17 -1.3,0.25l-0.3 0.06c-0.44,0.09 -0.88,0.18 -1.32,0.28l-0.19 0.04c-0.44,0.1 -0.89,0.2 -1.33,0.31l-0.23 0.05c-0.45,0.11 -0.9,0.22 -1.35,0.33l-0.01 0c-0.45,0.11 -0.9,0.23 -1.34,0.35l-0.25 0.07c-0.42,0.12 -0.85,0.23 -1.27,0.35l-0.24 0.07c-0.43,0.12 -0.86,0.25 -1.28,0.38l-0.25 0.08c-0.42,0.13 -0.83,0.26 -1.25,0.4l-0.23 0.07c-0.44,0.14 -0.87,0.29 -1.31,0.44l-0 0 -0.01 0 -0.03 0.01c-0.45,0.15 -0.89,0.31 -1.34,0.47l-0.14 0.05c-0.42,0.15 -0.85,0.31 -1.27,0.47l-0.22 0.09c-0.43,0.16 -0.86,0.33 -1.29,0.5l-0.14 0.05c-0.42,0.17 -0.85,0.34 -1.27,0.52l-0.23 0.1c-0.4,0.17 -0.8,0.34 -1.2,0.52l-0.05 0.02 -0.01 0 -0.07 0.03c-0.87,0.38 -1.73,0.78 -2.59,1.19l-0.28 0.14c-0.39,0.19 -0.78,0.38 -1.17,0.57l-0.19 0.1c-0.4,0.2 -0.8,0.41 -1.2,0.61l-0.17 0.09c-0.42,0.22 -0.83,0.44 -1.25,0.66l-0.01 0.01 0 0c-0.41,0.22 -0.83,0.45 -1.24,0.68l-0.18 0.1c-0.37,0.21 -0.75,0.42 -1.12,0.64l-0.3 0.17c-0.37,0.22 -0.75,0.44 -1.12,0.67l-0.16 0.1c-0.39,0.23 -0.77,0.47 -1.15,0.71l-0.18 0.11c-0.37,0.23 -0.73,0.46 -1.09,0.7l-0.09 0.06 -0.01 0 -0.12 0.08 -0.59 0.38 -0.5 0.34 -0.07 0.05 -0.01 0 -0.1 0.07c-0.38,0.26 -0.75,0.52 -1.13,0.78l-0.12 0.09c-0.37,0.26 -0.73,0.52 -1.09,0.78l-0.16 0.12c-0.37,0.27 -0.75,0.55 -1.12,0.82l-0.08 0.06c-0.37,0.28 -0.75,0.57 -1.12,0.85l-0.06 0.05 -0.01 0 -0.08 0.06c-0.36,0.28 -0.72,0.56 -1.08,0.85l-0.15 0.12c-0.35,0.29 -0.71,0.57 -1.06,0.87l-0.1 0.08c-0.35,0.29 -0.7,0.58 -1.04,0.88l-0.15 0.13c-0.37,0.32 -0.74,0.64 -1.1,0.96l-0 0.01 -0.01 0.01c-0.37,0.33 -0.73,0.65 -1.09,0.98l-0.12 0.11c-0.34,0.31 -0.67,0.62 -1.01,0.93l-0.11 0.1c-0.33,0.31 -0.65,0.62 -0.97,0.94l-0.14 0.14c-0.35,0.34 -0.7,0.69 -1.05,1.04l-0 0.01 -0.01 0.01c-0.36,0.36 -0.71,0.72 -1.07,1.09l-0.03 0.03c-0.34,0.35 -0.68,0.71 -1.01,1.07l-0.08 0.09c-0.32,0.34 -0.64,0.7 -0.95,1.05l-0.09 0.1c-0.34,0.37 -0.67,0.75 -1,1.12l-0 0c-0.33,0.39 -0.67,0.78 -1,1.17l-0.04 0.05c-0.32,0.38 -0.63,0.76 -0.94,1.14l-0.06 0.08c-0.3,0.37 -0.6,0.75 -0.9,1.13l-0.07 0.09c-0.3,0.37 -0.59,0.75 -0.87,1.13l-0.05 0.07 -0 0 -0.06 0.08c-0.28,0.37 -0.56,0.74 -0.83,1.12l-0.12 0.17c-0.25,0.35 -0.5,0.7 -0.75,1.04l-0.17 0.25c-0.26,0.36 -0.5,0.72 -0.76,1.09l-0.11 0.16c-0.28,0.41 -0.56,0.83 -0.84,1.25l0 0c-0.29,0.43 -0.57,0.87 -0.85,1.31l-0.03 0.05c-0.27,0.42 -0.53,0.84 -0.78,1.26l-0.07 0.12c-0.25,0.41 -0.49,0.82 -0.74,1.23l-0.07 0.11 -0.39 0.66 -0.39 0.68 -3.95 6.98 -0 0 -0 0.01 -11.32 20.01 -0.04 0.06 -0.04 0.06 -0.04 0.06 -0.03 0.06 0 0 -0.04 0.06 -0.04 0.06 -0.07 0.12 -0 0 -0.04 0.06 -0.04 0.06 -0.04 0.06 -0.04 0.06 -0 0 -0.04 0.06 -0.04 0.06 -0.04 0.06 -0.04 0.06 -0 0 -0.04 0.06 -0.04 0.06 -0.04 0.06 -0.04 0.05 -0 0 -0.04 0.06 -0.04 0.06 -0.04 0.05 -0.04 0.05 -0 0 -0.04 0.06 -0.04 0.06 -0.04 0.05 -0.04 0.05 -0 0.01 -0.04 0.05 -0.04 0.06 -0.04 0.05 -0.04 0.05 -0 0.01 -0.04 0.05 -0.04 0.05 -0.04 0.05 -0.04 0.05 -0 0 -0.04 0.06 -0.04 0.05 -0.04 0.05 -0.04 0.04 -0 0.01 -0.04 0.05 -0.05 0.05 -0.04 0.05 -0.04 0.04 -0.01 0.01 -0.04 0.05 -0.05 0.05 -0.04 0.05 -0.04 0.04 -0.01 0.01 -0.04 0.05 -0.05 0.05 -0.05 0.05 -0.04 0.04 -0.01 0.01 -0.04 0.05 -0.05 0.05 -0.05 0.05 -0.04 0.04 -0.01 0.01 -0.05 0.05 -0.05 0.05 -0.05 0.05 -0.04 0.04 -0.01 0.01 -0.05 0.05 -0.05 0.05 -0.05 0.05 -0.04 0.04 -0.01 0.01 -0 0 -0.26 0.25 -0.01 0.01 -0.07 0.07 -0.01 0.01 -0.01 0 -0.01 0.01 -0 0.01 -0.01 0 -0.01 0.01 -0 0 -0 0 -0 0.01 -0.01 0 -0.01 0.01 -0.01 0.01 -0.01 0 -0.01 0.01 -0 0.01 -0.01 0 -0.01 0.01 -0.01 0.01 -0 0 -0.01 0.01 -0.01 0.01 -0.01 0 -0.01 0.01 -0.01 0 -0.01 0.01 -0.01 0.01 -0 0.01 -0.01 0.01 -0.01 0 -0.01 0.01 -0.01 0.01 -0.01 0.01 -0.01 0.01 -0.01 0.01 -0.01 0.01 -0.01 0 -0 0 -0.01 0.01 -0.01 0.01 -0.01 0.01 -0.01 0.01 -0.01 0.01 -0.01 0.01 -0.01 0.01 -0.01 0.01 -0.01 0.01 -0.01 0.01 -0.01 0.01 -0.01 0.01 -0.01 0.01 -0.01 0.01 -0.01 0.01 -0.01 0.01 -0.01 0.01 -0.01 0.01 -0.01 0.01 -0.01 0.01 -0.01 0.01 -0.01 0.01 -0.01 0.01 -0.01 0.01 0 0 -0.01 0.01 -0.01 0.01 -0.43 0 -3.89 0 -20.16 0 0 -0.77 0 -16.11 -0.48 0 -0.3 0 -0.48 0 -9.34 0 0 -0.51 0 -48.44 -0.79 0 -2.59 0 0 -0.02 0 -13.49 -0.79 0 -127.51 0 0 12.74 0 0.77 -3.38 0 0 48.89 0 0.07 -0.1 0 -0.69 0 -0.1 0 -0.17 0 -0.78 0 -3.61 0 -4.6 0 -0.56 0 0 5.75 0 14.5 0.48 0 -0.04 0.83 0 0.01 -1.5 0 -1.77 0 -0.07 0 -0.03 0 -0.03 0 -0.35 0.01 -0.03 0 -0.01 0 -0.02 0 -0.03 0 -0.32 0.01 -0.03 0 -0.03 0 -0.02 0 -0.01 0 -0.03 0 -0.39 0.03 -0 0 -0.37 0.03 -0.03 0 -0.03 0 -0.37 0.04 -0.06 0.01 -0.15 0.02 -0.23 0.03 -0.18 0.03 -0.22 0.04 -0.19 0.03 -0.22 0.04 -0.19 0.04 -0.21 0.04 -0.16 0.04 -0.26 0.07 -0.14 0.03 -0.26 0.07 -0.15 0.04 -0.22 0.07 -0.16 0.05 -0.23 0.07 -0.16 0.05 -0.24 0.09 -0.13 0.04 -0.2 0.08 -0.21 0.08 -0.01 0 -0.31 0.13 -0.05 0.02 -0.11 0.04 -0.25 0.11 -0.35 0.16 0 0 -0.34 0.17 -0.25 0.13 -0.09 0.05 -0.04 0.02 -0.29 0.16 -0.02 0.01 -0.15 0.09 -0.21 0.12 -0.1 0.06 -0.22 0.14 -0.21 0.13 -0.08 0.06 -0.23 0.16 -0.11 0.07 -0.17 0.12 -0.19 0.14 -0.1 0.08 -0.2 0.15 -0.13 0.1 -0.15 0.12 -0.18 0.15 -0.09 0.08 -0.19 0.16 -0.16 0.14 -0.12 0.11 -0.22 0.2 -0.06 0.05 -0.23 0.23 -0.05 0.05 -0.02 0.03 -0.26 0.26 -0.01 0.01 -0.26 0.28 -0.01 0.01 -0.25 0.27 -0.03 0.03 -0.22 0.26 -0.04 0.05 -0.09 0.11 -0.14 0.18 -0.08 0.11 -0.16 0.2 -0.11 0.16 -0.12 0.16 -0.07 0.11 -0.17 0.24 -0.07 0.1 -0.13 0.19 -0.12 0.2 -0.08 0.12 -0.11 0.18 -0.12 0.2 -0.08 0.14 -0.12 0.21 -0.07 0.13 -0.15 0.28 -0.03 0.06c-0.16,0.31 -0.31,0.64 -0.45,0.96l-0.06 0.14 -0.01 0.01 -0.15 0.36 -0 0.01 -0.14 0.35 -0.01 0.03 -0.12 0.34 -0.02 0.05 -0.04 0.12 -0.08 0.24 -0.04 0.14 -0.07 0.23 -0.04 0.15 -0.07 0.27 -0.03 0.13 -0.05 0.21 -0.05 0.22 -0.04 0.21 -0.04 0.17 -0.04 0.23 -0.03 0.16 -0.04 0.27 -0.02 0.15 -0.04 0.26 -0.02 0.14 -0.03 0.28 -0.01 0.16 -0.03 0.3 -0.01 0.1 -0.02 0.29 -0.01 0.12 -0 0.05 0 0.05 -0 0.07 0 0.06 -0.01 0.16 0 0.04 -0 0.03 -0 0.41zm497.01 -40.96c23.75,0 43.18,19.43 43.18,43.19l0 5.4c0,23.75 -19.43,43.19 -43.18,43.19l-163.31 0c-23.76,0 -43.19,-19.43 -43.19,-43.19l0 -5.4c0,-23.75 19.43,-43.19 43.19,-43.19l163.31 0z"/>
    <path class="fil0" d="M197.12 1484.04c100.08,3.61 191.47,4.69 291.56,1.63 21.25,-0.65 27.45,0.38 46.67,-13.26 5.77,-4.09 10.78,-9.1 12.7,-14.88l0.81 -1.77 0.47 -1.04c5.42,-15.61 4.64,-27.47 6.2,-44.29 4.5,-48.52 15.8,-176.81 11.68,-217.75 -0.25,-2.52 -1.17,-2.24 -0.67,-4.63 0.44,-2.09 0.36,0.25 0.67,-2.66l0.02 -9.54c0,-4.07 -0.23,-8.17 -0.15,-12.2 -2.54,-1.98 -2.61,-1.58 -1.08,-4.12 0.07,-0.11 0.18,-0.23 0.25,-0.35 1.19,-2.29 0.51,-21.22 -0.12,-23.17 -1.28,-3.97 0.06,-9.56 -0.02,-14.59 -0.08,-5.11 -0.56,-9.76 -0.56,-15.14l-3.37 -1.09 0 -3.52 3.06 -1 -0.82 -20.2c-0.23,-2.69 -0.98,-2.72 -1.15,-5.6 -0.27,-4.73 0.88,-6.91 0.22,-13.16 -0.35,-3.36 -0.67,-9.27 -0.76,-12.66 -1.17,-2.16 0.33,-0.02 -1.7,-1.07 -1.95,-1.01 -0.59,1.27 -1.67,-1.17l-2.65 -41.06c-0.77,-7.77 0.37,-6.6 2.65,-11.4 -1.96,1.06 -1.17,1.31 -3.55,1.35l-0.97 -4.02c2.15,1.39 1.1,1.76 3.95,1.81 1.74,0.03 1,-0.15 1.38,-0.05l0.5 0.3c0.01,-0.07 0.12,0.11 0.19,0.12 2.75,-3.52 1.58,-5.36 0.93,-10.65 -0.46,-3.79 -0.8,-7.81 -1.16,-11.66 -0.75,-7.92 -1.77,-15.8 -2.43,-23.47 -3.06,-35.73 -13.72,-45.67 -38.5,-65.3 -9.74,-7.71 -19.09,-14.91 -29.33,-22.28 -16.38,-11.81 -19.58,-9.62 -25.4,-26.78 -2.22,-6.55 -4.38,-13.17 -6.55,-19.26 -2.37,-6.67 -3.99,-12.73 -6.27,-19.56 -6.67,-19.98 -12.04,-40.09 -17.03,-60.43 -2.36,-9.59 -1.99,-14.06 -1.99,-23.76 5.21,-1.91 6.62,-1.05 10.66,-4.48 -0.1,-1.96 -0.66,-2.74 -0.61,-4.46 0.06,-2.05 0.6,-1.64 0.6,-4.51 0,-3.03 -0.21,-6.7 -0.37,-9.75l-0.53 -38.51c-0.03,-6.63 -0.79,-12.1 -4.64,-15.22 -16.73,-13.57 -120.41,-15.67 -136.8,-2.02 -6.28,5.23 -3.27,24.49 -4.29,34.79 -0.97,9.8 0.29,19.79 -0.34,29.59 -0.23,3.64 -1.21,3.44 -1.13,8.39 3.82,2.49 7.39,2.78 10.59,4.51 0.11,14.82 0.38,11.86 -2.85,25.68 -5.27,22.57 -12.27,44.88 -19.16,66.66 -2.48,7.83 -3.57,14.4 -10.48,18.13 -26.41,14.26 -57.05,43.77 -76.97,65.57 -10.19,11.15 -17.47,17.71 -22.23,34.44 -4.85,17.07 -3.29,34.72 2.67,48.77 1.47,3.48 3.52,6.6 4.91,9.65 1.75,3.85 4.64,17.47 5.74,22.36 1.06,4.75 -1.2,3.77 -1.06,11.68 1.85,1.23 4.55,3.44 2.98,6.9 -1.23,2.71 -4.03,1.41 -5.08,5.05 -1.19,4.12 -0.86,5.12 1.6,7.62 2,2.05 2.25,5.04 -0.01,6.83 -3.12,2.47 -3.62,0.41 -4.34,6.38 -0.73,6.07 9.04,6.63 0.14,12.99 -2.68,1.92 -2.05,4.3 -2.01,8.33 9.02,7.98 -0.41,7.89 -1.65,12.17 -1.29,4.49 -0.7,5.07 1.66,7.24 1.9,1.75 2.7,5.04 0.42,7.15 -2.85,2.65 -3.38,0.61 -4.04,6.15 -0.62,5.24 1.66,3.01 3.2,6.19 1.88,3.9 -0.44,5.58 -2.39,6.87 -2.71,1.78 -2.41,3.45 -2.25,7.85 0.72,1.59 3.02,2.43 3.68,4.24 1.87,5.15 -4.04,4.67 -4.96,9.69 -0.61,3.32 -0.71,3.36 1.12,5.32 3.38,3.62 4.76,5.89 -0.09,9.1 -3.92,2.59 -2.21,7.96 0.53,10.68 5.56,5.52 -3.82,5.79 -3.73,12.6 0.06,4.22 2.32,4.07 4.17,7.15 0.64,1.07 -0.03,3.47 -1.17,4.72 -1.78,1.95 -2.78,0.45 -3.49,3.86 -0.93,4.48 1.02,7.15 4.5,9.85 -1.29,7.47 -5.21,3.6 -5.19,10.33 0.01,5.33 2.61,4.81 4.86,8.97 -0.74,1.43 -0.64,2.06 -1.97,3.33 -2.47,2.36 -5.43,4.25 -2.3,10.04 0.98,1.8 4.13,2.93 3.71,5.47 -0.42,2.52 -3.14,3.69 -4.72,5.29 0.05,7.42 0.99,7.8 5.05,12.26 -1.79,3.88 -4.15,3.93 -5.05,6.82 0.52,4.06 1.89,0.82 0.56,6.81l4.5 4.72c-1.54,3.83 -4.25,3.42 -4.75,6.15 -0.42,2.33 1.51,3.2 0.9,5.39 -0.17,0.59 -0.14,-0.3 -0.66,1.61 2.77,1.85 3.38,2.47 4.84,5.82l-3.85 3.6c-1.39,1.75 -0.75,2.9 -0.76,5.29 -0.04,7.53 3.9,3.03 4.84,9.42 -2.47,3.52 -5.1,1.9 -4.51,9.54 0.46,5.91 5.06,3.04 5.06,9.19 -2.06,1.87 -3.69,2.15 -4.28,5.63 -1,5.89 4.5,9.39 1.91,15.35 -1.6,3.68 -0.91,3.91 -0.75,8.12 0.11,2.76 -0.57,5.31 -1.03,8.03 -3.13,18.5 -1.73,46.34 -1.8,65.31 1.74,38.56 -3.45,54.46 26.88,54.6z"/>
   </g>
   <g style="clip-path:url(#id5)">
    <g>
     <path id="_1_1" class="fil1" d="M295.97 1111.42l-37.58 0 0 -25.47c10.25,0 18.46,-0.87 24.66,-2.62 6.2,-1.73 11.17,-4.62 14.86,-8.66 3.72,-4.02 6.98,-9.85 9.8,-17.46l24.18 0 0 228.65 -35.92 0 0 -174.43zm88.2 -54.21l35.94 0 0 195.98 59.12 0 0 32.67 -95.06 0 0 -228.65z"/>
    </g>
   </g>
   <g style="clip-path:url(#id6)">
    <path class="fil2" d="M197.12 1484.04c100.08,3.61 191.47,4.69 291.56,1.63 21.25,-0.65 27.45,0.38 46.67,-13.26 5.77,-4.09 10.78,-9.1 12.7,-14.88l0.81 -1.77 0.47 -1.04c5.42,-15.61 4.64,-27.47 6.2,-44.29 4.5,-48.52 15.8,-176.81 11.68,-217.75 -0.25,-2.52 -1.17,-2.24 -0.67,-4.63 0.44,-2.09 0.36,0.25 0.67,-2.66l0.02 -9.54c0,-4.07 -0.23,-8.17 -0.15,-12.2 -2.54,-1.98 -2.61,-1.58 -1.08,-4.12 0.07,-0.11 0.18,-0.23 0.25,-0.35 1.19,-2.29 0.51,-21.22 -0.12,-23.17 -1.28,-3.97 0.06,-9.56 -0.02,-14.59 -0.08,-5.11 -0.56,-9.76 -0.56,-15.14l-3.37 -1.09 0 -3.52 3.06 -1 -0.82 -20.2c-0.23,-2.69 -0.98,-2.72 -1.15,-5.6 -0.27,-4.73 0.88,-6.91 0.22,-13.16 -0.35,-3.36 -0.67,-9.27 -0.76,-12.66 -1.17,-2.16 0.33,-0.02 -1.7,-1.07 -1.95,-1.01 -0.59,1.27 -1.67,-1.17l-2.65 -41.06c-0.77,-7.77 0.37,-6.6 2.65,-11.4 -1.96,1.06 -1.17,1.31 -3.55,1.35l-0.97 -4.02c2.15,1.39 1.1,1.76 3.95,1.81 1.74,0.03 1,-0.15 1.38,-0.05l0.5 0.3c0.01,-0.07 0.12,0.11 0.19,0.12 2.75,-3.52 1.58,-5.36 0.93,-10.65 -0.46,-3.79 -0.8,-7.81 -1.16,-11.66 -0.75,-7.92 -1.77,-15.8 -2.43,-23.47 -3.06,-35.73 -13.72,-45.67 -38.5,-65.3 -9.74,-7.71 -19.09,-14.91 -29.33,-22.28 -16.38,-11.81 -19.58,-9.62 -25.4,-26.78 -2.22,-6.55 -4.38,-13.17 -6.55,-19.26 -2.37,-6.67 -3.99,-12.73 -6.27,-19.56 -6.67,-19.98 -12.04,-40.09 -17.03,-60.43 -2.36,-9.59 -1.99,-14.06 -1.99,-23.76 5.21,-1.91 6.62,-1.05 10.66,-4.48 -0.1,-1.96 -0.66,-2.74 -0.61,-4.46 0.06,-2.05 0.6,-1.64 0.6,-4.51 0,-3.03 -0.21,-6.7 -0.37,-9.75l-0.53 -38.51c-0.03,-6.63 -0.79,-12.1 -4.64,-15.22 -16.73,-13.57 -120.41,-15.67 -136.8,-2.02 -6.28,5.23 -3.27,24.49 -4.29,34.79 -0.97,9.8 0.29,19.79 -0.34,29.59 -0.23,3.64 -1.21,3.44 -1.13,8.39 3.82,2.49 7.39,2.78 10.59,4.51 0.11,14.82 0.38,11.86 -2.85,25.68 -5.27,22.57 -12.27,44.88 -19.16,66.66 -2.48,7.83 -3.57,14.4 -10.48,18.13 -26.41,14.26 -57.05,43.77 -76.97,65.57 -10.19,11.15 -17.47,17.71 -22.23,34.44 -4.85,17.07 -3.29,34.72 2.67,48.77 1.47,3.48 3.52,6.6 4.91,9.65 1.75,3.85 4.64,17.47 5.74,22.36 1.06,4.75 -1.2,3.77 -1.06,11.68 1.85,1.23 4.55,3.44 2.98,6.9 -1.23,2.71 -4.03,1.41 -5.08,5.05 -1.19,4.12 -0.86,5.12 1.6,7.62 2,2.05 2.25,5.04 -0.01,6.83 -3.12,2.47 -3.62,0.41 -4.34,6.38 -0.73,6.07 9.04,6.63 0.14,12.99 -2.68,1.92 -2.05,4.3 -2.01,8.33 9.02,7.98 -0.41,7.89 -1.65,12.17 -1.29,4.49 -0.7,5.07 1.66,7.24 1.9,1.75 2.7,5.04 0.42,7.15 -2.85,2.65 -3.38,0.61 -4.04,6.15 -0.62,5.24 1.66,3.01 3.2,6.19 1.88,3.9 -0.44,5.58 -2.39,6.87 -2.71,1.78 -2.41,3.45 -2.25,7.85 0.72,1.59 3.02,2.43 3.68,4.24 1.87,5.15 -4.04,4.67 -4.96,9.69 -0.61,3.32 -0.71,3.36 1.12,5.32 3.38,3.62 4.76,5.89 -0.09,9.1 -3.92,2.59 -2.21,7.96 0.53,10.68 5.56,5.52 -3.82,5.79 -3.73,12.6 0.06,4.22 2.32,4.07 4.17,7.15 0.64,1.07 -0.03,3.47 -1.17,4.72 -1.78,1.95 -2.78,0.45 -3.49,3.86 -0.93,4.48 1.02,7.15 4.5,9.85 -1.29,7.47 -5.21,3.6 -5.19,10.33 0.01,5.33 2.61,4.81 4.86,8.97 -0.74,1.43 -0.64,2.06 -1.97,3.33 -2.47,2.36 -5.43,4.25 -2.3,10.04 0.98,1.8 4.13,2.93 3.71,5.47 -0.42,2.52 -3.14,3.69 -4.72,5.29 0.05,7.42 0.99,7.8 5.05,12.26 -1.79,3.88 -4.15,3.93 -5.05,6.82 0.52,4.06 1.89,0.82 0.56,6.81l4.5 4.72c-1.54,3.83 -4.25,3.42 -4.75,6.15 -0.42,2.33 1.51,3.2 0.9,5.39 -0.17,0.59 -0.14,-0.3 -0.66,1.61 2.77,1.85 3.38,2.47 4.84,5.82l-3.85 3.6c-1.39,1.75 -0.75,2.9 -0.76,5.29 -0.04,7.53 3.9,3.03 4.84,9.42 -2.47,3.52 -5.1,1.9 -4.51,9.54 0.46,5.91 5.06,3.04 5.06,9.19 -2.06,1.87 -3.69,2.15 -4.28,5.63 -1,5.89 4.5,9.39 1.91,15.35 -1.6,3.68 -0.91,3.91 -0.75,8.12 0.11,2.76 -0.57,5.31 -1.03,8.03 -3.13,18.5 -1.73,46.34 -1.8,65.31 1.74,38.56 -3.45,54.46 26.88,54.6z"/>
    <path class="fil0" d="M2005.3 427.54c19.55,-6.12 100.65,-3.44 126.8,-3.44 51.67,-0 94.66,-11.42 83.97,40.8 -41.11,-0.81 -82.57,0.5 -123.69,-0.13 -71.69,-1.1 -59.01,8.99 -87.07,-37.23zm-295.26 854.31c0,6.6 -0.23,14.5 1.59,25.9 1.82,11.39 5.69,26.28 8.74,38.92 3.06,12.64 5.3,23.03 7.27,32.16 1.97,9.13 3.65,16.99 6.18,24.44 2.53,7.45 5.9,14.47 10.11,21.63 4.21,7.16 9.27,14.47 14.61,21.35 5.34,6.88 10.95,13.34 16.99,17.97 6.04,4.64 12.5,7.45 21.07,9.69 8.57,2.25 19.24,3.93 31.46,5.9 12.22,1.97 25.98,4.21 37.22,5.48 11.24,1.26 19.94,1.54 32.58,1.83 12.64,0.28 29.21,0.56 39.47,0 10.26,-0.56 14.18,-1.97 19.24,-5.06 5.06,-3.09 11.24,-7.87 17.7,-13.48 6.46,-5.62 13.2,-12.08 18.82,-19.8 5.62,-7.73 10.11,-16.72 14.33,-24.02 4.21,-7.3 8.14,-12.92 10.81,-18.68 2.67,-5.76 4.07,-11.66 6.04,-16.57 1.97,-4.92 4.5,-8.85 6.46,-11.38 1.97,-2.53 3.37,-3.65 19.38,-4.21 16.01,-0.56 46.63,-0.56 62.78,-0.42 16.15,0.14 17.84,0.42 20.93,3.93 3.09,3.51 7.58,10.26 12.22,14.33 4.64,4.07 9.41,5.48 22.47,10.53 13.06,5.06 34.41,13.76 46.91,18.82 12.5,5.06 16.15,6.46 18.82,9.55 2.67,3.09 4.35,7.86 6.74,12.64 2.39,4.77 5.48,9.55 11.1,14.61 5.62,5.06 13.76,10.39 20.22,14.75 6.46,4.35 11.24,7.72 16.99,9.97 5.76,2.25 12.5,3.37 27.11,3.79 14.61,0.42 37.08,0.14 56.6,-1.68 19.52,-1.83 36.1,-5.2 50.28,-9.13 14.18,-3.93 25.98,-8.43 34.41,-16.29 8.43,-7.87 13.48,-19.1 19.54,-41.43 6.07,-22.33 13.13,-55.76 16.66,-76.82 3.54,-21.07 3.54,-29.78 1.99,-37.8 -1.49,-7.75 -4.42,-14.86 -10.06,-22.7l2.35 0c-4.43,-14.4 -3.57,-40.2 -3.03,-56.73 2.37,-60.63 0.3,-126.11 0.34,-187.27 0.08,-122.99 -0.65,-250.62 0.67,-373.1 0.18,-16.71 -1.75,-28.23 5.09,-42.34 7.12,-14.71 6.12,-24.21 6.14,-41.35 0.05,-47.12 -0.86,-40.41 -10.02,-85.74 -10.76,-53.21 -27.44,-53.09 -76.73,-63.77 -3.53,-0.76 -15.81,-2.86 -18.53,-4.12 -3.42,-1.58 -8.47,-9.59 -11.19,-12.94 -15.14,-18.66 -26.34,-38.48 -45.15,-48.48 -28.48,-15.12 -48.91,-4.05 -80.26,-4.07 -62.42,-0.04 -124.84,-0 -187.26,-0.01 -57.44,-0 -87.19,-4.85 -120.1,45.11 -2.7,4.1 -6.3,11.55 -8.99,14.8l-42.6 0.66c-7.13,0.54 -8,2.35 -11.09,-1.84 -0.1,-0.16 -0.08,-0.71 -0.07,-0.57 0,0.03 1.67,-0.39 0.02,-10.3 -0.31,-1.89 -0.34,-0.42 -0.09,-2.25 0.21,-1.56 1.39,-0.64 1.38,-6.68 -2.78,-4.12 -3.76,-2.37 -5.29,-6.27 -1.91,-4.87 0.48,-4.9 -2.23,-10.42 -7.32,-14.96 -49.02,-12.45 -62.04,-12.1 -14.05,0.38 -30.81,1.59 -43.69,4.99 -7.81,2.06 -9.63,6.4 -12.1,11.7 -3.76,8.06 -12.11,10.87 -1.94,14.52 -2.89,4.08 -9.39,8.24 0.04,11.17 -0.25,0.34 -0.74,0.33 -0.88,0.92 -0.57,2.39 -7.13,3.91 -1.29,10.62l-7.75 1.89 -0.96 14.15c-11.88,4.84 -28.86,2.71 -29.97,18.29 -2.11,29.43 3.14,63.47 -2.77,93.15 -4.88,24.54 -9.03,67.04 -3.92,91.68 3.5,16.88 11.41,18.83 11.31,36.55 -1.1,182.33 4.5,365.56 -2.26,547.64 -0.72,0.64 -1.39,1.39 -2.01,2.24 -6.35,8.64 -8.08,27.5 -8.54,41.58 -0.46,2.72 -0.38,6.13 -0.38,9.97z"/>
   </g>
   <g style="clip-path:url(#id7)">
    <g>
     <path id="_1_2" class="fil5" d="M1904.78 1017.6c0,-20.6 3.28,-38.24 9.89,-52.95 6.59,-14.69 18.4,-30.96 35.42,-48.82 16.76,-17.84 28.36,-33.09 34.82,-45.71 6.46,-12.65 9.69,-25.82 9.69,-39.56 0,-12.36 -2,-20.93 -5.99,-25.75 -3.97,-4.8 -9.82,-7.2 -17.5,-7.2 -15.66,0 -23.49,9.47 -23.49,28.41l0 30.9 -42.83 0 0 -28.02c0,-23.35 5.75,-41.26 17.3,-53.76 11.53,-12.5 28.29,-18.74 50.26,-18.74 21.96,0 38.72,6.24 50.24,18.74 11.55,12.51 17.3,30.42 17.3,53.76 0,17.57 -4.19,34.75 -12.56,51.49 -8.37,16.76 -22.86,35.99 -43.46,57.68 -13.46,14.29 -22.52,25.89 -27.19,34.82 -4.68,8.93 -7,18.48 -7,28.63l0 6.17 86.09 0 0 41.21 -131 0 0 -31.3zm231.1 35.42c-22.24,0 -39.28,-6.31 -51.09,-18.94 -11.8,-12.63 -17.7,-30.49 -17.7,-53.57l0 -151.6c0,-23.07 5.9,-40.92 17.7,-53.55 11.82,-12.64 28.85,-18.96 51.09,-18.96 22.24,0 39.28,6.31 51.09,18.96 11.8,12.63 17.7,30.47 17.7,53.55l0 151.6c0,23.07 -5.9,40.94 -17.7,53.57 -11.82,12.63 -28.85,18.94 -51.09,18.94zm0 -41.18c15.66,0 23.49,-9.47 23.49,-28.43l0 -157.37c0,-18.94 -7.83,-28.41 -23.49,-28.41 -15.66,0 -23.49,9.47 -23.49,28.41l0 157.37c0,18.96 7.83,28.43 23.49,28.43zm99.28 -251.31l45.32 0 0 247.18 74.56 0 0 41.21 -119.88 0 0 -288.39z"/>
    </g>
   </g>
   <g style="clip-path:url(#id8)">
    <path class="fil2" d="M2005.3 427.54c19.55,-6.12 100.65,-3.44 126.8,-3.44 51.67,-0 94.66,-11.42 83.97,40.8 -41.11,-0.81 -82.57,0.5 -123.69,-0.13 -71.69,-1.1 -59.01,8.99 -87.07,-37.23zm-295.26 854.31c0,6.6 -0.23,14.5 1.59,25.9 1.82,11.39 5.69,26.28 8.74,38.92 3.06,12.64 5.3,23.03 7.27,32.16 1.97,9.13 3.65,16.99 6.18,24.44 2.53,7.45 5.9,14.47 10.11,21.63 4.21,7.16 9.27,14.47 14.61,21.35 5.34,6.88 10.95,13.34 16.99,17.97 6.04,4.64 12.5,7.45 21.07,9.69 8.57,2.25 19.24,3.93 31.46,5.9 12.22,1.97 25.98,4.21 37.22,5.48 11.24,1.26 19.94,1.54 32.58,1.83 12.64,0.28 29.21,0.56 39.47,0 10.26,-0.56 14.18,-1.97 19.24,-5.06 5.06,-3.09 11.24,-7.87 17.7,-13.48 6.46,-5.62 13.2,-12.08 18.82,-19.8 5.62,-7.73 10.11,-16.72 14.33,-24.02 4.21,-7.3 8.14,-12.92 10.81,-18.68 2.67,-5.76 4.07,-11.66 6.04,-16.57 1.97,-4.92 4.5,-8.85 6.46,-11.38 1.97,-2.53 3.37,-3.65 19.38,-4.21 16.01,-0.56 46.63,-0.56 62.78,-0.42 16.15,0.14 17.84,0.42 20.93,3.93 3.09,3.51 7.58,10.26 12.22,14.33 4.64,4.07 9.41,5.48 22.47,10.53 13.06,5.06 34.41,13.76 46.91,18.82 12.5,5.06 16.15,6.46 18.82,9.55 2.67,3.09 4.35,7.86 6.74,12.64 2.39,4.77 5.48,9.55 11.1,14.61 5.62,5.06 13.76,10.39 20.22,14.75 6.46,4.35 11.24,7.72 16.99,9.97 5.76,2.25 12.5,3.37 27.11,3.79 14.61,0.42 37.08,0.14 56.6,-1.68 19.52,-1.83 36.1,-5.2 50.28,-9.13 14.18,-3.93 25.98,-8.43 34.41,-16.29 8.43,-7.87 13.48,-19.1 19.54,-41.43 6.07,-22.33 13.13,-55.76 16.66,-76.82 3.54,-21.07 3.54,-29.78 1.99,-37.8 -1.49,-7.75 -4.42,-14.86 -10.06,-22.7l2.35 0c-4.43,-14.4 -3.57,-40.2 -3.03,-56.73 2.37,-60.63 0.3,-126.11 0.34,-187.27 0.08,-122.99 -0.65,-250.62 0.67,-373.1 0.18,-16.71 -1.75,-28.23 5.09,-42.34 7.12,-14.71 6.12,-24.21 6.14,-41.35 0.05,-47.12 -0.86,-40.41 -10.02,-85.74 -10.76,-53.21 -27.44,-53.09 -76.73,-63.77 -3.53,-0.76 -15.81,-2.86 -18.53,-4.12 -3.42,-1.58 -8.47,-9.59 -11.19,-12.94 -15.14,-18.66 -26.34,-38.48 -45.15,-48.48 -28.48,-15.12 -48.91,-4.05 -80.26,-4.07 -62.42,-0.04 -124.84,-0 -187.26,-0.01 -57.44,-0 -87.19,-4.85 -120.1,45.11 -2.7,4.1 -6.3,11.55 -8.99,14.8l-42.6 0.66c-7.13,0.54 -8,2.35 -11.09,-1.84 -0.1,-0.16 -0.08,-0.71 -0.07,-0.57 0,0.03 1.67,-0.39 0.02,-10.3 -0.31,-1.89 -0.34,-0.42 -0.09,-2.25 0.21,-1.56 1.39,-0.64 1.38,-6.68 -2.78,-4.12 -3.76,-2.37 -5.29,-6.27 -1.91,-4.87 0.48,-4.9 -2.23,-10.42 -7.32,-14.96 -49.02,-12.45 -62.04,-12.1 -14.05,0.38 -30.81,1.59 -43.69,4.99 -7.81,2.06 -9.63,6.4 -12.1,11.7 -3.76,8.06 -12.11,10.87 -1.94,14.52 -2.89,4.08 -9.39,8.24 0.04,11.17 -0.25,0.34 -0.74,0.33 -0.88,0.92 -0.57,2.39 -7.13,3.91 -1.29,10.62l-7.75 1.89 -0.96 14.15c-11.88,4.84 -28.86,2.71 -29.97,18.29 -2.11,29.43 3.14,63.47 -2.77,93.15 -4.88,24.54 -9.03,67.04 -3.92,91.68 3.5,16.88 11.41,18.83 11.31,36.55 -1.1,182.33 4.5,365.56 -2.26,547.64 -0.72,0.64 -1.39,1.39 -2.01,2.24 -6.35,8.64 -8.08,27.5 -8.54,41.58 -0.46,2.72 -0.38,6.13 -0.38,9.97z"/>
   </g>
  </g>
  <polygon class="fil2" points="-0,0 3694.3,0 3694.3,1616.79 -0,1616.79 "/>
 </g>
</svg>
