<?xml version="1.0" encoding="UTF-8"?>
<!DOCTYPE svg PUBLIC "-//W3C//DTD SVG 1.1//EN" "http://www.w3.org/Graphics/SVG/1.1/DTD/svg11.dtd">
<!-- Creator: CorelDRAW -->
<svg xmlns="http://www.w3.org/2000/svg" xml:space="preserve" width="75.96mm" height="44.1914mm" version="1.1" style="shape-rendering:geometricPrecision; text-rendering:geometricPrecision; image-rendering:optimizeQuality; fill-rule:evenodd; clip-rule:evenodd"
viewBox="0 0 3195.09 1858.81"
 xmlns:xlink="http://www.w3.org/1999/xlink"
 xmlns:xodm="http://www.corel.com/coreldraw/odm/2003">
 <defs>
  <style type="text/css">
   <![CDATA[
    .fil2 {fill:none}
    .fil0 {fill:black}
    .fil1 {fill:white;fill-rule:nonzero}
   ]]>
  </style>
   <clipPath id="id0">
    <path d="M-0 0l3195.09 0 0 1858.81 -3195.09 0 0 -1858.81z"/>
   </clipPath>
    <clipPath id="id1">
     <path d="M2135.78 240.11c12.77,23.25 19.43,-2.21 19.66,70.09 0.1,31.41 -0.32,62.92 -0.04,94.31 0.27,29.26 2.76,57.69 2.74,88.31 -0.01,30.1 -1.36,64.22 0.71,93.87 1.18,16.88 7.22,74.28 0.25,86.86 -4.37,7.88 -20.14,5.17 -19.96,25.33 0.14,15.28 10.49,20.44 21.73,23.7 3.39,88.71 0.64,259 6.33,332.55 1.12,14.54 4.21,66.04 1.56,79.55 -3.35,17.09 -31.14,22.27 -17.83,57.94 4.98,13.34 12.7,15.36 16.98,23.46 6.78,12.85 3.82,106.94 3.86,125.03 0.07,27.17 2.8,52.17 2.76,79.52l2.15 123.95c1.49,37.79 -30.96,39.53 -17.58,101.73 58.95,54.54 879.73,57.74 855.8,-30.95 -1.49,-31.4 -19.88,-43.95 -21.46,-62.14l2.76 -167.93c0.13,-55.36 2.75,-111.79 2.75,-168.8 10.9,-7.16 21.54,-18.47 22.26,-37.41 0.94,-24.59 -11.08,-29.35 -19.54,-41.2l6.11 -412.33c14.96,-11.07 22.55,-8.89 21.13,-38.28 -7.68,-5.63 -9.83,-6.87 -19.05,-11.84l5.55 -412.35c75.3,-92.84 -162.34,-135.4 -425.72,-142.21 -244.21,-6.31 -493.72,46.81 -453.92,119.24z"/>
    </clipPath>
    <clipPath id="id2">
     <path d="M-0 0l3195.09 0 0 1858.81 -3195.09 0 0 -1858.81z"/>
    </clipPath>
    <clipPath id="id3">
     <path d="M197.18 1681.13c115.38,4.16 220.75,5.41 336.14,1.88 24.5,-0.75 31.64,0.44 53.8,-15.29 6.65,-4.72 12.43,-10.49 14.64,-17.16l0.94 -2.04 0.54 -1.2c6.25,-18 5.35,-31.67 7.15,-51.06 5.19,-55.94 18.22,-203.84 13.47,-251.04 -0.29,-2.9 -1.35,-2.58 -0.77,-5.34 0.51,-2.41 0.41,0.28 0.77,-3.07l0.03 -11c0,-4.69 -0.26,-9.42 -0.17,-14.07 -2.92,-2.28 -3.01,-1.82 -1.25,-4.75 0.08,-0.13 0.21,-0.26 0.29,-0.4 1.37,-2.64 0.58,-24.47 -0.13,-26.71 -1.48,-4.58 0.06,-11.02 -0.03,-16.82 -0.09,-5.89 -0.65,-11.26 -0.65,-17.46l-3.88 -1.25 0 -4.06 3.52 -1.15 -0.94 -23.29c-0.26,-3.1 -1.13,-3.13 -1.32,-6.46 -0.32,-5.46 1.01,-7.96 0.25,-15.17 -0.41,-3.87 -0.77,-10.69 -0.87,-14.59 -1.35,-2.49 0.38,-0.03 -1.96,-1.24 -2.26,-1.17 -0.68,1.46 -1.93,-1.35l-3.06 -47.33c-0.89,-8.96 0.42,-7.61 3.06,-13.14 -2.26,1.22 -1.34,1.51 -4.1,1.56l-1.12 -4.63c2.48,1.61 1.28,2.03 4.55,2.09 2.01,0.03 1.15,-0.18 1.59,-0.05l0.57 0.34c0.02,-0.08 0.13,0.13 0.22,0.15 3.18,-4.06 1.82,-6.18 1.08,-12.28 -0.53,-4.38 -0.92,-9.01 -1.34,-13.44 -0.87,-9.14 -2.04,-18.21 -2.8,-27.05 -3.53,-41.19 -15.82,-52.65 -44.38,-75.28 -11.22,-8.89 -22.01,-17.19 -33.81,-25.7 -18.88,-13.61 -22.58,-11.09 -29.29,-30.87 -2.56,-7.55 -5.04,-15.18 -7.55,-22.2 -2.74,-7.68 -4.6,-14.68 -7.23,-22.55 -7.68,-23.04 -13.88,-46.23 -19.64,-69.67 -2.72,-11.05 -2.3,-16.21 -2.3,-27.4 6.01,-2.2 7.63,-1.2 12.29,-5.16 -0.12,-2.26 -0.76,-3.16 -0.7,-5.14 0.07,-2.36 0.69,-1.89 0.69,-5.2 0,-3.49 -0.24,-7.73 -0.42,-11.24l-0.61 -44.4c-0.03,-7.64 -0.91,-13.95 -5.35,-17.54 -19.29,-15.64 -138.82,-18.07 -157.72,-2.33 -7.24,6.03 -3.77,28.24 -4.95,40.12 -1.11,11.29 0.34,22.82 -0.39,34.11 -0.27,4.2 -1.39,3.96 -1.31,9.67 4.41,2.87 8.53,3.21 12.22,5.2 0.13,17.09 0.43,13.67 -3.29,29.61 -6.08,26.02 -14.15,51.75 -22.1,76.85 -2.86,9.03 -4.12,16.61 -12.08,20.91 -30.45,16.44 -65.77,50.46 -88.74,75.6 -11.75,12.86 -20.14,20.42 -25.62,39.71 -5.6,19.68 -3.79,40.03 3.07,56.23 1.7,4.01 4.06,7.61 5.67,11.13 2.02,4.43 5.35,20.14 6.61,25.78 1.23,5.48 -1.39,4.35 -1.23,13.47 2.14,1.41 5.24,3.96 3.43,7.95 -1.42,3.13 -4.64,1.63 -5.86,5.82 -1.38,4.75 -0.99,5.9 1.84,8.79 2.31,2.36 2.6,5.81 -0.02,7.88 -3.6,2.85 -4.17,0.47 -5.01,7.36 -0.84,7 10.42,7.64 0.17,14.97 -3.09,2.21 -2.37,4.95 -2.32,9.61 10.4,9.2 -0.48,9.09 -1.9,14.02 -1.49,5.18 -0.81,5.85 1.91,8.35 2.2,2.02 3.11,5.81 0.49,8.25 -3.29,3.05 -3.9,0.71 -4.66,7.09 -0.72,6.04 1.91,3.46 3.68,7.14 2.17,4.5 -0.5,6.44 -2.75,7.92 -3.12,2.05 -2.78,3.97 -2.6,9.05 0.83,1.83 3.48,2.8 4.24,4.89 2.16,5.94 -4.66,5.39 -5.72,11.17 -0.7,3.83 -0.81,3.87 1.29,6.13 3.9,4.17 5.49,6.8 -0.1,10.49 -4.52,2.99 -2.54,9.18 0.61,12.31 6.41,6.36 -4.4,6.68 -4.29,14.52 0.06,4.87 2.67,4.69 4.8,8.24 0.74,1.24 -0.03,4 -1.35,5.44 -2.05,2.25 -3.21,0.51 -4.03,4.45 -1.08,5.17 1.17,8.24 5.19,11.36 -1.48,8.61 -6,4.15 -5.98,11.91 0.01,6.15 3.01,5.55 5.6,10.34 -0.85,1.65 -0.74,2.38 -2.27,3.84 -2.84,2.72 -6.26,4.9 -2.65,11.57 1.12,2.07 4.77,3.38 4.27,6.31 -0.49,2.91 -3.61,4.25 -5.44,6.09 0.05,8.56 1.14,8.99 5.82,14.13 -2.07,4.48 -4.78,4.53 -5.82,7.86 0.6,4.68 2.17,0.94 0.64,7.84l5.19 5.45c-1.78,4.42 -4.9,3.95 -5.47,7.09 -0.49,2.69 1.75,3.69 1.03,6.22 -0.19,0.69 -0.16,-0.35 -0.76,1.86 3.2,2.14 3.9,2.85 5.58,6.71l-4.44 4.15c-1.59,2.01 -0.87,3.35 -0.88,6.1 -0.04,8.68 4.5,3.49 5.58,10.86 -2.85,4.06 -5.89,2.18 -5.2,11 0.53,6.81 5.84,3.51 5.84,10.6 -2.37,2.16 -4.26,2.48 -4.93,6.49 -1.14,6.8 5.19,10.83 2.21,17.7 -1.85,4.25 -1.06,4.51 -0.86,9.36 0.13,3.18 -0.66,6.12 -1.19,9.26 -3.61,21.33 -2,53.43 -2.07,75.3 2,44.45 -3.98,62.78 30.99,62.95z"/>
    </clipPath>
    <clipPath id="id4">
     <path d="M-0 0l3195.09 0 0 1858.81 -3195.09 0 0 -1858.81z"/>
    </clipPath>
    <clipPath id="id5">
     <path d="M1257.57 579.48c20.89,-6.54 107.52,-3.68 135.46,-3.68 55.2,0 101.12,-12.2 89.71,43.59 -43.91,-0.87 -88.21,0.53 -132.14,-0.14 -76.59,-1.17 -63.04,9.6 -93.03,-39.77zm-315.43 912.66c0,7.05 -0.24,15.49 1.7,27.66 1.95,12.17 6.08,28.08 9.34,41.58 3.27,13.51 5.67,24.61 7.77,34.36 2.1,9.75 3.9,18.15 6.6,26.1 2.7,7.95 6.3,15.46 10.8,23.11 4.5,7.66 9.9,15.45 15.61,22.81 5.7,7.35 11.7,14.26 18.15,19.21 6.45,4.95 13.35,7.95 22.5,10.35 9.15,2.4 20.56,4.2 33.61,6.3 13.05,2.1 27.76,4.5 39.76,5.85 12,1.35 21.3,1.65 34.81,1.95 13.51,0.3 31.21,0.6 42.16,0 10.95,-0.6 15.15,-2.1 20.55,-5.4 5.4,-3.3 12,-8.4 18.91,-14.4 6.9,-6 14.1,-12.9 20.11,-21.16 6,-8.25 10.8,-17.86 15.3,-25.66 4.5,-7.8 8.7,-13.8 11.55,-19.95 2.85,-6.15 4.35,-12.45 6.45,-17.7 2.1,-5.25 4.8,-9.45 6.9,-12.15 2.1,-2.7 3.6,-3.9 20.7,-4.5 17.11,-0.6 49.81,-0.6 67.07,-0.45 17.25,0.15 19.05,0.45 22.36,4.2 3.3,3.75 8.1,10.95 13.05,15.3 4.95,4.35 10.05,5.86 24.01,11.26 13.95,5.4 36.76,14.71 50.11,20.11 13.35,5.4 17.25,6.9 20.11,10.2 2.85,3.3 4.65,8.4 7.2,13.5 2.55,5.1 5.85,10.2 11.85,15.61 6,5.4 14.71,11.1 21.6,15.75 6.9,4.65 12,8.25 18.15,10.65 6.15,2.41 13.35,3.6 28.96,4.05 15.61,0.45 39.61,0.15 60.47,-1.8 20.86,-1.95 38.56,-5.55 53.71,-9.75 15.16,-4.2 27.76,-9 36.76,-17.41 9,-8.4 14.4,-20.4 20.88,-44.26 6.48,-23.85 14.03,-59.57 17.8,-82.07 3.78,-22.5 3.78,-31.81 2.13,-40.38 -1.59,-8.28 -4.72,-15.88 -10.75,-24.25l2.51 0c-4.73,-15.39 -3.82,-42.95 -3.23,-60.61 2.53,-64.77 0.32,-134.73 0.36,-200.07 0.09,-131.39 -0.69,-267.74 0.72,-398.59 0.19,-17.85 -1.88,-30.16 5.43,-45.23 7.61,-15.71 6.54,-25.87 6.56,-44.18 0.05,-50.34 -0.91,-43.16 -10.7,-91.59 -11.49,-56.85 -29.31,-56.72 -81.97,-68.13 -3.77,-0.82 -16.89,-3.06 -19.79,-4.4 -3.66,-1.69 -9.05,-10.24 -11.95,-13.82 -16.18,-19.93 -28.14,-41.12 -48.23,-51.79 -30.43,-16.16 -52.25,-4.33 -85.74,-4.35 -66.68,-0.04 -133.37,-0 -200.05,-0.01 -61.36,0 -93.14,-5.18 -128.3,48.2 -2.89,4.38 -6.74,12.34 -9.61,15.81l-45.51 0.71c-7.62,0.58 -8.54,2.5 -11.84,-1.96 -0.11,-0.18 -0.08,-0.76 -0.08,-0.61 0,0.03 1.79,-0.42 0.03,-11 -0.34,-2.02 -0.36,-0.45 -0.1,-2.41 0.22,-1.67 1.48,-0.68 1.47,-7.13 -2.97,-4.4 -4.02,-2.53 -5.66,-6.7 -2.04,-5.2 0.51,-5.24 -2.38,-11.13 -7.82,-15.98 -52.37,-13.3 -66.28,-12.92 -15,0.41 -32.91,1.7 -46.67,5.33 -8.35,2.2 -10.29,6.84 -12.93,12.51 -4.02,8.61 -12.93,11.61 -2.07,15.52 -3.09,4.36 -10.03,8.8 0.05,11.94 -0.27,0.36 -0.79,0.34 -0.94,0.98 -0.61,2.56 -7.62,4.18 -1.38,11.35l-8.28 2.02 -1.02 15.11c-12.7,5.17 -30.83,2.9 -32.02,19.54 -2.26,31.44 3.35,67.8 -2.96,99.51 -5.22,26.22 -9.65,71.62 -4.19,97.94 3.74,18.03 12.19,20.11 12.08,39.04 -1.18,194.78 4.81,390.53 -2.41,585.05 -0.77,0.68 -1.48,1.49 -2.15,2.4 -6.78,9.23 -8.64,29.38 -9.13,44.42 -0.49,2.91 -0.41,6.54 -0.41,10.65z"/>
    </clipPath>
    <clipPath id="id6">
     <path d="M-0 0l3195.09 0 0 1858.81 -3195.09 0 0 -1858.81z"/>
    </clipPath>
 </defs>
 <g id="Camada_x0020_1">
  <metadata id="CorelCorpID_0Corel-Layer"/>
  <g>
  </g>
  <g style="clip-path:url(#id0)">
   <g id="_2475561362096">
    <path class="fil0" d="M2135.78 240.11c12.77,23.25 19.43,-2.21 19.66,70.09 0.1,31.41 -0.32,62.92 -0.04,94.31 0.27,29.26 2.76,57.69 2.74,88.31 -0.01,30.1 -1.36,64.22 0.71,93.87 1.18,16.88 7.22,74.28 0.25,86.86 -4.37,7.88 -20.14,5.17 -19.96,25.33 0.14,15.28 10.49,20.44 21.73,23.7 3.39,88.71 0.64,259 6.33,332.55 1.12,14.54 4.21,66.04 1.56,79.55 -3.35,17.09 -31.14,22.27 -17.83,57.94 4.98,13.34 12.7,15.36 16.98,23.46 6.78,12.85 3.82,106.94 3.86,125.03 0.07,27.17 2.8,52.17 2.76,79.52l2.15 123.95c1.49,37.79 -30.96,39.53 -17.58,101.73 58.95,54.54 879.73,57.74 855.8,-30.95 -1.49,-31.4 -19.88,-43.95 -21.46,-62.14l2.76 -167.93c0.13,-55.36 2.75,-111.79 2.75,-168.8 10.9,-7.16 21.54,-18.47 22.26,-37.41 0.94,-24.59 -11.08,-29.35 -19.54,-41.2l6.11 -412.33c14.96,-11.07 22.55,-8.89 21.13,-38.28 -7.68,-5.63 -9.83,-6.87 -19.05,-11.84l5.55 -412.35c75.3,-92.84 -162.34,-135.4 -425.72,-142.21 -244.21,-6.31 -493.72,46.81 -453.92,119.24z"/>
   </g>
   <g style="clip-path:url(#id1)">
    <g>
     <path id="_1" class="fil1" d="M2290.47 1014.64c0,-22.67 3.37,-42.1 10.1,-58.28 6.73,-16.18 18.78,-34.09 36.14,-53.75 17.1,-19.66 28.93,-36.44 35.51,-50.33 6.59,-13.92 9.89,-28.43 9.89,-43.56 0,-13.6 -2.04,-23.05 -6.09,-28.33 -4.07,-5.3 -10.02,-7.95 -17.87,-7.95 -15.98,0 -23.96,10.42 -23.96,31.28l0 34.03 -43.72 0 0 -30.84c0,-25.69 5.9,-45.43 17.66,-59.18 11.78,-13.77 28.86,-20.65 51.27,-20.65 22.42,0 39.52,6.89 51.3,20.65 11.76,13.75 17.64,33.49 17.64,59.18 0,19.34 -4.26,38.25 -12.82,56.7 -8.54,18.43 -23.32,39.6 -44.34,63.48 -13.73,15.72 -22.97,28.51 -27.74,38.33 -4.76,9.82 -7.15,20.34 -7.15,31.51l0 6.8 87.85 0 0 45.36 -133.67 0 0 -34.47zm235.82 39c-22.69,0 -40.08,-6.95 -52.12,-20.86 -12.05,-13.91 -18.07,-33.57 -18.07,-58.97l0 -166.9c0,-25.4 6.01,-45.05 18.07,-58.97 12.05,-13.9 29.44,-20.86 52.12,-20.86 22.69,0 40.08,6.97 52.12,20.86 12.05,13.91 18.06,33.57 18.06,58.97l0 166.9c0,25.4 -6.01,45.05 -18.06,58.97 -12.05,13.91 -29.44,20.86 -52.12,20.86zm0 -45.34c15.98,0 23.96,-10.44 23.96,-31.31l0 -173.26c0,-20.86 -7.98,-31.28 -23.96,-31.28 -15.98,0 -23.96,10.42 -23.96,31.28l0 173.26c0,20.86 7.98,31.31 23.96,31.31zm168.13 45.34c-22.69,0 -40.08,-6.95 -52.12,-20.86 -12.05,-13.91 -18.06,-33.57 -18.06,-58.97l0 -166.9c0,-25.4 6.01,-45.05 18.06,-58.97 12.05,-13.9 29.44,-20.86 52.12,-20.86 22.69,0 40.08,6.97 52.13,20.86 12.05,13.91 18.06,33.57 18.06,58.97l0 166.9c0,25.4 -6.01,45.05 -18.06,58.97 -12.05,13.91 -29.44,20.86 -52.13,20.86zm0 -45.34c15.98,0 23.96,-10.44 23.96,-31.31l0 -173.26c0,-20.86 -7.98,-31.28 -23.96,-31.28 -15.98,0 -23.96,10.42 -23.96,31.28l0 173.26c0,20.86 7.98,31.31 23.96,31.31zm101.3 -276.68l46.24 0 0 272.12 76.07 0 0 45.36 -122.31 0 0 -317.49z"/>
    </g>
   </g>
   <g style="clip-path:url(#id2)">
    <path class="fil2" d="M2135.78 240.11c12.77,23.25 19.43,-2.21 19.66,70.09 0.1,31.41 -0.32,62.92 -0.04,94.31 0.27,29.26 2.76,57.69 2.74,88.31 -0.01,30.1 -1.36,64.22 0.71,93.87 1.18,16.88 7.22,74.28 0.25,86.86 -4.37,7.88 -20.14,5.17 -19.96,25.33 0.14,15.28 10.49,20.44 21.73,23.7 3.39,88.71 0.64,259 6.33,332.55 1.12,14.54 4.21,66.04 1.56,79.55 -3.35,17.09 -31.14,22.27 -17.83,57.94 4.98,13.34 12.7,15.36 16.98,23.46 6.78,12.85 3.82,106.94 3.86,125.03 0.07,27.17 2.8,52.17 2.76,79.52l2.15 123.95c1.49,37.79 -30.96,39.53 -17.58,101.73 58.95,54.54 879.73,57.74 855.8,-30.95 -1.49,-31.4 -19.88,-43.95 -21.46,-62.14l2.76 -167.93c0.13,-55.36 2.75,-111.79 2.75,-168.8 10.9,-7.16 21.54,-18.47 22.26,-37.41 0.94,-24.59 -11.08,-29.35 -19.54,-41.2l6.11 -412.33c14.96,-11.07 22.55,-8.89 21.13,-38.28 -7.68,-5.63 -9.83,-6.87 -19.05,-11.84l5.55 -412.35c75.3,-92.84 -162.34,-135.4 -425.72,-142.21 -244.21,-6.31 -493.72,46.81 -453.92,119.24z"/>
    <path class="fil0" d="M197.18 1681.13c115.38,4.16 220.75,5.41 336.14,1.88 24.5,-0.75 31.64,0.44 53.8,-15.29 6.65,-4.72 12.43,-10.49 14.64,-17.16l0.94 -2.04 0.54 -1.2c6.25,-18 5.35,-31.67 7.15,-51.06 5.19,-55.94 18.22,-203.84 13.47,-251.04 -0.29,-2.9 -1.35,-2.58 -0.77,-5.34 0.51,-2.41 0.41,0.28 0.77,-3.07l0.03 -11c0,-4.69 -0.26,-9.42 -0.17,-14.07 -2.92,-2.28 -3.01,-1.82 -1.25,-4.75 0.08,-0.13 0.21,-0.26 0.29,-0.4 1.37,-2.64 0.58,-24.47 -0.13,-26.71 -1.48,-4.58 0.06,-11.02 -0.03,-16.82 -0.09,-5.89 -0.65,-11.26 -0.65,-17.46l-3.88 -1.25 0 -4.06 3.52 -1.15 -0.94 -23.29c-0.26,-3.1 -1.13,-3.13 -1.32,-6.46 -0.32,-5.46 1.01,-7.96 0.25,-15.17 -0.41,-3.87 -0.77,-10.69 -0.87,-14.59 -1.35,-2.49 0.38,-0.03 -1.96,-1.24 -2.26,-1.17 -0.68,1.46 -1.93,-1.35l-3.06 -47.33c-0.89,-8.96 0.42,-7.61 3.06,-13.14 -2.26,1.22 -1.34,1.51 -4.1,1.56l-1.12 -4.63c2.48,1.61 1.28,2.03 4.55,2.09 2.01,0.03 1.15,-0.18 1.59,-0.05l0.57 0.34c0.02,-0.08 0.13,0.13 0.22,0.15 3.18,-4.06 1.82,-6.18 1.08,-12.28 -0.53,-4.38 -0.92,-9.01 -1.34,-13.44 -0.87,-9.14 -2.04,-18.21 -2.8,-27.05 -3.53,-41.19 -15.82,-52.65 -44.38,-75.28 -11.22,-8.89 -22.01,-17.19 -33.81,-25.7 -18.88,-13.61 -22.58,-11.09 -29.29,-30.87 -2.56,-7.55 -5.04,-15.18 -7.55,-22.2 -2.74,-7.68 -4.6,-14.68 -7.23,-22.55 -7.68,-23.04 -13.88,-46.23 -19.64,-69.67 -2.72,-11.05 -2.3,-16.21 -2.3,-27.4 6.01,-2.2 7.63,-1.2 12.29,-5.16 -0.12,-2.26 -0.76,-3.16 -0.7,-5.14 0.07,-2.36 0.69,-1.89 0.69,-5.2 0,-3.49 -0.24,-7.73 -0.42,-11.24l-0.61 -44.4c-0.03,-7.64 -0.91,-13.95 -5.35,-17.54 -19.29,-15.64 -138.82,-18.07 -157.72,-2.33 -7.24,6.03 -3.77,28.24 -4.95,40.12 -1.11,11.29 0.34,22.82 -0.39,34.11 -0.27,4.2 -1.39,3.96 -1.31,9.67 4.41,2.87 8.53,3.21 12.22,5.2 0.13,17.09 0.43,13.67 -3.29,29.61 -6.08,26.02 -14.15,51.75 -22.1,76.85 -2.86,9.03 -4.12,16.61 -12.08,20.91 -30.45,16.44 -65.77,50.46 -88.74,75.6 -11.75,12.86 -20.14,20.42 -25.62,39.71 -5.6,19.68 -3.79,40.03 3.07,56.23 1.7,4.01 4.06,7.61 5.67,11.13 2.02,4.43 5.35,20.14 6.61,25.78 1.23,5.48 -1.39,4.35 -1.23,13.47 2.14,1.41 5.24,3.96 3.43,7.95 -1.42,3.13 -4.64,1.63 -5.86,5.82 -1.38,4.75 -0.99,5.9 1.84,8.79 2.31,2.36 2.6,5.81 -0.02,7.88 -3.6,2.85 -4.17,0.47 -5.01,7.36 -0.84,7 10.42,7.64 0.17,14.97 -3.09,2.21 -2.37,4.95 -2.32,9.61 10.4,9.2 -0.48,9.09 -1.9,14.02 -1.49,5.18 -0.81,5.85 1.91,8.35 2.2,2.02 3.11,5.81 0.49,8.25 -3.29,3.05 -3.9,0.71 -4.66,7.09 -0.72,6.04 1.91,3.46 3.68,7.14 2.17,4.5 -0.5,6.44 -2.75,7.92 -3.12,2.05 -2.78,3.97 -2.6,9.05 0.83,1.83 3.48,2.8 4.24,4.89 2.16,5.94 -4.66,5.39 -5.72,11.17 -0.7,3.83 -0.81,3.87 1.29,6.13 3.9,4.17 5.49,6.8 -0.1,10.49 -4.52,2.99 -2.54,9.18 0.61,12.31 6.41,6.36 -4.4,6.68 -4.29,14.52 0.06,4.87 2.67,4.69 4.8,8.24 0.74,1.24 -0.03,4 -1.35,5.44 -2.05,2.25 -3.21,0.51 -4.03,4.45 -1.08,5.17 1.17,8.24 5.19,11.36 -1.48,8.61 -6,4.15 -5.98,11.91 0.01,6.15 3.01,5.55 5.6,10.34 -0.85,1.65 -0.74,2.38 -2.27,3.84 -2.84,2.72 -6.26,4.9 -2.65,11.57 1.12,2.07 4.77,3.38 4.27,6.31 -0.49,2.91 -3.61,4.25 -5.44,6.09 0.05,8.56 1.14,8.99 5.82,14.13 -2.07,4.48 -4.78,4.53 -5.82,7.86 0.6,4.68 2.17,0.94 0.64,7.84l5.19 5.45c-1.78,4.42 -4.9,3.95 -5.47,7.09 -0.49,2.69 1.75,3.69 1.03,6.22 -0.19,0.69 -0.16,-0.35 -0.76,1.86 3.2,2.14 3.9,2.85 5.58,6.71l-4.44 4.15c-1.59,2.01 -0.87,3.35 -0.88,6.1 -0.04,8.68 4.5,3.49 5.58,10.86 -2.85,4.06 -5.89,2.18 -5.2,11 0.53,6.81 5.84,3.51 5.84,10.6 -2.37,2.16 -4.26,2.48 -4.93,6.49 -1.14,6.8 5.19,10.83 2.21,17.7 -1.85,4.25 -1.06,4.51 -0.86,9.36 0.13,3.18 -0.66,6.12 -1.19,9.26 -3.61,21.33 -2,53.43 -2.07,75.3 2,44.45 -3.98,62.78 30.99,62.95z"/>
   </g>
   <g style="clip-path:url(#id3)">
    <g>
     <path id="_1_0" class="fil1" d="M311.15 1251.53l-43.33 0 0 -29.37c11.82,0 21.28,-1 28.43,-3.02 7.15,-1.99 12.88,-5.33 17.14,-9.98 4.28,-4.64 8.05,-11.36 11.29,-20.14l27.87 0 0 263.62 -41.41 0 0 -201.11zm101.69 -62.51l41.43 0 0 225.95 68.16 0 0 37.67 -109.59 0 0 -263.62z"/>
    </g>
   </g>
   <g style="clip-path:url(#id4)">
    <path class="fil2" d="M197.18 1681.13c115.38,4.16 220.75,5.41 336.14,1.88 24.5,-0.75 31.64,0.44 53.8,-15.29 6.65,-4.72 12.43,-10.49 14.64,-17.16l0.94 -2.04 0.54 -1.2c6.25,-18 5.35,-31.67 7.15,-51.06 5.19,-55.94 18.22,-203.84 13.47,-251.04 -0.29,-2.9 -1.35,-2.58 -0.77,-5.34 0.51,-2.41 0.41,0.28 0.77,-3.07l0.03 -11c0,-4.69 -0.26,-9.42 -0.17,-14.07 -2.92,-2.28 -3.01,-1.82 -1.25,-4.75 0.08,-0.13 0.21,-0.26 0.29,-0.4 1.37,-2.64 0.58,-24.47 -0.13,-26.71 -1.48,-4.58 0.06,-11.02 -0.03,-16.82 -0.09,-5.89 -0.65,-11.26 -0.65,-17.46l-3.88 -1.25 0 -4.06 3.52 -1.15 -0.94 -23.29c-0.26,-3.1 -1.13,-3.13 -1.32,-6.46 -0.32,-5.46 1.01,-7.96 0.25,-15.17 -0.41,-3.87 -0.77,-10.69 -0.87,-14.59 -1.35,-2.49 0.38,-0.03 -1.96,-1.24 -2.26,-1.17 -0.68,1.46 -1.93,-1.35l-3.06 -47.33c-0.89,-8.96 0.42,-7.61 3.06,-13.14 -2.26,1.22 -1.34,1.51 -4.1,1.56l-1.12 -4.63c2.48,1.61 1.28,2.03 4.55,2.09 2.01,0.03 1.15,-0.18 1.59,-0.05l0.57 0.34c0.02,-0.08 0.13,0.13 0.22,0.15 3.18,-4.06 1.82,-6.18 1.08,-12.28 -0.53,-4.38 -0.92,-9.01 -1.34,-13.44 -0.87,-9.14 -2.04,-18.21 -2.8,-27.05 -3.53,-41.19 -15.82,-52.65 -44.38,-75.28 -11.22,-8.89 -22.01,-17.19 -33.81,-25.7 -18.88,-13.61 -22.58,-11.09 -29.29,-30.87 -2.56,-7.55 -5.04,-15.18 -7.55,-22.2 -2.74,-7.68 -4.6,-14.68 -7.23,-22.55 -7.68,-23.04 -13.88,-46.23 -19.64,-69.67 -2.72,-11.05 -2.3,-16.21 -2.3,-27.4 6.01,-2.2 7.63,-1.2 12.29,-5.16 -0.12,-2.26 -0.76,-3.16 -0.7,-5.14 0.07,-2.36 0.69,-1.89 0.69,-5.2 0,-3.49 -0.24,-7.73 -0.42,-11.24l-0.61 -44.4c-0.03,-7.64 -0.91,-13.95 -5.35,-17.54 -19.29,-15.64 -138.82,-18.07 -157.72,-2.33 -7.24,6.03 -3.77,28.24 -4.95,40.12 -1.11,11.29 0.34,22.82 -0.39,34.11 -0.27,4.2 -1.39,3.96 -1.31,9.67 4.41,2.87 8.53,3.21 12.22,5.2 0.13,17.09 0.43,13.67 -3.29,29.61 -6.08,26.02 -14.15,51.75 -22.1,76.85 -2.86,9.03 -4.12,16.61 -12.08,20.91 -30.45,16.44 -65.77,50.46 -88.74,75.6 -11.75,12.86 -20.14,20.42 -25.62,39.71 -5.6,19.68 -3.79,40.03 3.07,56.23 1.7,4.01 4.06,7.61 5.67,11.13 2.02,4.43 5.35,20.14 6.61,25.78 1.23,5.48 -1.39,4.35 -1.23,13.47 2.14,1.41 5.24,3.96 3.43,7.95 -1.42,3.13 -4.64,1.63 -5.86,5.82 -1.38,4.75 -0.99,5.9 1.84,8.79 2.31,2.36 2.6,5.81 -0.02,7.88 -3.6,2.85 -4.17,0.47 -5.01,7.36 -0.84,7 10.42,7.64 0.17,14.97 -3.09,2.21 -2.37,4.95 -2.32,9.61 10.4,9.2 -0.48,9.09 -1.9,14.02 -1.49,5.18 -0.81,5.85 1.91,8.35 2.2,2.02 3.11,5.81 0.49,8.25 -3.29,3.05 -3.9,0.71 -4.66,7.09 -0.72,6.04 1.91,3.46 3.68,7.14 2.17,4.5 -0.5,6.44 -2.75,7.92 -3.12,2.05 -2.78,3.97 -2.6,9.05 0.83,1.83 3.48,2.8 4.24,4.89 2.16,5.94 -4.66,5.39 -5.72,11.17 -0.7,3.83 -0.81,3.87 1.29,6.13 3.9,4.17 5.49,6.8 -0.1,10.49 -4.52,2.99 -2.54,9.18 0.61,12.31 6.41,6.36 -4.4,6.68 -4.29,14.52 0.06,4.87 2.67,4.69 4.8,8.24 0.74,1.24 -0.03,4 -1.35,5.44 -2.05,2.25 -3.21,0.51 -4.03,4.45 -1.08,5.17 1.17,8.24 5.19,11.36 -1.48,8.61 -6,4.15 -5.98,11.91 0.01,6.15 3.01,5.55 5.6,10.34 -0.85,1.65 -0.74,2.38 -2.27,3.84 -2.84,2.72 -6.26,4.9 -2.65,11.57 1.12,2.07 4.77,3.38 4.27,6.31 -0.49,2.91 -3.61,4.25 -5.44,6.09 0.05,8.56 1.14,8.99 5.82,14.13 -2.07,4.48 -4.78,4.53 -5.82,7.86 0.6,4.68 2.17,0.94 0.64,7.84l5.19 5.45c-1.78,4.42 -4.9,3.95 -5.47,7.09 -0.49,2.69 1.75,3.69 1.03,6.22 -0.19,0.69 -0.16,-0.35 -0.76,1.86 3.2,2.14 3.9,2.85 5.58,6.71l-4.44 4.15c-1.59,2.01 -0.87,3.35 -0.88,6.1 -0.04,8.68 4.5,3.49 5.58,10.86 -2.85,4.06 -5.89,2.18 -5.2,11 0.53,6.81 5.84,3.51 5.84,10.6 -2.37,2.16 -4.26,2.48 -4.93,6.49 -1.14,6.8 5.19,10.83 2.21,17.7 -1.85,4.25 -1.06,4.51 -0.86,9.36 0.13,3.18 -0.66,6.12 -1.19,9.26 -3.61,21.33 -2,53.43 -2.07,75.3 2,44.45 -3.98,62.78 30.99,62.95z"/>
    <path class="fil0" d="M1257.57 579.48c20.89,-6.54 107.52,-3.68 135.46,-3.68 55.2,0 101.12,-12.2 89.71,43.59 -43.91,-0.87 -88.21,0.53 -132.14,-0.14 -76.59,-1.17 -63.04,9.6 -93.03,-39.77zm-315.43 912.66c0,7.05 -0.24,15.49 1.7,27.66 1.95,12.17 6.08,28.08 9.34,41.58 3.27,13.51 5.67,24.61 7.77,34.36 2.1,9.75 3.9,18.15 6.6,26.1 2.7,7.95 6.3,15.46 10.8,23.11 4.5,7.66 9.9,15.45 15.61,22.81 5.7,7.35 11.7,14.26 18.15,19.21 6.45,4.95 13.35,7.95 22.5,10.35 9.15,2.4 20.56,4.2 33.61,6.3 13.05,2.1 27.76,4.5 39.76,5.85 12,1.35 21.3,1.65 34.81,1.95 13.51,0.3 31.21,0.6 42.16,0 10.95,-0.6 15.15,-2.1 20.55,-5.4 5.4,-3.3 12,-8.4 18.91,-14.4 6.9,-6 14.1,-12.9 20.11,-21.16 6,-8.25 10.8,-17.86 15.3,-25.66 4.5,-7.8 8.7,-13.8 11.55,-19.95 2.85,-6.15 4.35,-12.45 6.45,-17.7 2.1,-5.25 4.8,-9.45 6.9,-12.15 2.1,-2.7 3.6,-3.9 20.7,-4.5 17.11,-0.6 49.81,-0.6 67.07,-0.45 17.25,0.15 19.05,0.45 22.36,4.2 3.3,3.75 8.1,10.95 13.05,15.3 4.95,4.35 10.05,5.86 24.01,11.26 13.95,5.4 36.76,14.71 50.11,20.11 13.35,5.4 17.25,6.9 20.11,10.2 2.85,3.3 4.65,8.4 7.2,13.5 2.55,5.1 5.85,10.2 11.85,15.61 6,5.4 14.71,11.1 21.6,15.75 6.9,4.65 12,8.25 18.15,10.65 6.15,2.41 13.35,3.6 28.96,4.05 15.61,0.45 39.61,0.15 60.47,-1.8 20.86,-1.95 38.56,-5.55 53.71,-9.75 15.16,-4.2 27.76,-9 36.76,-17.41 9,-8.4 14.4,-20.4 20.88,-44.26 6.48,-23.85 14.03,-59.57 17.8,-82.07 3.78,-22.5 3.78,-31.81 2.13,-40.38 -1.59,-8.28 -4.72,-15.88 -10.75,-24.25l2.51 0c-4.73,-15.39 -3.82,-42.95 -3.23,-60.61 2.53,-64.77 0.32,-134.73 0.36,-200.07 0.09,-131.39 -0.69,-267.74 0.72,-398.59 0.19,-17.85 -1.88,-30.16 5.43,-45.23 7.61,-15.71 6.54,-25.87 6.56,-44.18 0.05,-50.34 -0.91,-43.16 -10.7,-91.59 -11.49,-56.85 -29.31,-56.72 -81.97,-68.13 -3.77,-0.82 -16.89,-3.06 -19.79,-4.4 -3.66,-1.69 -9.05,-10.24 -11.95,-13.82 -16.18,-19.93 -28.14,-41.12 -48.23,-51.79 -30.43,-16.16 -52.25,-4.33 -85.74,-4.35 -66.68,-0.04 -133.37,-0 -200.05,-0.01 -61.36,0 -93.14,-5.18 -128.3,48.2 -2.89,4.38 -6.74,12.34 -9.61,15.81l-45.51 0.71c-7.62,0.58 -8.54,2.5 -11.84,-1.96 -0.11,-0.18 -0.08,-0.76 -0.08,-0.61 0,0.03 1.79,-0.42 0.03,-11 -0.34,-2.02 -0.36,-0.45 -0.1,-2.41 0.22,-1.67 1.48,-0.68 1.47,-7.13 -2.97,-4.4 -4.02,-2.53 -5.66,-6.7 -2.04,-5.2 0.51,-5.24 -2.38,-11.13 -7.82,-15.98 -52.37,-13.3 -66.28,-12.92 -15,0.41 -32.91,1.7 -46.67,5.33 -8.35,2.2 -10.29,6.84 -12.93,12.51 -4.02,8.61 -12.93,11.61 -2.07,15.52 -3.09,4.36 -10.03,8.8 0.05,11.94 -0.27,0.36 -0.79,0.34 -0.94,0.98 -0.61,2.56 -7.62,4.18 -1.38,11.35l-8.28 2.02 -1.02 15.11c-12.7,5.17 -30.83,2.9 -32.02,19.54 -2.26,31.44 3.35,67.8 -2.96,99.51 -5.22,26.22 -9.65,71.62 -4.19,97.94 3.74,18.03 12.19,20.11 12.08,39.04 -1.18,194.78 4.81,390.53 -2.41,585.05 -0.77,0.68 -1.48,1.49 -2.15,2.4 -6.78,9.23 -8.64,29.38 -9.13,44.42 -0.49,2.91 -0.41,6.54 -0.41,10.65z"/>
   </g>
   <g style="clip-path:url(#id5)">
    <g>
     <path id="_1_1" class="fil1" d="M1150.19 1209.84c0,-22.01 3.51,-40.86 10.56,-56.57 7.04,-15.69 19.66,-33.07 37.84,-52.15 17.9,-19.06 30.3,-35.35 37.2,-48.84 6.9,-13.51 10.35,-27.58 10.35,-42.26 0,-13.2 -2.14,-22.36 -6.4,-27.5 -4.24,-5.13 -10.48,-7.69 -18.69,-7.69 -16.73,0 -25.09,10.12 -25.09,30.36l0 33.02 -45.76 0 0 -29.93c0,-24.94 6.15,-44.08 18.48,-57.44 12.32,-13.35 30.22,-20.03 53.7,-20.03 23.45,0 41.36,6.67 53.68,20.03 12.33,13.36 18.48,32.5 18.48,57.44 0,18.77 -4.47,37.12 -13.41,55.01 -8.94,17.91 -24.42,38.45 -46.43,61.62 -14.38,15.26 -24.06,27.66 -29.04,37.2 -4.99,9.54 -7.48,19.74 -7.48,30.59l0 6.59 91.97 0 0 44.02 -139.94 0 0 -33.44zm246.89 37.84c-23.77,0 -41.96,-6.75 -54.58,-20.24 -12.61,-13.49 -18.91,-32.57 -18.91,-57.22l0 -161.95c0,-24.65 6.3,-43.71 18.91,-57.21 12.62,-13.51 30.82,-20.26 54.58,-20.26 23.77,0 41.96,6.75 54.58,20.26 12.61,13.49 18.91,32.55 18.91,57.21l0 161.95c0,24.65 -6.3,43.73 -18.91,57.22 -12.62,13.49 -30.82,20.24 -54.58,20.24zm0 -44c16.73,0 25.09,-10.12 25.09,-30.37l0 -168.12c0,-20.24 -8.37,-30.36 -25.09,-30.36 -16.73,0 -25.09,10.12 -25.09,30.36l0 168.12c0,20.25 8.37,30.37 25.09,30.37zm106.06 -268.48l48.41 0 0 264.07 79.66 0 0 44.02 -128.07 0 0 -308.08z"/>
    </g>
   </g>
   <g style="clip-path:url(#id6)">
    <path class="fil2" d="M1257.57 579.48c20.89,-6.54 107.52,-3.68 135.46,-3.68 55.2,0 101.12,-12.2 89.71,43.59 -43.91,-0.87 -88.21,0.53 -132.14,-0.14 -76.59,-1.17 -63.04,9.6 -93.03,-39.77zm-315.43 912.66c0,7.05 -0.24,15.49 1.7,27.66 1.95,12.17 6.08,28.08 9.34,41.58 3.27,13.51 5.67,24.61 7.77,34.36 2.1,9.75 3.9,18.15 6.6,26.1 2.7,7.95 6.3,15.46 10.8,23.11 4.5,7.66 9.9,15.45 15.61,22.81 5.7,7.35 11.7,14.26 18.15,19.21 6.45,4.95 13.35,7.95 22.5,10.35 9.15,2.4 20.56,4.2 33.61,6.3 13.05,2.1 27.76,4.5 39.76,5.85 12,1.35 21.3,1.65 34.81,1.95 13.51,0.3 31.21,0.6 42.16,0 10.95,-0.6 15.15,-2.1 20.55,-5.4 5.4,-3.3 12,-8.4 18.91,-14.4 6.9,-6 14.1,-12.9 20.11,-21.16 6,-8.25 10.8,-17.86 15.3,-25.66 4.5,-7.8 8.7,-13.8 11.55,-19.95 2.85,-6.15 4.35,-12.45 6.45,-17.7 2.1,-5.25 4.8,-9.45 6.9,-12.15 2.1,-2.7 3.6,-3.9 20.7,-4.5 17.11,-0.6 49.81,-0.6 67.07,-0.45 17.25,0.15 19.05,0.45 22.36,4.2 3.3,3.75 8.1,10.95 13.05,15.3 4.95,4.35 10.05,5.86 24.01,11.26 13.95,5.4 36.76,14.71 50.11,20.11 13.35,5.4 17.25,6.9 20.11,10.2 2.85,3.3 4.65,8.4 7.2,13.5 2.55,5.1 5.85,10.2 11.85,15.61 6,5.4 14.71,11.1 21.6,15.75 6.9,4.65 12,8.25 18.15,10.65 6.15,2.41 13.35,3.6 28.96,4.05 15.61,0.45 39.61,0.15 60.47,-1.8 20.86,-1.95 38.56,-5.55 53.71,-9.75 15.16,-4.2 27.76,-9 36.76,-17.41 9,-8.4 14.4,-20.4 20.88,-44.26 6.48,-23.85 14.03,-59.57 17.8,-82.07 3.78,-22.5 3.78,-31.81 2.13,-40.38 -1.59,-8.28 -4.72,-15.88 -10.75,-24.25l2.51 0c-4.73,-15.39 -3.82,-42.95 -3.23,-60.61 2.53,-64.77 0.32,-134.73 0.36,-200.07 0.09,-131.39 -0.69,-267.74 0.72,-398.59 0.19,-17.85 -1.88,-30.16 5.43,-45.23 7.61,-15.71 6.54,-25.87 6.56,-44.18 0.05,-50.34 -0.91,-43.16 -10.7,-91.59 -11.49,-56.85 -29.31,-56.72 -81.97,-68.13 -3.77,-0.82 -16.89,-3.06 -19.79,-4.4 -3.66,-1.69 -9.05,-10.24 -11.95,-13.82 -16.18,-19.93 -28.14,-41.12 -48.23,-51.79 -30.43,-16.16 -52.25,-4.33 -85.74,-4.35 -66.68,-0.04 -133.37,-0 -200.05,-0.01 -61.36,0 -93.14,-5.18 -128.3,48.2 -2.89,4.38 -6.74,12.34 -9.61,15.81l-45.51 0.71c-7.62,0.58 -8.54,2.5 -11.84,-1.96 -0.11,-0.18 -0.08,-0.76 -0.08,-0.61 0,0.03 1.79,-0.42 0.03,-11 -0.34,-2.02 -0.36,-0.45 -0.1,-2.41 0.22,-1.67 1.48,-0.68 1.47,-7.13 -2.97,-4.4 -4.02,-2.53 -5.66,-6.7 -2.04,-5.2 0.51,-5.24 -2.38,-11.13 -7.82,-15.98 -52.37,-13.3 -66.28,-12.92 -15,0.41 -32.91,1.7 -46.67,5.33 -8.35,2.2 -10.29,6.84 -12.93,12.51 -4.02,8.61 -12.93,11.61 -2.07,15.52 -3.09,4.36 -10.03,8.8 0.05,11.94 -0.27,0.36 -0.79,0.34 -0.94,0.98 -0.61,2.56 -7.62,4.18 -1.38,11.35l-8.28 2.02 -1.02 15.11c-12.7,5.17 -30.83,2.9 -32.02,19.54 -2.26,31.44 3.35,67.8 -2.96,99.51 -5.22,26.22 -9.65,71.62 -4.19,97.94 3.74,18.03 12.19,20.11 12.08,39.04 -1.18,194.78 4.81,390.53 -2.41,585.05 -0.77,0.68 -1.48,1.49 -2.15,2.4 -6.78,9.23 -8.64,29.38 -9.13,44.42 -0.49,2.91 -0.41,6.54 -0.41,10.65z"/>
   </g>
  </g>
  <polygon class="fil2" points="-0,0 3195.09,0 3195.09,1858.81 -0,1858.81 "/>
 </g>
</svg>
