<?xml version="1.0" encoding="UTF-8"?>
<!DOCTYPE svg PUBLIC "-//W3C//DTD SVG 1.1//EN" "http://www.w3.org/Graphics/SVG/1.1/DTD/svg11.dtd">
<!-- Creator: CorelDRAW -->
<svg xmlns="http://www.w3.org/2000/svg" xml:space="preserve" width="125mm" height="45mm" version="1.1" style="shape-rendering:geometricPrecision; text-rendering:geometricPrecision; image-rendering:optimizeQuality; fill-rule:evenodd; clip-rule:evenodd"
viewBox="0 0 12486.28 4495.06"
 xmlns:xlink="http://www.w3.org/1999/xlink"
 xmlns:xodm="http://www.corel.com/coreldraw/odm/2003">
 <defs>
  <style type="text/css">
   <![CDATA[
    .fil1 {fill:none}
    .fil0 {fill:black}
   ]]>
  </style>
   <clipPath id="id0">
    <path d="M-0 0l12486.28 0 0 4495.06 -12486.28 0 0 -4495.06z"/>
   </clipPath>
 </defs>
 <g id="Camada_x0020_1">
  <metadata id="CorelCorpID_0Corel-Layer"/>
  <g>
  </g>
  <g style="clip-path:url(#id0)">
   <g id="_2380246822160">
    <path class="fil0" d="M8445.46 4125.98c279.24,10.05 534.27,13.05 813.55,4.53 59.29,-1.81 76.59,1.06 130.22,-36.87 16.09,-11.39 30.08,-25.3 35.43,-41.38l2.27 -4.91 1.32 -2.9c15.12,-43.4 12.96,-76.38 17.3,-123.13 12.57,-134.91 44.09,-491.57 32.59,-605.38 -0.7,-7 -3.27,-6.22 -1.86,-12.88 1.24,-5.82 1,0.68 1.86,-7.4l0.06 -26.51c0.01,-11.32 -0.63,-22.72 -0.41,-33.91 -7.07,-5.49 -7.27,-4.39 -3.01,-11.46 0.19,-0.31 0.51,-0.64 0.68,-0.98 3.34,-6.35 1.44,-59.01 -0.32,-64.42 -3.57,-11.03 0.16,-26.56 -0.06,-40.55 -0.22,-14.21 -1.58,-27.15 -1.58,-42.1l-9.39 -3.04 0 -9.78 8.53 -2.78 -2.28 -56.17c-0.63,-7.48 -2.72,-7.56 -3.19,-15.57 -0.76,-13.16 2.46,-19.21 0.61,-36.59 -0.99,-9.34 -1.86,-25.76 -2.12,-35.18 -3.26,-6.01 0.93,-0.07 -4.73,-2.99 -5.45,-2.82 -1.63,3.55 -4.65,-3.26l-7.4 -114.14c-2.15,-21.62 1.02,-18.35 7.4,-31.69 -5.47,2.95 -3.26,3.64 -9.91,3.76l-2.72 -11.17c5.99,3.88 3.09,4.9 11.02,5.04 4.85,0.09 2.79,-0.42 3.85,-0.13l1.39 0.83c0.04,-0.19 0.33,0.32 0.54,0.35 7.69,-9.79 4.41,-14.9 2.61,-29.63 -1.29,-10.55 -2.23,-21.73 -3.25,-32.4 -2.11,-22.04 -4.94,-43.92 -6.78,-65.24 -8.54,-99.33 -38.29,-126.98 -107.41,-181.54 -27.17,-21.43 -53.28,-41.44 -81.84,-61.95 -45.69,-32.83 -54.65,-26.74 -70.88,-74.46 -6.19,-18.2 -12.22,-36.62 -18.27,-53.54 -6.62,-18.53 -11.14,-35.38 -17.49,-54.37 -18.6,-55.55 -33.58,-111.47 -47.53,-168.01 -6.57,-26.64 -5.56,-39.09 -5.56,-66.05 14.54,-5.32 18.47,-2.92 29.75,-12.46 -0.29,-5.45 -1.84,-7.63 -1.71,-12.39 0.17,-5.68 1.67,-4.55 1.68,-12.55 0,-8.41 -0.58,-18.63 -1.03,-27.11l-1.47 -107.07c-0.1,-18.43 -2.22,-33.64 -12.95,-42.3 -46.7,-37.72 -335.98,-43.55 -381.73,-5.61 -17.53,14.54 -9.14,68.1 -11.98,96.73 -2.71,27.24 0.81,55.03 -0.95,82.26 -0.64,10.12 -3.37,9.56 -3.17,23.33 10.67,6.91 20.64,7.73 29.56,12.54 0.32,41.2 1.05,32.98 -7.95,71.4 -14.71,62.75 -34.23,124.78 -53.47,185.33 -6.92,21.78 -9.98,40.05 -29.25,50.41 -73.69,39.64 -159.19,121.69 -214.76,182.3 -28.45,31.01 -48.75,49.23 -62.02,95.74 -13.55,47.46 -9.18,96.53 7.44,135.6 4.12,9.66 9.83,18.36 13.71,26.83 4.88,10.69 12.95,48.58 16,62.16 2.98,13.21 -3.36,10.48 -2.97,32.46 5.17,3.42 12.69,9.57 8.31,19.18 -3.44,7.53 -11.26,3.93 -14.18,14.02 -3.33,11.47 -2.4,14.24 4.46,21.2 5.59,5.68 6.27,14.01 -0.04,19 -8.72,6.86 -10.11,1.13 -12.13,17.74 -2.04,16.89 25.22,18.42 0.4,36.11 -7.47,5.33 -5.72,11.96 -5.61,23.16 25.17,22.19 -1.15,21.94 -4.59,33.83 -3.6,12.49 -1.95,14.09 4.62,20.12 5.31,4.86 7.53,14 1.19,19.89 -7.96,7.37 -9.44,1.71 -11.27,17.1 -1.74,14.56 4.63,8.36 8.92,17.22 5.24,10.85 -1.23,15.51 -6.67,19.09 -7.55,4.95 -6.72,9.58 -6.28,21.83 2.01,4.43 8.43,6.75 10.27,11.8 5.22,14.32 -11.28,13 -13.83,26.94 -1.69,9.23 -1.97,9.35 3.12,14.77 9.42,10.06 13.29,16.39 -0.25,25.31 -10.94,7.21 -6.16,22.14 1.49,29.68 15.5,15.34 -10.66,16.1 -10.41,35.02 0.17,11.73 6.46,11.32 11.64,19.89 1.8,2.98 -0.09,9.64 -3.26,13.12 -4.96,5.41 -7.77,1.24 -9.75,10.74 -2.6,12.46 2.84,19.88 12.56,27.39 -3.59,20.78 -14.52,10 -14.48,28.72 0.04,14.82 7.28,13.37 13.57,24.93 -2.06,3.99 -1.8,5.73 -5.49,9.26 -6.87,6.56 -15.14,11.84 -6.4,27.91 2.73,4.99 11.53,8.13 10.34,15.19 -1.18,7.02 -8.75,10.25 -13.18,14.69 0.13,20.65 2.76,21.7 14.08,34.09 -4.99,10.79 -11.57,10.93 -14.08,18.95 1.45,11.29 5.26,2.27 1.57,18.93l12.57 13.13c-4.3,10.66 -11.86,9.53 -13.25,17.1 -1.18,6.48 4.24,8.9 2.52,14.99 -0.47,1.65 -0.38,-0.84 -1.84,4.49 7.73,5.16 9.44,6.87 13.5,16.18l-10.75 10c-3.88,4.86 -2.11,8.08 -2.14,14.71 -0.1,20.95 10.9,8.42 13.5,26.18 -6.88,9.8 -14.23,5.26 -12.59,26.52 1.28,16.42 14.13,8.46 14.13,25.56 -5.74,5.2 -10.31,5.96 -11.94,15.66 -2.78,16.38 12.56,26.11 5.33,42.68 -4.46,10.24 -2.55,10.87 -2.08,22.58 0.31,7.67 -1.6,14.76 -2.88,22.33 -8.74,51.44 -4.84,128.85 -5.02,181.59 4.84,107.2 -9.64,151.4 75.01,151.8zm275.83 -1035.96l-104.86 0 0 -70.83c28.6,0 51.5,-2.41 68.81,-7.27 17.32,-4.82 31.16,-12.85 41.48,-24.07 10.37,-11.19 19.49,-27.4 27.34,-48.56l67.46 0 0 635.7 -100.23 0 0 -484.97zm246.11 -150.73l100.29 0 0 544.87 164.96 0 0 90.83 -265.25 0 0 -635.7z"/>
    <path class="fil0" d="M10875.88 1188.67c54.55,-17.02 280.84,-9.55 353.8,-9.55 144.17,-0.01 264.12,-31.76 234.31,113.43 -114.7,-2.25 -230.4,1.39 -345.15,-0.37 -200.05,-3.05 -164.66,24.98 -242.96,-103.51zm-280.47 1640.49c0,-57.28 9.16,-106.32 27.59,-147.21 18.37,-40.83 51.34,-86.07 98.82,-135.73 46.76,-49.61 79.13,-91.99 97.15,-127.09 18.02,-35.17 27.03,-71.78 27.03,-110 0,-34.36 -5.59,-58.19 -16.71,-71.58 -11.08,-13.35 -27.39,-20.01 -48.83,-20.01 -43.7,0 -65.55,26.32 -65.55,78.99l0 85.93 -119.51 0 0 -77.89c0,-64.91 16.06,-114.71 48.28,-149.48 32.17,-34.76 78.93,-52.11 140.26,-52.11 61.26,0 108.02,17.35 140.2,52.11 32.21,34.76 48.28,84.57 48.28,149.48 0,48.85 -11.68,96.59 -35.04,143.14 -23.35,46.6 -63.78,100.07 -121.27,160.36 -37.56,39.73 -62.83,71.97 -75.87,96.8 -13.05,24.82 -19.54,51.36 -19.54,79.6l0 17.15 240.24 0 0 114.56 -365.53 0 0 -87.03zm644.86 98.46c-62.07,0 -109.59,-17.55 -142.56,-52.65 -32.92,-35.11 -49.39,-84.78 -49.39,-148.93l0 -421.48c0,-64.16 16.46,-113.76 49.39,-148.88 32.97,-35.15 80.49,-52.71 142.56,-52.71 62.07,0 109.59,17.56 142.56,52.71 32.92,35.11 49.4,84.72 49.4,148.88l0 421.48c0,64.15 -16.47,113.81 -49.4,148.93 -32.97,35.1 -80.49,52.65 -142.56,52.65zm0 -114.5c43.69,0 65.55,-26.33 65.55,-79.05l0 -437.53c0,-52.67 -21.86,-78.99 -65.55,-78.99 -43.69,0 -65.54,26.32 -65.54,78.99l0 437.53c0,52.72 21.85,79.05 65.54,79.05zm277.03 -698.7l126.46 0 0 687.21 208.05 0 0 114.56 -334.51 0 0 -801.78zm-1465.3 1449.44c0,18.36 -0.64,40.32 4.45,71.99 5.08,31.68 15.87,73.07 24.39,108.21 8.54,35.14 14.8,64.04 20.29,89.42 5.49,25.39 10.2,47.25 17.25,67.94 7.05,20.7 16.46,40.23 28.22,60.14 11.75,19.92 25.86,40.23 40.76,59.35 14.89,19.13 30.57,37.1 47.42,49.98 16.85,12.89 34.87,20.7 58.79,26.94 23.9,6.25 53.68,10.94 87.78,16.4 34.09,5.47 72.5,11.72 103.86,15.23 31.35,3.52 55.65,4.3 90.92,5.07 35.27,0.79 81.51,1.56 110.12,0 28.62,-1.56 39.58,-5.46 53.69,-14.05 14.1,-8.59 31.35,-21.87 49.38,-37.48 18.03,-15.62 36.85,-33.59 52.51,-55.06 15.68,-21.49 28.22,-46.48 39.98,-66.78 11.77,-20.31 22.73,-35.92 30.18,-51.93 7.45,-16.01 11.37,-32.41 16.85,-46.08 5.49,-13.66 12.55,-24.59 18.03,-31.64 5.48,-7.02 9.41,-10.15 54.08,-11.71 44.67,-1.56 130.12,-1.56 175.18,-1.17 45.07,0.39 49.77,1.17 58.4,10.93 8.61,9.76 21.16,28.51 34.09,39.84 12.94,11.32 26.26,15.22 62.7,29.28 36.45,14.05 96.01,38.27 130.9,52.32 34.88,14.06 45.07,17.97 52.52,26.56 7.44,8.59 12.14,21.86 18.8,35.14 6.66,13.28 15.29,26.55 30.97,40.61 15.67,14.06 38.41,28.9 56.43,41 18.03,12.11 31.36,21.48 47.43,27.72 16.06,6.25 34.87,9.37 75.64,10.54 40.75,1.18 103.46,0.4 157.93,-4.67 54.47,-5.08 100.72,-14.44 140.3,-25.38 39.59,-10.94 72.51,-23.43 96.01,-45.3 23.52,-21.87 37.62,-53.1 54.54,-115.19 16.92,-62.07 36.65,-155.02 46.5,-213.59 9.87,-58.57 9.87,-82.79 5.56,-105.08 -4.16,-21.56 -12.33,-41.32 -28.07,-63.12l6.55 0c-12.36,-40.04 -9.97,-111.76 -8.44,-157.73 6.61,-168.57 0.83,-350.62 0.95,-520.67 0.23,-341.94 -1.81,-696.77 1.88,-1037.32 0.5,-46.46 -4.89,-78.48 14.18,-117.73 19.88,-40.89 17.09,-67.32 17.14,-114.97 0.13,-131.01 -2.39,-112.34 -27.95,-238.36 -30.03,-147.94 -76.56,-147.61 -214.11,-177.3 -9.84,-2.13 -44.11,-7.96 -51.7,-11.45 -9.54,-4.39 -23.63,-26.65 -31.22,-35.97 -42.25,-51.86 -73.5,-106.99 -125.99,-134.77 -79.47,-42.05 -136.48,-11.26 -223.94,-11.31 -174.18,-0.12 -348.36,-0.01 -522.54,-0.02 -160.26,-0.01 -243.28,-13.5 -335.13,125.42 -7.52,11.41 -17.59,32.12 -25.09,41.14l-118.87 1.85c-19.91,1.49 -22.32,6.51 -30.94,-5.12 -0.28,-0.45 -0.21,-1.96 -0.19,-1.6 0,0.08 4.66,-1.07 0.06,-28.62 -0.88,-5.25 -0.94,-1.17 -0.26,-6.25 0.58,-4.35 3.89,-1.77 3.86,-18.57 -7.76,-11.45 -10.51,-6.57 -14.77,-17.43 -5.33,-13.54 1.33,-13.63 -6.22,-28.97 -20.43,-41.6 -136.77,-34.62 -173.1,-33.64 -39.2,1.07 -85.97,4.43 -121.91,13.88 -21.81,5.74 -26.86,17.8 -33.76,32.54 -10.51,22.42 -33.79,30.22 -5.42,40.39 -8.07,11.35 -26.19,22.89 0.12,31.06 -0.7,0.95 -2.05,0.91 -2.45,2.56 -1.58,6.65 -19.9,10.88 -3.61,29.52l-21.62 5.26 -2.68 39.33c-33.16,13.48 -80.52,7.54 -83.64,50.86 -5.9,81.81 8.77,176.45 -7.72,258.98 -13.63,68.22 -25.2,186.39 -10.95,254.88 9.77,46.93 31.85,52.34 31.56,101.61 -3.07,506.92 12.56,1016.33 -6.29,1522.57 -2,1.78 -3.88,3.88 -5.61,6.23 -17.72,24.02 -22.56,76.46 -23.84,115.61 -1.28,7.57 -1.07,17.04 -1.07,27.72z"/>
   </g>
  </g>
  <polygon class="fil1" points="-0,0 12486.28,0 12486.28,4495.06 -0,4495.06 "/>
 </g>
</svg>
