<?xml version="1.0" encoding="UTF-8"?>
<!DOCTYPE svg PUBLIC "-//W3C//DTD SVG 1.1//EN" "http://www.w3.org/Graphics/SVG/1.1/DTD/svg11.dtd">
<!-- Creator: CorelDRAW -->
<svg xmlns="http://www.w3.org/2000/svg" xml:space="preserve" width="125mm" height="45mm" version="1.1" style="shape-rendering:geometricPrecision; text-rendering:geometricPrecision; image-rendering:optimizeQuality; fill-rule:evenodd; clip-rule:evenodd"
viewBox="0 0 12486.28 4495.06"
 xmlns:xlink="http://www.w3.org/1999/xlink"
 xmlns:xodm="http://www.corel.com/coreldraw/odm/2003">
 <defs>
  <style type="text/css">
   <![CDATA[
    .fil1 {fill:none}
    .fil0 {fill:black}
   ]]>
  </style>
   <clipPath id="id0">
    <path d="M-0 0l12486.28 0 0 4495.06 -12486.28 0 0 -4495.06z"/>
   </clipPath>
 </defs>
 <g id="Camada_x0020_1">
  <metadata id="CorelCorpID_0Corel-Layer"/>
  <g>
  </g>
  <g style="clip-path:url(#id0)">
   <g id="_2380248393424">
    <path class="fil0" d="M10085.93 651.01c30.93,56.08 47.04,-5.31 47.6,169.02 0.23,75.74 -0.77,151.72 -0.1,227.44 0.65,70.56 6.68,139.12 6.64,212.97 -0.03,72.6 -3.3,154.86 1.72,226.36 2.85,40.72 17.47,179.13 0.6,209.45 -10.57,19.01 -48.75,12.47 -48.31,61.08 0.35,36.84 25.37,49.29 52.6,57.16 8.19,213.93 1.55,624.57 15.3,801.94 2.72,35.06 10.18,159.24 3.78,191.83 -8.1,41.2 -75.37,53.7 -43.14,139.72 12.05,32.16 30.75,37.04 41.1,56.57 16.4,31 9.23,257.89 9.33,301.51 0.17,65.53 6.78,125.82 6.68,191.77l5.19 298.9c3.6,91.13 -74.94,95.32 -42.55,245.31 142.67,131.53 2129.16,139.25 2071.26,-74.63 -3.62,-75.72 -48.11,-105.98 -51.93,-149.87l6.66 -404.95c0.32,-133.51 6.66,-269.58 6.66,-407.05 26.38,-17.28 52.13,-44.53 53.88,-90.22 2.27,-59.27 -26.83,-70.77 -47.29,-99.35l14.79 -994.34c36.21,-26.68 54.57,-21.44 51.14,-92.3 -18.59,-13.6 -23.79,-16.57 -46.11,-28.56l13.44 -994.35c182.24,-223.88 -392.9,-326.53 -1030.35,-342.94 -591.05,-15.23 -1194.92,112.89 -1098.61,287.53zm374.4 1867.76c0,-54.66 8.17,-101.52 24.45,-140.55 16.27,-39.02 45.44,-82.21 87.47,-129.61 41.38,-47.39 70.02,-87.87 85.95,-121.38 15.95,-33.56 23.92,-68.57 23.92,-105.03 0,-32.79 -4.94,-55.57 -14.74,-68.31 -9.84,-12.79 -24.25,-19.16 -43.25,-19.16 -38.67,0 -57.99,25.13 -57.99,75.44l0 82.06 -105.81 0 0 -74.39c0,-61.94 14.27,-109.54 42.73,-142.7 28.51,-33.2 69.84,-49.8 124.11,-49.8 54.26,0 95.63,16.59 124.14,49.8 28.46,33.16 42.68,80.76 42.68,142.7 0,46.65 -10.31,92.25 -31.03,136.74 -20.66,44.44 -56.45,95.5 -107.3,153.07 -33.21,37.92 -55.62,68.77 -67.15,92.44 -11.51,23.68 -17.3,49.07 -17.3,76l0 16.41 212.61 0 0 109.38 -323.5 0 0 -83.11zm570.73 94.05c-54.91,0 -96.99,-16.75 -126.15,-50.3 -29.17,-33.56 -43.72,-80.95 -43.72,-142.19l0 -402.48c0,-61.23 14.55,-108.64 43.72,-142.19 29.16,-33.5 71.24,-50.3 126.15,-50.3 54.92,0 96.99,16.8 126.16,50.3 29.16,33.55 43.71,80.96 43.71,142.19l0 402.48c0,61.24 -14.55,108.63 -43.71,142.19 -29.17,33.55 -71.24,50.3 -126.16,50.3zm0 -109.35c38.69,0 58,-25.17 58,-75.48l0 -417.82c0,-50.3 -19.31,-75.44 -58,-75.44 -38.67,0 -58,25.13 -58,75.44l0 417.82c0,50.3 19.33,75.48 58,75.48zm406.93 109.35c-54.91,0 -96.99,-16.75 -126.16,-50.3 -29.16,-33.56 -43.71,-80.95 -43.71,-142.19l0 -402.48c0,-61.23 14.55,-108.64 43.71,-142.19 29.17,-33.5 71.25,-50.3 126.16,-50.3 54.92,0 96.99,16.8 126.15,50.3 29.17,33.55 43.72,80.96 43.72,142.19l0 402.48c0,61.24 -14.55,108.63 -43.72,142.19 -29.16,33.55 -71.23,50.3 -126.15,50.3zm0 -109.35c38.68,0 57.99,-25.17 57.99,-75.48l0 -417.82c0,-50.3 -19.31,-75.44 -57.99,-75.44 -38.68,0 -58,25.13 -58,75.44l0 417.82c0,50.3 19.32,75.48 58,75.48zm245.18 -667.2l111.93 0 0 656.23 184.1 0 0 109.38 -296.02 0 0 -765.61z"/>
    <path class="fil0" d="M8445.46 4125.98c279.24,10.05 534.27,13.05 813.55,4.53 59.29,-1.81 76.59,1.06 130.22,-36.87 16.09,-11.39 30.08,-25.3 35.43,-41.38l2.27 -4.91 1.32 -2.9c15.12,-43.4 12.96,-76.38 17.3,-123.13 12.57,-134.91 44.09,-491.57 32.59,-605.38 -0.7,-7 -3.27,-6.22 -1.86,-12.88 1.24,-5.82 1,0.68 1.86,-7.4l0.06 -26.51c0.01,-11.32 -0.63,-22.72 -0.41,-33.91 -7.07,-5.49 -7.27,-4.39 -3.01,-11.46 0.19,-0.31 0.51,-0.64 0.68,-0.98 3.34,-6.35 1.44,-59.01 -0.32,-64.42 -3.57,-11.03 0.16,-26.56 -0.06,-40.55 -0.22,-14.21 -1.58,-27.15 -1.58,-42.1l-9.39 -3.04 0 -9.78 8.53 -2.78 -2.28 -56.17c-0.63,-7.48 -2.72,-7.56 -3.19,-15.57 -0.76,-13.16 2.46,-19.21 0.61,-36.59 -0.99,-9.34 -1.86,-25.76 -2.12,-35.18 -3.26,-6.01 0.93,-0.07 -4.73,-2.99 -5.45,-2.82 -1.63,3.55 -4.65,-3.26l-7.4 -114.14c-2.15,-21.62 1.02,-18.35 7.4,-31.69 -5.47,2.95 -3.26,3.64 -9.91,3.76l-2.72 -11.17c5.99,3.88 3.09,4.9 11.02,5.04 4.85,0.09 2.79,-0.42 3.85,-0.13l1.39 0.83c0.04,-0.19 0.33,0.32 0.54,0.35 7.69,-9.79 4.41,-14.9 2.61,-29.63 -1.29,-10.55 -2.23,-21.73 -3.25,-32.4 -2.11,-22.04 -4.94,-43.92 -6.78,-65.24 -8.54,-99.33 -38.29,-126.98 -107.41,-181.54 -27.17,-21.43 -53.28,-41.44 -81.84,-61.95 -45.69,-32.83 -54.65,-26.74 -70.88,-74.46 -6.19,-18.2 -12.22,-36.62 -18.27,-53.54 -6.62,-18.53 -11.14,-35.38 -17.49,-54.37 -18.6,-55.55 -33.58,-111.47 -47.53,-168.01 -6.57,-26.64 -5.56,-39.09 -5.56,-66.05 14.54,-5.32 18.47,-2.92 29.75,-12.46 -0.29,-5.45 -1.84,-7.63 -1.71,-12.39 0.17,-5.68 1.67,-4.55 1.68,-12.55 0,-8.41 -0.58,-18.63 -1.03,-27.11l-1.47 -107.07c-0.1,-18.43 -2.22,-33.64 -12.95,-42.3 -46.7,-37.72 -335.98,-43.55 -381.73,-5.61 -17.53,14.54 -9.14,68.1 -11.98,96.73 -2.71,27.24 0.81,55.03 -0.95,82.26 -0.64,10.12 -3.37,9.56 -3.17,23.33 10.67,6.91 20.64,7.73 29.56,12.54 0.32,41.2 1.05,32.98 -7.95,71.4 -14.71,62.75 -34.23,124.78 -53.47,185.33 -6.92,21.78 -9.98,40.05 -29.25,50.41 -73.69,39.64 -159.19,121.69 -214.76,182.3 -28.45,31.01 -48.75,49.23 -62.02,95.74 -13.55,47.46 -9.18,96.53 7.44,135.6 4.12,9.66 9.83,18.36 13.71,26.83 4.88,10.69 12.95,48.58 16,62.16 2.98,13.21 -3.36,10.48 -2.97,32.46 5.17,3.42 12.69,9.57 8.31,19.18 -3.44,7.53 -11.26,3.93 -14.18,14.02 -3.33,11.47 -2.4,14.24 4.46,21.2 5.59,5.68 6.27,14.01 -0.04,19 -8.72,6.86 -10.11,1.13 -12.13,17.74 -2.04,16.89 25.22,18.42 0.4,36.11 -7.47,5.33 -5.72,11.96 -5.61,23.16 25.17,22.19 -1.15,21.94 -4.59,33.83 -3.6,12.49 -1.95,14.09 4.62,20.12 5.31,4.86 7.53,14 1.19,19.89 -7.96,7.37 -9.44,1.71 -11.27,17.1 -1.74,14.56 4.63,8.36 8.92,17.22 5.24,10.85 -1.23,15.51 -6.67,19.09 -7.55,4.95 -6.72,9.58 -6.28,21.83 2.01,4.43 8.43,6.75 10.27,11.8 5.22,14.32 -11.28,13 -13.83,26.94 -1.69,9.23 -1.97,9.35 3.12,14.77 9.42,10.06 13.29,16.39 -0.25,25.31 -10.94,7.21 -6.16,22.14 1.49,29.68 15.5,15.34 -10.66,16.1 -10.41,35.02 0.17,11.73 6.46,11.32 11.64,19.89 1.8,2.98 -0.09,9.64 -3.26,13.12 -4.96,5.41 -7.77,1.24 -9.75,10.74 -2.6,12.46 2.84,19.88 12.56,27.39 -3.59,20.78 -14.52,10 -14.48,28.72 0.04,14.82 7.28,13.37 13.57,24.93 -2.06,3.99 -1.8,5.73 -5.49,9.26 -6.87,6.56 -15.14,11.84 -6.4,27.91 2.73,4.99 11.53,8.13 10.34,15.19 -1.18,7.02 -8.75,10.25 -13.18,14.69 0.13,20.65 2.76,21.7 14.08,34.09 -4.99,10.79 -11.57,10.93 -14.08,18.95 1.45,11.29 5.26,2.27 1.57,18.93l12.57 13.13c-4.3,10.66 -11.86,9.53 -13.25,17.1 -1.18,6.48 4.24,8.9 2.52,14.99 -0.47,1.65 -0.38,-0.84 -1.84,4.49 7.73,5.16 9.44,6.87 13.5,16.18l-10.75 10c-3.88,4.86 -2.11,8.08 -2.14,14.71 -0.1,20.95 10.9,8.42 13.5,26.18 -6.88,9.8 -14.23,5.26 -12.59,26.52 1.28,16.42 14.13,8.46 14.13,25.56 -5.74,5.2 -10.31,5.96 -11.94,15.66 -2.78,16.38 12.56,26.11 5.33,42.68 -4.46,10.24 -2.55,10.87 -2.08,22.58 0.31,7.67 -1.6,14.76 -2.88,22.33 -8.74,51.44 -4.84,128.85 -5.02,181.59 4.84,107.2 -9.64,151.4 75.01,151.8zm275.83 -1035.96l-104.86 0 0 -70.83c28.6,0 51.5,-2.41 68.81,-7.27 17.32,-4.82 31.16,-12.85 41.48,-24.07 10.37,-11.19 19.49,-27.4 27.34,-48.56l67.46 0 0 635.7 -100.23 0 0 -484.97zm246.11 -150.73l100.29 0 0 544.87 164.96 0 0 90.83 -265.25 0 0 -635.7z"/>
   </g>
  </g>
  <polygon class="fil1" points="-0,0 12486.28,0 12486.28,4495.06 -0,4495.06 "/>
 </g>
</svg>
