<?xml version="1.0" encoding="UTF-8"?>
<!DOCTYPE svg PUBLIC "-//W3C//DTD SVG 1.1//EN" "http://www.w3.org/Graphics/SVG/1.1/DTD/svg11.dtd">
<!-- Creator: CorelDRAW -->
<svg xmlns="http://www.w3.org/2000/svg" xml:space="preserve" width="125mm" height="45mm" version="1.1" style="shape-rendering:geometricPrecision; text-rendering:geometricPrecision; image-rendering:optimizeQuality; fill-rule:evenodd; clip-rule:evenodd"
viewBox="0 0 12486.28 4495.06"
 xmlns:xlink="http://www.w3.org/1999/xlink"
 xmlns:xodm="http://www.corel.com/coreldraw/odm/2003">
 <defs>
  <style type="text/css">
   <![CDATA[
    .fil1 {fill:none}
    .fil0 {fill:black}
   ]]>
  </style>
   <clipPath id="id0">
    <path d="M-0 0l12486.28 0 0 4495.06 -12486.28 0 0 -4495.06z"/>
   </clipPath>
 </defs>
 <g id="Camada_x0020_1">
  <metadata id="CorelCorpID_0Corel-Layer"/>
  <g>
  </g>
  <g style="clip-path:url(#id0)">
   <g id="_2380250482336">
    <path class="fil0" d="M11213.94 4125.98c279.25,10.05 534.28,13.05 813.56,4.53 59.29,-1.81 76.59,1.06 130.21,-36.87 16.1,-11.39 30.09,-25.3 35.44,-41.38l2.27 -4.91 1.31 -2.9c15.13,-43.4 12.96,-76.38 17.31,-123.13 12.57,-134.91 44.09,-491.57 32.59,-605.38 -0.7,-7 -3.27,-6.22 -1.86,-12.88 1.24,-5.82 1,0.68 1.86,-7.4l0.06 -26.51c0.01,-11.32 -0.63,-22.72 -0.41,-33.91 -7.07,-5.49 -7.27,-4.39 -3.01,-11.46 0.19,-0.31 0.51,-0.64 0.68,-0.98 3.33,-6.35 1.43,-59.01 -0.32,-64.42 -3.57,-11.03 0.16,-26.56 -0.07,-40.55 -0.21,-14.21 -1.57,-27.15 -1.57,-42.1l-9.39 -3.04 0 -9.78 8.53 -2.78 -2.28 -56.17c-0.63,-7.48 -2.73,-7.56 -3.2,-15.57 -0.75,-13.16 2.47,-19.21 0.62,-36.59 -0.99,-9.34 -1.86,-25.76 -2.12,-35.18 -3.26,-6.01 0.93,-0.07 -4.73,-2.99 -5.45,-2.82 -1.64,3.55 -4.65,-3.26l-7.4 -114.14c-2.16,-21.62 1.02,-18.35 7.4,-31.69 -5.47,2.95 -3.26,3.64 -9.91,3.76l-2.72 -11.17c5.99,3.88 3.08,4.9 11.01,5.04 4.86,0.09 2.79,-0.42 3.86,-0.13l1.39 0.83c0.04,-0.19 0.32,0.32 0.54,0.35 7.68,-9.79 4.4,-14.9 2.61,-29.63 -1.29,-10.55 -2.23,-21.73 -3.25,-32.4 -2.11,-22.04 -4.94,-43.92 -6.78,-65.24 -8.55,-99.33 -38.3,-126.98 -107.42,-181.54 -27.16,-21.43 -53.27,-41.44 -81.83,-61.95 -45.69,-32.83 -54.65,-26.74 -70.88,-74.46 -6.19,-18.2 -12.22,-36.62 -18.27,-53.54 -6.62,-18.53 -11.14,-35.38 -17.49,-54.37 -18.6,-55.55 -33.58,-111.47 -47.53,-168.01 -6.57,-26.64 -5.56,-39.09 -5.56,-66.05 14.54,-5.32 18.47,-2.92 29.75,-12.46 -0.29,-5.45 -1.84,-7.63 -1.71,-12.39 0.17,-5.68 1.67,-4.55 1.68,-12.55 0,-8.41 -0.58,-18.63 -1.03,-27.11l-1.48 -107.07c-0.09,-18.43 -2.21,-33.64 -12.94,-42.3 -46.7,-37.72 -335.99,-43.55 -381.73,-5.61 -17.53,14.54 -9.14,68.1 -11.98,96.73 -2.71,27.24 0.81,55.03 -0.95,82.26 -0.64,10.12 -3.37,9.56 -3.17,23.33 10.67,6.91 20.64,7.73 29.56,12.54 0.31,41.2 1.05,32.98 -7.95,71.4 -14.71,62.75 -34.23,124.78 -53.48,185.33 -6.91,21.78 -9.97,40.05 -29.25,50.41 -73.68,39.64 -159.19,121.69 -214.75,182.3 -28.45,31.01 -48.76,49.23 -62.02,95.74 -13.55,47.46 -9.18,96.53 7.44,135.6 4.12,9.66 9.83,18.36 13.7,26.83 4.89,10.69 12.95,48.58 16.01,62.16 2.97,13.21 -3.36,10.48 -2.97,32.46 5.17,3.42 12.69,9.57 8.3,19.18 -3.43,7.53 -11.25,3.93 -14.17,14.02 -3.33,11.47 -2.4,14.24 4.45,21.2 5.6,5.68 6.28,14.01 -0.04,19 -8.71,6.86 -10.1,1.13 -12.12,17.74 -2.04,16.89 25.22,18.42 0.4,36.11 -7.47,5.33 -5.72,11.96 -5.61,23.16 25.17,22.19 -1.15,21.94 -4.59,33.83 -3.61,12.49 -1.95,14.09 4.62,20.12 5.31,4.86 7.52,14 1.19,19.89 -7.97,7.37 -9.45,1.71 -11.28,17.1 -1.73,14.56 4.63,8.36 8.93,17.22 5.24,10.85 -1.23,15.51 -6.67,19.09 -7.55,4.95 -6.72,9.58 -6.28,21.83 2.01,4.43 8.43,6.75 10.27,11.8 5.22,14.32 -11.29,13 -13.83,26.94 -1.7,9.23 -1.97,9.35 3.12,14.77 9.42,10.06 13.28,16.39 -0.25,25.31 -10.94,7.21 -6.16,22.14 1.48,29.68 15.51,15.34 -10.66,16.1 -10.4,35.02 0.16,11.73 6.46,11.32 11.64,19.89 1.8,2.98 -0.09,9.64 -3.26,13.12 -4.97,5.41 -7.77,1.24 -9.75,10.74 -2.61,12.46 2.84,19.88 12.56,27.39 -3.6,20.78 -14.52,10 -14.48,28.72 0.04,14.82 7.28,13.37 13.57,24.93 -2.06,3.99 -1.8,5.73 -5.49,9.26 -6.88,6.56 -15.14,11.84 -6.41,27.91 2.73,4.99 11.54,8.13 10.35,15.19 -1.18,7.02 -8.75,10.25 -13.19,14.69 0.14,20.65 2.77,21.7 14.09,34.09 -4.99,10.79 -11.57,10.93 -14.09,18.95 1.45,11.29 5.27,2.27 1.58,18.93l12.57 13.13c-4.3,10.66 -11.86,9.53 -13.25,17.1 -1.18,6.48 4.23,8.9 2.52,14.99 -0.47,1.65 -0.38,-0.84 -1.84,4.49 7.72,5.16 9.44,6.87 13.5,16.18l-10.75 10c-3.88,4.86 -2.11,8.08 -2.14,14.71 -0.1,20.95 10.89,8.42 13.5,26.18 -6.88,9.8 -14.24,5.26 -12.59,26.52 1.28,16.42 14.12,8.46 14.12,25.56 -5.73,5.2 -10.3,5.96 -11.93,15.66 -2.78,16.38 12.56,26.11 5.33,42.68 -4.46,10.24 -2.55,10.87 -2.08,22.58 0.3,7.67 -1.6,14.76 -2.88,22.33 -8.74,51.44 -4.84,128.85 -5.02,181.59 4.84,107.2 -9.64,151.4 75,151.8zm275.84 -1035.96l-104.86 0 0 -70.83c28.59,0 51.5,-2.41 68.81,-7.27 17.31,-4.82 31.16,-12.85 41.48,-24.07 10.37,-11.19 19.49,-27.4 27.33,-48.56l67.47 0 0 635.7 -100.23 0 0 -484.97zm246.11 -150.73l100.28 0 0 544.87 164.97 0 0 90.83 -265.25 0 0 -635.7z"/>
   </g>
  </g>
  <polygon class="fil1" points="-0,0 12486.28,0 12486.28,4495.06 -0,4495.06 "/>
 </g>
</svg>
