<?xml version="1.0" encoding="UTF-8"?>
<!DOCTYPE svg PUBLIC "-//W3C//DTD SVG 1.1//EN" "http://www.w3.org/Graphics/SVG/1.1/DTD/svg11.dtd">
<!-- Creator: CorelDRAW -->
<svg xmlns="http://www.w3.org/2000/svg" xml:space="preserve" width="125mm" height="45mm" version="1.1" style="shape-rendering:geometricPrecision; text-rendering:geometricPrecision; image-rendering:optimizeQuality; fill-rule:evenodd; clip-rule:evenodd"
viewBox="0 0 12486.28 4495.06"
 xmlns:xlink="http://www.w3.org/1999/xlink"
 xmlns:xodm="http://www.corel.com/coreldraw/odm/2003">
 <defs>
  <style type="text/css">
   <![CDATA[
    .fil1 {fill:none}
    .fil0 {fill:black}
   ]]>
  </style>
   <clipPath id="id0">
    <path d="M-0 0l12486.28 0 0 4495.06 -12486.28 0 0 -4495.06z"/>
   </clipPath>
 </defs>
 <g id="Camada_x0020_1">
  <metadata id="CorelCorpID_0Corel-Layer"/>
  <g>
  </g>
  <g style="clip-path:url(#id0)">
   <g id="_2380548605872">
    <path class="fil0" d="M10085.93 651.01c30.93,56.08 47.04,-5.31 47.6,169.02 0.23,75.74 -0.77,151.72 -0.1,227.44 0.65,70.56 6.68,139.12 6.64,212.97 -0.03,72.6 -3.3,154.86 1.72,226.36 2.85,40.72 17.47,179.13 0.6,209.45 -10.57,19.01 -48.75,12.47 -48.31,61.08 0.35,36.84 25.37,49.29 52.6,57.16 8.19,213.93 1.55,624.57 15.3,801.94 2.72,35.06 10.18,159.24 3.78,191.83 -8.1,41.2 -75.37,53.7 -43.14,139.72 12.05,32.16 30.75,37.04 41.1,56.57 16.4,31 9.23,257.89 9.33,301.51 0.17,65.53 6.78,125.82 6.68,191.77l5.19 298.9c3.6,91.13 -74.94,95.32 -42.55,245.31 142.67,131.53 2129.16,139.25 2071.26,-74.63 -3.62,-75.72 -48.11,-105.98 -51.93,-149.87l6.66 -404.95c0.32,-133.51 6.66,-269.58 6.66,-407.05 26.38,-17.28 52.13,-44.53 53.88,-90.22 2.27,-59.27 -26.83,-70.77 -47.29,-99.35l14.79 -994.34c36.21,-26.68 54.57,-21.44 51.14,-92.3 -18.59,-13.6 -23.79,-16.57 -46.11,-28.56l13.44 -994.35c182.24,-223.88 -392.9,-326.53 -1030.35,-342.94 -591.05,-15.23 -1194.92,112.89 -1098.61,287.53zm374.4 1867.76c0,-54.66 8.17,-101.52 24.45,-140.55 16.27,-39.02 45.44,-82.21 87.47,-129.61 41.38,-47.39 70.02,-87.87 85.95,-121.38 15.95,-33.56 23.92,-68.57 23.92,-105.03 0,-32.79 -4.94,-55.57 -14.74,-68.31 -9.84,-12.79 -24.25,-19.16 -43.25,-19.16 -38.67,0 -57.99,25.13 -57.99,75.44l0 82.06 -105.81 0 0 -74.39c0,-61.94 14.27,-109.54 42.73,-142.7 28.51,-33.2 69.84,-49.8 124.11,-49.8 54.26,0 95.63,16.59 124.14,49.8 28.46,33.16 42.68,80.76 42.68,142.7 0,46.65 -10.31,92.25 -31.03,136.74 -20.66,44.44 -56.45,95.5 -107.3,153.07 -33.21,37.92 -55.62,68.77 -67.15,92.44 -11.51,23.68 -17.3,49.07 -17.3,76l0 16.41 212.61 0 0 109.38 -323.5 0 0 -83.11zm570.73 94.05c-54.91,0 -96.99,-16.75 -126.15,-50.3 -29.17,-33.56 -43.72,-80.95 -43.72,-142.19l0 -402.48c0,-61.23 14.55,-108.64 43.72,-142.19 29.16,-33.5 71.24,-50.3 126.15,-50.3 54.92,0 96.99,16.8 126.16,50.3 29.16,33.55 43.71,80.96 43.71,142.19l0 402.48c0,61.24 -14.55,108.63 -43.71,142.19 -29.17,33.55 -71.24,50.3 -126.16,50.3zm0 -109.35c38.69,0 58,-25.17 58,-75.48l0 -417.82c0,-50.3 -19.31,-75.44 -58,-75.44 -38.67,0 -58,25.13 -58,75.44l0 417.82c0,50.3 19.33,75.48 58,75.48zm406.93 109.35c-54.91,0 -96.99,-16.75 -126.16,-50.3 -29.16,-33.56 -43.71,-80.95 -43.71,-142.19l0 -402.48c0,-61.23 14.55,-108.64 43.71,-142.19 29.17,-33.5 71.25,-50.3 126.16,-50.3 54.92,0 96.99,16.8 126.15,50.3 29.17,33.55 43.72,80.96 43.72,142.19l0 402.48c0,61.24 -14.55,108.63 -43.72,142.19 -29.16,33.55 -71.23,50.3 -126.15,50.3zm0 -109.35c38.68,0 57.99,-25.17 57.99,-75.48l0 -417.82c0,-50.3 -19.31,-75.44 -57.99,-75.44 -38.68,0 -58,25.13 -58,75.44l0 417.82c0,50.3 19.32,75.48 58,75.48zm245.18 -667.2l111.93 0 0 656.23 184.1 0 0 109.38 -296.02 0 0 -765.61z"/>
    <path class="fil0" d="M8107.38 1188.67c54.55,-17.02 280.84,-9.55 353.8,-9.55 144.17,-0.01 264.13,-31.76 234.31,113.43 -114.7,-2.25 -230.4,1.39 -345.14,-0.37 -200.06,-3.05 -164.66,24.98 -242.97,-103.51zm-280.47 1640.49c0,-57.28 9.16,-106.32 27.59,-147.21 18.37,-40.83 51.35,-86.07 98.82,-135.73 46.77,-49.61 79.13,-91.99 97.15,-127.09 18.02,-35.17 27.04,-71.78 27.04,-110 0,-34.36 -5.6,-58.19 -16.71,-71.58 -11.08,-13.35 -27.4,-20.01 -48.84,-20.01 -43.7,0 -65.55,26.32 -65.55,78.99l0 85.93 -119.51 0 0 -77.89c0,-64.91 16.06,-114.71 48.28,-149.48 32.17,-34.76 78.94,-52.11 140.26,-52.11 61.26,0 108.03,17.35 140.2,52.11 32.21,34.76 48.28,84.57 48.28,149.48 0,48.85 -11.68,96.59 -35.04,143.14 -23.35,46.6 -63.78,100.07 -121.27,160.36 -37.56,39.73 -62.82,71.97 -75.86,96.8 -13.06,24.82 -19.55,51.36 -19.55,79.6l0 17.15 240.24 0 0 114.56 -365.53 0 0 -87.03zm644.86 98.46c-62.07,0 -109.59,-17.55 -142.56,-52.65 -32.92,-35.11 -49.38,-84.78 -49.38,-148.93l0 -421.48c0,-64.16 16.45,-113.76 49.38,-148.88 32.97,-35.15 80.49,-52.71 142.56,-52.71 62.07,0 109.59,17.56 142.57,52.71 32.91,35.11 49.39,84.72 49.39,148.88l0 421.48c0,64.15 -16.47,113.81 -49.39,148.93 -32.98,35.1 -80.5,52.65 -142.57,52.65zm0 -114.5c43.69,0 65.56,-26.33 65.56,-79.05l0 -437.53c0,-52.67 -21.87,-78.99 -65.56,-78.99 -43.69,0 -65.54,26.32 -65.54,78.99l0 437.53c0,52.72 21.85,79.05 65.54,79.05zm277.03 -698.7l126.46 0 0 687.21 208.05 0 0 114.56 -334.51 0 0 -801.78zm-1465.3 1449.44c0,18.36 -0.64,40.32 4.45,71.99 5.08,31.68 15.87,73.07 24.39,108.21 8.54,35.14 14.8,64.04 20.29,89.42 5.49,25.39 10.2,47.25 17.25,67.94 7.06,20.7 16.46,40.23 28.22,60.14 11.75,19.92 25.86,40.23 40.76,59.35 14.89,19.13 30.57,37.1 47.42,49.98 16.85,12.89 34.87,20.7 58.79,26.94 23.9,6.25 53.69,10.94 87.78,16.4 34.1,5.47 72.5,11.72 103.86,15.23 31.35,3.52 55.65,4.3 90.92,5.07 35.27,0.79 81.52,1.56 110.12,0 28.62,-1.56 39.58,-5.46 53.69,-14.05 14.1,-8.59 31.35,-21.87 49.38,-37.48 18.03,-15.62 36.85,-33.59 52.51,-55.06 15.68,-21.49 28.22,-46.48 39.99,-66.78 11.76,-20.31 22.73,-35.92 30.18,-51.93 7.44,-16.01 11.36,-32.41 16.84,-46.08 5.49,-13.66 12.55,-24.59 18.03,-31.64 5.49,-7.02 9.41,-10.15 54.08,-11.71 44.68,-1.56 130.12,-1.56 175.18,-1.17 45.07,0.39 49.77,1.17 58.4,10.93 8.61,9.76 21.16,28.51 34.09,39.84 12.94,11.32 26.26,15.22 62.7,29.28 36.45,14.05 96.01,38.27 130.91,52.32 34.87,14.06 45.07,17.97 52.51,26.56 7.44,8.59 12.14,21.86 18.8,35.14 6.67,13.28 15.29,26.55 30.97,40.61 15.67,14.06 38.41,28.9 56.44,41 18.02,12.11 31.35,21.48 47.42,27.72 16.06,6.25 34.87,9.37 75.64,10.54 40.76,1.18 103.46,0.4 157.93,-4.67 54.48,-5.08 100.72,-14.44 140.31,-25.38 39.58,-10.94 72.5,-23.43 96.01,-45.3 23.51,-21.87 37.62,-53.1 54.53,-115.19 16.93,-62.07 36.65,-155.02 46.5,-213.59 9.88,-58.57 9.88,-82.79 5.56,-105.08 -4.16,-21.56 -12.33,-41.32 -28.07,-63.12l6.55 0c-12.36,-40.04 -9.97,-111.76 -8.44,-157.73 6.61,-168.57 0.84,-350.62 0.95,-520.67 0.23,-341.94 -1.81,-696.77 1.88,-1037.32 0.5,-46.46 -4.89,-78.48 14.18,-117.73 19.88,-40.89 17.09,-67.32 17.14,-114.97 0.14,-131.01 -2.39,-112.34 -27.95,-238.36 -30.03,-147.94 -76.56,-147.61 -214.1,-177.3 -9.85,-2.13 -44.11,-7.96 -51.71,-11.45 -9.53,-4.39 -23.63,-26.65 -31.22,-35.97 -42.25,-51.86 -73.49,-106.99 -125.99,-134.77 -79.47,-42.05 -136.48,-11.26 -223.94,-11.31 -174.18,-0.12 -348.36,-0.01 -522.53,-0.02 -160.27,-0.01 -243.29,-13.5 -335.14,125.42 -7.52,11.41 -17.59,32.12 -25.09,41.14l-118.87 1.85c-19.91,1.49 -22.32,6.51 -30.94,-5.12 -0.27,-0.45 -0.21,-1.96 -0.19,-1.6 0,0.08 4.66,-1.07 0.06,-28.62 -0.88,-5.25 -0.94,-1.17 -0.26,-6.25 0.59,-4.35 3.89,-1.77 3.86,-18.57 -7.76,-11.45 -10.51,-6.57 -14.77,-17.43 -5.33,-13.54 1.33,-13.63 -6.21,-28.97 -20.44,-41.6 -136.78,-34.62 -173.11,-33.64 -39.2,1.07 -85.97,4.43 -121.9,13.88 -21.81,5.74 -26.87,17.8 -33.77,32.54 -10.51,22.42 -33.79,30.22 -5.42,40.39 -8.07,11.35 -26.19,22.89 0.13,31.06 -0.71,0.95 -2.06,0.91 -2.46,2.56 -1.58,6.65 -19.9,10.88 -3.61,29.52l-21.62 5.26 -2.68 39.33c-33.15,13.48 -80.51,7.54 -83.64,50.86 -5.9,81.81 8.77,176.45 -7.72,258.98 -13.63,68.22 -25.2,186.39 -10.94,254.88 9.77,46.93 31.84,52.34 31.56,101.61 -3.08,506.92 12.56,1016.33 -6.3,1522.57 -2,1.78 -3.87,3.88 -5.61,6.23 -17.72,24.02 -22.56,76.46 -23.83,115.61 -1.29,7.57 -1.08,17.04 -1.08,27.72z"/>
    <g>
     <path class="fil0" d="M5651.93 4125.98c279.25,10.05 534.28,13.05 813.55,4.53 59.29,-1.81 76.59,1.06 130.22,-36.87 16.1,-11.39 30.09,-25.3 35.43,-41.38l2.27 -4.91 1.32 -2.9c15.13,-43.4 12.96,-76.38 17.3,-123.13 12.58,-134.91 44.09,-491.57 32.6,-605.38 -0.71,-7 -3.27,-6.22 -1.86,-12.88 1.23,-5.82 1,0.68 1.86,-7.4l0.06 -26.51c0.01,-11.32 -0.64,-22.72 -0.41,-33.91 -7.07,-5.49 -7.28,-4.39 -3.02,-11.46 0.2,-0.31 0.52,-0.64 0.69,-0.98 3.33,-6.35 1.43,-59.01 -0.33,-64.42 -3.56,-11.03 0.17,-26.56 -0.06,-40.55 -0.21,-14.21 -1.57,-27.15 -1.57,-42.1l-9.4 -3.04 0 -9.78 8.54 -2.78 -2.28 -56.17c-0.63,-7.48 -2.73,-7.56 -3.2,-15.57 -0.76,-13.16 2.46,-19.21 0.61,-36.59 -0.99,-9.34 -1.86,-25.76 -2.11,-35.18 -3.26,-6.01 0.93,-0.07 -4.73,-2.99 -5.45,-2.82 -1.64,3.55 -4.65,-3.26l-7.4 -114.14c-2.16,-21.62 1.02,-18.35 7.4,-31.69 -5.47,2.95 -3.26,3.64 -9.92,3.76l-2.72 -11.17c5.99,3.88 3.09,4.9 11.02,5.04 4.86,0.09 2.79,-0.42 3.85,-0.13l1.39 0.83c0.04,-0.19 0.33,0.32 0.55,0.35 7.68,-9.79 4.4,-14.9 2.6,-29.63 -1.29,-10.55 -2.23,-21.73 -3.25,-32.4 -2.1,-22.04 -4.93,-43.92 -6.77,-65.24 -8.55,-99.33 -38.3,-126.98 -107.42,-181.54 -27.16,-21.43 -53.28,-41.44 -81.83,-61.95 -45.7,-32.83 -54.65,-26.74 -70.88,-74.46 -6.19,-18.2 -12.22,-36.62 -18.27,-53.54 -6.63,-18.53 -11.14,-35.38 -17.49,-54.37 -18.6,-55.55 -33.59,-111.47 -47.54,-168.01 -6.57,-26.64 -5.56,-39.09 -5.56,-66.05 14.55,-5.32 18.47,-2.92 29.76,-12.46 -0.29,-5.45 -1.84,-7.63 -1.71,-12.39 0.16,-5.68 1.66,-4.55 1.67,-12.55 0,-8.41 -0.58,-18.63 -1.03,-27.11l-1.47 -107.07c-0.09,-18.43 -2.22,-33.64 -12.95,-42.3 -46.69,-37.72 -335.98,-43.55 -381.73,-5.61 -17.52,14.54 -9.13,68.1 -11.97,96.73 -2.71,27.24 0.8,55.03 -0.95,82.26 -0.65,10.12 -3.38,9.56 -3.17,23.33 10.67,6.91 20.63,7.73 29.55,12.54 0.32,41.2 1.06,32.98 -7.95,71.4 -14.7,62.75 -34.22,124.78 -53.47,185.33 -6.92,21.78 -9.97,40.05 -29.25,50.41 -73.69,39.64 -159.19,121.69 -214.76,182.3 -28.44,31.01 -48.75,49.23 -62.01,95.74 -13.56,47.46 -9.18,96.53 7.44,135.6 4.11,9.66 9.83,18.36 13.7,26.83 4.89,10.69 12.95,48.58 16.01,62.16 2.97,13.21 -3.37,10.48 -2.98,32.46 5.17,3.42 12.7,9.57 8.31,19.18 -3.43,7.53 -11.25,3.93 -14.17,14.02 -3.34,11.47 -2.41,14.24 4.45,21.2 5.59,5.68 6.28,14.01 -0.04,19 -8.72,6.86 -10.11,1.13 -12.12,17.74 -2.04,16.89 25.21,18.42 0.4,36.11 -7.47,5.33 -5.73,11.96 -5.61,23.16 25.17,22.19 -1.16,21.94 -4.59,33.83 -3.61,12.49 -1.95,14.09 4.62,20.12 5.3,4.86 7.52,14 1.18,19.89 -7.96,7.37 -9.44,1.71 -11.27,17.1 -1.74,14.56 4.63,8.36 8.92,17.22 5.25,10.85 -1.22,15.51 -6.66,19.09 -7.55,4.95 -6.73,9.58 -6.29,21.83 2.02,4.43 8.44,6.75 10.27,11.8 5.23,14.32 -11.28,13 -13.82,26.94 -1.7,9.23 -1.98,9.35 3.11,14.77 9.43,10.06 13.29,16.39 -0.24,25.31 -10.95,7.21 -6.16,22.14 1.48,29.68 15.5,15.34 -10.66,16.1 -10.4,35.02 0.16,11.73 6.46,11.32 11.64,19.89 1.8,2.98 -0.09,9.64 -3.26,13.12 -4.97,5.41 -7.77,1.24 -9.75,10.74 -2.61,12.46 2.84,19.88 12.56,27.39 -3.6,20.78 -14.53,10 -14.48,28.72 0.04,14.82 7.27,13.37 13.57,24.93 -2.07,3.99 -1.8,5.73 -5.49,9.26 -6.88,6.56 -15.15,11.84 -6.41,27.91 2.73,4.99 11.54,8.13 10.34,15.19 -1.17,7.02 -8.74,10.25 -13.18,14.69 0.13,20.65 2.77,21.7 14.08,34.09 -4.98,10.79 -11.57,10.93 -14.08,18.95 1.45,11.29 5.26,2.27 1.57,18.93l12.57 13.13c-4.3,10.66 -11.85,9.53 -13.24,17.1 -1.19,6.48 4.23,8.9 2.51,14.99 -0.47,1.65 -0.37,-0.84 -1.84,4.49 7.73,5.16 9.45,6.87 13.5,16.18l-10.75 10c-3.87,4.86 -2.1,8.08 -2.13,14.71 -0.11,20.95 10.89,8.42 13.5,26.18 -6.88,9.8 -14.24,5.26 -12.59,26.52 1.27,16.42 14.12,8.46 14.12,25.56 -5.73,5.2 -10.3,5.96 -11.94,15.66 -2.78,16.38 12.56,26.11 5.34,42.68 -4.47,10.24 -2.56,10.87 -2.09,22.58 0.31,7.67 -1.59,14.76 -2.88,22.33 -8.74,51.44 -4.83,128.85 -5.02,181.59 4.85,107.2 -9.63,151.4 75.01,151.8zm275.84 -1035.96l-104.87 0 0 -70.83c28.6,0 51.5,-2.41 68.82,-7.27 17.31,-4.82 31.16,-12.85 41.47,-24.07 10.38,-11.19 19.49,-27.4 27.34,-48.56l67.47 0 0 635.7 -100.23 0 0 -484.97zm246.11 -150.73l100.28 0 0 544.87 164.97 0 0 90.83 -265.25 0 0 -635.7z"/>
     <path class="fil0" d="M2799.18 4134.53c48.26,1.4 115.94,3.8 181.44,4.59 65.48,0.8 128.76,0 175.03,-0.8 46.26,-0.8 75.5,-1.6 101.74,-2.6 26.24,-1 49.47,-2.2 66.09,-4.19 16.62,-2 26.64,-4.79 36.65,-10.18 10.01,-5.38 20.03,-13.37 28.44,-22.15 8.41,-8.78 15.21,-18.36 19.82,-31.92 4.61,-13.58 7.02,-31.14 10.83,-78.22 3.81,-47.09 9.01,-123.72 11.62,-162.03 2.6,-38.31 2.6,-38.31 4.8,-54.51 2.2,-16.18 6.6,-48.58 8.81,-96.66 2.2,-48.09 2.2,-111.88 0.8,-183.88 -1.4,-72.02 -4.21,-152.23 -5.8,-192.93 -1.61,-40.71 -2.01,-41.9 -3.21,-42.7 -1.2,-0.81 -3.21,-1.2 -4.6,-6.27 -1.41,-5.08 -2.21,-14.83 -3.22,-29 -0.99,-14.16 -2.19,-32.75 -2.39,-43.44 -0.21,-10.69 0.6,-13.48 3.39,-16.47 2.81,-3 7.62,-6.18 9.83,-13.17 2.2,-6.98 1.79,-17.76 -1.21,-38.32 -3,-20.55 -8.61,-50.88 -14.41,-73.43 -5.8,-22.55 -11.82,-37.32 -19.63,-50.68 -7.81,-13.37 -17.43,-25.34 -31.65,-38.91 -14.22,-13.57 -33.04,-28.74 -47.46,-40.92 -14.42,-12.17 -24.43,-21.35 -29.85,-26.93 -5.4,-5.59 -6.2,-7.58 -9.01,-23.94 -2.8,-16.36 -7.6,-47.09 -12.42,-75.63 -4.81,-28.54 -9.61,-54.88 -12.02,-69.24 -2.41,-14.36 -2.41,-16.76 -2.21,-22.15 0.21,-5.39 0.6,-13.77 0.81,-17.96 0.2,-4.2 0.2,-4.2 4.8,-5.18 4.6,-1 13.82,-3 19.43,-5.39 5.6,-2.39 7.61,-5.18 8.41,-8.98 0.8,-3.79 0.4,-8.58 -1,-11.77 -1.41,-3.2 -3.81,-4.79 -6.41,-5.98 -2.61,-1.2 -5.4,-2 -7.01,-3.8 -1.6,-1.8 -2.01,-4.58 -2.21,-7.18 -0.19,-2.6 -0.19,-4.99 0.61,-7.59 0.8,-2.6 2.41,-5.37 3.81,-9.98 1.4,-4.58 2.61,-10.97 3.61,-20.55 1,-9.58 1.8,-22.35 2.4,-44.9 0.61,-22.55 1.01,-54.87 1.21,-72.82 0.2,-17.97 0.2,-21.57 -3.21,-27.35 -3.41,-5.78 -10.21,-13.76 -22.43,-20.75 -12.23,-6.98 -29.85,-12.98 -58.69,-18.16 -28.84,-5.18 -68.89,-9.58 -109.95,-11.97 -41.05,-2.4 -83.11,-2.8 -122.36,-1 -39.26,1.79 -75.71,5.78 -99.54,9.37 -23.83,3.6 -35.04,6.79 -43.85,11.38 -8.82,4.58 -15.22,10.58 -19.03,16.16 -3.81,5.58 -5,10.78 -5.81,24.14 -0.8,13.37 -1.21,34.93 -1.21,57.28 0,22.35 0.41,45.49 1.42,58.66 1,13.18 2.6,16.36 3.41,20.16 0.8,3.79 0.8,8.18 2.2,10.58 1.4,2.39 4.21,2.79 5.6,6.19 1.41,3.38 1.41,9.77 1.21,13.96 -0.2,4.18 -0.6,6.18 -3.61,8.18 -3.01,2 -8.61,3.99 -11.82,6.78 -3.21,2.8 -4.01,6.38 -3.41,10.18 0.6,3.79 2.61,7.78 4.99,10.37 2.42,2.6 5.22,3.8 10.63,5.39 5.4,1.6 13.42,3.59 17.42,5.58 4.01,2 4.01,4 3.81,10.58 -0.2,6.58 -0.6,17.76 -4.8,38.91 -4.21,21.15 -12.22,52.28 -17.22,72.64 -5,20.35 -7.01,29.93 -8.02,35.51 -0.99,5.58 -0.99,7.18 -11.62,14.56 -10.61,7.38 -31.84,20.56 -49.47,33.52 -17.62,12.98 -31.64,25.74 -44.45,39.91 -12.82,14.16 -24.43,29.73 -34.04,43.11 -9.62,13.37 -17.22,24.54 -22.44,37.71 -5.2,13.17 -8.01,28.33 -9.21,42.7 -1.2,14.36 -0.8,27.93 1.61,40.3 2.4,12.38 6.8,23.55 14.61,37.53 7.81,13.96 19.03,30.73 25.63,40.51 6.61,9.77 8.61,12.57 10.02,15.36 1.4,2.79 2.2,5.58 0.8,8.58 -1.41,2.99 -5,6.18 -5.81,9.57 -0.8,3.4 1.21,6.99 2.81,9.98 1.6,3 2.81,5.38 2.61,8.58 -0.2,3.2 -1.81,7.18 -4.81,11.49 -3,4.31 -7.4,8.92 -7,11.23 0.4,2.3 5.6,2.3 7.61,5.18 2,2.89 0.8,8.64 -2.01,12.93 -2.81,4.28 -7.21,7.06 -8.41,11.06 -1.2,4 0.8,9.18 3.41,12.38 2.61,3.2 5.8,4.39 4.8,7.18 -1,2.8 -6.2,7.18 -9.41,10.98 -3.21,3.79 -4.41,6.98 -3.01,9.57 1.4,2.6 5.4,4.59 7.01,8.38 1.6,3.8 0.8,9.38 -2.01,13.58 -2.8,4.19 -7.6,6.98 -9.81,9.97 -2.21,3 -1.8,6.19 1.4,8.78 3.21,2.6 9.22,4.59 9.01,8.58 -0.2,4 -6.6,9.98 -10.21,14.36 -3.61,4.4 -4.41,7.19 -2.2,9.98 2.2,2.8 7.4,5.58 9.01,9.58 1.6,3.99 -0.4,9.18 -3.21,12.97 -2.81,3.8 -6.41,6.19 -7.21,9.18 -0.8,3 1.2,6.58 3.81,9.19 2.61,2.6 5.8,4.19 3.81,9.38 -2,5.18 -9.21,13.96 -10.21,19.95 -1.01,5.99 4.21,9.18 6.8,12.18 2.61,2.99 2.61,5.78 0,8.58 -2.6,2.79 -7.81,5.58 -9.61,9.18 -1.81,3.59 -0.2,7.98 2.2,11.77 2.41,3.8 5.61,6.98 5.61,10.18 0,3.19 -3.21,6.38 -6.01,9.58 -2.8,3.19 -5.2,6.38 -4.81,9.77 0.41,3.4 3.62,6.98 5.81,10.18 2.21,3.2 3.41,5.98 2.41,8.38 -1,2.4 -4.21,4.39 -6.6,7.38 -2.41,3 -4.01,6.98 -3.41,10.78 0.6,3.79 3.41,7.38 5.6,9.78 2.21,2.4 3.81,3.59 3.41,5.78 -0.4,2.2 -2.81,5.39 -5.4,8.78 -2.61,3.39 -5.41,6.99 -5.01,10.18 0.41,3.2 4.01,5.99 6.61,9.57 2.61,3.61 4.21,7.99 2.61,11.59 -1.61,3.59 -6.41,6.38 -8.21,10.97 -1.81,4.59 -0.6,10.98 1.59,14.96 2.22,4 5.41,5.59 6.62,8.38 1.2,2.8 0.4,6.78 -2.01,8.98 -2.4,2.2 -6.4,2.6 -7.61,4.99 -1.2,2.39 0.4,6.78 2.61,10.57 2.2,3.8 5,6.98 6.2,9.58 1.21,2.6 0.81,4.58 -1.41,8.35 -2.19,3.77 -6.19,9.29 -7.4,12.06 -1.2,2.76 0.4,2.76 2.81,5.37 2.41,2.64 5.6,7.88 5.2,12.51 -0.4,4.61 -4.41,8.6 -6.21,12.8 -1.8,4.2 -1.4,8.58 0.21,11.78 1.6,3.2 4.41,5.18 5.8,7.78 1.41,2.6 1.41,5.78 0,7.98 -1.4,2.2 -4.21,3.4 -6.2,6.18 -2.01,2.8 -3.21,7.18 -2.01,10.58 1.21,3.4 4.8,5.78 8.21,9.78 3.41,3.99 6.61,9.58 7.21,12.37 0.6,2.8 -1.4,2.8 -4.21,2.8 -2.81,0 -6.41,0 -8.41,2.8 -2.01,2.79 -2.41,8.37 -0.4,11.77 2,3.4 6.4,4.58 8.41,6.78 2,2.2 1.6,5.39 0.2,15.96 -1.4,10.58 -3.81,28.54 -6.21,44.1 -2.4,15.57 -4.8,28.74 -6.2,47.5 -1.4,18.75 -1.81,43.09 -2.21,64.64 -0.4,21.56 -0.8,40.31 -1,56.07 -0.2,15.77 -0.2,28.55 2.41,40.32 2.6,11.78 7.81,22.55 16.62,31.33 8.81,8.78 21.23,15.56 41.85,19.16 20.63,3.6 49.46,3.99 97.73,5.38zm-22.81 -626.77c0,-25.03 3.73,-46.47 11.17,-64.33 7.46,-17.85 20.81,-37.62 40.05,-59.3 18.93,-21.7 32.04,-40.22 39.34,-55.56 7.29,-15.34 10.95,-31.38 10.95,-48.05 0,-15.02 -2.25,-25.44 -6.75,-31.29 -4.51,-5.84 -11.1,-8.76 -19.8,-8.76 -17.68,0 -26.53,11.51 -26.53,34.54l0 37.54 -48.42 0 0 -34.04c0,-28.36 6.52,-50.13 19.56,-65.32 13.03,-15.18 31.96,-22.77 56.8,-22.77 24.83,0 43.76,7.59 56.8,22.77 13.04,15.18 19.55,36.96 19.55,65.32 0,21.36 -4.72,42.21 -14.19,62.57 -9.47,20.36 -25.84,43.7 -49.12,70.07 -15.21,17.35 -25.45,31.45 -30.74,42.29 -5.27,10.85 -7.91,22.45 -7.91,34.79l0 7.5 97.31 0 0 50.04 -148.06 0 0 -38.03zm261.18 43.04c-25.14,0 -44.38,-7.67 -57.73,-23.02 -13.35,-15.35 -20.02,-37.04 -20.02,-65.07l0 -184.2c0,-28.02 6.67,-49.72 20.02,-65.07 13.35,-15.35 32.58,-23.02 57.73,-23.02 25.14,0 44.38,7.67 57.74,23.02 13.35,15.35 20.02,37.05 20.02,65.07l0 184.2c0,28.03 -6.67,49.72 -20.02,65.07 -13.36,15.35 -32.59,23.02 -57.74,23.02zm0 -50.05c17.69,0 26.54,-11.52 26.54,-34.53l0 -191.2c0,-23.03 -8.85,-34.54 -26.54,-34.54 -17.69,0 -26.53,11.51 -26.53,34.54l0 191.2c0,23.01 8.84,34.53 26.53,34.53zm186.23 50.05c-25.14,0 -44.38,-7.67 -57.73,-23.02 -13.35,-15.35 -20.02,-37.04 -20.02,-65.07l0 -184.2c0,-28.02 6.67,-49.72 20.02,-65.07 13.35,-15.35 32.58,-23.02 57.73,-23.02 25.14,0 44.39,7.67 57.74,23.02 13.35,15.35 20.02,37.05 20.02,65.07l0 184.2c0,28.03 -6.67,49.72 -20.02,65.07 -13.35,15.35 -32.59,23.02 -57.74,23.02zm0 -50.05c17.7,0 26.54,-11.52 26.54,-34.53l0 -191.2c0,-23.03 -8.84,-34.54 -26.54,-34.54 -17.68,0 -26.53,11.51 -26.53,34.54l0 191.2c0,23.01 8.85,34.53 26.53,34.53z"/>
     <path class="fil0" d="M4291.17 4137.3c44.68,0.31 119.31,2.14 186.79,2.14 67.48,0 127.83,-1.83 180.33,-3.21 52.52,-1.38 97.19,-2.3 129.21,-3.21 32.01,-0.92 51.36,-1.85 67.72,-4.14 16.35,-2.3 29.71,-5.96 41.91,-14.68 12.22,-8.73 23.26,-22.5 32.01,-37.42 8.76,-14.9 15.2,-30.97 20.05,-67.01 4.83,-36.02 8.05,-92.02 10.82,-142.04 2.77,-50.03 5.07,-94.09 7.83,-117.72 2.77,-23.64 5.98,-26.86 8.06,-57.15 2.08,-30.3 3,-87.66 3.69,-144.57 0.7,-56.91 1.15,-113.37 -0.69,-185.23 -1.85,-71.87 -5.99,-159.15 -9.21,-205.5 -3.23,-46.35 -5.52,-51.79 -7.15,-61.62 -1.61,-9.83 -2.53,-24.06 -3.91,-43.57 -1.39,-19.5 -3.23,-44.28 -1.39,-58.97 1.85,-14.69 7.37,-19.29 7.6,-41.77 0.24,-22.49 -4.83,-62.87 -8.52,-89.73 -3.69,-26.84 -5.99,-40.16 -11.52,-54.84 -5.52,-14.69 -14.27,-30.76 -28.79,-47.96 -14.51,-17.22 -34.77,-35.57 -60.34,-56 -25.56,-20.43 -56.43,-42.92 -75.78,-56.46 -19.34,-13.55 -27.17,-18.12 -32.46,-23.4 -5.3,-5.28 -8.07,-11.25 -11.76,-24.33 -3.69,-13.08 -8.29,-33.26 -13.81,-62.19 -5.52,-28.91 -11.98,-66.54 -15.66,-88.57 -3.68,-22.04 -4.6,-28.46 -4.83,-38.1 -0.23,-9.64 0.23,-22.49 0.46,-29.14 0.23,-6.66 0.23,-7.12 4.83,-8.49 4.6,-1.38 13.81,-3.68 19.12,-7.12 5.29,-3.44 6.68,-8.02 5.76,-11.93 -0.92,-3.91 -4.16,-7.11 -6.68,-9.64 -2.54,-2.53 -4.39,-4.37 -5.3,-6.43 -0.92,-2.06 -0.92,-4.35 0,-7.57 0.92,-3.21 2.77,-7.33 4.6,-13.99 1.85,-6.65 3.7,-15.83 4.16,-38.78 0.46,-22.95 -0.46,-59.67 -2.31,-80.78 -1.85,-21.12 -4.61,-26.62 -8.29,-30.99 -3.69,-4.36 -8.29,-7.57 -16.82,-11.93 -8.52,-4.37 -20.95,-9.87 -40.99,-14 -20.04,-4.13 -47.67,-6.88 -80.6,-8.95 -32.94,-2.07 -71.17,-3.44 -105.49,-2.99 -34.31,0.47 -64.72,2.76 -89.13,5.74 -24.41,2.99 -42.83,6.66 -55.28,11.48 -12.44,4.81 -18.88,10.78 -22.57,17.66 -3.69,6.89 -4.6,14.69 -4.6,34.66 0,19.97 0.92,52.09 1.38,72.05 0.46,19.97 0.46,27.78 1.61,34.66 1.16,6.88 3.46,12.85 5.53,17.21 2.08,4.36 3.92,7.11 0.69,10.56 -3.22,3.44 -11.51,7.56 -15.19,11.93 -3.7,4.37 -2.77,8.95 3.22,13.32 5.99,4.36 17.04,8.49 23.03,11.01 5.98,2.52 6.9,3.45 6.21,13.55 -0.69,10.09 -3,29.37 -6.91,57.37 -3.92,28 -9.44,64.71 -13.59,85.83 -4.15,21.12 -6.91,26.62 -17.73,35.34 -10.83,8.72 -29.72,20.66 -49.99,35.11 -20.26,14.45 -41.91,31.44 -64.48,51.86 -22.58,20.43 -46.07,44.29 -65.42,66.55 -19.35,22.27 -34.55,42.92 -44.45,66.1 -9.91,23.17 -14.51,48.89 -15.66,69.76 -1.15,20.89 1.15,36.95 6.67,53.01 5.53,16.06 14.28,32.12 20.74,43.14 6.44,11.02 10.6,16.97 11.28,21.8 0.7,4.82 -2.07,8.49 -1.61,12.63 0.46,4.13 4.16,8.72 4.16,14.22 0,5.51 -3.7,11.94 -6.46,16.75 -2.76,4.82 -4.59,8.03 -3.91,11.94 0.69,3.9 3.92,8.49 5.53,11.71 1.61,3.21 1.61,5.04 -0.93,8.03 -2.54,2.98 -7.6,7.1 -9.44,11.7 -1.84,4.59 -0.47,9.64 1.61,14.46 2.08,4.81 4.83,9.41 4.15,13.31 -0.7,3.9 -4.83,7.12 -7.83,12.82 -3,5.7 -4.83,13.89 -3.45,17.99 1.38,4.1 5.98,4.1 8.05,6.65 2.08,2.57 1.61,7.68 -1.61,11.62 -3.23,3.94 -9.21,6.69 -11.75,10.82 -2.54,4.14 -1.61,9.64 1.39,13.32 3,3.68 8.05,5.5 7.36,9.41 -0.69,3.9 -7.13,9.86 -10.13,15.36 -3,5.52 -2.54,10.56 -0.92,14 1.61,3.45 4.38,5.28 3.22,10.79 -1.15,5.5 -6.21,14.69 -8.52,20.43 -2.3,5.73 -1.85,8.03 1.15,10.33 3,2.3 8.53,4.58 9.68,8.02 1.16,3.45 -2.08,8.04 -5.3,12.17 -3.22,4.14 -6.45,7.8 -6.9,11.94 -0.47,4.13 1.84,8.72 3.92,12.39 2.07,3.68 3.92,6.43 3.22,10.33 -0.69,3.91 -3.92,8.95 -6.9,13.32 -3,4.36 -5.75,8.03 -5.99,11.7 -0.23,3.68 2.08,7.35 4.61,10.1 2.53,2.76 5.28,4.58 4.83,7.57 -0.47,2.99 -4.16,7.12 -7.6,10.79 -3.46,3.67 -6.68,6.89 -6.45,11.24 0.24,4.37 3.92,9.87 7.6,13.55 3.69,3.68 7.37,5.5 7.14,8.03 -0.24,2.53 -4.38,5.73 -7.37,8.27 -3,2.52 -4.83,4.35 -5.99,8.26 -1.14,3.9 -1.61,9.87 0.47,13.99 2.07,4.14 6.67,6.42 9.21,8.49 2.53,2.07 3,3.9 0.69,6.42 -2.3,2.53 -7.37,5.73 -10.83,9.18 -3.45,3.45 -5.29,7.11 -3.68,11.48 1.61,4.36 6.68,9.4 9.9,12.63 3.23,3.21 4.6,4.58 2.54,7.79 -2.08,3.22 -7.6,8.27 -10.14,13.77 -2.54,5.5 -2.07,11.47 0.7,16.29 2.76,4.81 7.82,8.49 8.28,11.48 0.46,2.99 -3.68,5.27 -7.36,8.95 -3.69,3.67 -6.91,8.72 -5.99,13.76 0.92,5.04 5.99,10.1 9.44,13.99 3.46,3.91 5.29,6.66 3.46,9.42 -1.84,2.75 -7.37,5.5 -10.13,9.87 -2.77,4.35 -2.77,10.32 -0.69,14.9 2.08,4.59 6.21,7.81 8.29,12.17 2.07,4.36 2.07,9.87 -0.47,12.4 -2.53,2.52 -7.59,2.06 -9.21,6.19 -1.61,4.13 0.23,12.86 4.6,17.89 4.39,5.05 11.29,6.43 10.8,8.96 -0.48,2.53 -8.37,6.19 -12.32,11.93 -3.94,5.73 -3.94,13.55 -0.69,18.6 3.26,5.04 9.76,7.33 12.56,9.86 2.78,2.53 1.86,5.28 -1.39,7.8 -3.25,2.53 -8.84,4.82 -11.63,9.41 -2.79,4.58 -2.79,11.48 0.46,16.52 3.26,5.05 9.76,8.26 9.76,11.71 0,3.45 -6.5,7.11 -9.76,11.48 -3.25,4.36 -3.25,9.41 -3.25,13.99 0,4.58 0,8.72 3.02,11.02 3.03,2.3 9.07,2.75 9.07,7.11 0,4.37 -6.04,12.63 -6.51,21.12 -0.45,8.49 4.66,17.2 4.66,36.26 0,19.04 -5.11,48.41 -7.67,87.42 -2.57,39.02 -2.57,87.67 0.22,121.4 2.79,33.74 8.38,52.55 17.15,66.1 8.79,13.54 20.76,21.8 47.25,28.38 26.48,6.58 67.49,11.47 95.35,13.31 27.87,1.84 42.61,0.61 87.29,0.92zm-6.42 -581.77c-29.95,0 -52.79,-9.16 -68.51,-27.47 -15.71,-18.31 -23.58,-44.56 -23.58,-78.77l0 -33.19 58.4 0 0 38.03c0,27.36 10.68,41.03 32,41.03 21.35,0 32,-13.67 32,-41.03l0 -94.77c0,-27.78 -10.66,-41.66 -32,-41.66 -21.33,0 -32,13.88 -32,41.66l0 3.62 -58.4 0 11.24 -236.02 162.82 0 0 60.36 -107.8 0 -5.04 100.81 1.12 0c11.61,-20.53 29.38,-30.79 53.34,-30.79 22.47,0 39.5,8.24 51.09,24.74 11.6,16.5 17.41,40.45 17.41,71.83l0 95.38c0,34.21 -7.86,60.46 -23.58,78.77 -15.72,18.31 -38.56,27.47 -68.49,27.47zm223.46 0c-30.32,0 -53.53,-9.26 -69.62,-27.78 -16.1,-18.51 -24.15,-44.66 -24.15,-78.46l0 -222.14c0,-33.8 8.05,-59.95 24.15,-78.47 16.09,-18.51 39.31,-27.76 69.62,-27.76 30.31,0 53.52,9.25 69.61,27.76 16.1,18.52 24.15,44.67 24.15,78.47l0 222.14c0,33.8 -8.05,59.95 -24.15,78.46 -16.09,18.52 -39.31,27.78 -69.61,27.78zm0 -60.37c21.33,0 32,-13.87 32,-41.64l0 -230.59c0,-27.77 -10.68,-41.65 -32,-41.65 -21.34,0 -32,13.88 -32,41.65l0 230.59c0,27.77 10.67,41.64 32,41.64zm224.58 60.37c-30.32,0 -53.53,-9.26 -69.62,-27.78 -16.09,-18.51 -24.13,-44.66 -24.13,-78.46l0 -222.14c0,-33.8 8.04,-59.95 24.13,-78.47 16.09,-18.51 39.31,-27.76 69.62,-27.76 30.33,0 53.53,9.25 69.63,27.76 16.09,18.52 24.13,44.67 24.13,78.47l0 222.14c0,33.8 -8.04,59.95 -24.13,78.46 -16.1,18.52 -39.31,27.78 -69.63,27.78zm0 -60.37c21.34,0 32,-13.87 32,-41.64l0 -230.59c0,-27.77 -10.67,-41.65 -32,-41.65 -21.34,0 -32,13.88 -32,41.65l0 230.59c0,27.77 10.67,41.64 32,41.64z"/>
    </g>
   </g>
  </g>
  <polygon class="fil1" points="-0,0 12486.28,0 12486.28,4495.06 -0,4495.06 "/>
 </g>
</svg>
