<?xml version="1.0" encoding="UTF-8"?>
<!DOCTYPE svg PUBLIC "-//W3C//DTD SVG 1.1//EN" "http://www.w3.org/Graphics/SVG/1.1/DTD/svg11.dtd">
<!-- Creator: CorelDRAW -->
<svg xmlns="http://www.w3.org/2000/svg" xml:space="preserve" width="125mm" height="45mm" version="1.1" style="shape-rendering:geometricPrecision; text-rendering:geometricPrecision; image-rendering:optimizeQuality; fill-rule:evenodd; clip-rule:evenodd"
viewBox="0 0 12486.28 4495.06"
 xmlns:xlink="http://www.w3.org/1999/xlink"
 xmlns:xodm="http://www.corel.com/coreldraw/odm/2003">
 <defs>
  <style type="text/css">
   <![CDATA[
    .fil1 {fill:none}
    .fil0 {fill:black}
   ]]>
  </style>
   <clipPath id="id0">
    <path d="M-0 0l12486.28 0 0 4495.06 -12486.28 0 0 -4495.06z"/>
   </clipPath>
 </defs>
 <g id="Camada_x0020_1">
  <metadata id="CorelCorpID_0Corel-Layer"/>
  <g>
  </g>
  <g style="clip-path:url(#id0)">
   <g id="_2380246815872">
    <g>
     <path class="fil0" d="M11213.94 4125.98c279.25,10.05 534.28,13.05 813.56,4.53 59.29,-1.81 76.59,1.06 130.21,-36.87 16.1,-11.39 30.09,-25.3 35.44,-41.38l2.27 -4.91 1.31 -2.9c15.13,-43.4 12.96,-76.38 17.31,-123.13 12.57,-134.91 44.09,-491.57 32.59,-605.38 -0.7,-7 -3.27,-6.22 -1.86,-12.88 1.24,-5.82 1,0.68 1.86,-7.4l0.06 -26.51c0.01,-11.32 -0.63,-22.72 -0.41,-33.91 -7.07,-5.49 -7.27,-4.39 -3.01,-11.46 0.19,-0.31 0.51,-0.64 0.68,-0.98 3.33,-6.35 1.43,-59.01 -0.32,-64.42 -3.57,-11.03 0.16,-26.56 -0.07,-40.55 -0.21,-14.21 -1.57,-27.15 -1.57,-42.1l-9.39 -3.04 0 -9.78 8.53 -2.78 -2.28 -56.17c-0.63,-7.48 -2.73,-7.56 -3.2,-15.57 -0.75,-13.16 2.47,-19.21 0.62,-36.59 -0.99,-9.34 -1.86,-25.76 -2.12,-35.18 -3.26,-6.01 0.93,-0.07 -4.73,-2.99 -5.45,-2.82 -1.64,3.55 -4.65,-3.26l-7.4 -114.14c-2.16,-21.62 1.02,-18.35 7.4,-31.69 -5.47,2.95 -3.26,3.64 -9.91,3.76l-2.72 -11.17c5.99,3.88 3.08,4.9 11.01,5.04 4.86,0.09 2.79,-0.42 3.86,-0.13l1.39 0.83c0.04,-0.19 0.32,0.32 0.54,0.35 7.68,-9.79 4.4,-14.9 2.61,-29.63 -1.29,-10.55 -2.23,-21.73 -3.25,-32.4 -2.11,-22.04 -4.94,-43.92 -6.78,-65.24 -8.55,-99.33 -38.3,-126.98 -107.42,-181.54 -27.16,-21.43 -53.27,-41.44 -81.83,-61.95 -45.69,-32.83 -54.65,-26.74 -70.88,-74.46 -6.19,-18.2 -12.22,-36.62 -18.27,-53.54 -6.62,-18.53 -11.14,-35.38 -17.49,-54.37 -18.6,-55.55 -33.58,-111.47 -47.53,-168.01 -6.57,-26.64 -5.56,-39.09 -5.56,-66.05 14.54,-5.32 18.47,-2.92 29.75,-12.46 -0.29,-5.45 -1.84,-7.63 -1.71,-12.39 0.17,-5.68 1.67,-4.55 1.68,-12.55 0,-8.41 -0.58,-18.63 -1.03,-27.11l-1.48 -107.07c-0.09,-18.43 -2.21,-33.64 -12.94,-42.3 -46.7,-37.72 -335.99,-43.55 -381.73,-5.61 -17.53,14.54 -9.14,68.1 -11.98,96.73 -2.71,27.24 0.81,55.03 -0.95,82.26 -0.64,10.12 -3.37,9.56 -3.17,23.33 10.67,6.91 20.64,7.73 29.56,12.54 0.31,41.2 1.05,32.98 -7.95,71.4 -14.71,62.75 -34.23,124.78 -53.48,185.33 -6.91,21.78 -9.97,40.05 -29.25,50.41 -73.68,39.64 -159.19,121.69 -214.75,182.3 -28.45,31.01 -48.76,49.23 -62.02,95.74 -13.55,47.46 -9.18,96.53 7.44,135.6 4.12,9.66 9.83,18.36 13.7,26.83 4.89,10.69 12.95,48.58 16.01,62.16 2.97,13.21 -3.36,10.48 -2.97,32.46 5.17,3.42 12.69,9.57 8.3,19.18 -3.43,7.53 -11.25,3.93 -14.17,14.02 -3.33,11.47 -2.4,14.24 4.45,21.2 5.6,5.68 6.28,14.01 -0.04,19 -8.71,6.86 -10.1,1.13 -12.12,17.74 -2.04,16.89 25.22,18.42 0.4,36.11 -7.47,5.33 -5.72,11.96 -5.61,23.16 25.17,22.19 -1.15,21.94 -4.59,33.83 -3.61,12.49 -1.95,14.09 4.62,20.12 5.31,4.86 7.52,14 1.19,19.89 -7.97,7.37 -9.45,1.71 -11.28,17.1 -1.73,14.56 4.63,8.36 8.93,17.22 5.24,10.85 -1.23,15.51 -6.67,19.09 -7.55,4.95 -6.72,9.58 -6.28,21.83 2.01,4.43 8.43,6.75 10.27,11.8 5.22,14.32 -11.29,13 -13.83,26.94 -1.7,9.23 -1.97,9.35 3.12,14.77 9.42,10.06 13.28,16.39 -0.25,25.31 -10.94,7.21 -6.16,22.14 1.48,29.68 15.51,15.34 -10.66,16.1 -10.4,35.02 0.16,11.73 6.46,11.32 11.64,19.89 1.8,2.98 -0.09,9.64 -3.26,13.12 -4.97,5.41 -7.77,1.24 -9.75,10.74 -2.61,12.46 2.84,19.88 12.56,27.39 -3.6,20.78 -14.52,10 -14.48,28.72 0.04,14.82 7.28,13.37 13.57,24.93 -2.06,3.99 -1.8,5.73 -5.49,9.26 -6.88,6.56 -15.14,11.84 -6.41,27.91 2.73,4.99 11.54,8.13 10.35,15.19 -1.18,7.02 -8.75,10.25 -13.19,14.69 0.14,20.65 2.77,21.7 14.09,34.09 -4.99,10.79 -11.57,10.93 -14.09,18.95 1.45,11.29 5.27,2.27 1.58,18.93l12.57 13.13c-4.3,10.66 -11.86,9.53 -13.25,17.1 -1.18,6.48 4.23,8.9 2.52,14.99 -0.47,1.65 -0.38,-0.84 -1.84,4.49 7.72,5.16 9.44,6.87 13.5,16.18l-10.75 10c-3.88,4.86 -2.11,8.08 -2.14,14.71 -0.1,20.95 10.89,8.42 13.5,26.18 -6.88,9.8 -14.24,5.26 -12.59,26.52 1.28,16.42 14.12,8.46 14.12,25.56 -5.73,5.2 -10.3,5.96 -11.93,15.66 -2.78,16.38 12.56,26.11 5.33,42.68 -4.46,10.24 -2.55,10.87 -2.08,22.58 0.3,7.67 -1.6,14.76 -2.88,22.33 -8.74,51.44 -4.84,128.85 -5.02,181.59 4.84,107.2 -9.64,151.4 75,151.8zm275.84 -1035.96l-104.86 0 0 -70.83c28.59,0 51.5,-2.41 68.81,-7.27 17.31,-4.82 31.16,-12.85 41.48,-24.07 10.37,-11.19 19.49,-27.4 27.33,-48.56l67.47 0 0 635.7 -100.23 0 0 -484.97zm246.11 -150.73l100.28 0 0 544.87 164.97 0 0 90.83 -265.25 0 0 -635.7z"/>
     <path class="fil0" d="M8361.2 4134.53c48.27,1.4 115.95,3.8 181.44,4.59 65.49,0.8 128.77,0 175.04,-0.8 46.26,-0.8 75.5,-1.6 101.73,-2.6 26.24,-1 49.48,-2.2 66.1,-4.19 16.61,-2 26.63,-4.79 36.64,-10.18 10.02,-5.38 20.03,-13.37 28.44,-22.15 8.41,-8.78 15.22,-18.36 19.83,-31.92 4.6,-13.58 7.01,-31.14 10.82,-78.22 3.81,-47.09 9.01,-123.72 11.62,-162.03 2.61,-38.31 2.61,-38.31 4.8,-54.51 2.21,-16.18 6.61,-48.58 8.81,-96.66 2.21,-48.09 2.21,-111.88 0.8,-183.88 -1.4,-72.02 -4.21,-152.23 -5.8,-192.93 -1.6,-40.71 -2,-41.9 -3.21,-42.7 -1.2,-0.81 -3.2,-1.2 -4.6,-6.27 -1.41,-5.08 -2.2,-14.83 -3.22,-29 -0.99,-14.16 -2.19,-32.75 -2.39,-43.44 -0.2,-10.69 0.6,-13.48 3.4,-16.47 2.8,-3 7.61,-6.18 9.82,-13.17 2.21,-6.98 1.79,-17.76 -1.2,-38.32 -3.01,-20.55 -8.61,-50.88 -14.42,-73.43 -5.8,-22.55 -11.82,-37.32 -19.62,-50.68 -7.82,-13.37 -17.43,-25.34 -31.66,-38.91 -14.21,-13.57 -33.04,-28.74 -47.46,-40.92 -14.42,-12.17 -24.43,-21.35 -29.84,-26.93 -5.41,-5.59 -6.21,-7.58 -9.01,-23.94 -2.81,-16.36 -7.61,-47.09 -12.42,-75.63 -4.81,-28.54 -9.62,-54.88 -12.03,-69.24 -2.41,-14.36 -2.41,-16.76 -2.21,-22.15 0.21,-5.39 0.61,-13.77 0.81,-17.96 0.21,-4.2 0.21,-4.2 4.81,-5.18 4.6,-1 13.81,-3 19.42,-5.39 5.61,-2.39 7.61,-5.18 8.41,-8.98 0.8,-3.79 0.4,-8.58 -1,-11.77 -1.4,-3.2 -3.81,-4.79 -6.41,-5.98 -2.61,-1.2 -5.4,-2 -7.01,-3.8 -1.6,-1.8 -2.01,-4.58 -2.21,-7.18 -0.19,-2.6 -0.19,-4.99 0.61,-7.59 0.81,-2.6 2.41,-5.37 3.81,-9.98 1.41,-4.58 2.61,-10.97 3.61,-20.55 1,-9.58 1.81,-22.35 2.41,-44.9 0.6,-22.55 1,-54.87 1.2,-72.82 0.2,-17.97 0.2,-21.57 -3.21,-27.35 -3.41,-5.78 -10.21,-13.76 -22.43,-20.75 -12.23,-6.98 -29.85,-12.98 -58.69,-18.16 -28.84,-5.18 -68.88,-9.58 -109.95,-11.97 -41.05,-2.4 -83.11,-2.8 -122.36,-1 -39.25,1.79 -75.71,5.78 -99.54,9.37 -23.82,3.6 -35.04,6.79 -43.85,11.38 -8.81,4.58 -15.22,10.58 -19.03,16.16 -3.81,5.58 -5,10.78 -5.81,24.14 -0.79,13.37 -1.2,34.93 -1.2,57.28 0,22.35 0.41,45.49 1.41,58.66 1,13.18 2.61,16.36 3.41,20.16 0.8,3.79 0.8,8.18 2.2,10.58 1.41,2.39 4.21,2.79 5.61,6.19 1.4,3.38 1.4,9.77 1.2,13.96 -0.2,4.18 -0.6,6.18 -3.61,8.18 -3.01,2 -8.61,3.99 -11.82,6.78 -3.2,2.8 -4.01,6.38 -3.4,10.18 0.6,3.79 2.6,7.78 4.99,10.37 2.41,2.6 5.21,3.8 10.62,5.39 5.41,1.6 13.42,3.59 17.42,5.58 4.01,2 4.01,4 3.81,10.58 -0.2,6.58 -0.6,17.76 -4.8,38.91 -4.21,21.15 -12.22,52.28 -17.22,72.64 -5,20.35 -7.01,29.93 -8.02,35.51 -0.99,5.58 -0.99,7.18 -11.62,14.56 -10.61,7.38 -31.84,20.56 -49.46,33.52 -17.62,12.98 -31.65,25.74 -44.46,39.91 -12.82,14.16 -24.43,29.73 -34.04,43.11 -9.61,13.37 -17.22,24.54 -22.43,37.71 -5.21,13.17 -8.01,28.33 -9.21,42.7 -1.21,14.36 -0.81,27.93 1.6,40.3 2.4,12.38 6.81,23.55 14.61,37.53 7.81,13.96 19.03,30.73 25.63,40.51 6.61,9.77 8.62,12.57 10.02,15.36 1.4,2.79 2.2,5.58 0.8,8.58 -1.4,2.99 -5,6.18 -5.8,9.57 -0.81,3.4 1.2,6.99 2.8,9.98 1.61,3 2.81,5.38 2.61,8.58 -0.2,3.2 -1.8,7.18 -4.8,11.49 -3.01,4.31 -7.41,8.92 -7.01,11.23 0.4,2.3 5.6,2.3 7.61,5.18 2,2.89 0.8,8.64 -2.01,12.93 -2.8,4.28 -7.2,7.06 -8.41,11.06 -1.2,4 0.81,9.18 3.41,12.38 2.61,3.2 5.81,4.39 4.8,7.18 -1,2.8 -6.2,7.18 -9.41,10.98 -3.21,3.79 -4.41,6.98 -3.01,9.57 1.41,2.6 5.41,4.59 7.01,8.38 1.61,3.8 0.8,9.38 -2,13.58 -2.81,4.19 -7.61,6.98 -9.82,9.97 -2.2,3 -1.8,6.19 1.41,8.78 3.2,2.6 9.21,4.59 9.01,8.58 -0.2,4 -6.61,9.98 -10.22,14.36 -3.6,4.4 -4.41,7.19 -2.2,9.98 2.2,2.8 7.41,5.58 9.01,9.58 1.6,3.99 -0.4,9.18 -3.21,12.97 -2.8,3.8 -6.4,6.19 -7.2,9.18 -0.81,3 1.2,6.58 3.8,9.19 2.61,2.6 5.81,4.19 3.81,9.38 -2,5.18 -9.21,13.96 -10.21,19.95 -1,5.99 4.21,9.18 6.81,12.18 2.6,2.99 2.6,5.78 0,8.58 -2.61,2.79 -7.81,5.58 -9.62,9.18 -1.8,3.59 -0.2,7.98 2.21,11.77 2.4,3.8 5.6,6.98 5.6,10.18 0,3.19 -3.21,6.38 -6,9.58 -2.81,3.19 -5.21,6.38 -4.81,9.77 0.41,3.4 3.61,6.98 5.8,10.18 2.21,3.2 3.42,5.98 2.41,8.38 -1,2.4 -4.21,4.39 -6.6,7.38 -2.41,3 -4.01,6.98 -3.41,10.78 0.6,3.79 3.41,7.38 5.6,9.78 2.21,2.4 3.81,3.59 3.41,5.78 -0.4,2.2 -2.8,5.39 -5.4,8.78 -2.61,3.39 -5.4,6.99 -5,10.18 0.4,3.2 4.01,5.99 6.6,9.57 2.61,3.61 4.21,7.99 2.61,11.59 -1.6,3.59 -6.41,6.38 -8.21,10.97 -1.8,4.59 -0.6,10.98 1.59,14.96 2.22,4 5.42,5.59 6.62,8.38 1.2,2.8 0.4,6.78 -2.01,8.98 -2.4,2.2 -6.4,2.6 -7.6,4.99 -1.21,2.39 0.4,6.78 2.6,10.57 2.21,3.8 5,6.98 6.21,9.58 1.2,2.6 0.8,4.58 -1.41,8.35 -2.2,3.77 -6.2,9.29 -7.4,12.06 -1.21,2.76 0.4,2.76 2.8,5.37 2.41,2.64 5.61,7.88 5.21,12.51 -0.41,4.61 -4.41,8.6 -6.22,12.8 -1.79,4.2 -1.39,8.58 0.21,11.78 1.61,3.2 4.41,5.18 5.81,7.78 1.4,2.6 1.4,5.78 0,7.98 -1.41,2.2 -4.21,3.4 -6.21,6.18 -2,2.8 -3.21,7.18 -2,10.58 1.2,3.4 4.8,5.78 8.21,9.78 3.4,3.99 6.6,9.58 7.2,12.37 0.6,2.8 -1.4,2.8 -4.21,2.8 -2.8,0 -6.4,0 -8.41,2.8 -2,2.79 -2.4,8.37 -0.4,11.77 2.01,3.4 6.41,4.58 8.41,6.78 2.01,2.2 1.61,5.39 0.2,15.96 -1.4,10.58 -3.81,28.54 -6.2,44.1 -2.41,15.57 -4.8,28.74 -6.21,47.5 -1.4,18.75 -1.8,43.09 -2.2,64.64 -0.4,21.56 -0.8,40.31 -1.01,56.07 -0.2,15.77 -0.2,28.55 2.41,40.32 2.61,11.78 7.81,22.55 16.62,31.33 8.81,8.78 21.23,15.56 41.85,19.16 20.63,3.6 49.47,3.99 97.73,5.38zm-22.81 -626.77c0,-25.03 3.73,-46.47 11.18,-64.33 7.45,-17.85 20.8,-37.62 40.04,-59.3 18.94,-21.7 32.04,-40.22 39.35,-55.56 7.29,-15.34 10.94,-31.38 10.94,-48.05 0,-15.02 -2.25,-25.44 -6.75,-31.29 -4.5,-5.84 -11.1,-8.76 -19.79,-8.76 -17.69,0 -26.54,11.51 -26.54,34.54l0 37.54 -48.42 0 0 -34.04c0,-28.36 6.52,-50.13 19.56,-65.32 13.04,-15.18 31.96,-22.77 56.8,-22.77 24.83,0 43.76,7.59 56.8,22.77 13.04,15.18 19.56,36.96 19.56,65.32 0,21.36 -4.73,42.21 -14.2,62.57 -9.47,20.36 -25.84,43.7 -49.12,70.07 -15.21,17.35 -25.45,31.45 -30.73,42.29 -5.28,10.85 -7.91,22.45 -7.91,34.79l0 7.5 97.3 0 0 50.04 -148.06 0 0 -38.03zm261.18 43.04c-25.14,0 -44.38,-7.67 -57.73,-23.02 -13.35,-15.35 -20.02,-37.04 -20.02,-65.07l0 -184.2c0,-28.02 6.67,-49.72 20.02,-65.07 13.35,-15.35 32.58,-23.02 57.73,-23.02 25.14,0 44.38,7.67 57.74,23.02 13.35,15.35 20.02,37.05 20.02,65.07l0 184.2c0,28.03 -6.67,49.72 -20.02,65.07 -13.36,15.35 -32.59,23.02 -57.74,23.02zm0 -50.05c17.7,0 26.54,-11.52 26.54,-34.53l0 -191.2c0,-23.03 -8.84,-34.54 -26.54,-34.54 -17.68,0 -26.53,11.51 -26.53,34.54l0 191.2c0,23.01 8.85,34.53 26.53,34.53zm186.24 50.05c-25.14,0 -44.39,-7.67 -57.74,-23.02 -13.35,-15.35 -20.01,-37.04 -20.01,-65.07l0 -184.2c0,-28.02 6.66,-49.72 20.01,-65.07 13.35,-15.35 32.59,-23.02 57.74,-23.02 25.13,0 44.38,7.67 57.74,23.02 13.35,15.35 20.01,37.05 20.01,65.07l0 184.2c0,28.03 -6.66,49.72 -20.01,65.07 -13.36,15.35 -32.6,23.02 -57.74,23.02zm0 -50.05c17.69,0 26.54,-11.52 26.54,-34.53l0 -191.2c0,-23.03 -8.85,-34.54 -26.54,-34.54 -17.69,0 -26.54,11.51 -26.54,34.54l0 191.2c0,23.01 8.85,34.53 26.54,34.53z"/>
     <path class="fil0" d="M9853.19 4137.3c44.69,0.31 119.31,2.14 186.79,2.14 67.48,0 127.83,-1.83 180.33,-3.21 52.52,-1.38 97.19,-2.3 129.21,-3.21 32.01,-0.92 51.37,-1.85 67.72,-4.14 16.36,-2.3 29.72,-5.96 41.91,-14.68 12.22,-8.73 23.27,-22.5 32.01,-37.42 8.76,-14.9 15.2,-30.97 20.05,-67.01 4.83,-36.02 8.05,-92.02 10.82,-142.04 2.77,-50.03 5.07,-94.09 7.83,-117.72 2.77,-23.64 5.99,-26.86 8.07,-57.15 2.07,-30.3 2.99,-87.66 3.69,-144.57 0.69,-56.91 1.14,-113.37 -0.7,-185.23 -1.85,-71.87 -5.98,-159.15 -9.21,-205.5 -3.22,-46.35 -5.52,-51.79 -7.14,-61.62 -1.62,-9.83 -2.54,-24.06 -3.92,-43.57 -1.39,-19.5 -3.23,-44.28 -1.39,-58.97 1.85,-14.69 7.38,-19.29 7.6,-41.77 0.24,-22.49 -4.83,-62.87 -8.52,-89.73 -3.69,-26.84 -5.98,-40.16 -11.51,-54.84 -5.52,-14.69 -14.28,-30.76 -28.8,-47.96 -14.5,-17.22 -34.77,-35.57 -60.33,-56 -25.57,-20.43 -56.43,-42.92 -75.79,-56.46 -19.34,-13.55 -27.17,-18.12 -32.46,-23.4 -5.29,-5.28 -8.06,-11.25 -11.75,-24.33 -3.7,-13.08 -8.3,-33.26 -13.82,-62.19 -5.52,-28.91 -11.98,-66.54 -15.66,-88.57 -3.68,-22.04 -4.6,-28.46 -4.83,-38.1 -0.23,-9.64 0.24,-22.49 0.47,-29.14 0.22,-6.66 0.22,-7.12 4.82,-8.49 4.61,-1.38 13.82,-3.68 19.12,-7.12 5.29,-3.44 6.68,-8.02 5.76,-11.93 -0.92,-3.91 -4.16,-7.11 -6.68,-9.64 -2.53,-2.53 -4.38,-4.37 -5.29,-6.43 -0.92,-2.06 -0.92,-4.35 0,-7.57 0.92,-3.21 2.77,-7.33 4.6,-13.99 1.85,-6.65 3.69,-15.83 4.15,-38.78 0.46,-22.95 -0.46,-59.67 -2.3,-80.78 -1.85,-21.12 -4.61,-26.62 -8.29,-30.99 -3.69,-4.36 -8.3,-7.57 -16.82,-11.93 -8.52,-4.37 -20.96,-9.87 -41,-14 -20.03,-4.13 -47.67,-6.88 -80.6,-8.95 -32.94,-2.07 -71.17,-3.44 -105.48,-2.99 -34.32,0.47 -64.72,2.76 -89.13,5.74 -24.41,2.99 -42.84,6.66 -55.28,11.48 -12.44,4.81 -18.88,10.78 -22.57,17.66 -3.7,6.89 -4.61,14.69 -4.61,34.66 0,19.97 0.92,52.09 1.38,72.05 0.47,19.97 0.47,27.78 1.61,34.66 1.16,6.88 3.47,12.85 5.53,17.21 2.08,4.36 3.92,7.11 0.7,10.56 -3.23,3.44 -11.52,7.56 -15.2,11.93 -3.69,4.37 -2.77,8.95 3.22,13.32 5.99,4.36 17.04,8.49 23.03,11.01 5.99,2.52 6.91,3.45 6.21,13.55 -0.69,10.09 -3,29.37 -6.9,57.37 -3.92,28 -9.44,64.71 -13.6,85.83 -4.14,21.12 -6.9,26.62 -17.73,35.34 -10.82,8.72 -29.71,20.66 -49.99,35.11 -20.26,14.45 -41.91,31.44 -64.48,51.86 -22.58,20.43 -46.07,44.29 -65.41,66.55 -19.36,22.27 -34.55,42.92 -44.46,66.1 -9.9,23.17 -14.5,48.89 -15.65,69.76 -1.16,20.89 1.15,36.95 6.67,53.01 5.53,16.06 14.27,32.12 20.74,43.14 6.44,11.02 10.59,16.97 11.28,21.8 0.69,4.82 -2.07,8.49 -1.62,12.63 0.47,4.13 4.16,8.72 4.16,14.22 0,5.51 -3.69,11.94 -6.45,16.75 -2.76,4.82 -4.59,8.03 -3.92,11.94 0.69,3.9 3.93,8.49 5.53,11.71 1.61,3.21 1.61,5.04 -0.93,8.03 -2.53,2.98 -7.6,7.1 -9.44,11.7 -1.84,4.59 -0.46,9.64 1.61,14.46 2.08,4.81 4.83,9.41 4.15,13.31 -0.69,3.9 -4.83,7.12 -7.83,12.82 -3,5.7 -4.83,13.89 -3.45,17.99 1.38,4.1 5.99,4.1 8.05,6.65 2.08,2.57 1.62,7.68 -1.61,11.62 -3.23,3.94 -9.21,6.69 -11.74,10.82 -2.55,4.14 -1.62,9.64 1.38,13.32 3,3.68 8.06,5.5 7.36,9.41 -0.69,3.9 -7.13,9.86 -10.13,15.36 -3,5.52 -2.53,10.56 -0.92,14 1.61,3.45 4.38,5.28 3.23,10.79 -1.16,5.5 -6.22,14.69 -8.52,20.43 -2.31,5.73 -1.85,8.03 1.14,10.33 3,2.3 8.53,4.58 9.68,8.02 1.16,3.45 -2.08,8.04 -5.29,12.17 -3.23,4.14 -6.45,7.8 -6.91,11.94 -0.46,4.13 1.84,8.72 3.92,12.39 2.08,3.68 3.92,6.43 3.23,10.33 -0.7,3.91 -3.92,8.95 -6.91,13.32 -3,4.36 -5.75,8.03 -5.99,11.7 -0.22,3.68 2.08,7.35 4.61,10.1 2.54,2.76 5.29,4.58 4.83,7.57 -0.46,2.99 -4.15,7.12 -7.6,10.79 -3.46,3.67 -6.68,6.89 -6.45,11.24 0.24,4.37 3.92,9.87 7.6,13.55 3.69,3.68 7.37,5.5 7.14,8.03 -0.23,2.53 -4.38,5.73 -7.37,8.27 -2.99,2.52 -4.83,4.35 -5.98,8.26 -1.15,3.9 -1.62,9.87 0.46,13.99 2.07,4.14 6.67,6.42 9.21,8.49 2.54,2.07 3,3.9 0.7,6.42 -2.31,2.53 -7.37,5.73 -10.84,9.18 -3.45,3.45 -5.28,7.11 -3.68,11.48 1.61,4.36 6.68,9.4 9.91,12.63 3.22,3.21 4.6,4.58 2.53,7.79 -2.08,3.22 -7.6,8.27 -10.13,13.77 -2.55,5.5 -2.08,11.47 0.69,16.29 2.76,4.81 7.83,8.49 8.28,11.48 0.47,2.99 -3.68,5.27 -7.36,8.95 -3.69,3.67 -6.91,8.72 -5.99,13.76 0.92,5.04 5.99,10.1 9.44,13.99 3.47,3.91 5.3,6.66 3.47,9.42 -1.84,2.75 -7.38,5.5 -10.14,9.87 -2.77,4.35 -2.77,10.32 -0.69,14.9 2.08,4.59 6.22,7.81 8.29,12.17 2.07,4.36 2.07,9.87 -0.46,12.4 -2.54,2.52 -7.6,2.06 -9.21,6.19 -1.62,4.13 0.22,12.86 4.6,17.89 4.38,5.05 11.29,6.43 10.79,8.96 -0.48,2.53 -8.37,6.19 -12.31,11.93 -3.95,5.73 -3.95,13.55 -0.7,18.6 3.26,5.04 9.76,7.33 12.56,9.86 2.79,2.53 1.87,5.28 -1.39,7.8 -3.25,2.53 -8.83,4.82 -11.62,9.41 -2.8,4.58 -2.8,11.48 0.45,16.52 3.26,5.05 9.76,8.26 9.76,11.71 0,3.45 -6.5,7.11 -9.76,11.48 -3.25,4.36 -3.25,9.41 -3.25,13.99 0,4.58 0,8.72 3.02,11.02 3.03,2.3 9.07,2.75 9.07,7.11 0,4.37 -6.04,12.63 -6.5,21.12 -0.46,8.49 4.65,17.2 4.65,36.26 0,19.04 -5.11,48.41 -7.67,87.42 -2.57,39.02 -2.57,87.67 0.23,121.4 2.79,33.74 8.37,52.55 17.15,66.1 8.78,13.54 20.75,21.8 47.24,28.38 26.49,6.58 67.49,11.47 95.35,13.31 27.88,1.84 42.61,0.61 87.29,0.92zm-6.42 -581.77c-29.95,0 -52.78,-9.16 -68.5,-27.47 -15.72,-18.31 -23.58,-44.56 -23.58,-78.77l0 -33.19 58.39 0 0 38.03c0,27.36 10.68,41.03 32,41.03 21.35,0 32,-13.67 32,-41.03l0 -94.77c0,-27.78 -10.66,-41.66 -32,-41.66 -21.33,0 -32,13.88 -32,41.66l0 3.62 -58.39 0 11.23 -236.02 162.83 0 0 60.36 -107.8 0 -5.05 100.81 1.12 0c11.61,-20.53 29.39,-30.79 53.34,-30.79 22.47,0 39.5,8.24 51.09,24.74 11.61,16.5 17.41,40.45 17.41,71.83l0 95.38c0,34.21 -7.86,60.46 -23.58,78.77 -15.72,18.31 -38.56,27.47 -68.49,27.47zm223.46 0c-30.32,0 -53.53,-9.26 -69.62,-27.78 -16.1,-18.51 -24.14,-44.66 -24.14,-78.46l0 -222.14c0,-33.8 8.04,-59.95 24.14,-78.47 16.09,-18.51 39.31,-27.76 69.62,-27.76 30.32,0 53.52,9.25 69.62,27.76 16.1,18.52 24.14,44.67 24.14,78.47l0 222.14c0,33.8 -8.04,59.95 -24.14,78.46 -16.1,18.52 -39.31,27.78 -69.62,27.78zm0 -60.37c21.33,0 32,-13.87 32,-41.64l0 -230.59c0,-27.77 -10.68,-41.65 -32,-41.65 -21.34,0 -32,13.88 -32,41.65l0 230.59c0,27.77 10.67,41.64 32,41.64zm224.59 60.37c-30.33,0 -53.53,-9.26 -69.63,-27.78 -16.09,-18.51 -24.13,-44.66 -24.13,-78.46l0 -222.14c0,-33.8 8.04,-59.95 24.13,-78.47 16.1,-18.51 39.31,-27.76 69.63,-27.76 30.32,0 53.52,9.25 69.62,27.76 16.09,18.52 24.14,44.67 24.14,78.47l0 222.14c0,33.8 -8.05,59.95 -24.14,78.46 -16.1,18.52 -39.31,27.78 -69.62,27.78zm0 -60.37c21.34,0 32,-13.87 32,-41.64l0 -230.59c0,-27.77 -10.67,-41.65 -32,-41.65 -21.34,0 -32,13.88 -32,41.65l0 230.59c0,27.77 10.67,41.64 32,41.64z"/>
    </g>
   </g>
  </g>
  <polygon class="fil1" points="-0,0 12486.28,0 12486.28,4495.06 -0,4495.06 "/>
 </g>
</svg>
