<?xml version="1.0" encoding="UTF-8"?>
<!DOCTYPE svg PUBLIC "-//W3C//DTD SVG 1.1//EN" "http://www.w3.org/Graphics/SVG/1.1/DTD/svg11.dtd">
<!-- Creator: CorelDRAW -->
<svg xmlns="http://www.w3.org/2000/svg" xml:space="preserve" width="125mm" height="45mm" version="1.1" style="shape-rendering:geometricPrecision; text-rendering:geometricPrecision; image-rendering:optimizeQuality; fill-rule:evenodd; clip-rule:evenodd"
viewBox="0 0 12486.28 4495.06"
 xmlns:xlink="http://www.w3.org/1999/xlink"
 xmlns:xodm="http://www.corel.com/coreldraw/odm/2003">
 <defs>
  <style type="text/css">
   <![CDATA[
    .fil1 {fill:none}
    .fil0 {fill:black}
   ]]>
  </style>
   <clipPath id="id0">
    <path d="M-0 0l12486.28 0 0 4495.06 -12486.28 0 0 -4495.06z"/>
   </clipPath>
 </defs>
 <g id="Camada_x0020_1">
  <metadata id="CorelCorpID_0Corel-Layer"/>
  <g>
  </g>
  <g style="clip-path:url(#id0)">
   <g id="_2379943191280">
    <g>
     <path class="fil0" d="M10068.08 4134.53c48.26,1.4 115.94,3.8 181.44,4.59 65.48,0.8 128.77,0 175.03,-0.8 46.26,-0.8 75.5,-1.6 101.74,-2.6 26.24,-1 49.47,-2.2 66.09,-4.19 16.62,-2 26.64,-4.79 36.65,-10.18 10.01,-5.38 20.03,-13.37 28.44,-22.15 8.41,-8.78 15.21,-18.36 19.82,-31.92 4.61,-13.58 7.02,-31.14 10.83,-78.22 3.81,-47.09 9.01,-123.72 11.62,-162.03 2.6,-38.31 2.6,-38.31 4.8,-54.51 2.2,-16.18 6.6,-48.58 8.81,-96.66 2.2,-48.09 2.2,-111.88 0.8,-183.88 -1.4,-72.02 -4.21,-152.23 -5.8,-192.93 -1.61,-40.71 -2.01,-41.9 -3.21,-42.7 -1.2,-0.81 -3.21,-1.2 -4.6,-6.27 -1.41,-5.08 -2.21,-14.83 -3.22,-29 -0.99,-14.16 -2.19,-32.75 -2.39,-43.44 -0.2,-10.69 0.6,-13.48 3.39,-16.47 2.81,-3 7.62,-6.18 9.83,-13.17 2.2,-6.98 1.79,-17.76 -1.21,-38.32 -3,-20.55 -8.61,-50.88 -14.41,-73.43 -5.8,-22.55 -11.82,-37.32 -19.63,-50.68 -7.81,-13.37 -17.43,-25.34 -31.65,-38.91 -14.21,-13.57 -33.04,-28.74 -47.46,-40.92 -14.42,-12.17 -24.43,-21.35 -29.84,-26.93 -5.41,-5.59 -6.21,-7.58 -9.02,-23.94 -2.8,-16.36 -7.6,-47.09 -12.42,-75.63 -4.81,-28.54 -9.61,-54.88 -12.02,-69.24 -2.41,-14.36 -2.41,-16.76 -2.21,-22.15 0.21,-5.39 0.6,-13.77 0.81,-17.96 0.2,-4.2 0.2,-4.2 4.8,-5.18 4.6,-1 13.82,-3 19.43,-5.39 5.6,-2.39 7.61,-5.18 8.41,-8.98 0.8,-3.79 0.4,-8.58 -1,-11.77 -1.41,-3.2 -3.81,-4.79 -6.41,-5.98 -2.61,-1.2 -5.4,-2 -7.01,-3.8 -1.6,-1.8 -2.01,-4.58 -2.21,-7.18 -0.19,-2.6 -0.19,-4.99 0.61,-7.59 0.8,-2.6 2.41,-5.37 3.81,-9.98 1.4,-4.58 2.61,-10.97 3.61,-20.55 1,-9.58 1.8,-22.35 2.41,-44.9 0.6,-22.55 1,-54.87 1.2,-72.82 0.2,-17.97 0.2,-21.57 -3.21,-27.35 -3.41,-5.78 -10.21,-13.76 -22.43,-20.75 -12.23,-6.98 -29.85,-12.98 -58.69,-18.16 -28.84,-5.18 -68.89,-9.58 -109.95,-11.97 -41.05,-2.4 -83.11,-2.8 -122.36,-1 -39.26,1.79 -75.71,5.78 -99.54,9.37 -23.83,3.6 -35.04,6.79 -43.85,11.38 -8.81,4.58 -15.22,10.58 -19.03,16.16 -3.81,5.58 -5,10.78 -5.81,24.14 -0.79,13.37 -1.2,34.93 -1.2,57.28 0,22.35 0.41,45.49 1.41,58.66 1,13.18 2.6,16.36 3.41,20.16 0.8,3.79 0.8,8.18 2.2,10.58 1.4,2.39 4.21,2.79 5.6,6.19 1.41,3.38 1.41,9.77 1.21,13.96 -0.2,4.18 -0.6,6.18 -3.61,8.18 -3.01,2 -8.61,3.99 -11.82,6.78 -3.21,2.8 -4.01,6.38 -3.41,10.18 0.6,3.79 2.61,7.78 5,10.37 2.41,2.6 5.21,3.8 10.62,5.39 5.4,1.6 13.42,3.59 17.42,5.58 4.01,2 4.01,4 3.81,10.58 -0.2,6.58 -0.6,17.76 -4.8,38.91 -4.21,21.15 -12.22,52.28 -17.22,72.64 -5,20.35 -7.01,29.93 -8.02,35.51 -0.99,5.58 -0.99,7.18 -11.62,14.56 -10.61,7.38 -31.84,20.56 -49.47,33.52 -17.62,12.98 -31.64,25.74 -44.45,39.91 -12.82,14.16 -24.43,29.73 -34.04,43.11 -9.61,13.37 -17.22,24.54 -22.44,37.71 -5.2,13.17 -8,28.33 -9.21,42.7 -1.2,14.36 -0.8,27.93 1.61,40.3 2.4,12.38 6.8,23.55 14.61,37.53 7.81,13.96 19.03,30.73 25.63,40.51 6.61,9.77 8.61,12.57 10.02,15.36 1.4,2.79 2.2,5.58 0.8,8.58 -1.41,2.99 -5,6.18 -5.81,9.57 -0.8,3.4 1.21,6.99 2.81,9.98 1.6,3 2.81,5.38 2.61,8.58 -0.2,3.2 -1.81,7.18 -4.8,11.49 -3.01,4.31 -7.41,8.92 -7.01,11.23 0.4,2.3 5.6,2.3 7.61,5.18 2,2.89 0.8,8.64 -2.01,12.93 -2.8,4.28 -7.2,7.06 -8.41,11.06 -1.2,4 0.8,9.18 3.41,12.38 2.61,3.2 5.8,4.39 4.8,7.18 -1,2.8 -6.2,7.18 -9.41,10.98 -3.21,3.79 -4.41,6.98 -3.01,9.57 1.41,2.6 5.41,4.59 7.01,8.38 1.6,3.8 0.8,9.38 -2.01,13.58 -2.8,4.19 -7.6,6.98 -9.81,9.97 -2.2,3 -1.8,6.19 1.4,8.78 3.21,2.6 9.22,4.59 9.02,8.58 -0.2,4 -6.61,9.98 -10.22,14.36 -3.61,4.4 -4.41,7.19 -2.2,9.98 2.2,2.8 7.4,5.58 9.01,9.58 1.6,3.99 -0.4,9.18 -3.21,12.97 -2.81,3.8 -6.41,6.19 -7.21,9.18 -0.8,3 1.21,6.58 3.81,9.19 2.61,2.6 5.81,4.19 3.81,9.38 -2,5.18 -9.21,13.96 -10.21,19.95 -1.01,5.99 4.21,9.18 6.8,12.18 2.61,2.99 2.61,5.78 0,8.58 -2.6,2.79 -7.81,5.58 -9.61,9.18 -1.8,3.59 -0.2,7.98 2.21,11.77 2.4,3.8 5.6,6.98 5.6,10.18 0,3.19 -3.21,6.38 -6.01,9.58 -2.8,3.19 -5.2,6.38 -4.81,9.77 0.41,3.4 3.62,6.98 5.81,10.18 2.21,3.2 3.41,5.98 2.41,8.38 -1,2.4 -4.21,4.39 -6.6,7.38 -2.41,3 -4.01,6.98 -3.41,10.78 0.6,3.79 3.41,7.38 5.6,9.78 2.21,2.4 3.81,3.59 3.41,5.78 -0.4,2.2 -2.81,5.39 -5.4,8.78 -2.61,3.39 -5.41,6.99 -5,10.18 0.4,3.2 4,5.99 6.6,9.57 2.61,3.61 4.21,7.99 2.61,11.59 -1.61,3.59 -6.41,6.38 -8.21,10.97 -1.81,4.59 -0.6,10.98 1.59,14.96 2.22,4 5.41,5.59 6.62,8.38 1.2,2.8 0.4,6.78 -2.01,8.98 -2.4,2.2 -6.4,2.6 -7.61,4.99 -1.2,2.39 0.41,6.78 2.61,10.57 2.21,3.8 5,6.98 6.21,9.58 1.2,2.6 0.8,4.58 -1.42,8.35 -2.19,3.77 -6.19,9.29 -7.4,12.06 -1.2,2.76 0.41,2.76 2.81,5.37 2.41,2.64 5.6,7.88 5.2,12.51 -0.4,4.61 -4.41,8.6 -6.21,12.8 -1.8,4.2 -1.39,8.58 0.21,11.78 1.6,3.2 4.41,5.18 5.8,7.78 1.41,2.6 1.41,5.78 0,7.98 -1.4,2.2 -4.21,3.4 -6.2,6.18 -2.01,2.8 -3.21,7.18 -2.01,10.58 1.21,3.4 4.8,5.78 8.21,9.78 3.41,3.99 6.61,9.58 7.21,12.37 0.6,2.8 -1.4,2.8 -4.21,2.8 -2.81,0 -6.41,0 -8.41,2.8 -2,2.79 -2.41,8.37 -0.4,11.77 2,3.4 6.4,4.58 8.41,6.78 2,2.2 1.6,5.39 0.2,15.96 -1.4,10.58 -3.81,28.54 -6.21,44.1 -2.4,15.57 -4.8,28.74 -6.2,47.5 -1.4,18.75 -1.8,43.09 -2.21,64.64 -0.4,21.56 -0.8,40.31 -1,56.07 -0.2,15.77 -0.2,28.55 2.41,40.32 2.6,11.78 7.81,22.55 16.62,31.33 8.81,8.78 21.23,15.56 41.85,19.16 20.63,3.6 49.46,3.99 97.73,5.38zm-22.81 -626.77c0,-25.03 3.73,-46.47 11.17,-64.33 7.46,-17.85 20.81,-37.62 40.05,-59.3 18.93,-21.7 32.04,-40.22 39.34,-55.56 7.29,-15.34 10.95,-31.38 10.95,-48.05 0,-15.02 -2.25,-25.44 -6.75,-31.29 -4.51,-5.84 -11.1,-8.76 -19.79,-8.76 -17.69,0 -26.54,11.51 -26.54,34.54l0 37.54 -48.42 0 0 -34.04c0,-28.36 6.52,-50.13 19.56,-65.32 13.04,-15.18 31.96,-22.77 56.8,-22.77 24.83,0 43.76,7.59 56.8,22.77 13.04,15.18 19.55,36.96 19.55,65.32 0,21.36 -4.72,42.21 -14.19,62.57 -9.47,20.36 -25.84,43.7 -49.12,70.07 -15.21,17.35 -25.45,31.45 -30.74,42.29 -5.27,10.85 -7.91,22.45 -7.91,34.79l0 7.5 97.31 0 0 50.04 -148.06 0 0 -38.03zm261.18 43.04c-25.14,0 -44.38,-7.67 -57.73,-23.02 -13.35,-15.35 -20.02,-37.04 -20.02,-65.07l0 -184.2c0,-28.02 6.67,-49.72 20.02,-65.07 13.35,-15.35 32.58,-23.02 57.73,-23.02 25.14,0 44.38,7.67 57.74,23.02 13.35,15.35 20.02,37.05 20.02,65.07l0 184.2c0,28.03 -6.67,49.72 -20.02,65.07 -13.36,15.35 -32.59,23.02 -57.74,23.02zm0 -50.05c17.69,0 26.54,-11.52 26.54,-34.53l0 -191.2c0,-23.03 -8.85,-34.54 -26.54,-34.54 -17.69,0 -26.53,11.51 -26.53,34.54l0 191.2c0,23.01 8.84,34.53 26.53,34.53zm186.23 50.05c-25.14,0 -44.38,-7.67 -57.73,-23.02 -13.35,-15.35 -20.02,-37.04 -20.02,-65.07l0 -184.2c0,-28.02 6.67,-49.72 20.02,-65.07 13.35,-15.35 32.58,-23.02 57.73,-23.02 25.14,0 44.39,7.67 57.74,23.02 13.35,15.35 20.02,37.05 20.02,65.07l0 184.2c0,28.03 -6.67,49.72 -20.02,65.07 -13.35,15.35 -32.59,23.02 -57.74,23.02zm0 -50.05c17.7,0 26.55,-11.52 26.55,-34.53l0 -191.2c0,-23.03 -8.85,-34.54 -26.55,-34.54 -17.68,0 -26.53,11.51 -26.53,34.54l0 191.2c0,23.01 8.85,34.53 26.53,34.53z"/>
     <path class="fil0" d="M11560.07 4137.3c44.68,0.31 119.31,2.14 186.79,2.14 67.48,0 127.83,-1.83 180.33,-3.21 52.52,-1.38 97.19,-2.3 129.21,-3.21 32.01,-0.92 51.36,-1.85 67.72,-4.14 16.35,-2.3 29.71,-5.96 41.91,-14.68 12.22,-8.73 23.26,-22.5 32.01,-37.42 8.76,-14.9 15.2,-30.97 20.05,-67.01 4.83,-36.02 8.05,-92.02 10.82,-142.04 2.77,-50.03 5.07,-94.09 7.83,-117.72 2.77,-23.64 5.98,-26.86 8.06,-57.15 2.08,-30.3 3,-87.66 3.69,-144.57 0.7,-56.91 1.15,-113.37 -0.69,-185.23 -1.85,-71.87 -5.99,-159.15 -9.21,-205.5 -3.23,-46.35 -5.52,-51.79 -7.14,-61.62 -1.62,-9.83 -2.54,-24.06 -3.92,-43.57 -1.39,-19.5 -3.23,-44.28 -1.39,-58.97 1.85,-14.69 7.37,-19.29 7.6,-41.77 0.24,-22.49 -4.83,-62.87 -8.52,-89.73 -3.69,-26.84 -5.98,-40.16 -11.52,-54.84 -5.52,-14.69 -14.27,-30.76 -28.79,-47.96 -14.5,-17.22 -34.77,-35.57 -60.34,-56 -25.56,-20.43 -56.42,-42.92 -75.78,-56.46 -19.34,-13.55 -27.17,-18.12 -32.46,-23.4 -5.3,-5.28 -8.07,-11.25 -11.76,-24.33 -3.69,-13.08 -8.29,-33.26 -13.81,-62.19 -5.52,-28.91 -11.98,-66.54 -15.66,-88.57 -3.68,-22.04 -4.6,-28.46 -4.83,-38.1 -0.23,-9.64 0.24,-22.49 0.46,-29.14 0.23,-6.66 0.23,-7.12 4.83,-8.49 4.6,-1.38 13.82,-3.68 19.12,-7.12 5.29,-3.44 6.68,-8.02 5.76,-11.93 -0.92,-3.91 -4.16,-7.11 -6.68,-9.64 -2.54,-2.53 -4.38,-4.37 -5.3,-6.43 -0.92,-2.06 -0.92,-4.35 0,-7.57 0.93,-3.21 2.77,-7.33 4.61,-13.99 1.85,-6.65 3.69,-15.83 4.15,-38.78 0.46,-22.95 -0.46,-59.67 -2.3,-80.78 -1.85,-21.12 -4.61,-26.62 -8.3,-30.99 -3.69,-4.36 -8.29,-7.57 -16.82,-11.93 -8.52,-4.37 -20.95,-9.87 -40.99,-14 -20.04,-4.13 -47.67,-6.88 -80.6,-8.95 -32.94,-2.07 -71.17,-3.44 -105.49,-2.99 -34.31,0.47 -64.72,2.76 -89.13,5.74 -24.41,2.99 -42.83,6.66 -55.28,11.48 -12.43,4.81 -18.88,10.78 -22.57,17.66 -3.69,6.89 -4.6,14.69 -4.6,34.66 0,19.97 0.92,52.09 1.38,72.05 0.46,19.97 0.46,27.78 1.61,34.66 1.16,6.88 3.46,12.85 5.53,17.21 2.08,4.36 3.92,7.11 0.69,10.56 -3.22,3.44 -11.51,7.56 -15.19,11.93 -3.69,4.37 -2.77,8.95 3.22,13.32 5.99,4.36 17.04,8.49 23.03,11.01 5.98,2.52 6.9,3.45 6.21,13.55 -0.69,10.09 -3,29.37 -6.91,57.37 -3.91,28 -9.44,64.71 -13.59,85.83 -4.15,21.12 -6.91,26.62 -17.73,35.34 -10.83,8.72 -29.72,20.66 -49.99,35.11 -20.26,14.45 -41.91,31.44 -64.48,51.86 -22.58,20.43 -46.07,44.29 -65.42,66.55 -19.35,22.27 -34.55,42.92 -44.45,66.1 -9.91,23.17 -14.51,48.89 -15.65,69.76 -1.16,20.89 1.14,36.95 6.66,53.01 5.54,16.06 14.28,32.12 20.74,43.14 6.44,11.02 10.6,16.97 11.28,21.8 0.7,4.82 -2.07,8.49 -1.61,12.63 0.47,4.13 4.16,8.72 4.16,14.22 0,5.51 -3.69,11.94 -6.45,16.75 -2.77,4.82 -4.6,8.03 -3.92,11.94 0.69,3.9 3.92,8.49 5.53,11.71 1.61,3.21 1.61,5.04 -0.93,8.03 -2.54,2.98 -7.6,7.1 -9.44,11.7 -1.84,4.59 -0.47,9.64 1.61,14.46 2.08,4.81 4.83,9.41 4.15,13.31 -0.7,3.9 -4.83,7.12 -7.83,12.82 -3,5.7 -4.83,13.89 -3.45,17.99 1.38,4.1 5.98,4.1 8.05,6.65 2.08,2.57 1.61,7.68 -1.61,11.62 -3.23,3.94 -9.21,6.69 -11.75,10.82 -2.54,4.14 -1.61,9.64 1.39,13.32 3,3.68 8.05,5.5 7.36,9.41 -0.69,3.9 -7.13,9.86 -10.13,15.36 -3,5.52 -2.54,10.56 -0.92,14 1.61,3.45 4.38,5.28 3.22,10.79 -1.15,5.5 -6.21,14.69 -8.52,20.43 -2.3,5.73 -1.85,8.03 1.15,10.33 3,2.3 8.53,4.58 9.68,8.02 1.16,3.45 -2.08,8.04 -5.29,12.17 -3.23,4.14 -6.46,7.8 -6.91,11.94 -0.47,4.13 1.84,8.72 3.92,12.39 2.08,3.68 3.92,6.43 3.22,10.33 -0.69,3.91 -3.92,8.95 -6.9,13.32 -3,4.36 -5.75,8.03 -5.99,11.7 -0.23,3.68 2.08,7.35 4.61,10.1 2.53,2.76 5.29,4.58 4.83,7.57 -0.47,2.99 -4.16,7.12 -7.6,10.79 -3.46,3.67 -6.68,6.89 -6.45,11.24 0.24,4.37 3.92,9.87 7.6,13.55 3.69,3.68 7.37,5.5 7.14,8.03 -0.23,2.53 -4.38,5.73 -7.37,8.27 -3,2.52 -4.83,4.35 -5.99,8.26 -1.14,3.9 -1.61,9.87 0.47,13.99 2.07,4.14 6.67,6.42 9.21,8.49 2.53,2.07 3,3.9 0.69,6.42 -2.3,2.53 -7.37,5.73 -10.83,9.18 -3.45,3.45 -5.28,7.11 -3.68,11.48 1.61,4.36 6.68,9.4 9.9,12.63 3.23,3.21 4.6,4.58 2.54,7.79 -2.08,3.22 -7.6,8.27 -10.14,13.77 -2.54,5.5 -2.07,11.47 0.7,16.29 2.76,4.81 7.82,8.49 8.28,11.48 0.46,2.99 -3.68,5.27 -7.36,8.95 -3.69,3.67 -6.91,8.72 -5.99,13.76 0.92,5.04 5.99,10.1 9.44,13.99 3.46,3.91 5.29,6.66 3.46,9.42 -1.84,2.75 -7.37,5.5 -10.13,9.87 -2.77,4.35 -2.77,10.32 -0.69,14.9 2.08,4.59 6.21,7.81 8.29,12.17 2.07,4.36 2.07,9.87 -0.46,12.4 -2.54,2.52 -7.6,2.06 -9.22,6.19 -1.61,4.13 0.23,12.86 4.6,17.89 4.39,5.05 11.29,6.43 10.8,8.96 -0.48,2.53 -8.37,6.19 -12.32,11.93 -3.94,5.73 -3.94,13.55 -0.69,18.6 3.26,5.04 9.76,7.33 12.56,9.86 2.78,2.53 1.86,5.28 -1.39,7.8 -3.25,2.53 -8.84,4.82 -11.63,9.41 -2.79,4.58 -2.79,11.48 0.46,16.52 3.26,5.05 9.76,8.26 9.76,11.71 0,3.45 -6.5,7.11 -9.76,11.48 -3.25,4.36 -3.25,9.41 -3.25,13.99 0,4.58 0,8.72 3.02,11.02 3.03,2.3 9.07,2.75 9.07,7.11 0,4.37 -6.04,12.63 -6.51,21.12 -0.45,8.49 4.66,17.2 4.66,36.26 0,19.04 -5.11,48.41 -7.67,87.42 -2.57,39.02 -2.57,87.67 0.22,121.4 2.79,33.74 8.38,52.55 17.15,66.1 8.79,13.54 20.76,21.8 47.25,28.38 26.48,6.58 67.49,11.47 95.35,13.31 27.87,1.84 42.61,0.61 87.29,0.92zm-6.42 -581.77c-29.95,0 -52.79,-9.16 -68.5,-27.47 -15.72,-18.31 -23.58,-44.56 -23.58,-78.77l0 -33.19 58.39 0 0 38.03c0,27.36 10.68,41.03 32,41.03 21.35,0 32,-13.67 32,-41.03l0 -94.77c0,-27.78 -10.66,-41.66 -32,-41.66 -21.33,0 -32,13.88 -32,41.66l0 3.62 -58.39 0 11.23 -236.02 162.83 0 0 60.36 -107.8 0 -5.05 100.81 1.12 0c11.61,-20.53 29.38,-30.79 53.34,-30.79 22.47,0 39.5,8.24 51.09,24.74 11.61,16.5 17.41,40.45 17.41,71.83l0 95.38c0,34.21 -7.86,60.46 -23.58,78.77 -15.72,18.31 -38.56,27.47 -68.49,27.47zm223.46 0c-30.32,0 -53.53,-9.26 -69.62,-27.78 -16.1,-18.51 -24.15,-44.66 -24.15,-78.46l0 -222.14c0,-33.8 8.05,-59.95 24.15,-78.47 16.09,-18.51 39.31,-27.76 69.62,-27.76 30.31,0 53.52,9.25 69.61,27.76 16.1,18.52 24.15,44.67 24.15,78.47l0 222.14c0,33.8 -8.05,59.95 -24.15,78.46 -16.09,18.52 -39.31,27.78 -69.61,27.78zm0 -60.37c21.33,0 32,-13.87 32,-41.64l0 -230.59c0,-27.77 -10.68,-41.65 -32,-41.65 -21.34,0 -32,13.88 -32,41.65l0 230.59c0,27.77 10.67,41.64 32,41.64zm224.58 60.37c-30.32,0 -53.53,-9.26 -69.62,-27.78 -16.09,-18.51 -24.13,-44.66 -24.13,-78.46l0 -222.14c0,-33.8 8.04,-59.95 24.13,-78.47 16.09,-18.51 39.31,-27.76 69.62,-27.76 30.33,0 53.53,9.25 69.63,27.76 16.09,18.52 24.13,44.67 24.13,78.47l0 222.14c0,33.8 -8.04,59.95 -24.13,78.46 -16.1,18.52 -39.31,27.78 -69.63,27.78zm0 -60.37c21.34,0 32,-13.87 32,-41.64l0 -230.59c0,-27.77 -10.67,-41.65 -32,-41.65 -21.34,0 -32,13.88 -32,41.65l0 230.59c0,27.77 10.67,41.64 32,41.64z"/>
    </g>
   </g>
  </g>
  <polygon class="fil1" points="-0,0 12486.28,0 12486.28,4495.06 -0,4495.06 "/>
 </g>
</svg>
