<?xml version="1.0" encoding="UTF-8"?>
<!DOCTYPE svg PUBLIC "-//W3C//DTD SVG 1.1//EN" "http://www.w3.org/Graphics/SVG/1.1/DTD/svg11.dtd">
<!-- Creator: CorelDRAW -->
<svg xmlns="http://www.w3.org/2000/svg" xml:space="preserve" width="125mm" height="45mm" version="1.1" style="shape-rendering:geometricPrecision; text-rendering:geometricPrecision; image-rendering:optimizeQuality; fill-rule:evenodd; clip-rule:evenodd"
viewBox="0 0 12486.28 4495.06"
 xmlns:xlink="http://www.w3.org/1999/xlink"
 xmlns:xodm="http://www.corel.com/coreldraw/odm/2003">
 <defs>
  <style type="text/css">
   <![CDATA[
    .fil1 {fill:none}
    .fil0 {fill:black}
   ]]>
  </style>
   <clipPath id="id0">
    <path d="M-0 0l12486.28 0 0 4495.06 -12486.28 0 0 -4495.06z"/>
   </clipPath>
 </defs>
 <g id="Camada_x0020_1">
  <metadata id="CorelCorpID_0Corel-Layer"/>
  <g>
  </g>
  <g style="clip-path:url(#id0)">
   <g id="_2380244188432">
    <path class="fil0" d="M10085.93 651.01c30.93,56.08 47.04,-5.31 47.6,169.02 0.23,75.74 -0.77,151.72 -0.1,227.44 0.65,70.56 6.68,139.12 6.64,212.97 -0.03,72.6 -3.3,154.86 1.72,226.36 2.85,40.72 17.47,179.13 0.6,209.45 -10.57,19.01 -48.75,12.47 -48.31,61.08 0.35,36.84 25.37,49.29 52.6,57.16 8.19,213.93 1.55,624.57 15.3,801.94 2.72,35.06 10.18,159.24 3.78,191.83 -8.1,41.2 -75.37,53.7 -43.14,139.72 12.05,32.16 30.75,37.04 41.1,56.57 16.4,31 9.23,257.89 9.33,301.51 0.17,65.53 6.78,125.82 6.68,191.77l5.19 298.9c3.6,91.13 -74.94,95.32 -42.55,245.31 142.67,131.53 2129.16,139.25 2071.26,-74.63 -3.62,-75.72 -48.11,-105.98 -51.93,-149.87l6.66 -404.95c0.32,-133.51 6.66,-269.58 6.66,-407.05 26.38,-17.28 52.13,-44.53 53.88,-90.22 2.27,-59.27 -26.83,-70.77 -47.29,-99.35l14.79 -994.34c36.21,-26.68 54.57,-21.44 51.14,-92.3 -18.59,-13.6 -23.79,-16.57 -46.11,-28.56l13.44 -994.35c182.24,-223.88 -392.9,-326.53 -1030.35,-342.94 -591.05,-15.23 -1194.92,112.89 -1098.61,287.53zm374.4 1867.76c0,-54.66 8.17,-101.52 24.45,-140.55 16.27,-39.02 45.44,-82.21 87.47,-129.61 41.38,-47.39 70.02,-87.87 85.95,-121.38 15.95,-33.56 23.92,-68.57 23.92,-105.03 0,-32.79 -4.94,-55.57 -14.74,-68.31 -9.84,-12.79 -24.25,-19.16 -43.25,-19.16 -38.67,0 -57.99,25.13 -57.99,75.44l0 82.06 -105.81 0 0 -74.39c0,-61.94 14.27,-109.54 42.73,-142.7 28.51,-33.2 69.84,-49.8 124.11,-49.8 54.26,0 95.63,16.59 124.14,49.8 28.46,33.16 42.68,80.76 42.68,142.7 0,46.65 -10.31,92.25 -31.03,136.74 -20.66,44.44 -56.45,95.5 -107.3,153.07 -33.21,37.92 -55.62,68.77 -67.15,92.44 -11.51,23.68 -17.3,49.07 -17.3,76l0 16.41 212.61 0 0 109.38 -323.5 0 0 -83.11zm570.73 94.05c-54.91,0 -96.99,-16.75 -126.15,-50.3 -29.17,-33.56 -43.72,-80.95 -43.72,-142.19l0 -402.48c0,-61.23 14.55,-108.64 43.72,-142.19 29.16,-33.5 71.24,-50.3 126.15,-50.3 54.92,0 96.99,16.8 126.16,50.3 29.16,33.55 43.71,80.96 43.71,142.19l0 402.48c0,61.24 -14.55,108.63 -43.71,142.19 -29.17,33.55 -71.24,50.3 -126.16,50.3zm0 -109.35c38.69,0 58,-25.17 58,-75.48l0 -417.82c0,-50.3 -19.31,-75.44 -58,-75.44 -38.67,0 -58,25.13 -58,75.44l0 417.82c0,50.3 19.33,75.48 58,75.48zm406.93 109.35c-54.91,0 -96.99,-16.75 -126.16,-50.3 -29.16,-33.56 -43.71,-80.95 -43.71,-142.19l0 -402.48c0,-61.23 14.55,-108.64 43.71,-142.19 29.17,-33.5 71.25,-50.3 126.16,-50.3 54.92,0 96.99,16.8 126.15,50.3 29.17,33.55 43.72,80.96 43.72,142.19l0 402.48c0,61.24 -14.55,108.63 -43.72,142.19 -29.16,33.55 -71.23,50.3 -126.15,50.3zm0 -109.35c38.68,0 57.99,-25.17 57.99,-75.48l0 -417.82c0,-50.3 -19.31,-75.44 -57.99,-75.44 -38.68,0 -58,25.13 -58,75.44l0 417.82c0,50.3 19.32,75.48 58,75.48zm245.18 -667.2l111.93 0 0 656.23 184.1 0 0 109.38 -296.02 0 0 -765.61z"/>
    <path class="fil0" d="M8107.38 1188.67c54.55,-17.02 280.84,-9.55 353.8,-9.55 144.17,-0.01 264.13,-31.76 234.31,113.43 -114.7,-2.25 -230.4,1.39 -345.14,-0.37 -200.06,-3.05 -164.66,24.98 -242.97,-103.51zm-280.47 1640.49c0,-57.28 9.16,-106.32 27.59,-147.21 18.37,-40.83 51.35,-86.07 98.82,-135.73 46.77,-49.61 79.13,-91.99 97.15,-127.09 18.02,-35.17 27.04,-71.78 27.04,-110 0,-34.36 -5.6,-58.19 -16.71,-71.58 -11.08,-13.35 -27.4,-20.01 -48.84,-20.01 -43.7,0 -65.55,26.32 -65.55,78.99l0 85.93 -119.51 0 0 -77.89c0,-64.91 16.06,-114.71 48.28,-149.48 32.17,-34.76 78.94,-52.11 140.26,-52.11 61.26,0 108.03,17.35 140.2,52.11 32.21,34.76 48.28,84.57 48.28,149.48 0,48.85 -11.68,96.59 -35.04,143.14 -23.35,46.6 -63.78,100.07 -121.27,160.36 -37.56,39.73 -62.82,71.97 -75.86,96.8 -13.06,24.82 -19.55,51.36 -19.55,79.6l0 17.15 240.24 0 0 114.56 -365.53 0 0 -87.03zm644.86 98.46c-62.07,0 -109.59,-17.55 -142.56,-52.65 -32.92,-35.11 -49.38,-84.78 -49.38,-148.93l0 -421.48c0,-64.16 16.45,-113.76 49.38,-148.88 32.97,-35.15 80.49,-52.71 142.56,-52.71 62.07,0 109.59,17.56 142.57,52.71 32.91,35.11 49.39,84.72 49.39,148.88l0 421.48c0,64.15 -16.47,113.81 -49.39,148.93 -32.98,35.1 -80.5,52.65 -142.57,52.65zm0 -114.5c43.69,0 65.56,-26.33 65.56,-79.05l0 -437.53c0,-52.67 -21.87,-78.99 -65.56,-78.99 -43.69,0 -65.54,26.32 -65.54,78.99l0 437.53c0,52.72 21.85,79.05 65.54,79.05zm277.03 -698.7l126.46 0 0 687.21 208.05 0 0 114.56 -334.51 0 0 -801.78zm-1465.3 1449.44c0,18.36 -0.64,40.32 4.45,71.99 5.08,31.68 15.87,73.07 24.39,108.21 8.54,35.14 14.8,64.04 20.29,89.42 5.49,25.39 10.2,47.25 17.25,67.94 7.06,20.7 16.46,40.23 28.22,60.14 11.75,19.92 25.86,40.23 40.76,59.35 14.89,19.13 30.57,37.1 47.42,49.98 16.85,12.89 34.87,20.7 58.79,26.94 23.9,6.25 53.69,10.94 87.78,16.4 34.1,5.47 72.5,11.72 103.86,15.23 31.35,3.52 55.65,4.3 90.92,5.07 35.27,0.79 81.52,1.56 110.12,0 28.62,-1.56 39.58,-5.46 53.69,-14.05 14.1,-8.59 31.35,-21.87 49.38,-37.48 18.03,-15.62 36.85,-33.59 52.51,-55.06 15.68,-21.49 28.22,-46.48 39.99,-66.78 11.76,-20.31 22.73,-35.92 30.18,-51.93 7.44,-16.01 11.36,-32.41 16.84,-46.08 5.49,-13.66 12.55,-24.59 18.03,-31.64 5.49,-7.02 9.41,-10.15 54.08,-11.71 44.68,-1.56 130.12,-1.56 175.18,-1.17 45.07,0.39 49.77,1.17 58.4,10.93 8.61,9.76 21.16,28.51 34.09,39.84 12.94,11.32 26.26,15.22 62.7,29.28 36.45,14.05 96.01,38.27 130.91,52.32 34.87,14.06 45.07,17.97 52.51,26.56 7.44,8.59 12.14,21.86 18.8,35.14 6.67,13.28 15.29,26.55 30.97,40.61 15.67,14.06 38.41,28.9 56.44,41 18.02,12.11 31.35,21.48 47.42,27.72 16.06,6.25 34.87,9.37 75.64,10.54 40.76,1.18 103.46,0.4 157.93,-4.67 54.48,-5.08 100.72,-14.44 140.31,-25.38 39.58,-10.94 72.5,-23.43 96.01,-45.3 23.51,-21.87 37.62,-53.1 54.53,-115.19 16.93,-62.07 36.65,-155.02 46.5,-213.59 9.88,-58.57 9.88,-82.79 5.56,-105.08 -4.16,-21.56 -12.33,-41.32 -28.07,-63.12l6.55 0c-12.36,-40.04 -9.97,-111.76 -8.44,-157.73 6.61,-168.57 0.84,-350.62 0.95,-520.67 0.23,-341.94 -1.81,-696.77 1.88,-1037.32 0.5,-46.46 -4.89,-78.48 14.18,-117.73 19.88,-40.89 17.09,-67.32 17.14,-114.97 0.14,-131.01 -2.39,-112.34 -27.95,-238.36 -30.03,-147.94 -76.56,-147.61 -214.1,-177.3 -9.85,-2.13 -44.11,-7.96 -51.71,-11.45 -9.53,-4.39 -23.63,-26.65 -31.22,-35.97 -42.25,-51.86 -73.49,-106.99 -125.99,-134.77 -79.47,-42.05 -136.48,-11.26 -223.94,-11.31 -174.18,-0.12 -348.36,-0.01 -522.53,-0.02 -160.27,-0.01 -243.29,-13.5 -335.14,125.42 -7.52,11.41 -17.59,32.12 -25.09,41.14l-118.87 1.85c-19.91,1.49 -22.32,6.51 -30.94,-5.12 -0.27,-0.45 -0.21,-1.96 -0.19,-1.6 0,0.08 4.66,-1.07 0.06,-28.62 -0.88,-5.25 -0.94,-1.17 -0.26,-6.25 0.59,-4.35 3.89,-1.77 3.86,-18.57 -7.76,-11.45 -10.51,-6.57 -14.77,-17.43 -5.33,-13.54 1.33,-13.63 -6.21,-28.97 -20.44,-41.6 -136.78,-34.62 -173.11,-33.64 -39.2,1.07 -85.97,4.43 -121.9,13.88 -21.81,5.74 -26.87,17.8 -33.77,32.54 -10.51,22.42 -33.79,30.22 -5.42,40.39 -8.07,11.35 -26.19,22.89 0.13,31.06 -0.71,0.95 -2.06,0.91 -2.46,2.56 -1.58,6.65 -19.9,10.88 -3.61,29.52l-21.62 5.26 -2.68 39.33c-33.15,13.48 -80.51,7.54 -83.64,50.86 -5.9,81.81 8.77,176.45 -7.72,258.98 -13.63,68.22 -25.2,186.39 -10.94,254.88 9.77,46.93 31.84,52.34 31.56,101.61 -3.08,506.92 12.56,1016.33 -6.3,1522.57 -2,1.78 -3.87,3.88 -5.61,6.23 -17.72,24.02 -22.56,76.46 -23.83,115.61 -1.29,7.57 -1.08,17.04 -1.08,27.72z"/>
   </g>
  </g>
  <polygon class="fil1" points="-0,0 12486.28,0 12486.28,4495.06 -0,4495.06 "/>
 </g>
</svg>
