<?xml version="1.0" encoding="UTF-8"?>
<!DOCTYPE svg PUBLIC "-//W3C//DTD SVG 1.1//EN" "http://www.w3.org/Graphics/SVG/1.1/DTD/svg11.dtd">
<!-- Creator: CorelDRAW -->
<svg xmlns="http://www.w3.org/2000/svg" xml:space="preserve" width="125mm" height="45mm" version="1.1" style="shape-rendering:geometricPrecision; text-rendering:geometricPrecision; image-rendering:optimizeQuality; fill-rule:evenodd; clip-rule:evenodd"
viewBox="0 0 12486.28 4495.06"
 xmlns:xlink="http://www.w3.org/1999/xlink"
 xmlns:xodm="http://www.corel.com/coreldraw/odm/2003">
 <defs>
  <style type="text/css">
   <![CDATA[
    .fil1 {fill:none}
    .fil0 {fill:black}
   ]]>
  </style>
   <clipPath id="id0">
    <path d="M-0 0l12486.28 0 0 4495.06 -12486.28 0 0 -4495.06z"/>
   </clipPath>
 </defs>
 <g id="Camada_x0020_1">
  <metadata id="CorelCorpID_0Corel-Layer"/>
  <g>
  </g>
  <g style="clip-path:url(#id0)">
   <g id="_2379949552576">
    <path class="fil0" d="M10875.88 1188.67c54.55,-17.02 280.84,-9.55 353.8,-9.55 144.17,-0.01 264.12,-31.76 234.31,113.43 -114.7,-2.25 -230.4,1.39 -345.15,-0.37 -200.05,-3.05 -164.66,24.98 -242.96,-103.51zm-280.47 1640.49c0,-57.28 9.16,-106.32 27.59,-147.21 18.37,-40.83 51.34,-86.07 98.82,-135.73 46.76,-49.61 79.13,-91.99 97.15,-127.09 18.02,-35.17 27.03,-71.78 27.03,-110 0,-34.36 -5.59,-58.19 -16.71,-71.58 -11.08,-13.35 -27.39,-20.01 -48.83,-20.01 -43.7,0 -65.55,26.32 -65.55,78.99l0 85.93 -119.51 0 0 -77.89c0,-64.91 16.06,-114.71 48.28,-149.48 32.17,-34.76 78.93,-52.11 140.26,-52.11 61.26,0 108.02,17.35 140.2,52.11 32.21,34.76 48.28,84.57 48.28,149.48 0,48.85 -11.68,96.59 -35.04,143.14 -23.35,46.6 -63.78,100.07 -121.27,160.36 -37.56,39.73 -62.83,71.97 -75.87,96.8 -13.05,24.82 -19.54,51.36 -19.54,79.6l0 17.15 240.24 0 0 114.56 -365.53 0 0 -87.03zm644.86 98.46c-62.07,0 -109.59,-17.55 -142.56,-52.65 -32.92,-35.11 -49.39,-84.78 -49.39,-148.93l0 -421.48c0,-64.16 16.46,-113.76 49.39,-148.88 32.97,-35.15 80.49,-52.71 142.56,-52.71 62.07,0 109.59,17.56 142.56,52.71 32.92,35.11 49.4,84.72 49.4,148.88l0 421.48c0,64.15 -16.47,113.81 -49.4,148.93 -32.97,35.1 -80.49,52.65 -142.56,52.65zm0 -114.5c43.69,0 65.55,-26.33 65.55,-79.05l0 -437.53c0,-52.67 -21.86,-78.99 -65.55,-78.99 -43.69,0 -65.54,26.32 -65.54,78.99l0 437.53c0,52.72 21.85,79.05 65.54,79.05zm277.03 -698.7l126.46 0 0 687.21 208.05 0 0 114.56 -334.51 0 0 -801.78zm-1465.3 1449.44c0,18.36 -0.64,40.32 4.45,71.99 5.08,31.68 15.87,73.07 24.39,108.21 8.54,35.14 14.8,64.04 20.29,89.42 5.49,25.39 10.2,47.25 17.25,67.94 7.05,20.7 16.46,40.23 28.22,60.14 11.75,19.92 25.86,40.23 40.76,59.35 14.89,19.13 30.57,37.1 47.42,49.98 16.85,12.89 34.87,20.7 58.79,26.94 23.9,6.25 53.68,10.94 87.78,16.4 34.09,5.47 72.5,11.72 103.86,15.23 31.35,3.52 55.65,4.3 90.92,5.07 35.27,0.79 81.51,1.56 110.12,0 28.62,-1.56 39.58,-5.46 53.69,-14.05 14.1,-8.59 31.35,-21.87 49.38,-37.48 18.03,-15.62 36.85,-33.59 52.51,-55.06 15.68,-21.49 28.22,-46.48 39.98,-66.78 11.77,-20.31 22.73,-35.92 30.18,-51.93 7.45,-16.01 11.37,-32.41 16.85,-46.08 5.49,-13.66 12.55,-24.59 18.03,-31.64 5.48,-7.02 9.41,-10.15 54.08,-11.71 44.67,-1.56 130.12,-1.56 175.18,-1.17 45.07,0.39 49.77,1.17 58.4,10.93 8.61,9.76 21.16,28.51 34.09,39.84 12.94,11.32 26.26,15.22 62.7,29.28 36.45,14.05 96.01,38.27 130.9,52.32 34.88,14.06 45.07,17.97 52.52,26.56 7.44,8.59 12.14,21.86 18.8,35.14 6.66,13.28 15.29,26.55 30.97,40.61 15.67,14.06 38.41,28.9 56.43,41 18.03,12.11 31.36,21.48 47.43,27.72 16.06,6.25 34.87,9.37 75.64,10.54 40.75,1.18 103.46,0.4 157.93,-4.67 54.47,-5.08 100.72,-14.44 140.3,-25.38 39.59,-10.94 72.51,-23.43 96.01,-45.3 23.52,-21.87 37.62,-53.1 54.54,-115.19 16.92,-62.07 36.65,-155.02 46.5,-213.59 9.87,-58.57 9.87,-82.79 5.56,-105.08 -4.16,-21.56 -12.33,-41.32 -28.07,-63.12l6.55 0c-12.36,-40.04 -9.97,-111.76 -8.44,-157.73 6.61,-168.57 0.83,-350.62 0.95,-520.67 0.23,-341.94 -1.81,-696.77 1.88,-1037.32 0.5,-46.46 -4.89,-78.48 14.18,-117.73 19.88,-40.89 17.09,-67.32 17.14,-114.97 0.13,-131.01 -2.39,-112.34 -27.95,-238.36 -30.03,-147.94 -76.56,-147.61 -214.11,-177.3 -9.84,-2.13 -44.11,-7.96 -51.7,-11.45 -9.54,-4.39 -23.63,-26.65 -31.22,-35.97 -42.25,-51.86 -73.5,-106.99 -125.99,-134.77 -79.47,-42.05 -136.48,-11.26 -223.94,-11.31 -174.18,-0.12 -348.36,-0.01 -522.54,-0.02 -160.26,-0.01 -243.28,-13.5 -335.13,125.42 -7.52,11.41 -17.59,32.12 -25.09,41.14l-118.87 1.85c-19.91,1.49 -22.32,6.51 -30.94,-5.12 -0.28,-0.45 -0.21,-1.96 -0.19,-1.6 0,0.08 4.66,-1.07 0.06,-28.62 -0.88,-5.25 -0.94,-1.17 -0.26,-6.25 0.58,-4.35 3.89,-1.77 3.86,-18.57 -7.76,-11.45 -10.51,-6.57 -14.77,-17.43 -5.33,-13.54 1.33,-13.63 -6.22,-28.97 -20.43,-41.6 -136.77,-34.62 -173.1,-33.64 -39.2,1.07 -85.97,4.43 -121.91,13.88 -21.81,5.74 -26.86,17.8 -33.76,32.54 -10.51,22.42 -33.79,30.22 -5.42,40.39 -8.07,11.35 -26.19,22.89 0.12,31.06 -0.7,0.95 -2.05,0.91 -2.45,2.56 -1.58,6.65 -19.9,10.88 -3.61,29.52l-21.62 5.26 -2.68 39.33c-33.16,13.48 -80.52,7.54 -83.64,50.86 -5.9,81.81 8.77,176.45 -7.72,258.98 -13.63,68.22 -25.2,186.39 -10.95,254.88 9.77,46.93 31.85,52.34 31.56,101.61 -3.07,506.92 12.56,1016.33 -6.29,1522.57 -2,1.78 -3.88,3.88 -5.61,6.23 -17.72,24.02 -22.56,76.46 -23.84,115.61 -1.28,7.57 -1.07,17.04 -1.07,27.72z"/>
   </g>
  </g>
  <polygon class="fil1" points="-0,0 12486.28,0 12486.28,4495.06 -0,4495.06 "/>
 </g>
</svg>
