<?xml version="1.0" encoding="UTF-8"?>
<!DOCTYPE svg PUBLIC "-//W3C//DTD SVG 1.1//EN" "http://www.w3.org/Graphics/SVG/1.1/DTD/svg11.dtd">
<!-- Creator: CorelDRAW -->
<svg xmlns="http://www.w3.org/2000/svg" xml:space="preserve" width="125mm" height="45mm" version="1.1" style="shape-rendering:geometricPrecision; text-rendering:geometricPrecision; image-rendering:optimizeQuality; fill-rule:evenodd; clip-rule:evenodd"
viewBox="0 0 12486.28 4495.06"
 xmlns:xlink="http://www.w3.org/1999/xlink"
 xmlns:xodm="http://www.corel.com/coreldraw/odm/2003">
 <defs>
  <style type="text/css">
   <![CDATA[
    .fil2 {fill:none}
    .fil0 {fill:black}
    .fil1 {fill:#262024}
   ]]>
  </style>
   <clipPath id="id0">
    <path d="M-0 0l12486.28 0 0 4495.06 -12486.28 0 0 -4495.06z"/>
   </clipPath>
 </defs>
 <g id="Camada_x0020_1">
  <metadata id="CorelCorpID_0Corel-Layer"/>
  <g>
  </g>
  <g style="clip-path:url(#id0)">
   <g id="_2389026241456">
    <g>
     <path class="fil0" d="M10068.08 6680.74c48.26,1.4 115.94,3.8 181.44,4.59 65.48,0.8 128.77,0 175.03,-0.8 46.26,-0.8 75.5,-1.6 101.74,-2.6 26.24,-1 49.47,-2.2 66.09,-4.19 16.62,-2 26.64,-4.79 36.65,-10.18 10.01,-5.38 20.03,-13.37 28.44,-22.15 8.41,-8.78 15.21,-18.36 19.82,-31.92 4.61,-13.58 7.02,-31.14 10.83,-78.22 3.81,-47.09 9.01,-123.72 11.62,-162.03 2.6,-38.31 2.6,-38.31 4.8,-54.51 2.2,-16.18 6.6,-48.58 8.81,-96.66 2.2,-48.09 2.2,-111.88 0.8,-183.88 -1.4,-72.02 -4.21,-152.23 -5.8,-192.93 -1.61,-40.71 -2.01,-41.9 -3.21,-42.7 -1.2,-0.81 -3.21,-1.2 -4.6,-6.27 -1.41,-5.08 -2.21,-14.83 -3.22,-29 -0.99,-14.16 -2.19,-32.75 -2.39,-43.44 -0.2,-10.69 0.6,-13.48 3.39,-16.47 2.81,-3 7.62,-6.18 9.83,-13.17 2.2,-6.98 1.79,-17.76 -1.21,-38.32 -3,-20.55 -8.61,-50.88 -14.41,-73.43 -5.8,-22.55 -11.82,-37.32 -19.63,-50.68 -7.81,-13.37 -17.43,-25.34 -31.65,-38.91 -14.21,-13.57 -33.04,-28.74 -47.46,-40.92 -14.42,-12.17 -24.43,-21.35 -29.84,-26.93 -5.41,-5.59 -6.21,-7.58 -9.02,-23.94 -2.8,-16.36 -7.6,-47.09 -12.42,-75.63 -4.81,-28.54 -9.61,-54.88 -12.02,-69.24 -2.41,-14.36 -2.41,-16.76 -2.21,-22.15 0.21,-5.39 0.6,-13.77 0.81,-17.96 0.2,-4.2 0.2,-4.2 4.8,-5.18 4.6,-1 13.82,-3 19.43,-5.39 5.6,-2.39 7.61,-5.18 8.41,-8.98 0.8,-3.79 0.4,-8.58 -1,-11.77 -1.41,-3.2 -3.81,-4.79 -6.41,-5.98 -2.61,-1.2 -5.4,-2 -7.01,-3.8 -1.6,-1.8 -2.01,-4.58 -2.21,-7.18 -0.19,-2.6 -0.19,-4.99 0.61,-7.59 0.8,-2.6 2.41,-5.37 3.81,-9.98 1.4,-4.58 2.61,-10.97 3.61,-20.55 1,-9.58 1.8,-22.35 2.41,-44.9 0.6,-22.55 1,-54.87 1.2,-72.82 0.2,-17.97 0.2,-21.57 -3.21,-27.35 -3.41,-5.78 -10.21,-13.76 -22.43,-20.75 -12.23,-6.98 -29.85,-12.98 -58.69,-18.16 -28.84,-5.18 -68.89,-9.58 -109.95,-11.97 -41.05,-2.4 -83.11,-2.8 -122.36,-1 -39.26,1.79 -75.71,5.78 -99.54,9.37 -23.83,3.6 -35.04,6.79 -43.85,11.38 -8.81,4.58 -15.22,10.58 -19.03,16.16 -3.81,5.58 -5,10.78 -5.81,24.14 -0.79,13.37 -1.2,34.93 -1.2,57.28 0,22.35 0.41,45.49 1.41,58.66 1,13.18 2.6,16.36 3.41,20.16 0.8,3.79 0.8,8.18 2.2,10.58 1.4,2.39 4.21,2.79 5.6,6.19 1.41,3.38 1.41,9.77 1.21,13.96 -0.2,4.18 -0.6,6.18 -3.61,8.18 -3.01,2 -8.61,3.99 -11.82,6.78 -3.21,2.8 -4.01,6.38 -3.41,10.18 0.6,3.79 2.61,7.78 5,10.37 2.41,2.6 5.21,3.8 10.62,5.39 5.4,1.6 13.42,3.59 17.42,5.58 4.01,2 4.01,4 3.81,10.58 -0.2,6.58 -0.6,17.76 -4.8,38.91 -4.21,21.15 -12.22,52.28 -17.22,72.64 -5,20.35 -7.01,29.93 -8.02,35.51 -0.99,5.58 -0.99,7.18 -11.62,14.56 -10.61,7.38 -31.84,20.56 -49.47,33.52 -17.62,12.98 -31.64,25.74 -44.45,39.91 -12.82,14.16 -24.43,29.73 -34.04,43.11 -9.61,13.37 -17.22,24.54 -22.44,37.71 -5.2,13.17 -8,28.33 -9.21,42.7 -1.2,14.36 -0.8,27.93 1.61,40.3 2.4,12.38 6.8,23.55 14.61,37.53 7.81,13.96 19.03,30.73 25.63,40.51 6.61,9.77 8.61,12.57 10.02,15.36 1.4,2.79 2.2,5.58 0.8,8.58 -1.41,2.99 -5,6.18 -5.81,9.57 -0.8,3.4 1.21,6.99 2.81,9.98 1.6,3 2.81,5.38 2.61,8.58 -0.2,3.2 -1.81,7.18 -4.8,11.49 -3.01,4.31 -7.41,8.92 -7.01,11.23 0.4,2.3 5.6,2.3 7.61,5.18 2,2.89 0.8,8.64 -2.01,12.93 -2.8,4.28 -7.2,7.06 -8.41,11.06 -1.2,4 0.8,9.18 3.41,12.38 2.61,3.2 5.8,4.39 4.8,7.18 -1,2.8 -6.2,7.18 -9.41,10.98 -3.21,3.79 -4.41,6.98 -3.01,9.57 1.41,2.6 5.41,4.59 7.01,8.38 1.6,3.8 0.8,9.38 -2.01,13.58 -2.8,4.19 -7.6,6.98 -9.81,9.97 -2.2,3 -1.8,6.19 1.4,8.78 3.21,2.6 9.22,4.59 9.02,8.58 -0.2,4 -6.61,9.98 -10.22,14.36 -3.61,4.4 -4.41,7.19 -2.2,9.98 2.2,2.8 7.4,5.58 9.01,9.58 1.6,3.99 -0.4,9.18 -3.21,12.97 -2.81,3.8 -6.41,6.19 -7.21,9.18 -0.8,3 1.21,6.58 3.81,9.19 2.61,2.6 5.81,4.19 3.81,9.38 -2,5.18 -9.21,13.96 -10.21,19.95 -1.01,5.99 4.21,9.18 6.8,12.18 2.61,2.99 2.61,5.78 0,8.58 -2.6,2.79 -7.81,5.58 -9.61,9.18 -1.8,3.59 -0.2,7.98 2.21,11.77 2.4,3.8 5.6,6.98 5.6,10.18 0,3.19 -3.21,6.38 -6.01,9.58 -2.8,3.19 -5.2,6.38 -4.81,9.77 0.41,3.4 3.62,6.98 5.81,10.18 2.21,3.2 3.41,5.98 2.41,8.38 -1,2.4 -4.21,4.39 -6.6,7.38 -2.41,3 -4.01,6.98 -3.41,10.78 0.6,3.79 3.41,7.38 5.6,9.78 2.21,2.4 3.81,3.59 3.41,5.78 -0.4,2.2 -2.81,5.39 -5.4,8.78 -2.61,3.39 -5.41,6.99 -5,10.18 0.4,3.2 4,5.99 6.6,9.57 2.61,3.61 4.21,7.99 2.61,11.59 -1.61,3.59 -6.41,6.38 -8.21,10.97 -1.81,4.59 -0.6,10.98 1.59,14.96 2.22,4 5.41,5.59 6.62,8.38 1.2,2.8 0.4,6.78 -2.01,8.98 -2.4,2.2 -6.4,2.6 -7.61,4.99 -1.2,2.39 0.41,6.78 2.61,10.57 2.21,3.8 5,6.98 6.21,9.58 1.2,2.6 0.8,4.58 -1.42,8.35 -2.19,3.77 -6.19,9.29 -7.4,12.06 -1.2,2.76 0.41,2.76 2.81,5.37 2.41,2.64 5.6,7.88 5.2,12.51 -0.4,4.61 -4.41,8.6 -6.21,12.8 -1.8,4.2 -1.39,8.58 0.21,11.78 1.6,3.2 4.41,5.18 5.8,7.78 1.41,2.6 1.41,5.78 0,7.98 -1.4,2.2 -4.21,3.4 -6.2,6.18 -2.01,2.8 -3.21,7.18 -2.01,10.58 1.21,3.4 4.8,5.78 8.21,9.78 3.41,3.99 6.61,9.58 7.21,12.37 0.6,2.8 -1.4,2.8 -4.21,2.8 -2.81,0 -6.41,0 -8.41,2.8 -2,2.79 -2.41,8.37 -0.4,11.77 2,3.4 6.4,4.58 8.41,6.78 2,2.2 1.6,5.39 0.2,15.96 -1.4,10.58 -3.81,28.54 -6.21,44.1 -2.4,15.57 -4.8,28.74 -6.2,47.5 -1.4,18.75 -1.8,43.09 -2.21,64.64 -0.4,21.56 -0.8,40.31 -1,56.07 -0.2,15.77 -0.2,28.55 2.41,40.32 2.6,11.78 7.81,22.55 16.62,31.33 8.81,8.78 21.23,15.56 41.85,19.16 20.63,3.6 49.46,3.99 97.73,5.38zm-22.81 -626.77c0,-25.03 3.73,-46.47 11.17,-64.33 7.46,-17.85 20.81,-37.62 40.05,-59.3 18.93,-21.7 32.04,-40.22 39.34,-55.56 7.29,-15.34 10.95,-31.38 10.95,-48.05 0,-15.02 -2.25,-25.44 -6.75,-31.29 -4.51,-5.84 -11.1,-8.76 -19.79,-8.76 -17.69,0 -26.54,11.51 -26.54,34.54l0 37.54 -48.42 0 0 -34.04c0,-28.36 6.52,-50.13 19.56,-65.32 13.04,-15.18 31.96,-22.77 56.8,-22.77 24.83,0 43.76,7.59 56.8,22.77 13.04,15.18 19.55,36.96 19.55,65.32 0,21.36 -4.72,42.21 -14.19,62.57 -9.47,20.36 -25.84,43.7 -49.12,70.07 -15.21,17.35 -25.45,31.45 -30.74,42.29 -5.27,10.85 -7.91,22.45 -7.91,34.79l0 7.5 97.31 0 0 50.04 -148.06 0 0 -38.03zm261.18 43.04c-25.14,0 -44.38,-7.67 -57.73,-23.02 -13.35,-15.35 -20.02,-37.04 -20.02,-65.07l0 -184.2c0,-28.02 6.67,-49.72 20.02,-65.07 13.35,-15.35 32.58,-23.02 57.73,-23.02 25.14,0 44.38,7.67 57.74,23.02 13.35,15.35 20.02,37.05 20.02,65.07l0 184.2c0,28.03 -6.67,49.72 -20.02,65.07 -13.36,15.35 -32.59,23.02 -57.74,23.02zm0 -50.05c17.69,0 26.54,-11.52 26.54,-34.53l0 -191.2c0,-23.03 -8.85,-34.54 -26.54,-34.54 -17.69,0 -26.53,11.51 -26.53,34.54l0 191.2c0,23.01 8.84,34.53 26.53,34.53zm186.23 50.05c-25.14,0 -44.38,-7.67 -57.73,-23.02 -13.35,-15.35 -20.02,-37.04 -20.02,-65.07l0 -184.2c0,-28.02 6.67,-49.72 20.02,-65.07 13.35,-15.35 32.58,-23.02 57.73,-23.02 25.14,0 44.39,7.67 57.74,23.02 13.35,15.35 20.02,37.05 20.02,65.07l0 184.2c0,28.03 -6.67,49.72 -20.02,65.07 -13.35,15.35 -32.59,23.02 -57.74,23.02zm0 -50.05c17.7,0 26.55,-11.52 26.55,-34.53l0 -191.2c0,-23.03 -8.85,-34.54 -26.55,-34.54 -17.68,0 -26.53,11.51 -26.53,34.54l0 191.2c0,23.01 8.85,34.53 26.53,34.53z"/>
     <path class="fil0" d="M11560.07 6683.51c44.68,0.31 119.31,2.14 186.79,2.14 67.48,0 127.83,-1.83 180.33,-3.21 52.52,-1.38 97.19,-2.3 129.21,-3.21 32.01,-0.92 51.36,-1.85 67.72,-4.14 16.35,-2.3 29.71,-5.96 41.91,-14.68 12.22,-8.73 23.26,-22.5 32.01,-37.42 8.76,-14.9 15.2,-30.97 20.05,-67.01 4.83,-36.02 8.05,-92.02 10.82,-142.04 2.77,-50.03 5.07,-94.09 7.83,-117.72 2.77,-23.64 5.98,-26.86 8.06,-57.15 2.08,-30.3 3,-87.66 3.69,-144.57 0.7,-56.91 1.15,-113.37 -0.69,-185.23 -1.85,-71.87 -5.99,-159.15 -9.21,-205.5 -3.23,-46.35 -5.52,-51.79 -7.14,-61.62 -1.62,-9.83 -2.54,-24.06 -3.92,-43.57 -1.39,-19.5 -3.23,-44.28 -1.39,-58.97 1.85,-14.69 7.37,-19.29 7.6,-41.77 0.24,-22.49 -4.83,-62.87 -8.52,-89.73 -3.69,-26.84 -5.98,-40.16 -11.52,-54.84 -5.52,-14.69 -14.27,-30.76 -28.79,-47.96 -14.5,-17.22 -34.77,-35.57 -60.34,-56 -25.56,-20.43 -56.42,-42.92 -75.78,-56.46 -19.34,-13.55 -27.17,-18.12 -32.46,-23.4 -5.3,-5.28 -8.07,-11.25 -11.76,-24.33 -3.69,-13.08 -8.29,-33.26 -13.81,-62.19 -5.52,-28.91 -11.98,-66.54 -15.66,-88.57 -3.68,-22.04 -4.6,-28.46 -4.83,-38.1 -0.23,-9.64 0.24,-22.49 0.46,-29.14 0.23,-6.66 0.23,-7.12 4.83,-8.49 4.6,-1.38 13.82,-3.68 19.12,-7.12 5.29,-3.44 6.68,-8.02 5.76,-11.93 -0.92,-3.91 -4.16,-7.11 -6.68,-9.64 -2.54,-2.53 -4.38,-4.37 -5.3,-6.43 -0.92,-2.06 -0.92,-4.35 0,-7.57 0.93,-3.21 2.77,-7.33 4.61,-13.99 1.85,-6.65 3.69,-15.83 4.15,-38.78 0.46,-22.95 -0.46,-59.67 -2.3,-80.78 -1.85,-21.12 -4.61,-26.62 -8.3,-30.99 -3.69,-4.36 -8.29,-7.57 -16.82,-11.93 -8.52,-4.37 -20.95,-9.87 -40.99,-14 -20.04,-4.13 -47.67,-6.88 -80.6,-8.95 -32.94,-2.07 -71.17,-3.44 -105.49,-2.99 -34.31,0.47 -64.72,2.76 -89.13,5.74 -24.41,2.99 -42.83,6.66 -55.28,11.48 -12.43,4.81 -18.88,10.78 -22.57,17.66 -3.69,6.89 -4.6,14.69 -4.6,34.66 0,19.97 0.92,52.09 1.38,72.05 0.46,19.97 0.46,27.78 1.61,34.66 1.16,6.88 3.46,12.85 5.53,17.21 2.08,4.36 3.92,7.11 0.69,10.56 -3.22,3.44 -11.51,7.56 -15.19,11.93 -3.69,4.37 -2.77,8.95 3.22,13.32 5.99,4.36 17.04,8.49 23.03,11.01 5.98,2.52 6.9,3.45 6.21,13.55 -0.69,10.09 -3,29.37 -6.91,57.37 -3.91,28 -9.44,64.71 -13.59,85.83 -4.15,21.12 -6.91,26.62 -17.73,35.34 -10.83,8.72 -29.72,20.66 -49.99,35.11 -20.26,14.45 -41.91,31.44 -64.48,51.86 -22.58,20.43 -46.07,44.29 -65.42,66.55 -19.35,22.27 -34.55,42.92 -44.45,66.1 -9.91,23.17 -14.51,48.89 -15.65,69.76 -1.16,20.89 1.14,36.95 6.66,53.01 5.54,16.06 14.28,32.12 20.74,43.14 6.44,11.02 10.6,16.97 11.28,21.8 0.7,4.82 -2.07,8.49 -1.61,12.63 0.47,4.13 4.16,8.72 4.16,14.22 0,5.51 -3.69,11.94 -6.45,16.75 -2.77,4.82 -4.6,8.03 -3.92,11.94 0.69,3.9 3.92,8.49 5.53,11.71 1.61,3.21 1.61,5.04 -0.93,8.03 -2.54,2.98 -7.6,7.1 -9.44,11.7 -1.84,4.59 -0.47,9.64 1.61,14.46 2.08,4.81 4.83,9.41 4.15,13.31 -0.7,3.9 -4.83,7.12 -7.83,12.82 -3,5.7 -4.83,13.89 -3.45,17.99 1.38,4.1 5.98,4.1 8.05,6.65 2.08,2.57 1.61,7.68 -1.61,11.62 -3.23,3.94 -9.21,6.69 -11.75,10.82 -2.54,4.14 -1.61,9.64 1.39,13.32 3,3.68 8.05,5.5 7.36,9.41 -0.69,3.9 -7.13,9.86 -10.13,15.36 -3,5.52 -2.54,10.56 -0.92,14 1.61,3.45 4.38,5.28 3.22,10.79 -1.15,5.5 -6.21,14.69 -8.52,20.43 -2.3,5.73 -1.85,8.03 1.15,10.33 3,2.3 8.53,4.58 9.68,8.02 1.16,3.45 -2.08,8.04 -5.29,12.17 -3.23,4.14 -6.46,7.8 -6.91,11.94 -0.47,4.13 1.84,8.72 3.92,12.39 2.08,3.68 3.92,6.43 3.22,10.33 -0.69,3.91 -3.92,8.95 -6.9,13.32 -3,4.36 -5.75,8.03 -5.99,11.7 -0.23,3.68 2.08,7.35 4.61,10.1 2.53,2.76 5.29,4.58 4.83,7.57 -0.47,2.99 -4.16,7.12 -7.6,10.79 -3.46,3.67 -6.68,6.89 -6.45,11.24 0.24,4.37 3.92,9.87 7.6,13.55 3.69,3.68 7.37,5.5 7.14,8.03 -0.23,2.53 -4.38,5.73 -7.37,8.27 -3,2.52 -4.83,4.35 -5.99,8.26 -1.14,3.9 -1.61,9.87 0.47,13.99 2.07,4.14 6.67,6.42 9.21,8.49 2.53,2.07 3,3.9 0.69,6.42 -2.3,2.53 -7.37,5.73 -10.83,9.18 -3.45,3.45 -5.28,7.11 -3.68,11.48 1.61,4.36 6.68,9.4 9.9,12.63 3.23,3.21 4.6,4.58 2.54,7.79 -2.08,3.22 -7.6,8.27 -10.14,13.77 -2.54,5.5 -2.07,11.47 0.7,16.29 2.76,4.81 7.82,8.49 8.28,11.48 0.46,2.99 -3.68,5.27 -7.36,8.95 -3.69,3.67 -6.91,8.72 -5.99,13.76 0.92,5.04 5.99,10.1 9.44,13.99 3.46,3.91 5.29,6.66 3.46,9.42 -1.84,2.75 -7.37,5.5 -10.13,9.87 -2.77,4.35 -2.77,10.32 -0.69,14.9 2.08,4.59 6.21,7.81 8.29,12.17 2.07,4.36 2.07,9.87 -0.46,12.4 -2.54,2.52 -7.6,2.06 -9.22,6.19 -1.61,4.13 0.23,12.86 4.6,17.89 4.39,5.05 11.29,6.43 10.8,8.96 -0.48,2.53 -8.37,6.19 -12.32,11.93 -3.94,5.73 -3.94,13.55 -0.69,18.6 3.26,5.04 9.76,7.33 12.56,9.86 2.78,2.53 1.86,5.28 -1.39,7.8 -3.25,2.53 -8.84,4.82 -11.63,9.41 -2.79,4.58 -2.79,11.48 0.46,16.52 3.26,5.05 9.76,8.26 9.76,11.71 0,3.45 -6.5,7.11 -9.76,11.48 -3.25,4.36 -3.25,9.41 -3.25,13.99 0,4.58 0,8.72 3.02,11.02 3.03,2.3 9.07,2.75 9.07,7.11 0,4.37 -6.04,12.63 -6.51,21.12 -0.45,8.49 4.66,17.2 4.66,36.26 0,19.04 -5.11,48.41 -7.67,87.42 -2.57,39.02 -2.57,87.67 0.22,121.4 2.79,33.74 8.38,52.55 17.15,66.1 8.79,13.54 20.76,21.8 47.25,28.38 26.48,6.58 67.49,11.47 95.35,13.31 27.87,1.84 42.61,0.61 87.29,0.92zm-6.42 -581.77c-29.95,0 -52.79,-9.16 -68.5,-27.47 -15.72,-18.31 -23.58,-44.56 -23.58,-78.77l0 -33.19 58.39 0 0 38.03c0,27.36 10.68,41.03 32,41.03 21.35,0 32,-13.67 32,-41.03l0 -94.77c0,-27.78 -10.66,-41.66 -32,-41.66 -21.33,0 -32,13.88 -32,41.66l0 3.62 -58.39 0 11.23 -236.02 162.83 0 0 60.36 -107.8 0 -5.05 100.81 1.12 0c11.61,-20.53 29.38,-30.79 53.34,-30.79 22.47,0 39.5,8.24 51.09,24.74 11.61,16.5 17.41,40.45 17.41,71.83l0 95.38c0,34.21 -7.86,60.46 -23.58,78.77 -15.72,18.31 -38.56,27.47 -68.49,27.47zm223.46 0c-30.32,0 -53.53,-9.26 -69.62,-27.78 -16.1,-18.51 -24.15,-44.66 -24.15,-78.46l0 -222.14c0,-33.8 8.05,-59.95 24.15,-78.47 16.09,-18.51 39.31,-27.76 69.62,-27.76 30.31,0 53.52,9.25 69.61,27.76 16.1,18.52 24.15,44.67 24.15,78.47l0 222.14c0,33.8 -8.05,59.95 -24.15,78.46 -16.09,18.52 -39.31,27.78 -69.61,27.78zm0 -60.37c21.33,0 32,-13.87 32,-41.64l0 -230.59c0,-27.77 -10.68,-41.65 -32,-41.65 -21.34,0 -32,13.88 -32,41.65l0 230.59c0,27.77 10.67,41.64 32,41.64zm224.58 60.37c-30.32,0 -53.53,-9.26 -69.62,-27.78 -16.09,-18.51 -24.13,-44.66 -24.13,-78.46l0 -222.14c0,-33.8 8.04,-59.95 24.13,-78.47 16.09,-18.51 39.31,-27.76 69.62,-27.76 30.33,0 53.53,9.25 69.63,27.76 16.09,18.52 24.13,44.67 24.13,78.47l0 222.14c0,33.8 -8.04,59.95 -24.13,78.46 -16.1,18.52 -39.31,27.78 -69.63,27.78zm0 -60.37c21.34,0 32,-13.87 32,-41.64l0 -230.59c0,-27.77 -10.67,-41.65 -32,-41.65 -21.34,0 -32,13.88 -32,41.65l0 230.59c0,27.77 10.67,41.64 32,41.64z"/>
    </g>
    <path class="fil0" d="M7100.62 1268.31l-0.68 52.51c-23.17,14.27 -29.15,13.45 -39.45,38.56 -30.76,64.23 -15.07,181.93 -15.85,256.25 -0.36,34.36 -13.23,43.13 6.6,78.22l76.31 6.1 130.2 2353.76c641.68,156.48 1283.35,164.15 1925.03,0l91.36 -2365.12c4.9,-3.02 -2.16,-0.19 8.8,-3.85 44.04,-14.71 88.73,10.71 72.55,-60.8l-15.45 -143.51c-4.98,-59.89 7.79,-113.73 -16.33,-149.61 -31.02,-46.14 -37.16,27.47 -35.92,-107.63 0.53,-58.96 -7.14,-70.94 27.18,-77.06 67.9,-12.1 62.32,-10.05 43.63,-126.52 -16.62,-103.62 1.63,-131.89 -45.25,-154.96 -329.22,-162.02 -2254.76,-149.68 -2279.95,123.81 -14.36,155.78 8.86,83.8 16.03,130.51 -10.51,7.04 -21.13,9.06 -16.22,22.49 7.02,10.67 -3.4,3.38 12.8,7.18 3.59,0.85 13.84,1.35 18.45,1.95 9.95,1.29 27.84,4.07 28.59,9.09l3.07 5.67c6.79,17.2 4.59,83.44 4.52,102.95zm571.07 1042.68l-97.26 0 0 -65.97c26.5,0 47.79,-2.26 63.86,-6.77 16.06,-4.51 28.9,-11.98 38.48,-22.41 9.59,-10.43 18.04,-25.51 25.37,-45.25l62.58 0 0 592.02 -93.03 0 0 -451.62zm342.52 460.08c-46.8,0 -82.74,-12.55 -107.83,-37.64 -25.08,-25.09 -37.63,-61.31 -37.63,-108.68l0 -52.43c0,-29.32 4.78,-53.99 14.37,-74 9.59,-20.02 25.09,-35.67 46.52,-46.94l0 -1.7c-19.74,-10.71 -34.25,-25.51 -43.56,-44.4 -9.3,-18.89 -13.95,-42.99 -13.95,-72.31l0 -24.52c0,-47.37 12.27,-83.59 36.79,-108.68 24.53,-25.09 59.62,-37.64 105.29,-37.64 45.67,0 80.77,12.55 105.29,37.64 24.53,25.09 36.79,61.31 36.79,108.68l0 24.52c0,56.39 -19.17,95.29 -57.51,116.71l0 1.7c21.43,11.27 36.93,26.92 46.52,46.94 9.58,20.01 14.37,44.68 14.37,74l0 52.43c0,47.37 -12.55,83.59 -37.64,108.68 -25.08,25.09 -61.03,37.64 -107.83,37.64zm0 -359.44c32.7,0 49.06,-19.73 49.06,-59.19l0 -46.52c0,-39.47 -16.35,-59.2 -49.06,-59.2 -32.69,0 -49.05,19.74 -49.05,59.2l0 46.52c0,39.47 16.35,59.19 49.05,59.19zm0 274.87c34.96,0 52.44,-22.28 52.44,-66.82l0 -56.66c0,-44.55 -17.48,-66.82 -52.44,-66.82 -34.95,0 -52.43,22.27 -52.43,66.82l0 56.66c0,44.54 17.48,66.82 52.43,66.82zm203.83 -515.9l93.04 0 0 249.5 118.4 -249.5 93.03 0 -110.79 217.36 112.49 374.66 -97.26 0 -78.65 -263.87 -37.21 75.27 0 188.6 -93.04 0 0 -592.02zm468.53 600.48c-45.1,0 -79.49,-12.83 -103.18,-38.49 -23.68,-25.65 -35.52,-62.44 -35.52,-110.37l0 -311.23c0,-47.93 11.84,-84.72 35.52,-110.37 23.68,-25.65 58.08,-38.49 103.18,-38.49 45.11,0 79.5,12.84 103.19,38.49 23.67,25.65 35.52,62.44 35.52,110.37l0 50.74 -87.96 0 0 -56.67c0,-38.91 -16.06,-58.36 -48.21,-58.36 -32.13,0 -48.21,19.45 -48.21,58.36l0 323.92c0,38.34 16.07,57.51 48.21,57.51 32.14,0 48.21,-19.17 48.21,-57.51l0 -115.87 -46.51 0 0 -84.57 134.47 0 0 193.67c0,47.93 -11.85,84.72 -35.52,110.37 -23.68,25.66 -58.08,38.49 -103.19,38.49z"/>
    <path class="fil0" d="M4683.24 1558.9l-0.61 47.26c-20.86,12.86 -26.23,12.11 -35.5,34.7 -27.68,57.82 -13.57,163.74 -14.27,230.63 -0.32,30.93 -11.9,38.82 5.94,70.4l68.67 5.49 117.18 2118.39c577.52,140.83 1155.01,147.74 1732.53,0l82.23 -2128.61c4.42,-2.72 -1.95,-0.17 7.92,-3.47 39.64,-13.24 79.85,9.64 65.29,-54.72l-13.9 -129.16c-4.49,-53.91 7.01,-102.37 -14.69,-134.65 -27.92,-41.52 -33.44,24.72 -32.33,-96.86 0.48,-53.06 -6.42,-63.85 24.46,-69.35 61.1,-10.89 56.09,-9.04 39.27,-113.86 -14.95,-93.26 1.47,-118.7 -40.73,-139.47 -296.29,-145.82 -2029.28,-134.71 -2051.95,111.44 -12.93,140.2 7.97,75.42 14.42,117.45 -9.45,6.34 -19.01,8.15 -14.59,20.24 6.32,9.6 -3.06,3.04 11.52,6.46 3.23,0.77 12.46,1.22 16.6,1.76 8.95,1.16 25.05,3.66 25.73,8.18l2.76 5.1c6.11,15.48 4.14,75.09 4.07,92.65zm461.14 922.86l-97.26 0 0 -65.97c26.5,0 47.79,-2.26 63.86,-6.77 16.06,-4.51 28.9,-11.98 38.48,-22.41 9.59,-10.43 18.04,-25.51 25.37,-45.25l62.58 0 0 592.02 -93.03 0 0 -451.62zm342.52 460.08c-45.67,0 -80.62,-12.98 -104.86,-38.91 -24.24,-25.93 -36.37,-62.58 -36.37,-109.95l0 -311.23c0,-47.37 12.13,-84.01 36.37,-109.95 24.24,-25.93 59.19,-38.91 104.86,-38.91 45.67,0 80.63,12.98 104.87,38.91 24.24,25.94 36.37,62.58 36.37,109.95l0 311.23c0,47.37 -12.13,84.02 -36.37,109.95 -24.24,25.93 -59.2,38.91 -104.87,38.91zm0 -84.58c32.14,0 48.21,-19.45 48.21,-58.36l0 -323.07c0,-38.91 -16.06,-58.36 -48.21,-58.36 -32.13,0 -48.21,19.45 -48.21,58.36l0 323.07c0,38.91 16.07,58.36 48.21,58.36zm203.83 -515.9l93.04 0 0 249.5 118.4 -249.5 93.03 0 -110.79 217.36 112.49 374.66 -97.26 0 -78.65 -263.87 -37.21 75.27 0 188.6 -93.04 0 0 -592.02zm468.53 600.48c-45.1,0 -79.49,-12.83 -103.18,-38.49 -23.68,-25.65 -35.52,-62.44 -35.52,-110.37l0 -311.23c0,-47.93 11.84,-84.72 35.52,-110.37 23.68,-25.65 58.08,-38.49 103.18,-38.49 45.11,0 79.5,12.84 103.19,38.49 23.67,25.65 35.52,62.44 35.52,110.37l0 50.74 -87.96 0 0 -56.67c0,-38.91 -16.06,-58.36 -48.21,-58.36 -32.13,0 -48.21,19.45 -48.21,58.36l0 323.92c0,38.34 16.07,57.51 48.21,57.51 32.14,0 48.21,-19.17 48.21,-57.51l0 -115.87 -46.51 0 0 -84.57 134.47 0 0 193.67c0,47.93 -11.85,84.72 -35.52,110.37 -23.68,25.66 -58.08,38.49 -103.19,38.49z"/>
    <path class="fil0" d="M2500.06 2029.73l-0.54 38.75c-18.54,10.54 -23.31,9.93 -31.56,28.46 -24.6,47.4 -12.06,134.25 -12.69,189.1 -0.29,25.36 -10.58,31.83 5.28,57.73l61.04 4.51 104.16 1736.99c513.36,115.47 1026.68,121.14 1540.03,0l73.09 -1745.37c3.93,-2.23 -1.73,-0.14 7.04,-2.84 35.23,-10.86 70.98,7.9 58.04,-44.87l-12.36 -105.91c-3.99,-44.19 6.23,-83.93 -13.07,-110.4 -24.81,-34.05 -29.73,20.27 -28.74,-79.43 0.42,-43.5 -5.71,-52.35 21.75,-56.86 54.31,-8.93 49.86,-7.42 34.9,-93.37 -13.3,-76.47 1.31,-97.33 -36.2,-114.35 -263.37,-119.57 -1803.81,-110.46 -1823.97,91.37 -11.49,114.95 7.09,61.83 12.83,96.3 -8.4,5.19 -16.9,6.68 -12.98,16.59 5.62,7.87 -2.72,2.5 10.24,5.3 2.87,0.63 11.08,1 14.76,1.44 7.95,0.95 22.27,3 22.86,6.7l2.46 4.2c5.43,12.69 3.68,61.57 3.61,75.97zm520.38 728.68l-97.26 0 0 -65.97c26.5,0 47.79,-2.26 63.86,-6.77 16.06,-4.51 28.9,-11.98 38.48,-22.41 9.59,-10.43 18.04,-25.51 25.37,-45.25l62.58 0 0 592.02 -93.03 0 0 -451.62zm208.05 -140.4l93.04 0 0 249.5 118.4 -249.5 93.03 0 -110.79 217.36 112.49 374.66 -97.26 0 -78.65 -263.87 -37.21 75.27 0 188.6 -93.04 0 0 -592.02zm468.53 600.48c-45.1,0 -79.49,-12.83 -103.18,-38.49 -23.68,-25.65 -35.52,-62.44 -35.52,-110.37l0 -311.23c0,-47.93 11.84,-84.72 35.52,-110.37 23.68,-25.65 58.08,-38.49 103.18,-38.49 45.11,0 79.5,12.84 103.19,38.49 23.67,25.65 35.52,62.44 35.52,110.37l0 50.74 -87.96 0 0 -56.67c0,-38.91 -16.06,-58.36 -48.21,-58.36 -32.13,0 -48.21,19.45 -48.21,58.36l0 323.92c0,38.34 16.07,57.51 48.21,57.51 32.14,0 48.21,-19.17 48.21,-57.51l0 -115.87 -46.51 0 0 -84.57 134.47 0 0 193.67c0,47.93 -11.85,84.72 -35.52,110.37 -23.68,25.66 -58.08,38.49 -103.19,38.49z"/>
    <path class="fil0" d="M551.11 2721.15l-0.48 26.25c-16.22,7.14 -20.4,6.72 -27.61,19.28 -21.53,32.12 -10.55,90.97 -11.1,128.13 -0.25,17.18 -9.26,21.57 4.62,39.12l53.41 3.05 91.14 1176.9c449.18,78.24 898.34,82.08 1347.52,0l63.96 -1182.57c3.43,-1.51 -1.52,-0.1 6.15,-1.93 30.84,-7.35 62.11,5.35 50.78,-30.4l-10.82 -71.76c-3.49,-29.95 5.45,-56.87 -11.43,-74.81 -21.72,-23.06 -26.01,13.73 -25.14,-53.81 0.37,-29.48 -5,-35.47 19.02,-38.53 47.53,-6.05 43.63,-5.02 30.55,-63.26 -11.64,-51.81 1.14,-65.95 -31.68,-77.48 -230.46,-81.01 -1578.34,-74.84 -1595.97,61.91 -10.06,77.88 6.2,41.89 11.22,65.25 -7.35,3.53 -14.78,4.54 -11.35,11.25 4.91,5.33 -2.38,1.69 8.95,3.59 2.52,0.43 9.69,0.68 12.92,0.98 6.96,0.64 19.49,2.03 20.02,4.55l2.14 2.84c4.75,8.6 3.22,41.71 3.17,51.47zm321.61 903.63c-45.11,0 -79.5,-12.83 -103.19,-38.49 -23.67,-25.65 -35.52,-62.44 -35.52,-110.37l0 -46.51 87.96 0 0 53.28c0,38.34 16.06,57.51 48.21,57.51 32.13,0 48.21,-19.17 48.21,-57.51l0 -132.78c0,-38.91 -16.07,-58.36 -48.21,-58.36 -32.14,0 -48.21,19.45 -48.21,58.36l0 5.07 -87.96 0 16.92 -330.69 245.26 0 0 84.58 -162.38 0 -7.61 141.23 1.69 0c17.48,-28.75 44.26,-43.13 80.35,-43.13 33.82,0 59.48,11.56 76.96,34.68 17.48,23.11 26.22,56.66 26.22,100.64l0 133.62c0,47.93 -11.84,84.72 -35.52,110.37 -23.68,25.66 -58.08,38.49 -103.18,38.49zm298.28 0c-45.67,0 -80.62,-12.98 -104.86,-38.91 -24.24,-25.93 -36.37,-62.58 -36.37,-109.95l0 -311.23c0,-47.37 12.13,-84.01 36.37,-109.95 24.24,-25.93 59.19,-38.91 104.86,-38.91 45.67,0 80.63,12.98 104.87,38.91 24.24,25.94 36.37,62.58 36.37,109.95l0 311.23c0,47.37 -12.13,84.02 -36.37,109.95 -24.24,25.93 -59.2,38.91 -104.87,38.91zm0 -84.58c32.14,0 48.21,-19.45 48.21,-58.36l0 -323.07c0,-38.91 -16.06,-58.36 -48.21,-58.36 -32.13,0 -48.21,19.45 -48.21,58.36l0 323.07c0,38.91 16.07,58.36 48.21,58.36zm299.98 84.58c-45.67,0 -80.62,-12.98 -104.86,-38.91 -24.24,-25.93 -36.37,-62.58 -36.37,-109.95l0 -311.23c0,-47.37 12.13,-84.01 36.37,-109.95 24.24,-25.93 59.19,-38.91 104.86,-38.91 45.67,0 80.63,12.98 104.87,38.91 24.24,25.94 36.37,62.58 36.37,109.95l0 311.23c0,47.37 -12.13,84.02 -36.37,109.95 -24.24,25.93 -59.2,38.91 -104.87,38.91zm0 -84.58c32.14,0 48.21,-19.45 48.21,-58.36l0 -323.07c0,-38.91 -16.06,-58.36 -48.21,-58.36 -32.13,0 -48.21,19.45 -48.21,58.36l0 323.07c0,38.91 16.07,58.36 48.21,58.36zm297.44 84.58c-45.1,0 -79.49,-12.83 -103.18,-38.49 -23.68,-25.65 -35.52,-62.44 -35.52,-110.37l0 -311.23c0,-47.93 11.84,-84.72 35.52,-110.37 23.68,-25.65 58.08,-38.49 103.18,-38.49 45.11,0 79.5,12.84 103.19,38.49 23.67,25.65 35.52,62.44 35.52,110.37l0 50.74 -87.96 0 0 -56.67c0,-38.91 -16.06,-58.36 -48.21,-58.36 -32.13,0 -48.21,19.45 -48.21,58.36l0 323.92c0,38.34 16.07,57.51 48.21,57.51 32.14,0 48.21,-19.17 48.21,-57.51l0 -115.87 -46.51 0 0 -84.57 134.47 0 0 193.67c0,47.93 -11.85,84.72 -35.52,110.37 -23.68,25.66 -58.08,38.49 -103.19,38.49z"/>
    <path class="fil1" d="M13944 979.05l-0.75 57.75c-25.48,15.69 -32.04,14.78 -43.37,42.39 -33.82,70.62 -16.57,200.04 -17.43,281.76 -0.4,37.78 -14.54,47.43 7.26,86.02l83.9 6.7 143.16 2588.1c705.56,172.06 1411.12,180.49 2116.68,0l100.45 -2600.58c5.39,-3.32 -2.37,-0.21 9.68,-4.23 48.43,-16.18 97.57,11.78 79.77,-66.86l-16.99 -157.8c-5.47,-65.86 8.57,-125.06 -17.96,-164.5 -34.1,-50.73 -40.86,30.2 -39.5,-118.35 0.59,-64.83 -7.85,-78 29.89,-84.73 74.66,-13.31 68.53,-11.05 47.98,-139.12 -18.27,-113.93 1.79,-145.02 -49.76,-170.39 -361.99,-178.14 -2479.23,-164.57 -2506.93,136.14 -15.79,171.29 9.74,92.15 17.63,143.5 -11.56,7.74 -23.23,9.96 -17.84,24.72 7.72,11.74 -3.74,3.72 14.07,7.9 3.94,0.93 15.22,1.48 20.28,2.14 10.95,1.42 30.62,4.48 31.44,10l3.38 6.23c7.47,18.92 5.05,91.75 4.96,113.2zm511.35 1161.98l-97.26 0 0 -65.97c26.5,0 47.79,-2.26 63.86,-6.77 16.06,-4.51 28.9,-11.98 38.48,-22.41 9.59,-10.43 18.04,-25.51 25.37,-45.25l62.58 0 0 592.02 -93.03 0 0 -451.62zm389.89 -55.82l-187.75 0 0 -84.58 279.09 0 0 81.19 -145.47 510.83 -94.73 0 148.86 -507.44zm290.93 515.9c-45.67,0 -80.62,-12.98 -104.86,-38.91 -24.24,-25.93 -36.37,-62.58 -36.37,-109.95l0 -311.23c0,-47.37 12.13,-84.01 36.37,-109.95 24.24,-25.93 59.19,-38.91 104.86,-38.91 45.67,0 80.63,12.98 104.87,38.91 24.24,25.94 36.37,62.58 36.37,109.95l0 311.23c0,47.37 -12.13,84.02 -36.37,109.95 -24.24,25.93 -59.2,38.91 -104.87,38.91zm0 -84.58c32.14,0 48.21,-19.45 48.21,-58.36l0 -323.07c0,-38.91 -16.06,-58.36 -48.21,-58.36 -32.13,0 -48.21,19.45 -48.21,58.36l0 323.07c0,38.91 16.07,58.36 48.21,58.36zm203.83 -515.9l93.04 0 0 249.5 118.4 -249.5 93.03 0 -110.79 217.36 112.49 374.66 -97.26 0 -78.65 -263.87 -37.21 75.27 0 188.6 -93.04 0 0 -592.02zm468.53 600.48c-45.1,0 -79.49,-12.83 -103.18,-38.49 -23.68,-25.65 -35.52,-62.44 -35.52,-110.37l0 -311.23c0,-47.93 11.84,-84.72 35.52,-110.37 23.68,-25.65 58.08,-38.49 103.18,-38.49 45.11,0 79.5,12.84 103.19,38.49 23.67,25.65 35.52,62.44 35.52,110.37l0 50.74 -87.96 0 0 -56.67c0,-38.91 -16.06,-58.36 -48.21,-58.36 -32.13,0 -48.21,19.45 -48.21,58.36l0 323.92c0,38.34 16.07,57.51 48.21,57.51 32.14,0 48.21,-19.17 48.21,-57.51l0 -115.87 -46.51 0 0 -84.57 134.47 0 0 193.67c0,47.93 -11.85,84.72 -35.52,110.37 -23.68,25.66 -58.08,38.49 -103.19,38.49z"/>
    <path class="fil0" d="M10085.93 651.01c30.93,56.08 47.04,-5.31 47.6,169.02 0.23,75.74 -0.77,151.72 -0.1,227.44 0.65,70.56 6.68,139.12 6.64,212.97 -0.03,72.6 -3.3,154.86 1.72,226.36 2.85,40.72 17.47,179.13 0.6,209.45 -10.57,19.01 -48.75,12.47 -48.31,61.08 0.35,36.84 25.37,49.29 52.6,57.16 8.19,213.93 1.55,624.57 15.3,801.94 2.72,35.06 10.18,159.24 3.78,191.83 -8.1,41.2 -75.37,53.7 -43.14,139.72 12.05,32.16 30.75,37.04 41.1,56.57 16.4,31 9.23,257.89 9.33,301.51 0.17,65.53 6.78,125.82 6.68,191.77l5.19 298.9c3.6,91.13 -74.94,95.32 -42.55,245.31 142.67,131.53 2129.16,139.25 2071.26,-74.63 -3.62,-75.72 -48.11,-105.98 -51.93,-149.87l6.66 -404.95c0.32,-133.51 6.66,-269.58 6.66,-407.05 26.38,-17.28 52.13,-44.53 53.88,-90.22 2.27,-59.27 -26.83,-70.77 -47.29,-99.35l14.79 -994.34c36.21,-26.68 54.57,-21.44 51.14,-92.3 -18.59,-13.6 -23.79,-16.57 -46.11,-28.56l13.44 -994.35c182.24,-223.88 -392.9,-326.53 -1030.35,-342.94 -591.05,-15.23 -1194.92,112.89 -1098.61,287.53zm379.17 1490.02l-97.26 0 0 -65.97c26.5,0 47.79,-2.26 63.86,-6.77 16.06,-4.51 28.9,-11.98 38.48,-22.41 9.59,-10.43 18.04,-25.51 25.37,-45.25l62.58 0 0 592.02 -93.03 0 0 -451.62zm389.89 -55.82l-187.75 0 0 -84.58 279.09 0 0 81.19 -145.47 510.83 -94.73 0 148.86 -507.44zm290.93 515.9c-45.67,0 -80.62,-12.98 -104.86,-38.91 -24.24,-25.93 -36.37,-62.58 -36.37,-109.95l0 -311.23c0,-47.37 12.13,-84.01 36.37,-109.95 24.24,-25.93 59.19,-38.91 104.86,-38.91 45.67,0 80.63,12.98 104.87,38.91 24.24,25.94 36.37,62.58 36.37,109.95l0 311.23c0,47.37 -12.13,84.02 -36.37,109.95 -24.24,25.93 -59.2,38.91 -104.87,38.91zm0 -84.58c32.14,0 48.21,-19.45 48.21,-58.36l0 -323.07c0,-38.91 -16.06,-58.36 -48.21,-58.36 -32.13,0 -48.21,19.45 -48.21,58.36l0 323.07c0,38.91 16.07,58.36 48.21,58.36zm203.83 -515.9l93.04 0 0 249.5 118.4 -249.5 93.03 0 -110.79 217.36 112.49 374.66 -97.26 0 -78.65 -263.87 -37.21 75.27 0 188.6 -93.04 0 0 -592.02zm468.53 600.48c-45.1,0 -79.49,-12.83 -103.18,-38.49 -23.68,-25.65 -35.52,-62.44 -35.52,-110.37l0 -311.23c0,-47.93 11.84,-84.72 35.52,-110.37 23.68,-25.65 58.08,-38.49 103.18,-38.49 45.11,0 79.5,12.84 103.19,38.49 23.67,25.65 35.52,62.44 35.52,110.37l0 50.74 -87.96 0 0 -56.67c0,-38.91 -16.06,-58.36 -48.21,-58.36 -32.13,0 -48.21,19.45 -48.21,58.36l0 323.92c0,38.34 16.07,57.51 48.21,57.51 32.14,0 48.21,-19.17 48.21,-57.51l0 -115.87 -46.51 0 0 -84.57 134.47 0 0 193.67c0,47.93 -11.85,84.72 -35.52,110.37 -23.68,25.66 -58.08,38.49 -103.19,38.49z"/>
   </g>
  </g>
  <polygon class="fil2" points="-0,0 12486.28,0 12486.28,4495.06 -0,4495.06 "/>
 </g>
</svg>
