<?xml version="1.0" encoding="UTF-8"?>
<!DOCTYPE svg PUBLIC "-//W3C//DTD SVG 1.1//EN" "http://www.w3.org/Graphics/SVG/1.1/DTD/svg11.dtd">
<!-- Creator: CorelDRAW -->
<svg xmlns="http://www.w3.org/2000/svg" xml:space="preserve" width="125mm" height="45mm" version="1.1" style="shape-rendering:geometricPrecision; text-rendering:geometricPrecision; image-rendering:optimizeQuality; fill-rule:evenodd; clip-rule:evenodd"
viewBox="0 0 12486.28 4495.06"
 xmlns:xlink="http://www.w3.org/1999/xlink"
 xmlns:xodm="http://www.corel.com/coreldraw/odm/2003">
 <defs>
  <style type="text/css">
   <![CDATA[
    .fil2 {fill:none}
    .fil0 {fill:black}
    .fil1 {fill:black;fill-rule:nonzero}
   ]]>
  </style>
   <clipPath id="id0">
    <path d="M-0 0l12486.28 0 0 4495.06 -12486.28 0 0 -4495.06z"/>
   </clipPath>
 </defs>
 <g id="Camada_x0020_1">
  <metadata id="CorelCorpID_0Corel-Layer"/>
  <g>
  </g>
  <g style="clip-path:url(#id0)">
   <g id="_2379940397184">
    <path class="fil0" d="M10085.93 651.01c30.93,56.08 47.04,-5.31 47.6,169.02 0.23,75.74 -0.77,151.72 -0.1,227.44 0.65,70.56 6.68,139.12 6.64,212.97 -0.03,72.6 -3.3,154.86 1.72,226.36 2.85,40.72 17.47,179.13 0.6,209.45 -10.57,19.01 -48.75,12.47 -48.31,61.08 0.35,36.84 25.37,49.29 52.6,57.16 8.19,213.93 1.55,624.57 15.3,801.94 2.72,35.06 10.18,159.24 3.78,191.83 -8.1,41.2 -75.37,53.7 -43.14,139.72 12.05,32.16 30.75,37.04 41.1,56.57 16.4,31 9.23,257.89 9.33,301.51 0.17,65.53 6.78,125.82 6.68,191.77l5.19 298.9c3.6,91.13 -74.94,95.32 -42.55,245.31 142.67,131.53 2129.16,139.25 2071.26,-74.63 -3.62,-75.72 -48.11,-105.98 -51.93,-149.87l6.66 -404.95c0.32,-133.51 6.66,-269.58 6.66,-407.05 26.38,-17.28 52.13,-44.53 53.88,-90.22 2.27,-59.27 -26.83,-70.77 -47.29,-99.35l14.79 -994.34c36.21,-26.68 54.57,-21.44 51.14,-92.3 -18.59,-13.6 -23.79,-16.57 -46.11,-28.56l13.44 -994.35c182.24,-223.88 -392.9,-326.53 -1030.35,-342.94 -591.05,-15.23 -1194.92,112.89 -1098.61,287.53zm374.4 1867.76c0,-54.66 8.17,-101.52 24.45,-140.55 16.27,-39.02 45.44,-82.21 87.47,-129.61 41.38,-47.39 70.02,-87.87 85.95,-121.38 15.95,-33.56 23.92,-68.57 23.92,-105.03 0,-32.79 -4.94,-55.57 -14.74,-68.31 -9.84,-12.79 -24.25,-19.16 -43.25,-19.16 -38.67,0 -57.99,25.13 -57.99,75.44l0 82.06 -105.81 0 0 -74.39c0,-61.94 14.27,-109.54 42.73,-142.7 28.51,-33.2 69.84,-49.8 124.11,-49.8 54.26,0 95.63,16.59 124.14,49.8 28.46,33.16 42.68,80.76 42.68,142.7 0,46.65 -10.31,92.25 -31.03,136.74 -20.66,44.44 -56.45,95.5 -107.3,153.07 -33.21,37.92 -55.62,68.77 -67.15,92.44 -11.51,23.68 -17.3,49.07 -17.3,76l0 16.41 212.61 0 0 109.38 -323.5 0 0 -83.11zm570.73 94.05c-54.91,0 -96.99,-16.75 -126.15,-50.3 -29.17,-33.56 -43.72,-80.95 -43.72,-142.19l0 -402.48c0,-61.23 14.55,-108.64 43.72,-142.19 29.16,-33.5 71.24,-50.3 126.15,-50.3 54.92,0 96.99,16.8 126.16,50.3 29.16,33.55 43.71,80.96 43.71,142.19l0 402.48c0,61.24 -14.55,108.63 -43.71,142.19 -29.17,33.55 -71.24,50.3 -126.16,50.3zm0 -109.35c38.69,0 58,-25.17 58,-75.48l0 -417.82c0,-50.3 -19.31,-75.44 -58,-75.44 -38.67,0 -58,25.13 -58,75.44l0 417.82c0,50.3 19.33,75.48 58,75.48zm406.93 109.35c-54.91,0 -96.99,-16.75 -126.16,-50.3 -29.16,-33.56 -43.71,-80.95 -43.71,-142.19l0 -402.48c0,-61.23 14.55,-108.64 43.71,-142.19 29.17,-33.5 71.25,-50.3 126.16,-50.3 54.92,0 96.99,16.8 126.15,50.3 29.17,33.55 43.72,80.96 43.72,142.19l0 402.48c0,61.24 -14.55,108.63 -43.72,142.19 -29.16,33.55 -71.23,50.3 -126.15,50.3zm0 -109.35c38.68,0 57.99,-25.17 57.99,-75.48l0 -417.82c0,-50.3 -19.31,-75.44 -57.99,-75.44 -38.68,0 -58,25.13 -58,75.44l0 417.82c0,50.3 19.32,75.48 58,75.48zm245.18 -667.2l111.93 0 0 656.23 184.1 0 0 109.38 -296.02 0 0 -765.61z"/>
    <g>
     <path class="fil1" d="M4887.72 1687.24l0.03 -1.06 -0.03 1.06zm1469.16 -275.41c13.74,2.32 27.22,6.16 40.17,11.46l-40.17 -11.46zm-1377.27 2671.67l-80.37 -163.36 80.37 163.36zm509.05 -2521.48l-0.03 0.04 0.03 -0.04zm-290.37 2573.41l0.01 0 -0.01 0zm301.39 -2592.82l-42.61 75.07 42.61 -75.07zm-555.45 96.54l-0.11 2.35 0.11 -2.35zm1426.38 2496.31l0.01 -0.01 -0.01 0.01zm-1482.91 -2447.02l0 43.95 0 294.81 0 1.1 0 1.7 0 1.09 0 1100 0 563.63 0 0.16 0 0.14 0 37.41 0 0.19 0 137.95c0,1.76 0.04,3.52 0.12,5.27 0.58,12.22 3.15,24.24 7.59,35.62 0.98,2.53 2.07,5.01 3.24,7.48l0.19 0.36 0.11 0.25 0.29 0.59 0.01 0.01 53.79 109.35 26.57 54 0.15 0.3 0.06 0.13 0.16 0.31 0.06 0.13 0.16 0.32 0.06 0.12c0.7,1.35 1.41,2.68 2.17,3.99 0.37,0.65 0.75,1.3 1.14,1.94 0.38,0.63 0.78,1.26 1.17,1.88 4.74,7.41 10.52,14.13 17.15,19.97 1.86,1.64 3.79,3.21 5.78,4.69l0.13 0.08 0.74 0.57 0.65 0.47 0.81 0.57 0.97 0.68 1.13 0.75 1.29 0.84 0.1 0.06 1.36 0.84 1.6 0.97 1.77 1.01 1.93 1.04 2.1 1.08 2.26 1.07 2.38 1.07 2.51 1.03 2.65 1.01 2.79 0.96 0.85 0.27 0.9 0.27 0.94 0.26 0.96 0.27 1.01 0.26 1.04 0.26 1.1 0.26 1.15 0.26 1.19 0.25 0.25 0.03 0.52 0.03 0.79 0.02 1.07 0.02 2.99 0.04 148.74 1.58 0.01 0 1.86 0.02 2.95 0.01 0.02 0 1.05 0 299.51 0 300.92 0 563.82 -0.01 2.2 0 0.87 0 2.19 0 2.79 -0.02 0.02 0 148.75 -1.58 1.66 -0.02 1.35 -0.02 1.09 -0.02 0.79 -0.02 0.51 -0.03 0.21 -0.03 1.2 -0.25 1.15 -0.26 1.11 -0.26 1.05 -0.26 1 -0.26 0.97 -0.27 0.93 -0.26 0.89 -0.27 0.86 -0.27 2.79 -0.96 2.64 -1.01 2.52 -1.04 2.39 -1.06 2.25 -1.07 2.09 -1.08 1.94 -1.04 1.76 -1.01 1.62 -0.97 1.44 -0.9 1.3 -0.84 1.12 -0.75 0.97 -0.68 0.81 -0.57 0.64 -0.47 0.76 -0.57 0.12 -0.08c11.91,-8.9 21.53,-20.47 28.08,-33.77l80.36 -163.36c7.58,-15.43 11.54,-32.38 11.54,-49.58l0 -134.43 -0.74 -7.35 -6.24 -31.18 -0.55 -5.51 0 -1397.76 0.55 -5.51 6.24 -31.17 0.74 -7.37 0 -2.19 0 -200.61c0,-193.91 -62.77,-382.63 -178.99,-538.16 -28.41,-38.01 -66.59,-67.67 -110.52,-85.81l-0.56 -0.17 -0.34 -0.13 -5.51 -2.16 -5.81 -2.05 -5.8 -1.86 -5.75 -1.63 -5.7 -1.42 -5.66 -1.22 -5.55 -1.06 -0.07 -0.01 -0.09 -0.02 -0.08 -0.01 -0.03 -0.01 -0.07 -0.01 -0.17 -0.02 -0.08 -0.03 -0.09 -0.01 -0.08 -0.02 -0.1 -0.01 -0.08 -0.02 -0.09 -0.01 -0.08 -0.01 -0.09 -0.02 -0.09 -0.01 -0.08 -0.01 -0.01 0 -0.08 -0.02 -0.09 -0.01 -0.08 -0.02 -0.1 -0.01 -0.08 -0.01 -0.09 -0.02 -0.08 -0.01 -0.09 -0.01 -0.08 -0.02 -0.1 -0.01 -0.08 -0.01 -0.09 -0.02 -0.04 0 -0.04 -0.01 -0.09 -0.01 -0.1 -0.02 -0.08 -0.01 -0.08 -0.01 -0.09 -0.02 -0.08 -0.01 -0.1 -0.01 -0.09 -0.02 -0.08 -0.01 -0.09 -0.01 -0.08 -0.01 -0.1 -0.02 -0.08 -0.01 -0.09 -0.01 -0.08 -0.02 -0.09 -0.01 -0.08 -0.01 -0.1 -0.01 -0.08 -0.01 -0.09 -0.03 -0.08 -0.01 -0.09 -0.01 -0.1 -0.01 -0.08 -0.02 -0.06 -0.01 -0.02 0 -0.09 -0.01 -0.09 -0.01 -0.08 -0.02 -0.1 -0.01 -0.08 -0.01 -0.09 -0.01 -0.08 -0.01 -0.09 -0.01 -0.09 -0.02 -0.09 -0.01 -0.08 -0.01 -0.09 -0.01 -0.02 -0.01 -0.06 0 -0.1 -0.02 -0.08 -0.01 -0.09 -0.01 -0.08 -0.01 -0.08 -0.01 -0.09 -0.01 -0.09 -0.01 -0.09 -0.01 -0.08 -0.02 -0.08 -0.01 -0.09 -0.01 -0.09 -0.01 -0.01 0 -0.08 -0.01 -0.08 -0.01 -0.08 -0.01 -0.09 -0.01 -0.09 -0.02 -0.09 -0.01 -0.08 -0.01 -0.08 -0.01 -0.09 -0.01 -0.08 -0.01 -0.1 -0.01 -0.08 -0.01 -0.07 -0.01 -0.02 0 -0.08 -0.01 -0.08 -0.01 -0.1 -0.01 -0.08 -0.01 -0.09 -0.02 -0.08 -0.02 -0.09 -0.01 -0.08 0 -0.09 -0.02 -0.09 -0.01 -0.08 -0.01 -0.09 -0.01 -0.05 0 -0.03 -0.01 -0.1 -0.01 -0.17 -0.02 -0.08 -0.01 -0.35 -0.04 -0.08 -0.01 -0.09 -0.01 -0.08 -0.01 -0.09 0 -0.04 -0.01 -0.05 -0.01 -0.08 0 -0.09 -0.01 -0.08 -0.01 -0.1 -0.01 -0.08 -0.01 -0.08 -0.01 -0.09 -0.01 -0.08 -0.01 -0.1 -0.01 -0.08 -0.01 -0.09 -0.01 -0.05 0 -0.05 -0.01 -0.05 -0.01 -0.05 0 -0.06 -0.01 -0.06 0 -0.05 -0.01 -0.05 0 -0.05 -0.01 -0.05 0 -0.06 -0.01 -0.05 0 -0.05 -0.01 -0.05 -0.01 -0.07 0 -0.05 -0.01 -0.05 0 -0.05 -0.01 -0.05 0 -0.06 -0.01 -0.05 0 -0.05 -0.01 -0.04 0 -0.01 0 -0.06 -0.01 -0.06 0 -0.05 -0.01 -0.05 0 -0.05 -0.01 -0.05 0 -0.06 -0.01 -0.05 -0.01 -0.06 0 -0.05 -0.01 -0.05 0 -0.06 -0.01 -0.05 0 -0.05 -0.01 -0.05 0 -0.05 -0.01 -0.06 0 -0.06 -0.02 -0.05 0 -0.05 -0.01 -0.03 0 -0.03 0 -0.05 -0.01 -0.05 0 -0.05 -0.01 -0.05 0 -0.06 -0.01 -0.06 0 -0.05 -0.01 -0.05 0 -0.05 -0.01 -0.05 0 -0.06 -0.01 -0.05 0 -0.05 0 -0.05 -0.01 -0.07 -0.01 -0.05 0 -0.05 0 -0.05 -0.01 -0.05 0 -0.06 -0.01 -0.01 0 -0.04 0 -0.05 -0.01 -0.06 0 -0.05 -0.01 -0.06 0 -0.05 -0.01 -0.05 0 -0.05 -0.01 -0.06 0 -0.05 -0.01 -0.05 0 -0.06 0 -0.05 -0.01 -0.06 0 -0.05 -0.01 -0.05 0 -0.05 -0.01 -0.06 0 -0.05 -0.01 -0.05 0 -0.06 -0.01 -0.01 0 -0.04 0 -0.06 0 -0.05 -0.01 -0.05 0 -0.05 -0.01 -0.06 0 -0.05 -0.01 -0.06 0 -0.05 0 -0.05 -0.01 -0.06 0 -0.05 -0.01 -0.05 0 -0.05 -0.01 -0.05 0 -0.06 0 -0.06 -0.01 -0.05 0 -0.05 0 -0.06 -0.01 -0.04 0 -0.01 0 -0.05 -0.01 -0.05 0 -0.05 -0.01 -0.06 0 -0.06 0 -0.05 -0.01 -0.05 0 -0.06 -0.01 -0.05 0 -0.05 0 -0.05 -0.01 -0.05 0 -0.07 0 -0.05 -0.01 -0.05 0 -0.05 -0.01 -0.06 0 -0.05 0 -0.05 -0.01 -0.05 0 -0.03 0 -0.03 0 -0.06 -0.01 -0.05 0 -0.05 -0.01 -0.05 0 -0.06 0 -0.05 -0.01 -0.05 0 -0.05 0 -0.06 -0.01 -0.06 0 -0.05 -0.01 -0.05 0 -0.05 0 -0.06 -0.01 -0.05 0 -0.05 0 -0.05 -0.01 -0.07 0 -0.05 0 -0.05 -0.01 -0.02 0 -0.08 0 -0.06 -0.01 -0.05 0 -0.05 0 -0.05 -0.01 -0.07 0 -0.05 -0.01 -0.05 0 -0.05 0 -0.05 0 -0.06 -0.01 -0.05 0 -0.05 -0.01 -0.05 0 -0.07 0 -0.05 0 -0.05 -0.01 -0.05 0 -0.06 0 -0.05 -0.01 -0.05 0 -0.05 0 -0.05 -0.01 -0.07 0 -0.05 0 -0.05 -0.01 -0.06 0 -0.05 0 -0.05 -0.02 -0.05 0 -0.05 0 -0.07 -0.01 -0.05 0 -0.05 0 -0.05 0 -0.06 -0.01 -0.05 0 -0.05 0 -0.05 0 -0.06 -0.01 -0.05 0 -0.01 0 -0.05 0 -0.05 -0.01 -0.05 0 -0.06 0 -0.05 -0.01 -0.05 0 -0.05 0 -0.05 0 -0.06 0 -0.05 -0.01 -0.05 0 -0.06 0 -0.05 -0.01 -0.05 0 -0.05 0 -0.05 0 -0.05 -0.01 -0.06 0 -0.05 0 -0.05 0 -0.05 -0.01 -0.01 0 -0.05 0 -0.05 0 -0.05 0 -0.05 -0.01 -0.05 0 -0.06 0 -0.05 0 -0.06 -0.01 -0.05 0 -0.05 0 -0.05 0 -0.05 0 -0.05 -0.01 -0.07 0 -0.05 0 -0.05 0 -0.05 -0.01 -0.05 0 -0.05 0 -0.05 0 -0.05 -0.01 -0.01 0 -0.05 0 -0.06 0 -0.05 0 -0.05 0 -0.05 -0.01 -0.05 0 -0.05 0 -0.05 0 -0.06 -0.01 -0.05 0 -0.06 0 -0.05 0 -0.05 0 -0.05 0 -0.05 -0.01 -0.06 0 -0.05 0 -0.05 0 -0.05 0 -0.06 -0.01 -0.05 0 -0.02 0 -0.03 0 -0.05 0 -0.06 0 -0.05 -0.01 -0.07 0 -0.31 -0.01 -2.84 -0.07 -0.28 -0.01 -0.75 -0.01 -2.15 -0.02 -0.31 0 -0.06 0 -0.15 0 -534.45 0 -56.01 0 -5.49 0c-1.39,0 -2.77,0.02 -4.16,0.04l-0.46 0c-1.32,0.02 -2.63,0.06 -3.94,0.1l-0.64 0.02c-1.28,0.04 -2.57,0.1 -3.85,0.17l-0.71 0.03c-1.23,0.07 -2.44,0.14 -3.67,0.21l-0.97 0.07c-1.23,0.08 -2.44,0.17 -3.66,0.28l-0.1 0.01 -0.12 0.01c-1.23,0.1 -2.46,0.22 -3.69,0.33l-0.88 0.09c-1.19,0.13 -2.37,0.26 -3.55,0.39l-0.92 0.1c-1.2,0.15 -2.41,0.3 -3.62,0.46l-0.81 0.11c-1.27,0.18 -2.54,0.36 -3.81,0.54l-0.21 0.03c-1.3,0.21 -2.59,0.41 -3.88,0.62l-0.3 0.06 -0.38 0.06c-1.16,0.2 -2.34,0.4 -3.49,0.62l-0.65 0.11c-1.2,0.23 -2.41,0.47 -3.62,0.7l-0.83 0.18c-1.23,0.25 -2.46,0.5 -3.68,0.77l-0.52 0.11c-1.24,0.28 -2.49,0.56 -3.72,0.86l-0.66 0.15c-1.26,0.3 -2.51,0.61 -3.77,0.93l-0.02 0.01c-1.25,0.31 -2.5,0.64 -3.75,0.97l-0.7 0.2c-1.18,0.32 -2.36,0.65 -3.53,0.98l-0.68 0.2c-1.19,0.34 -2.39,0.7 -3.58,1.07l-0.71 0.22c-1.16,0.36 -2.33,0.72 -3.49,1.11l-0.65 0.21c-1.22,0.39 -2.43,0.8 -3.65,1.22l-0.01 0 -0.02 0.01 -0.07 0.03c-1.25,0.43 -2.49,0.86 -3.73,1.31l-0.4 0.14c-1.18,0.43 -2.37,0.87 -3.55,1.32l-0.63 0.24c-1.2,0.46 -2.4,0.93 -3.6,1.41l-0.39 0.15c-1.19,0.48 -2.39,0.96 -3.56,1.46l-0.64 0.27c-1.13,0.47 -2.25,0.95 -3.37,1.44l-0.15 0.06 -0.02 0.01 -0.18 0.08c-2.44,1.07 -4.84,2.17 -7.24,3.31l-0.79 0.38c-1.09,0.52 -2.17,1.04 -3.27,1.58l-0.54 0.28c-1.12,0.56 -2.24,1.13 -3.35,1.7l-0.48 0.25c-1.17,0.61 -2.33,1.22 -3.49,1.84l-0.02 0.02c-1.15,0.62 -2.31,1.25 -3.45,1.89l-0.49 0.27c-1.04,0.59 -2.09,1.18 -3.12,1.78l-0.83 0.48c-1.04,0.61 -2.08,1.22 -3.12,1.85l-0.46 0.28c-1.09,0.65 -2.15,1.31 -3.22,1.98l-0.51 0.32c-1.03,0.64 -2.04,1.28 -3.05,1.93l-0.25 0.16 -0.02 0.01 -0.33 0.23 -1.64 1.07 -1.4 0.93 -0.19 0.14 -0.03 0.01 -0.27 0.18c-1.05,0.71 -2.1,1.44 -3.16,2.16l-0.34 0.24c-1.03,0.72 -2.05,1.44 -3.06,2.16l-0.46 0.34c-1.04,0.75 -2.09,1.52 -3.13,2.29l-0.23 0.17c-1.05,0.79 -2.1,1.58 -3.14,2.38l-0.17 0.14 -0.02 0.01 -0.22 0.16c-1,0.79 -2.01,1.57 -3,2.36l-0.41 0.33c-0.99,0.79 -1.99,1.6 -2.98,2.41l-0.27 0.23c-0.98,0.8 -1.95,1.62 -2.92,2.44l-0.42 0.36c-1.04,0.88 -2.07,1.78 -3.09,2.68l-0.01 0.02 -0.04 0.03c-1.03,0.9 -2.05,1.81 -3.06,2.74l-0.35 0.31c-0.94,0.86 -1.88,1.73 -2.81,2.6l-0.3 0.28c-0.91,0.86 -1.82,1.73 -2.72,2.61l-0.39 0.38c-0.98,0.95 -1.96,1.92 -2.93,2.89l-0.01 0.02 -0.02 0.02c-1,1.01 -2,2.02 -2.99,3.04l-0.07 0.09c-0.95,0.98 -1.89,1.98 -2.83,2.98l-0.23 0.25c-0.9,0.96 -1.79,1.94 -2.67,2.92l-0.25 0.27c-0.94,1.04 -1.86,2.08 -2.78,3.13l-0.01 0.01c-0.93,1.08 -1.86,2.16 -2.78,3.26l-0.12 0.14c-0.89,1.05 -1.76,2.11 -2.63,3.17l-0.17 0.21c-0.85,1.04 -1.69,2.09 -2.51,3.15l-0.21 0.25c-0.83,1.04 -1.63,2.1 -2.44,3.16l-0.15 0.19 -0.02 0.01 -0.17 0.22c-0.78,1.03 -1.55,2.07 -2.32,3.11l-0.34 0.47c-0.7,0.97 -1.41,1.93 -2.09,2.9l-0.48 0.68c-0.72,1 -1.41,2.01 -2.12,3.03l-0.3 0.45c-0.79,1.15 -1.57,2.31 -2.34,3.47l0 0.01c-0.8,1.2 -1.59,2.42 -2.36,3.64l-0.1 0.15c-0.74,1.16 -1.47,2.33 -2.18,3.5l-0.21 0.34c-0.69,1.13 -1.38,2.27 -2.06,3.42l-0.19 0.31 -1.08 1.85 -1.08 1.89 -11.02 19.41 -0.01 0.01 -0.01 0.02 -31.58 55.63 -0.1 0.17 -0.11 0.18 -0.1 0.17 -0.09 0.16 -0.1 0.18 -0.1 0.17 -0.21 0.33 -0.01 0 -0.1 0.18 -0.1 0.16 -0.11 0.17 -0.1 0.17 -0.01 0 -0.1 0.16 -0.11 0.17 -0.11 0.17 -0.1 0.16 -0.01 0 -0.1 0.17 -0.11 0.16 -0.11 0.17 -0.11 0.15 -0.01 0.01 -0.11 0.16 -0.11 0.17 -0.11 0.15 -0.11 0.15 -0.01 0.01 -0.11 0.16 -0.12 0.17 -0.11 0.15 -0.11 0.14 -0.01 0.02 -0.11 0.16 -0.12 0.16 -0.12 0.15 -0.11 0.14 -0.01 0.02 -0.12 0.16 -0.12 0.15 -0.11 0.15 -0.12 0.15 -0.01 0.01 -0.12 0.16 -0.12 0.15 -0.12 0.15 -0.12 0.13 -0.01 0.02 -0.12 0.15 -0.13 0.15 -0.13 0.15 -0.1 0.13 -0.02 0.03 -0.12 0.14 -0.13 0.15 -0.13 0.15 -0.11 0.12 -0.02 0.03 -0.12 0.14 -0.13 0.15 -0.14 0.15 -0.1 0.12 -0.03 0.02 -0.12 0.14 -0.14 0.14 -0.13 0.16 -0.1 0.11 -0.03 0.03 -0.13 0.13 -0.14 0.14 -0.13 0.15 -0.11 0.11 -0.03 0.03 -0.14 0.14 -0.13 0.13 -0.13 0.15 -0.11 0.1 -0.04 0.04 -0.01 0.01 -0.71 0.7 -0.03 0.03 -0.2 0.19 -0.02 0.02 -0.02 0.01 -0.02 0.02 -0.01 0.02 -0.02 0.01 -0.02 0.02 -0.01 0.01 -0.01 0.01 -0.01 0.02 -0.02 0.01 -0.02 0.02 -0.02 0.02 -0.02 0.01 -0.02 0.02 -0.01 0.02 -0.02 0.01 -0.02 0.02 -0.02 0.02 -0.01 0.01 -0.02 0.02 -0.02 0.02 -0.02 0.01 -0.03 0.04 -0.03 0.01 -0.02 0.02 -0.04 0.03 -0.01 0.02 -0.02 0.02 -0.02 0.02 -0.02 0.02 -0.02 0.02 -0.02 0.02 -0.02 0.02 -0.02 0.02 -0.02 0.02 -0.02 0.01 -0.01 0.01 -0.02 0.02 -0.02 0.02 -0.02 0.02 -0.03 0.02 -0.02 0.02 -0.02 0.02 -0.02 0.02 -0.02 0.02 -0.04 0.02 -0.02 0.02 -0.02 0.02 -0.02 0.02 -0.03 0.02 -0.02 0.02 -0.02 0.02 -0.02 0.02 -0.03 0.02 -0.02 0.02 -0.02 0.02 -0.02 0.02 -0.02 0.03 -0.03 0.02 -0.02 0.02 -0.04 0.04 -0.03 0.02 -0.02 0.02 -1.2 0 -10.84 0 -56.27 0 0 -2.14 0 -44.8 -1.33 0 -0.85 0 -1.34 0 -26.06 0 0 -1.42 0 -134.69 -2.2 0 -7.23 0 0 -0.06 0 -37.49 -2.19 0 -355.81 0 0 35.42 0 2.13 -9.43 0 0 135.93 0 0.18 -0.26 0 -1.92 0 -0.28 0 -0.47 0 -2.19 0 -10.07 0 -12.85 0 -1.56 0 0 15.99 0 40.33 1.34 0 -0.11 2.31 0 0.04 -4.19 0 -4.92 0 -0.21 0 -0.07 0 -0.08 0 -0.97 0.02 -0.07 0 -0.02 0 -0.06 0 -0.08 0 -0.89 0.04 -0.07 0 -0.07 0 -0.05 0 -0.02 0.01 -0.08 0 -1.1 0.07 -0.01 0 -1.02 0.09 -0.07 0 -0.09 0.01 -1.02 0.13 -0.17 0.02 -0.43 0.06 -0.64 0.08 -0.49 0.08 -0.61 0.1 -0.53 0.09 -0.62 0.13 -0.52 0.11 -0.59 0.12 -0.45 0.1 -0.72 0.18 -0.38 0.1 -0.71 0.19 -0.42 0.12 -0.62 0.19 -0.46 0.14 -0.64 0.2 -0.44 0.14 -0.67 0.25 -0.36 0.12 -0.56 0.21 -0.58 0.23 -0.04 0.01 -0.86 0.35 -0.14 0.07 -0.29 0.12 -0.7 0.3 -0.97 0.45 0 0.01 -0.96 0.47 -0.69 0.37 -0.26 0.13 -0.12 0.06 -0.82 0.46 -0.06 0.04 -0.43 0.24 -0.59 0.35 -0.27 0.17 -0.62 0.39 -0.58 0.37 -0.24 0.16 -0.65 0.44 -0.3 0.2 -0.48 0.35 -0.54 0.39 -0.29 0.22 -0.56 0.43 -0.36 0.27 -0.43 0.35 -0.5 0.4 -0.25 0.22 -0.55 0.46 -0.43 0.39 -0.35 0.31 -0.62 0.57 -0.16 0.15 -0.64 0.63 -0.15 0.14 -0.06 0.07 -0.72 0.73 -0.02 0.02 -0.73 0.77 -0.02 0.04 -0.68 0.76 -0.08 0.08 -0.61 0.72 -0.12 0.15 -0.25 0.3 -0.38 0.49 -0.24 0.3 -0.44 0.56 -0.32 0.43 -0.33 0.46 -0.21 0.3 -0.47 0.67 -0.18 0.27 -0.36 0.53 -0.35 0.55 -0.21 0.34 -0.31 0.51 -0.33 0.55 -0.22 0.39 -0.33 0.58 -0.19 0.35 -0.42 0.79 -0.08 0.16c-0.45,0.87 -0.87,1.77 -1.27,2.67l-0.16 0.39 -0.02 0.04 -0.41 1 -0.01 0.02 -0.38 0.99 -0.03 0.08 -0.33 0.94 -0.06 0.15 -0.11 0.35 -0.22 0.67 -0.12 0.4 -0.18 0.64 -0.13 0.43 -0.2 0.75 -0.09 0.36 -0.15 0.58 -0.14 0.62 -0.12 0.58 -0.1 0.48 -0.13 0.63 -0.08 0.45 -0.12 0.75 -0.06 0.41 -0.1 0.72 -0.06 0.38 -0.09 0.77 -0.04 0.44 -0.07 0.82 -0.03 0.27 -0.05 0.8 -0.02 0.35 -0.01 0.15 0 0.13 -0.01 0.2 0 0.17 -0.02 0.45 0 0.11 -0.01 0.07 -0.01 1.14zm682.62 1678.84c-63.28,0 -111.55,-17.96 -144.78,-53.82 -33.23,-35.81 -49.79,-87.28 -49.79,-154.24l0 -65 123.38 0 0 74.44c0,53.61 22.51,80.4 67.61,80.4 45.05,0 67.61,-26.79 67.61,-80.4l0 -185.6c0,-54.37 -22.56,-81.56 -67.61,-81.56 -45.1,0 -67.61,27.19 -67.61,81.56l0 7.13 -123.38 0 23.71 -462.21 344.02 0 0 118.22 -227.79 0 -10.68 197.37 2.37 0c24.56,-40.18 62.12,-60.23 112.72,-60.23 47.48,0 83.47,16.15 107.98,48.45 24.51,32.3 36.8,79.19 36.8,140.65l0 186.78c0,66.96 -16.62,118.43 -49.84,154.24 -33.23,35.86 -81.51,53.82 -144.73,53.82zm283.52 -839.3l130.53 0 0 709.23 214.7 0 0 118.23 -345.23 0 0 -827.46zm420.71 -953.42c66.28,0 120.49,54.04 120.49,120.07l0 15c0,66.04 -54.21,120.07 -120.49,120.07l-455.69 0c-66.29,0 -120.51,-54.03 -120.51,-120.07l0 -15c0,-66.03 54.22,-120.07 120.51,-120.07l455.69 0z"/>
    </g>
    <path class="fil0" d="M8107.38 1188.67c54.55,-17.02 280.84,-9.55 353.8,-9.55 144.17,-0.01 264.13,-31.76 234.31,113.43 -114.7,-2.25 -230.4,1.39 -345.14,-0.37 -200.06,-3.05 -164.66,24.98 -242.97,-103.51zm-280.47 1640.49c0,-57.28 9.16,-106.32 27.59,-147.21 18.37,-40.83 51.35,-86.07 98.82,-135.73 46.77,-49.61 79.13,-91.99 97.15,-127.09 18.02,-35.17 27.04,-71.78 27.04,-110 0,-34.36 -5.6,-58.19 -16.71,-71.58 -11.08,-13.35 -27.4,-20.01 -48.84,-20.01 -43.7,0 -65.55,26.32 -65.55,78.99l0 85.93 -119.51 0 0 -77.89c0,-64.91 16.06,-114.71 48.28,-149.48 32.17,-34.76 78.94,-52.11 140.26,-52.11 61.26,0 108.03,17.35 140.2,52.11 32.21,34.76 48.28,84.57 48.28,149.48 0,48.85 -11.68,96.59 -35.04,143.14 -23.35,46.6 -63.78,100.07 -121.27,160.36 -37.56,39.73 -62.82,71.97 -75.86,96.8 -13.06,24.82 -19.55,51.36 -19.55,79.6l0 17.15 240.24 0 0 114.56 -365.53 0 0 -87.03zm644.86 98.46c-62.07,0 -109.59,-17.55 -142.56,-52.65 -32.92,-35.11 -49.38,-84.78 -49.38,-148.93l0 -421.48c0,-64.16 16.45,-113.76 49.38,-148.88 32.97,-35.15 80.49,-52.71 142.56,-52.71 62.07,0 109.59,17.56 142.57,52.71 32.91,35.11 49.39,84.72 49.39,148.88l0 421.48c0,64.15 -16.47,113.81 -49.39,148.93 -32.98,35.1 -80.5,52.65 -142.57,52.65zm0 -114.5c43.69,0 65.56,-26.33 65.56,-79.05l0 -437.53c0,-52.67 -21.87,-78.99 -65.56,-78.99 -43.69,0 -65.54,26.32 -65.54,78.99l0 437.53c0,52.72 21.85,79.05 65.54,79.05zm277.03 -698.7l126.46 0 0 687.21 208.05 0 0 114.56 -334.51 0 0 -801.78zm-1465.3 1449.44c0,18.36 -0.64,40.32 4.45,71.99 5.08,31.68 15.87,73.07 24.39,108.21 8.54,35.14 14.8,64.04 20.29,89.42 5.49,25.39 10.2,47.25 17.25,67.94 7.06,20.7 16.46,40.23 28.22,60.14 11.75,19.92 25.86,40.23 40.76,59.35 14.89,19.13 30.57,37.1 47.42,49.98 16.85,12.89 34.87,20.7 58.79,26.94 23.9,6.25 53.69,10.94 87.78,16.4 34.1,5.47 72.5,11.72 103.86,15.23 31.35,3.52 55.65,4.3 90.92,5.07 35.27,0.79 81.52,1.56 110.12,0 28.62,-1.56 39.58,-5.46 53.69,-14.05 14.1,-8.59 31.35,-21.87 49.38,-37.48 18.03,-15.62 36.85,-33.59 52.51,-55.06 15.68,-21.49 28.22,-46.48 39.99,-66.78 11.76,-20.31 22.73,-35.92 30.18,-51.93 7.44,-16.01 11.36,-32.41 16.84,-46.08 5.49,-13.66 12.55,-24.59 18.03,-31.64 5.49,-7.02 9.41,-10.15 54.08,-11.71 44.68,-1.56 130.12,-1.56 175.18,-1.17 45.07,0.39 49.77,1.17 58.4,10.93 8.61,9.76 21.16,28.51 34.09,39.84 12.94,11.32 26.26,15.22 62.7,29.28 36.45,14.05 96.01,38.27 130.91,52.32 34.87,14.06 45.07,17.97 52.51,26.56 7.44,8.59 12.14,21.86 18.8,35.14 6.67,13.28 15.29,26.55 30.97,40.61 15.67,14.06 38.41,28.9 56.44,41 18.02,12.11 31.35,21.48 47.42,27.72 16.06,6.25 34.87,9.37 75.64,10.54 40.76,1.18 103.46,0.4 157.93,-4.67 54.48,-5.08 100.72,-14.44 140.31,-25.38 39.58,-10.94 72.5,-23.43 96.01,-45.3 23.51,-21.87 37.62,-53.1 54.53,-115.19 16.93,-62.07 36.65,-155.02 46.5,-213.59 9.88,-58.57 9.88,-82.79 5.56,-105.08 -4.16,-21.56 -12.33,-41.32 -28.07,-63.12l6.55 0c-12.36,-40.04 -9.97,-111.76 -8.44,-157.73 6.61,-168.57 0.84,-350.62 0.95,-520.67 0.23,-341.94 -1.81,-696.77 1.88,-1037.32 0.5,-46.46 -4.89,-78.48 14.18,-117.73 19.88,-40.89 17.09,-67.32 17.14,-114.97 0.14,-131.01 -2.39,-112.34 -27.95,-238.36 -30.03,-147.94 -76.56,-147.61 -214.1,-177.3 -9.85,-2.13 -44.11,-7.96 -51.71,-11.45 -9.53,-4.39 -23.63,-26.65 -31.22,-35.97 -42.25,-51.86 -73.49,-106.99 -125.99,-134.77 -79.47,-42.05 -136.48,-11.26 -223.94,-11.31 -174.18,-0.12 -348.36,-0.01 -522.53,-0.02 -160.27,-0.01 -243.29,-13.5 -335.14,125.42 -7.52,11.41 -17.59,32.12 -25.09,41.14l-118.87 1.85c-19.91,1.49 -22.32,6.51 -30.94,-5.12 -0.27,-0.45 -0.21,-1.96 -0.19,-1.6 0,0.08 4.66,-1.07 0.06,-28.62 -0.88,-5.25 -0.94,-1.17 -0.26,-6.25 0.59,-4.35 3.89,-1.77 3.86,-18.57 -7.76,-11.45 -10.51,-6.57 -14.77,-17.43 -5.33,-13.54 1.33,-13.63 -6.21,-28.97 -20.44,-41.6 -136.78,-34.62 -173.11,-33.64 -39.2,1.07 -85.97,4.43 -121.9,13.88 -21.81,5.74 -26.87,17.8 -33.77,32.54 -10.51,22.42 -33.79,30.22 -5.42,40.39 -8.07,11.35 -26.19,22.89 0.13,31.06 -0.71,0.95 -2.06,0.91 -2.46,2.56 -1.58,6.65 -19.9,10.88 -3.61,29.52l-21.62 5.26 -2.68 39.33c-33.15,13.48 -80.51,7.54 -83.64,50.86 -5.9,81.81 8.77,176.45 -7.72,258.98 -13.63,68.22 -25.2,186.39 -10.94,254.88 9.77,46.93 31.84,52.34 31.56,101.61 -3.08,506.92 12.56,1016.33 -6.3,1522.57 -2,1.78 -3.87,3.88 -5.61,6.23 -17.72,24.02 -22.56,76.46 -23.83,115.61 -1.29,7.57 -1.08,17.04 -1.08,27.72z"/>
   </g>
  </g>
  <polygon class="fil2" points="-0,0 12486.28,0 12486.28,4495.06 -0,4495.06 "/>
 </g>
</svg>
